<svg width="73" height="90" viewBox="0 0 73 90" fill="none" xmlns="http://www.w3.org/2000/svg">
<path fill-rule="evenodd" clip-rule="evenodd" d="M72.552 90C72.074 87.0979 71.8008 84.1617 71.4936 81.2596C71.1521 78.1186 70.7424 74.7043 69.8889 71.6657C69.3426 69.6854 68.3866 67.9101 66.6454 66.7151C63.914 64.9056 60.5339 63.9837 57.3929 63.1643C53.569 62.1742 49.8475 61.2182 46.2284 59.5794C45.5797 59.3063 44.7261 58.8283 44.0092 58.7941C42.5069 58.6917 40.4584 60.9109 39.5365 61.9011C38.5464 62.9253 37.727 64.0862 36.3955 64.7348L36.1223 64.8714L35.9516 64.6324C34.8591 63.1985 33.152 61.4231 31.7521 60.3305C28.8159 58.043 29.2939 58.5893 25.948 59.9891C22.2948 61.5255 18.505 62.3449 14.647 63.335C11.6425 64.1203 8.22825 65.0763 5.87244 67.1931C4.26776 68.5929 3.34593 70.3683 2.83379 72.4168C1.36568 78.3234 0.273137 83.8544 0 89.9317L72.6202 90H72.552ZM2.11681 87.849C2.15095 86.5516 2.21924 85.2542 2.42409 83.991C2.83379 81.2255 3.27764 78.5283 3.61906 75.7286C4.19948 70.7439 5.46274 69.1733 9.69636 67.0565C12.4619 65.6567 16.5589 64.9056 19.5976 64.1203C21.1681 63.7106 22.7728 63.2667 24.3092 62.6863C25.948 62.0718 27.5527 61.1499 29.2598 60.8426L29.4988 60.8085L29.6353 60.9792C30.523 62.14 32.0594 63.0619 33.0837 64.2227C33.63 64.8373 35.5761 67.2955 36.4296 67.2955C36.9759 67.2955 37.6929 66.5785 38.0684 66.203C39.2293 65.0421 40.3218 63.813 41.4485 62.6522C44.453 59.6135 45.2383 61.4231 48.6183 62.6863C52.0667 63.9496 55.4126 64.769 58.9634 65.5884C61.0802 66.0664 63.6067 66.6468 65.348 68.0466C65.6553 68.3198 65.9625 68.5929 66.2357 68.9002C67.8745 70.778 68.4208 72.212 68.7963 74.7385C69.445 79.1087 69.5816 83.513 70.1279 87.8832L70.162 88.2929H69.7523C47.3209 88.6002 24.8896 88.566 2.49237 88.2588H2.11681V87.8832V87.849ZM62.5142 38.8893C62.4118 45.1031 61.0802 46.8102 54.6615 46.264L54.1152 46.2298L54.3542 45.7518C57.9391 38.3771 58.2806 32.4706 57.5977 24.3447C57.0173 17.5846 52.9202 13.1803 47.0478 10.2782C42.3021 7.92239 36.1565 7.54683 31.0352 8.60523C23.0118 10.2782 16.6613 15.3654 15.3639 23.7985C14.408 30.0806 15.0225 39.8794 18.4026 45.4104C22.8411 52.7168 30.4547 57.2577 39.1268 56.0969C43.6677 55.5165 47.8331 53.3655 51.0083 50.122C51.3497 49.7806 52.1691 48.6539 52.5105 48.4491C53.0227 48.1418 54.9346 48.2442 55.5492 48.2442C62.8215 48.1418 64.2896 45.9567 64.5286 38.8551V38.5137L64.87 38.4796C69.5133 38.2064 69.0353 35.0312 69.0353 31.378C69.0353 29.9099 69.1377 26.7688 67.9428 25.6421C67.2599 24.9934 65.9284 24.3789 65.0748 23.7643L64.9383 23.6619V23.4912C62.7532 1.26468 34.6542 -6.41729 18.0612 5.77144C14.0665 8.67352 11.2327 12.395 9.52565 17.0383C8.97937 18.5064 8.60381 19.9746 8.29653 21.4768C8.15996 22.0572 7.92097 23.4912 7.51126 23.935C6.93085 24.5155 5.94072 24.7886 5.25788 25.369C4.09705 26.3591 3.8922 28.0662 3.8922 29.5002C3.85806 31.6511 3.38007 35.9531 5.08717 37.4553C6.28215 38.5479 11.54 39.06 13.0081 38.2747C13.8617 37.5577 13.7251 26.4616 13.5544 24.9593C13.2813 23.5253 11.4035 24.0033 10.2768 23.9692H9.90121V23.5936C9.96949 21.5109 10.3792 19.4624 11.0962 17.5163C14.886 7.61511 26.1187 1.81096 36.3272 1.81096C49.3695 1.81096 61.8313 9.97092 63.0946 23.5936L63.1287 24.0033H62.719C62.1045 24.0033 60.1584 23.9009 59.6804 24.3447C59.2365 24.7544 59.2707 26.0177 59.2707 26.564C59.2707 28.6808 59.3731 30.8317 59.3731 32.9486C59.3731 33.7338 59.1341 37.5919 59.6804 38.1381C60.0901 38.5479 61.6606 38.4796 62.1728 38.4796H62.5483V38.8551L62.5142 38.8893ZM5.80416 29.8758C5.80416 25.7104 7.85268 25.9494 11.2327 25.9494H11.6083V36.4993H11.2327C9.7305 36.4993 7.68197 36.7042 6.28215 36.1579L6.04315 36.0555L5.80416 29.8416V29.8758ZM49.1988 48.8246C48.4135 50.2927 44.8969 52.273 43.3263 52.9217C35.6785 56.131 26.7333 53.6728 21.7827 47.0492C18.1295 42.1328 17.0369 37.865 17.0369 31.7194C17.0369 25.2666 16.5248 20.7598 21.2705 15.8092C22.1582 14.8874 23.1483 14.068 24.2067 13.351C27.4161 11.2342 31.24 10.1416 35.0639 9.93678C42.9166 9.52707 52.1691 13.0437 54.8322 21.0671C55.8223 24.0033 55.7199 27.0761 55.7199 30.1489C55.7199 37.865 55.3102 39.5038 51.7253 46.1274L51.6229 46.3323H39.9463L39.8438 46.1615C38.1367 43.635 32.1619 44.0106 32.5716 47.7321C32.6398 48.4149 32.913 48.9953 33.4593 49.4392C34.6201 50.3952 37.3856 50.4634 38.683 49.8489C38.9561 49.7123 39.4341 49.4733 39.6048 49.2002C39.7073 49.0636 39.7073 48.8929 39.8097 48.7563C40.117 48.2784 41.1754 48.3125 41.6534 48.2784C44.0092 48.2101 46.4333 48.2442 48.7891 48.2442H49.4036L49.0963 48.7905L49.1988 48.8246ZM61.6948 25.9494C64.2213 25.9494 66.8161 25.6421 67.0551 28.9198C67.1575 30.4562 67.7721 34.9971 66.3722 36.0896C65.4163 36.8066 62.8556 36.4993 61.6948 36.4993H61.3192V25.9494H61.6948Z" fill="#ED1C24"/>
</svg>
