<svg width="87" height="90" viewBox="0 0 87 90" fill="none" xmlns="http://www.w3.org/2000/svg">
<g clip-path="url(#clip0_287_435)">
<path fill-rule="evenodd" clip-rule="evenodd" d="M56.741 79.5324C57.1582 78.9226 57.415 78.2166 57.415 77.4784V76.8045L58.0889 76.7403C59.2122 76.644 60.0787 76.291 60.8489 75.4887C60.9131 75.4245 60.9773 75.3282 61.0415 75.2319C61.2983 74.9431 61.4266 74.6221 61.5871 74.2691C61.8438 73.6593 61.8118 73.1138 61.8118 72.4719V71.8942L62.3573 71.7658L86.1706 59.9555V39.512H83.7636L81.4208 40.7637C81.2603 40.86 81.0036 40.8279 80.8431 40.8279C80.6505 40.8279 80.3617 40.7637 80.137 40.6353C80.0087 40.5711 79.8482 40.5069 79.7198 40.4427C78.9175 40.0897 77.6017 39.833 76.7031 39.6083C75.7403 39.3516 74.7454 39.1269 73.7505 38.9023C73.4937 38.8381 73.0765 38.7097 72.8198 38.6776L72.1458 38.6134V36.6557L72.6272 36.5274L72.6593 36.4953L73.3012 35.9818C73.9751 35.4362 74.8096 34.3771 75.2589 33.6069C75.6119 32.965 75.9328 32.291 76.1575 31.585C76.3821 30.7826 76.5747 29.9482 76.5747 29.1138C76.5747 26.2254 76.7993 24.3961 75.5156 21.6681C74.617 19.8067 72.8198 17.9132 70.9263 17.1109C70.83 17.0788 70.7658 17.0146 70.6695 16.9825C70.1239 16.7258 69.4179 16.5332 68.8081 16.4048C68.0379 16.2444 67.2676 16.2123 66.4974 16.2123H65.5667L65.7913 15.3137C65.9197 14.7681 66.4011 13.8374 66.6258 13.2918C66.7862 12.9708 67.043 12.3932 67.2355 11.976C66.5295 11.3662 65.5667 10.3071 65.0853 9.7936C64.2829 8.99127 63.4806 8.18894 62.7104 7.3866L61.9722 6.68055C61.3624 6.16706 60.7527 5.33263 60.1429 4.81914C59.7257 5.07588 59.2122 5.42891 58.8592 5.68566C58.2815 6.07078 57.7038 6.4559 57.1261 6.84102L56.2917 7.3866C55.5536 7.9001 55.2326 7.51498 54.6228 7.22614C53.1466 6.48799 51.5419 5.74985 49.9372 5.39682L49.3595 5.26845V4.69076C49.3274 4.01681 49.0065 2.86144 48.846 2.15539C48.6856 1.44934 48.5572 0.743285 48.3967 0.0372314H38.2873L37.5813 3.43913C37.5171 3.79215 37.3245 4.30564 37.3245 4.65867V5.23635L36.7469 5.36472C36.2655 5.461 35.8162 5.65356 35.3989 5.78194L34.0189 6.29543C33.5696 6.48799 33.1524 6.64846 32.7352 6.87311L31.4194 7.54707L31.3873 7.57916C31.0021 7.70754 30.7133 7.61126 30.4245 7.4187C29.2049 6.55218 27.9212 5.81403 26.6696 4.9796C26.6375 4.94751 26.6054 4.94751 26.5733 4.91542L19.5127 11.9439C19.93 12.8425 20.3151 13.8695 20.6681 14.7681C20.7323 14.8964 20.7644 15.0569 20.8286 15.1853L21.4062 16.2444H20.1867C18.1327 16.2444 16.2071 16.6295 14.5062 17.7848C13.2866 18.5872 12.2917 19.6142 11.5215 20.8337C11.361 21.0905 11.2327 21.3472 11.1043 21.636C10.5266 22.7593 10.1415 24.2356 10.1415 25.4872V29.1459C10.1415 29.9803 10.334 30.8147 10.5587 31.6171C10.8475 32.6762 11.361 33.6069 12.0029 34.4734C12.388 34.9869 12.8694 35.5646 13.3829 35.9818C13.5434 36.1101 13.6718 36.2064 13.8001 36.3348C13.8643 36.399 13.9606 36.4953 14.0248 36.5274L14.5383 36.6557V38.6134L13.8643 38.6776C12.8694 38.7739 10.1094 39.9292 9.33915 39.5441H9.30706L8.601 39.1269C8.37635 38.9985 8.1517 38.8702 7.95914 38.7418C7.86286 38.6776 7.73448 38.6134 7.6382 38.5492L5.61632 37.3618C5.13492 37.0729 4.33259 36.5274 3.85119 36.3348H-0.0321045V65.6681L10.5587 68.8453C11.1043 69.0379 11.7461 69.2626 12.2596 69.3909C13.0941 69.6798 14.1532 69.6798 14.5383 68.1393L15.3085 68.2035C15.822 68.2356 16.3355 68.6849 16.7527 68.9416L18.9351 70.2574C19.1276 70.3858 19.3202 70.4821 19.5127 70.6105C19.6732 70.7067 19.8658 70.8351 20.0583 70.9314L20.4434 71.124V71.5733C20.4434 72.3114 20.6681 73.0175 21.1174 73.6273C21.5667 74.237 21.9839 74.6221 22.6579 74.9431C23.043 75.1356 23.6849 75.2961 24.1021 75.2961H24.8402V76.0342C24.8402 76.7403 25.1612 77.5105 25.5463 78.0882C26.1882 79.0189 27.3435 79.725 28.531 79.725H29.2049L29.2691 80.3989C29.3333 81.1371 29.5259 81.8431 29.9431 82.4529C30.1356 82.7418 30.3603 82.9664 30.617 83.1911C30.7133 83.2552 30.7775 83.3194 30.8417 83.3836C31.4835 83.865 32.1896 84.1218 32.9919 84.1218H33.7301V84.8599C33.7301 85.3413 33.9226 86.0153 34.1152 86.4325C34.2436 86.7213 34.4682 87.0102 34.6929 87.2669C34.8854 87.5237 35.1422 87.7162 35.3989 87.9088C36.5543 88.7111 38.0948 88.8074 39.3464 88.1655C39.5711 88.0371 39.7957 87.9088 40.0525 87.8446L40.3734 87.7804L40.6301 87.973C40.9511 88.1976 41.2399 88.4865 41.5288 88.7432C41.5929 88.8074 41.6571 88.8716 41.7213 88.9358C42.4274 89.5455 43.1655 90.059 44.1283 90.059H44.3851C45.1232 90.059 45.6688 90.0269 46.3428 89.706C47.113 89.3209 47.7228 88.7111 48.1079 87.9409C48.3326 87.5237 48.4609 86.8497 48.4609 86.3683V85.6302H49.1991C50.0335 85.6302 50.9 85.3413 51.5098 84.7957C51.7986 84.5069 51.9912 84.3464 52.2158 84.0255C52.3442 83.8329 52.4405 83.6404 52.5689 83.4478C52.6651 83.2873 52.7614 82.9664 52.7935 82.7738C52.8256 82.6455 52.8577 82.5171 52.8577 82.3887C52.8577 82.2283 52.8898 82.0678 52.8898 81.9394L52.9219 81.2334H53.6279C54.0452 81.2334 54.687 81.0729 55.0722 80.9124C55.361 80.752 55.6819 80.6236 55.9066 80.3989L56.6447 79.5966L56.741 79.5324ZM44.6097 83.2873C44.9627 83.3836 45.7651 84.0897 46.0539 84.3464C46.3428 84.6032 46.4711 84.6674 46.6637 85.0204C47.9153 86.946 45.8293 89.1925 43.5827 88.2939C43.0692 88.1013 42.8446 87.7162 42.4274 87.4274C42.2669 87.299 42.1385 87.1706 41.9781 87.0423L41.3683 86.625L41.7855 86.0153C42.2669 85.2771 43.1334 84.8278 43.5827 83.9934C43.6469 83.865 43.7111 83.7366 43.7753 83.6083L44.0641 83.0948L44.6418 83.2552L44.6097 83.2873ZM37.7738 87.0102C36.7469 87.0102 35.9766 86.625 35.5273 85.6622C35.3668 85.3092 35.3027 85.0204 35.3027 84.6353C35.3027 83.7687 35.6236 83.3194 36.2013 82.7418C36.6185 82.3245 37.0357 81.9073 37.4529 81.458C37.8059 81.105 38.4799 80.3669 38.8971 80.078C40.3413 79.1152 42.3311 79.9175 42.5878 81.6827C42.7483 82.8701 42.2348 83.4157 41.4646 84.186C40.9832 84.6674 40.5018 85.1488 40.0204 85.6302C39.3785 86.272 38.8008 86.9781 37.7738 86.9781V87.0102ZM33.3129 82.5813C32.0612 82.5813 30.8738 81.6506 30.8738 80.3348C30.8738 79.051 31.3873 78.6659 32.2217 77.8636C32.7031 77.3822 33.1845 76.9008 33.6659 76.4194C34.404 75.6812 35.0138 75.1035 36.1371 75.264C36.6827 75.3282 37.132 75.5528 37.5171 75.938C38.3194 76.7403 38.3836 77.8957 37.838 78.8585C37.5171 79.4361 35.752 81.0408 35.1743 81.5864C34.6287 82.132 34.1794 82.5492 33.345 82.5492L33.3129 82.5813ZM28.8198 78.1524C28.2421 78.1524 27.7286 77.9598 27.2793 77.6068C26.3486 76.8687 26.2202 75.3924 26.8942 74.4296C27.183 74.0124 27.8891 73.3705 28.2742 72.9854C28.6914 72.5682 29.1407 72.151 29.558 71.7337C30.1035 71.1882 30.6491 70.8351 31.4515 70.8351C32.671 70.8351 33.8264 71.8621 33.8264 73.1138C33.8264 74.1087 33.5375 74.4938 32.8636 75.1677C32.2217 75.8096 30.7133 77.4784 30.0714 77.8315C29.6863 78.024 29.3333 78.1524 28.884 78.1524H28.8198ZM24.3909 73.7235C22.1765 73.7235 21.1816 71.1561 22.9146 69.423C23.2677 69.07 23.6207 68.717 23.9737 68.3639C24.8081 67.5295 25.6747 66.3742 26.9584 66.3742C27.857 66.3742 28.7235 66.9197 29.1086 67.7542C29.6221 68.8132 29.1728 69.9044 28.4026 70.6747C27.6644 71.4128 26.3807 72.857 25.6105 73.3705C25.2895 73.5631 24.7439 73.7235 24.3909 73.7235ZM58.3136 54.5959C58.474 54.4996 58.6987 54.4033 58.8592 54.3071L66.0481 50.52L84.6943 41.0525V58.9927L61.2662 70.6105L60.9131 70.3858C60.7848 70.2895 60.6885 70.1933 60.5922 70.097C60.528 70.0328 60.4317 69.9686 60.3675 69.9044L58.1531 67.9146C58.0889 67.8504 58.0247 67.7863 57.9605 67.7221L57.9285 67.69L55.2647 65.283C55.1684 65.1867 55.1042 65.1225 55.008 65.0262L47.6907 58.4792C47.5302 58.3829 47.4018 58.2866 47.2414 58.1903C46.8242 57.9657 46.5353 57.8373 46.086 57.709C44.8023 57.3238 43.4223 57.4843 42.2348 58.0941C42.0743 58.1904 41.9139 58.2866 41.7534 58.3829L37.9664 60.6615C37.2603 61.0788 36.0729 61.9132 35.2706 61.9132C34.3399 61.9132 33.7301 61.7848 33.0561 61.0788C31.997 59.9234 32.0933 57.8052 33.345 56.8424C33.8264 56.4894 34.4682 56.2327 35.0138 55.9438C36.0729 55.4303 37.0999 54.8847 38.159 54.3712C39.186 53.8578 40.245 53.3443 41.272 52.7987C42.7162 52.0926 43.5827 51.6433 45.2516 51.6433C46.439 51.6433 47.3698 51.9642 48.493 52.2852C49.4237 52.5419 50.3865 52.8308 51.3172 53.0875C52.28 53.3443 53.2107 53.6331 54.1735 53.8898C54.6228 54.0182 55.1042 54.1466 55.5856 54.275C56.9977 54.6601 56.5805 54.4354 57.8964 54.5317C58.0247 54.5317 58.2173 54.5638 58.3457 54.5638L58.3136 54.5959ZM50.8679 63.3574C50.9642 63.4537 51.0605 63.5178 51.1568 63.6141L56.4201 68.3639C56.5163 68.4602 56.6126 68.4923 56.6768 68.5886L57.5754 69.423V69.4551C57.7038 69.5835 57.8964 69.7119 58.0247 69.8723C58.0889 69.9365 58.121 69.9686 58.1852 70.0007C58.6024 70.3216 59.6615 71.2844 59.9503 71.6696C60.881 73.1138 59.8862 75.2319 58.121 75.2319C57.0619 75.2319 56.6768 75.0714 55.9387 74.3975L55.1363 73.7235C55.0401 73.6593 54.9438 73.5631 54.8796 73.4989C54.687 73.3384 54.5266 73.21 54.334 73.0496C54.1414 72.9212 53.981 72.7607 53.7884 72.6003L52.6972 71.7016C51.9591 71.0919 51.253 70.4821 50.5149 69.8723C50.0977 69.5193 49.4558 68.9416 48.9423 68.4923C48.7498 68.717 48.5572 68.9095 48.3967 69.1021C48.2363 69.2946 48.0758 69.4551 47.9153 69.6477C48.4609 70.097 49.0386 70.6426 49.4879 71.0277L54.8475 75.4887C55.1042 75.6812 55.2968 75.8417 55.4894 76.1305C56.0991 76.997 56.0029 78.2487 55.2647 79.0189C54.6228 79.6929 54.1094 79.6929 53.2428 79.6929C52.28 79.6929 51.6061 78.9547 50.9321 78.4092L46.0218 74.3012C45.5725 73.884 44.9948 73.3705 44.4493 72.9533C44.4493 72.9533 44.4493 72.9533 44.4493 72.9854C44.1283 73.3705 43.7753 73.7556 43.4544 74.1407L45.6046 75.938C47.2414 77.2859 48.846 78.6659 50.4828 80.0138C51.0926 80.5273 51.4777 81.0729 51.4777 81.9073C51.4777 83.0627 50.5791 84.1539 49.3595 84.1539C48.0758 84.1539 47.6586 83.8329 46.7279 83.0627L44.032 80.8483C43.8395 80.6878 43.7432 80.5594 43.6148 80.3348C42.973 79.0831 41.6892 78.4091 40.3413 78.2808L39.6994 78.2166V77.5426C39.6994 77.3501 39.6353 76.997 39.5711 76.8045C39.5069 76.5477 39.4427 76.3231 39.3143 76.0984C38.9934 75.4887 38.6404 74.9431 38.0627 74.558C37.6455 74.2691 37.2603 74.0766 36.7789 73.9482C36.6506 73.9161 36.5222 73.884 36.3938 73.8519C35.0138 73.6593 35.3668 73.2742 35.1422 72.3435C34.9496 71.6375 34.6287 71.0598 34.1152 70.5463C33.4091 69.8402 32.5426 69.3909 31.5477 69.3909H30.8096V68.6528C30.8096 65.8928 27.5682 64.0634 25.1612 65.3793C24.1342 65.9249 22.69 67.5937 21.8235 68.4281C21.5988 68.6528 21.4383 68.8132 21.2779 69.07L20.9248 69.6156L20.3472 69.2946C20.1546 69.1984 19.93 69.07 19.7374 68.9416C18.4216 68.1393 17.0415 67.4011 15.7578 66.5667L15.4048 66.3421L15.4369 65.9249C15.469 65.5718 15.6615 64.962 15.7578 64.609C15.9825 63.8388 16.175 63.0685 16.3997 62.2983C16.7206 61.1429 17.0736 59.9876 17.4267 58.8322C17.7476 57.6769 18.1006 56.5215 18.4216 55.3661C18.582 54.7885 18.7425 54.2108 18.903 53.6331L19.5448 51.4187L20.0583 51.3866C20.5397 51.3545 21.0853 51.1619 21.5667 51.0656L26.4128 49.9745C30.3603 49.14 32.9919 48.2735 37.0678 49.2684C37.6134 49.3968 38.159 49.5572 38.6725 49.7498C39.7957 50.1349 40.8869 50.488 42.0102 50.841L40.1808 51.7396C40.0204 51.8038 39.7315 51.9642 39.5711 52.0284C39.3143 52.1568 39.0576 52.2852 38.8008 52.4136L34.2436 54.6922C32.7673 55.4303 31.6119 55.8796 31.0021 57.5164C30.8096 58.062 30.6812 58.6397 30.6812 59.2173C30.6812 60.3085 31.0663 61.4639 31.8366 62.2341C32.0933 62.4909 32.3822 62.7476 32.7031 62.9402C33.4412 63.4216 34.2436 63.5499 35.1422 63.5499C35.9766 63.5499 36.6506 63.229 37.3566 62.8118C38.0627 62.3946 38.8008 61.9453 39.5069 61.5281C40.5339 60.9183 42.4595 59.5704 43.5186 59.2815C44.3851 59.0248 45.38 59.1532 46.2144 59.5704C46.4711 59.6987 46.6637 59.795 46.8884 59.9876C47.3698 60.3727 47.787 60.822 48.2684 61.2071L48.3005 61.2392L50.8037 63.5178L50.8679 63.3574ZM9.66008 66.8556L8.82566 66.7914L14.4099 44.5186L15.1159 44.6791C15.5332 44.7753 16.9132 45.674 17.3946 45.9307C17.523 46.027 17.6834 46.0912 17.8118 46.1554C17.9402 46.2516 18.1006 46.3158 18.229 46.38C18.2932 46.4121 18.4216 46.5084 18.4858 46.5405L19.0634 46.6688V47.2465C19.0634 47.9526 18.9671 48.1451 18.7746 48.787C18.6462 49.2042 18.5178 49.5893 18.4216 50.0066C17.7797 52.5098 17.0095 54.9489 16.3034 57.4201C15.8541 59.0569 15.3727 60.7257 14.8913 62.3625L13.8322 66.0532C13.768 66.2458 13.7038 66.4383 13.6718 66.663C13.5434 67.1444 13.415 67.7863 12.741 67.7863C12.3559 67.7863 11.4573 67.4011 11.0401 67.2728C10.6229 67.1444 10.0773 66.9197 9.69218 66.8235L9.66008 66.8556ZM7.38146 66.3421L1.54047 64.5448V37.8432H2.27862C3.97956 37.8432 3.53026 37.8753 5.00655 38.7097L13.1262 43.4595L7.38146 66.3742V66.3421ZM47.0488 35.9497V39.6404C48.0758 39.8972 49.0707 40.1539 50.0977 40.4106C50.9642 40.6353 51.8628 40.8279 52.7293 41.0525C53.5959 41.2772 54.6549 41.5018 55.5215 41.7907C55.8424 41.919 56.0991 42.0474 56.388 42.2079C56.5163 42.3041 56.6768 42.3683 56.8052 42.4967C58.0247 43.4595 58.8271 44.9037 58.8271 46.4763V52.0605C58.8271 53.0554 57.6717 53.0554 56.9657 53.0554C56.4843 53.0554 55.5536 52.7345 55.0722 52.574C53.66 52.1568 52.28 51.7717 50.8679 51.3545C49.6484 51.0014 47.8512 50.3917 46.5995 50.2312C45.7651 50.1028 45.5083 50.167 44.6097 49.8782C42.4274 49.14 40.245 48.434 38.0306 47.7921C36.8752 47.4391 35.6236 47.2786 34.4361 47.1823C33.4412 47.0861 32.4464 47.1823 31.4836 47.2786C30.9059 47.3428 29.4296 47.5354 28.9482 47.7279L27.9212 48.2093V47.054C27.9212 45.5456 28.21 44.1977 29.3333 43.1065C29.8468 42.6251 30.2319 42.3042 30.8738 41.9832C31.4835 41.6944 32.1896 41.566 32.8315 41.4055C35.1422 40.8279 37.4208 40.2181 39.7315 39.6725V35.9818C39.218 35.6929 38.6083 35.2436 38.3194 35.019C37.7417 34.5376 37.3245 34.0883 36.8752 33.4785C35.9445 32.2589 35.3348 30.4296 35.3348 28.8891V25.6798C35.3348 22.5988 37.1641 19.8709 39.892 18.4909C41.5288 17.6565 43.7753 17.4639 45.5083 17.9774C49.0386 19.0365 51.5098 22.3421 51.5098 26.0328V28.9212C51.5098 29.8198 51.3172 30.6222 51.0284 31.4566C50.3544 33.4464 48.9744 34.8585 47.1772 35.8855C47.1451 35.9176 47.113 35.9176 47.0809 35.9497H47.0488ZM63.3522 39.6404V35.9497C63.3201 35.9497 63.288 35.9176 63.288 35.9176C63.1276 35.8213 62.935 35.725 62.7746 35.6287C60.1108 33.8957 58.8913 31.4887 58.8913 28.3115C58.8913 25.7119 58.7308 23.3691 60.3996 21.1226L61.0415 20.3202L61.0736 20.2881C62.4857 18.8439 64.5718 17.7207 66.6258 17.7207C68.1341 17.7207 69.0969 17.849 70.477 18.523C71.7286 19.1328 72.8519 20.1277 73.6221 21.283C74.4565 22.5668 75.0984 24.1714 75.0984 25.744V29.1459C75.0984 31.2961 73.7826 33.7994 72.0816 35.0832C71.7928 35.3078 71.5039 35.5004 71.183 35.6929C71.0225 35.7892 70.8621 35.8855 70.6695 35.9818V39.6725L79.2705 41.8869L72.563 45.3851C71.0546 46.1874 69.5783 47.0219 68.0379 47.7921C67.8774 47.8563 67.7169 47.9526 67.5885 48.0168C67.396 48.113 67.2034 48.2093 67.043 48.3056L66.0481 48.8191C65.8876 48.9154 65.695 49.0117 65.5346 49.1079L63.0313 50.4238C62.8708 50.52 62.7104 50.5842 62.5499 50.6805C62.1969 50.8731 61.8759 51.0335 61.5229 51.2261L60.4638 51.8038V50.5842C60.4638 48.9796 60.6243 46.8614 60.3034 45.3209C60.175 44.6791 59.9503 44.0693 59.6294 43.4916C59.2122 42.7535 58.8913 42.4967 58.474 41.8869L57.8964 41.0204L63.4164 39.6725L63.3522 39.6404ZM23.4281 35.9497V39.6404L29.0124 41.0204L28.3384 41.919C28.0496 42.3042 27.7607 42.593 27.4719 43.0102C27.2151 43.3953 26.9905 43.8125 26.83 44.2618C26.3807 45.4493 26.3807 46.4121 26.3807 47.6637V48.2414L20.1225 49.6535L20.3793 48.5303C20.4114 48.3698 20.4755 48.1772 20.4755 47.9847L20.5076 45.9628C20.3151 45.8344 20.1225 45.7381 19.93 45.6098L15.0518 42.7535C14.7308 42.5609 14.4099 42.3683 14.089 42.1758C13.9285 42.0795 13.768 41.9832 13.5755 41.8869L11.0401 40.2823L13.4792 40.2181C13.6397 40.2181 13.9927 40.0897 14.1531 40.0576L16.1108 39.5762V35.8855C15.3085 35.372 14.795 35.1473 13.9927 34.3129C12.709 33.0292 11.7141 30.8789 11.7141 29.0496V25.3268C11.7141 24.7491 11.8103 24.2035 11.9708 23.6579C12.1955 22.7272 12.6448 21.8286 13.1904 21.0584C13.7359 20.3202 14.3457 19.6784 15.0839 19.1328C16.2392 18.2983 17.9402 17.6565 19.3844 17.6565C20.989 17.6565 21.9839 17.8169 23.396 18.5551C23.8453 18.7797 24.2305 19.0686 24.6477 19.3895C25.0328 19.7104 25.45 20.0635 25.7709 20.4486C25.8351 20.5449 25.9314 20.6091 25.9956 20.7053C26.5733 21.4756 26.9263 22.0854 27.3114 23.0161C27.9854 24.6849 27.8891 26.4821 27.8891 28.2473C27.8891 30.1087 27.504 31.6492 26.477 33.1896L26.4449 33.2217L25.9635 33.8636L25.9314 33.8957C25.2574 34.6338 24.8723 34.9869 24.0379 35.5646C23.8453 35.6929 23.6207 35.8213 23.4281 35.9176V35.9497ZM36.0729 34.9227L37.0678 35.9176C37.2604 36.1101 37.5813 36.399 37.8059 36.5274L38.1911 36.7199V38.4529L33.2487 39.6725C33.024 39.7367 32.7673 39.8009 32.5426 39.8651C31.5477 40.1218 31.7082 40.1218 30.7133 39.8651C30.4887 39.8009 30.2319 39.7367 30.0073 39.6725L26.3486 38.7418C26.1561 38.7097 25.8993 38.5813 25.7068 38.5813L25.0328 38.5171V36.5594L25.5142 36.4311C25.8351 36.2706 26.6054 35.4683 26.8942 35.1794C28.3063 33.7673 29.4296 31.0715 29.4296 29.0496V25.6156C29.4296 24.8775 29.2691 24.1393 29.0766 23.4012C28.9803 23.0802 28.884 22.7593 28.7556 22.4384C28.21 21.0584 28.0496 21.3472 28.884 19.903C29.3654 19.0686 29.8789 18.4588 30.4566 17.6886C30.5528 17.5602 30.6812 17.4318 30.7775 17.3034C31.4836 16.4048 33.0882 15.089 34.0831 14.4471C39.6353 10.8206 46.2786 10.7243 52.0233 14.0299C53.4033 14.8323 54.7191 15.9555 55.8424 17.1109C56.5805 17.8811 57.7038 19.4216 58.1852 20.3844C58.6987 21.4114 58.2494 21.5077 57.9285 22.4705C57.6396 23.3049 57.3829 24.3319 57.3829 25.2305V29.0175C57.3829 30.8147 58.1852 32.9008 59.2443 34.3129C59.6615 34.8585 60.1108 35.4041 60.6243 35.8534C60.7848 36.0139 61.1057 36.2706 61.2983 36.399L61.7797 36.5274V38.3888L56.0991 39.8009C54.7833 40.1218 54.8154 39.9292 53.5638 39.6404L48.5893 38.4209V36.6878L48.9744 36.4953C49.1991 36.3669 49.52 36.078 49.6805 35.9497L50.8679 34.7301C51.6061 33.8957 52.3442 32.3873 52.6331 31.2961C53.1145 29.5631 52.9861 27.9584 52.9861 26.1933C52.9861 23.7542 51.9912 20.9621 50.2582 19.229C50.0335 19.0044 49.8409 18.8118 49.6163 18.5872C49.1028 18.0737 48.14 17.4639 47.466 17.1109C45.0911 15.9234 42.6199 15.8913 40.1488 16.6937C39.8599 16.79 39.5711 16.9183 39.2822 17.0467C38.3836 17.4318 36.8752 18.523 36.2655 19.2932C35.9766 19.6463 35.6878 19.9351 35.431 20.3202C35.2706 20.5449 35.1101 20.7695 34.9817 21.0263C34.9496 21.0905 34.9175 21.1867 34.8533 21.2509C34.0831 22.6309 33.7301 24.2356 33.7301 25.8082C33.7301 28.7608 33.5054 30.9752 35.1101 33.6069C35.3989 34.0883 35.6878 34.4734 36.0408 34.8906L36.0729 34.9227ZM31.0663 9.53686C31.2268 9.44058 31.4194 9.3122 31.5798 9.21592L32.4784 8.70243C34.2757 7.64335 36.4901 6.9373 38.5441 6.4238L39.218 3.24656C39.2501 3.054 39.3143 2.86144 39.3464 2.63679C39.3785 2.50842 39.4427 2.31586 39.4427 2.15539V1.41724H47.3698V2.15539C47.3698 2.28376 47.4339 2.47632 47.466 2.63679L48.2363 6.39171C49.6163 6.71265 50.9963 7.09777 52.28 7.67545C53.307 8.12475 54.2377 8.57406 55.2005 9.18383C55.361 9.28011 55.5536 9.40849 55.714 9.50477C55.7461 9.47267 55.7782 9.44058 55.8424 9.40849L58.9554 7.3866C59.2122 7.22614 59.4048 7.03358 59.6936 6.96939L60.1108 6.87311L65.4062 12.1364L65.2778 12.5536C65.1495 12.9708 63.6411 16.5011 63.4485 16.7258C63.256 16.9504 62.6462 17.1751 62.3573 17.3355C62.229 17.4318 62.0685 17.496 61.908 17.5923C61.4908 17.849 61.1057 18.1379 60.7206 18.4909C60.4959 18.6835 60.2392 18.9723 60.0145 19.1328L59.3406 19.5821L58.9554 18.876C58.5703 18.1379 57.8964 17.3997 57.3829 16.7258C57.0619 16.3406 56.6447 15.9234 56.2596 15.5704C55.2326 14.5434 54.1093 13.6769 52.8577 12.9388L51.8628 12.3932C51.1568 12.008 50.4828 11.7192 49.7447 11.4304C46.9204 10.3071 43.5186 9.98617 40.5339 10.4676C37.8701 10.8848 35.3989 11.8476 33.1203 13.356C32.4143 13.8374 31.3873 14.5755 30.8096 15.1853C29.8147 16.1802 29.1086 16.9183 28.2742 18.0737C28.1779 18.2021 28.0817 18.3625 27.9854 18.4909C27.9212 18.5872 27.8249 18.7156 27.7607 18.8439L27.504 19.8067L26.6375 19.229C26.4449 19.1007 26.3165 18.9723 26.1561 18.8118C25.8672 18.523 25.45 18.2021 25.097 17.9453C24.8402 17.7528 24.5835 17.5923 24.3267 17.4318C24.0379 17.2393 23.5244 17.0788 23.2998 16.8541L23.1714 16.7579L22.69 15.6346C22.337 14.7681 21.6309 13.3881 21.4383 12.5536L21.3421 12.1685L26.7016 6.77683L30.3282 9.11965C30.4887 9.21593 30.6491 9.3443 30.8096 9.44058C30.8738 9.47267 30.9059 9.50477 30.9701 9.53686H31.0663Z" fill="#ED1C24"/>
</g>
<defs>
<clipPath id="clip0_287_435">
<rect width="86.1706" height="90" fill="white"/>
</clipPath>
</defs>
</svg>
