<svg width="81" height="100" viewBox="0 0 81 100" fill="none" xmlns="http://www.w3.org/2000/svg">
<path d="M51.5347 81.7734H41.3793C40.432 81.7734 39.6741 81.3566 39.1815 80.7503C38.8405 80.3335 38.651 79.8409 38.5373 79.3104C38.4615 78.8178 38.4615 78.2494 38.6131 77.7568C38.8405 76.961 39.4089 76.2032 40.2804 75.8621C41.0383 75.559 42.0235 75.559 42.9708 75.559H44.8276C47.177 75.5969 51.5726 75.6348 52.2925 75.4453C52.9746 75.2937 53.5809 74.9527 54.0735 74.498C54.6419 73.9675 55.0966 73.2854 55.324 72.5654C55.5513 71.8454 55.6271 71.0497 55.4377 70.2918C55.2861 69.6855 55.0208 69.0792 54.5661 68.5487C53.202 66.9572 51.3452 66.9951 49.2232 67.0709C48.6927 67.0709 48.1622 67.1088 47.859 67.1088H46.1917C42.7435 67.1467 35.468 67.1846 34.9375 67.033H34.8996L33.9523 66.692L33.6112 66.5783C31.1482 65.7446 29.2156 65.0626 26.3736 65.0626C24.6684 65.0626 23.0011 65.3278 21.4475 65.8204C19.856 66.313 18.3024 67.0709 16.9003 68.0561C16.4077 68.3972 15.953 68.7761 15.4983 69.155C15.0436 69.534 14.6268 69.9508 14.2099 70.4055C13.9826 70.6329 13.7552 70.8602 13.49 71.1255C13.3005 71.3149 13.111 71.5044 12.8458 71.7697L3.63774 81.2808L3.03145 81.925C6.59341 85.5249 10.2311 89.1247 13.7552 92.8004C14.3615 93.3687 14.892 93.8992 15.4604 94.5055C15.9151 94.9981 16.3698 95.4908 16.9003 95.9076C17.2793 96.2486 17.6203 96.6276 17.9613 97.0065L18.3403 97.4612L19.0981 96.6655L21.978 93.6719C22.6601 92.9519 22.6601 92.9519 23.4937 92.9898H23.8348H48.6927C50.4737 92.9898 51.9894 92.8761 53.3157 92.4972C54.6419 92.1183 55.8924 91.512 57.1807 90.5268C57.9765 89.8826 58.2797 89.5415 58.6207 89.1626C58.8102 88.9352 58.9996 88.7079 59.2649 88.4426C59.3407 88.3669 59.3786 88.329 59.4164 88.2532C59.7196 87.95 60.0227 87.5332 60.288 87.2301C60.3638 87.1543 60.3638 87.1543 60.4017 87.1164C60.4017 87.0785 60.4396 87.0406 60.5532 86.9269C60.7048 86.6996 61.1216 86.2827 61.3111 86.0554C61.349 86.0175 61.3869 85.9796 61.3869 85.9417C61.4248 85.8659 61.5006 85.7901 61.5764 85.6764C61.6142 85.6007 61.69 85.5249 61.7658 85.487C61.8037 85.4491 61.8416 85.4112 61.9174 85.3354L63.3194 83.706L63.3952 83.5923C63.471 83.4786 63.5468 83.4029 63.6605 83.2892L66.7298 79.6893C66.9572 79.4241 67.2603 79.0451 67.5635 78.7041C67.9803 78.2494 68.3592 77.7947 68.7382 77.3021C69.2687 76.62 69.9507 75.8621 70.5191 75.18C70.6328 75.0664 70.6707 75.0285 70.7844 74.8769C71.2391 74.3085 71.7696 73.7401 72.2243 73.1717C72.7169 72.5654 73.2095 71.997 73.7022 71.4665C74.2327 70.8602 74.7632 70.2539 75.2558 69.6097C75.3695 69.4582 75.4831 69.3445 75.5589 69.2687L75.6726 69.155C75.8242 68.9656 76.0515 68.7003 76.2789 68.4351C77.302 67.2225 78.0599 66.313 78.0599 64.3805C78.0599 63.9258 77.9841 63.509 77.8704 63.13C77.7188 62.7511 77.5294 62.3722 77.302 62.0311C77.1125 61.728 76.8852 61.4627 76.6199 61.2354C75.8621 60.5912 74.9147 60.2501 73.9674 60.2122C72.9822 60.1744 72.0349 60.4396 71.2391 61.008C70.9738 61.1975 70.7086 61.4627 70.4812 61.728L70.4055 61.8417C70.3297 61.9553 70.2539 62.069 70.1023 62.1827L61.5385 72.1107C61.5006 72.1486 61.5385 72.3759 61.5385 72.6412C61.5385 72.8686 61.5006 73.0959 61.4627 73.3233C61.3869 73.778 61.2732 74.1569 61.1595 74.5359C61.0458 74.9148 60.8943 75.2937 60.7427 75.6348C60.629 75.9379 60.5153 76.1274 60.3638 76.3547L60.2122 76.62C59.4164 78.1357 58.0902 79.462 56.5745 80.3714C55.0587 81.3187 53.2778 81.8492 51.6105 81.8492L51.5347 81.7734ZM41.3793 79.6514H51.5347C52.823 79.6514 54.2251 79.1967 55.4377 78.4388C56.6502 77.681 57.7113 76.6579 58.3175 75.4832L58.507 75.1421C58.5828 74.9906 58.6965 74.839 58.7723 74.6495C58.9238 74.3085 59.0375 74.0432 59.1133 73.7401C59.227 73.437 59.3028 73.0959 59.3786 72.7549C59.3786 72.6412 59.4164 72.4896 59.4164 72.3381C59.4543 71.7318 59.5301 71.0497 59.9848 70.5571L68.5866 60.5912C68.6624 60.5154 68.6624 60.5154 68.7003 60.4775L68.8518 60.2501C69.1929 59.8333 69.5718 59.4544 70.0265 59.1512C71.2012 58.3176 72.6411 57.9008 74.0432 57.9766C75.4452 58.0523 76.8473 58.545 77.9462 59.4923C78.3251 59.8333 78.704 60.2123 79.0072 60.7049C79.3482 61.1975 79.6514 61.728 79.8408 62.2964C80.0303 62.9027 80.1819 63.5468 80.1819 64.2668C80.1819 66.9951 79.2346 68.1319 77.8704 69.6855C77.7188 69.875 77.5294 70.0645 77.302 70.3676C77.2262 70.4813 77.1504 70.5571 77.0746 70.6329C77.0368 70.6708 76.9989 70.7087 76.961 70.7465C76.4305 71.4286 75.8621 72.0728 75.2937 72.717C74.8011 73.2475 74.3084 73.8159 73.8916 74.3843L73.8537 74.4222L72.4896 76.0137C72.338 76.2032 72.3001 76.2411 72.1106 76.4305L70.4434 78.401C70.0644 78.8936 69.6476 79.3862 69.1929 79.8788C68.9276 80.1819 68.7003 80.4472 68.3971 80.8261C67.3361 81.925 66.2751 83.365 65.252 84.5396C65.2141 84.5775 65.1762 84.6154 65.1762 84.6533C65.1383 84.7291 65.0625 84.8049 64.9867 84.9186L63.6605 86.4722C63.5468 86.6238 63.471 86.6996 63.3573 86.8132L63.2436 86.9269C63.2058 86.9648 63.1679 87.0027 63.1679 87.0406C63.0921 87.1543 63.0542 87.2301 62.9405 87.3437L62.2205 88.1395L62.1447 88.2153C62.069 88.329 61.9932 88.4047 61.8416 88.5563L61.1974 89.3142L61.1216 89.39C61.008 89.5036 60.9701 89.5794 60.8185 89.7689C60.5911 89.9963 60.4396 90.1857 60.2501 90.3752C59.8333 90.8678 59.4543 91.3225 58.507 92.0425C56.9913 93.2172 55.5135 93.9371 53.9219 94.3919C52.3683 94.8087 50.701 94.9603 48.7685 94.9603H23.9106H23.4937C23.4559 94.9603 23.5316 94.9603 23.4937 94.9981C22.3948 96.0971 21.3338 97.2338 20.2728 98.3706C19.856 98.8254 19.3634 99.3559 18.9845 99.6211L18.4161 100L17.8477 99.6211C17.3172 99.2422 16.9003 98.7875 16.4835 98.2948C16.2183 97.9538 15.9151 97.6507 15.6878 97.4612C15.0815 96.9686 14.5889 96.4002 14.0584 95.8697C13.9068 95.7181 13.7552 95.5665 13.49 95.2634C12.77 94.5434 12.0879 93.8993 11.3679 93.1414L0 81.6598L1.06101 80.9398C1.21258 80.8261 1.59151 80.4093 1.93255 80.0683L2.27359 79.6893L11.4816 70.1781C11.709 69.9508 11.9363 69.7234 12.2016 69.4582C12.3911 69.2687 12.6184 69.0792 12.8458 68.814C13.3005 68.3593 13.7552 67.9046 14.2857 67.4498C14.7783 66.9951 15.3088 66.5783 15.8772 66.2373C17.4687 65.1384 19.1739 64.3047 20.9549 63.7363C22.7359 63.1679 24.5548 62.9027 26.4873 62.9027C29.6324 62.9027 31.6787 63.6226 34.3691 64.5321C34.748 64.6836 35.1269 64.7973 35.5059 64.9489C36.1122 65.0247 42.9708 64.9868 46.2675 64.9489H47.9348C48.5411 64.9489 48.8822 64.9489 49.2611 64.911C51.8757 64.8352 54.1872 64.7594 56.1955 67.1088C56.8776 67.9046 57.3323 68.814 57.5218 69.7613C57.787 70.8981 57.7113 72.0728 57.3323 73.1717C56.9913 74.2706 56.3471 75.2558 55.5135 76.0516C54.7556 76.7337 53.8462 77.2263 52.823 77.4915C51.8757 77.7189 47.3285 77.681 44.8655 77.6431H43.5771H43.0087C42.2887 77.6431 41.493 77.6052 41.1141 77.7568C40.8488 77.8705 40.6972 78.0599 40.6214 78.3252C40.5836 78.5146 40.5457 78.7041 40.5836 78.8936C40.6214 79.083 40.6972 79.2346 40.773 79.3483C40.8867 79.4999 41.1141 79.6135 41.4172 79.6135L41.3793 79.6514Z" fill="#ED1C24"/>
<path d="M46.3054 36.5669C45.5476 36.5669 44.7897 36.4532 44.1076 36.3016C43.3119 36.1122 42.554 35.8469 41.9098 35.5817C41.4172 35.3543 41.0004 35.1269 40.5836 34.8617C40.2046 34.5964 39.7878 34.3312 39.4089 34.028C39.0299 33.7249 38.651 33.3839 38.3479 33.0049C38.0068 32.626 37.7037 32.2471 37.4384 31.906C35.8469 29.7082 35.1648 27.0178 35.3922 24.3653C35.6196 21.7128 36.6806 19.0981 38.6131 17.1277C40.5836 15.0815 43.2361 13.9447 45.9265 13.8689C48.579 13.7552 51.3073 14.6268 53.4672 16.5214L53.543 16.5972L55.3998 18.7192L55.4377 18.795C56.3092 20.1213 56.9155 21.5991 57.1808 23.1148C57.446 24.6305 57.446 26.1842 57.105 27.7378C57.0292 28.1546 56.9155 28.5335 56.8018 28.8367C56.6881 29.2156 56.5745 29.5567 56.385 29.9356C55.4377 31.9818 53.9977 33.687 52.2546 34.8617C50.5495 35.9985 48.5411 36.6427 46.3433 36.6427L46.3054 36.5669ZM44.5244 34.2554C45.0928 34.3691 45.6991 34.4449 46.3054 34.4449C48.0864 34.4449 49.7158 33.9144 51.1179 33.0049C52.5578 32.0576 53.7325 30.6556 54.5282 28.9504C54.6419 28.723 54.7556 28.4199 54.8314 28.1546C54.9451 27.8136 55.0208 27.5104 55.0966 27.2073C55.3998 25.9568 55.3998 24.7063 55.1724 23.4937C54.9451 22.2433 54.4524 21.0686 53.8083 20.0076L52.1031 18.0371C50.3221 16.5214 48.1622 15.8393 46.0023 15.9151C43.8045 15.9909 41.6825 16.9003 40.0909 18.5676C38.5373 20.197 37.6279 22.3191 37.4763 24.479C37.3247 26.6389 37.8552 28.7988 39.1436 30.5798C39.371 30.9208 39.6362 31.2239 39.9015 31.5271C40.1667 31.8302 40.432 32.0955 40.7351 32.3228C41.0762 32.5881 41.3793 32.8155 41.7204 33.0428C42.0614 33.2702 42.4024 33.4596 42.7814 33.6112C43.3119 33.8386 43.9182 34.0659 44.6002 34.2175L44.5244 34.2554ZM41.7961 7.95756C41.4551 8.03335 41.0762 8.14703 40.7351 8.2986C40.3941 8.41228 40.0531 8.56385 39.7499 8.67753L38.1963 9.43539L38.0826 9.51118C37.6658 9.77643 37.4384 9.89011 36.87 9.73854C36.529 9.62486 36.2637 9.43539 35.7711 9.05646L35.6196 8.94278C35.5059 8.867 35.4301 8.79121 35.3164 8.71542L35.1648 8.60174C34.8617 8.37438 34.6722 8.22281 34.4449 8.07124C33.8765 7.61652 33.4218 7.27548 32.5502 7.27548C31.9439 7.27548 31.2997 7.99545 30.8071 8.52596L30.3524 8.98067C29.4809 9.89011 28.5714 10.8374 29.2156 12.0879C29.2914 12.2774 29.5188 12.5805 29.7461 12.9216C30.125 13.49 30.5419 14.0962 30.8071 14.3994L30.845 14.4373C30.9587 14.5889 31.0724 14.7404 31.224 14.9678C31.7166 15.8014 31.2997 16.5972 30.9208 17.2414C30.845 17.393 30.7692 17.5066 30.7313 17.5824C30.6556 17.7719 30.6177 17.8856 30.5419 17.9613L30.4282 18.1887C30.2766 18.5676 30.125 18.9845 29.9735 19.4392C29.8598 19.8181 29.7461 20.197 29.6703 20.5381L29.4809 21.3338H28.6851C28.382 21.3338 28.0409 21.4096 27.6999 21.4854C27.5104 21.5233 27.2831 21.5612 27.0178 21.637L26.601 21.7128C26.1463 21.7886 25.6158 21.8643 25.2368 21.978C24.9337 22.0538 24.5548 22.2812 24.3274 22.5843C24.1379 22.8117 23.9864 23.0769 23.9864 23.3422V26.9041C23.9864 27.1694 24.0621 27.4346 24.2137 27.6241C24.4032 27.9272 24.6684 28.1546 24.9337 28.3062C25.3505 28.5335 26.601 28.723 27.5862 28.8746C27.9272 28.9125 28.2304 28.9504 28.4956 29.0261C29.5567 29.2156 29.6703 29.6324 29.9356 30.6555C30.0114 30.9208 30.0872 31.2239 30.2387 31.6408C30.3524 31.9439 30.504 32.3986 30.6934 32.8155C30.8829 33.2323 31.0345 33.5733 31.224 33.8007C31.4134 33.9901 31.6408 34.2933 31.8302 34.5206L29.2914 38.2721C29.2156 38.4236 29.1398 38.5752 29.1019 38.7268C29.064 38.9163 29.0261 39.1436 29.0261 39.371C29.0261 40.0152 29.6703 40.6593 30.2008 41.1898L30.5798 41.5688L30.9587 41.9856C31.4513 42.5161 31.9818 43.1224 32.7776 43.1224C33.4596 43.1224 34.1417 42.5919 34.7101 42.0993L35.0512 41.834C35.2027 41.7203 35.2785 41.6446 35.3922 41.6067L35.6196 41.4551L37.1353 40.2804L37.7037 40.5835C38.3479 40.9246 38.9542 41.2656 39.5604 41.5309C40.1667 41.7961 40.773 42.0614 41.4551 42.2509C42.554 42.5919 42.5919 42.7435 42.7435 43.9181C42.7435 44.0318 42.7814 44.1834 42.8193 44.4487L42.8571 44.7897C42.9708 45.6233 43.1982 46.9875 43.3498 47.2906C43.4634 47.5559 43.6908 47.8211 43.9939 48.0106C44.2213 48.1622 44.4866 48.238 44.7518 48.238H47.859C48.4274 48.238 48.8064 48.0485 49.0716 47.7454C49.3748 47.3664 49.5642 46.798 49.64 46.1917L50.0568 43.6908C50.2084 42.5161 50.2842 42.4782 51.421 42.1751C51.6484 42.0993 52.0273 42.0235 52.5578 41.7961C52.9367 41.6446 53.4672 41.4172 53.9219 41.1898C54.3009 41.0004 54.6798 40.8109 54.9072 40.6214L55.5135 40.2046C56.385 40.8488 57.4081 41.5309 58.2418 42.213C58.7723 42.6298 59.3028 43.0466 59.947 43.0466C60.7427 43.0466 61.3111 42.4403 61.8037 41.9098L62.1069 41.5688L62.6374 41.0762C63.3194 40.432 63.6984 40.0152 63.6984 38.8026C63.6984 38.4236 62.7132 37.0216 61.9932 35.9985C61.7279 35.6574 61.5385 35.3543 61.349 35.089L60.9322 34.407L61.4248 33.8007C61.6143 33.5733 61.9553 32.8155 62.2584 32.0197C62.5995 31.1482 62.9026 30.2766 62.9405 29.9356L63.0163 29.0261L63.8878 28.9504C64.2289 28.9125 64.6457 28.8367 65.0625 28.7609C65.2899 28.723 65.4794 28.6851 65.7825 28.6093L66.0856 28.5714C66.6161 28.4956 67.2224 28.382 67.6014 28.2304C68.7761 27.8136 68.7382 26.1463 68.7382 24.7063V24.0243C68.7382 22.0538 67.5256 21.8264 65.972 21.5612H65.8962C65.6688 21.5233 65.4415 21.4475 65.1762 21.4096C64.7594 21.3338 64.3426 21.2202 64.0015 21.2202H63.0542L62.9784 20.2349C62.9026 19.4392 62.2584 18.1129 61.8037 17.2035C61.5385 16.673 61.3111 16.2183 61.2353 15.9151L61.1216 15.4604C61.8416 14.3994 62.5616 13.3384 63.2815 12.2395C63.5468 11.8606 63.7742 11.5195 63.7742 11.0648C63.7742 10.1554 63.0163 9.43539 62.3342 8.79121C62.1448 8.60174 61.9553 8.45017 61.7658 8.22281C61.5385 7.95756 61.2353 7.65441 60.9322 7.46495C60.7048 7.31338 60.4775 7.1997 60.288 7.1997C59.4164 7.1997 59.1133 7.42706 58.5828 7.80599L57.9007 8.2986C57.6355 8.48806 57.4081 8.63964 57.1808 8.79121L56.8018 9.09435C56.3471 9.43539 56.1197 9.62486 55.7029 9.66275C55.2482 9.70064 55.0208 9.58696 54.5661 9.32171L54.1493 9.09435L53.6567 8.86699L53.0883 8.60174C52.5199 8.33649 51.6484 7.95756 51.1179 7.91967L50.1705 7.84388V6.85866C50.1705 6.66919 50.1326 6.51762 50.0947 6.36605L50.0568 6.0629L50.0189 5.79765C49.9811 5.57029 49.9432 5.34293 49.9053 5.19136C49.8674 5.00189 49.8295 4.73664 49.7916 4.4335C49.6779 3.63774 49.5642 2.84199 49.1095 2.46305C48.9579 2.34937 48.7685 2.1978 48.579 2.12202C48.4653 2.08412 48.3517 2.04623 48.2759 2.04623H44.676C44.6002 2.04623 44.4865 2.08412 44.335 2.15991C44.1455 2.2357 43.9939 2.34937 43.9182 2.42516C43.7666 2.57673 43.615 2.72831 43.5392 2.87988C43.4634 2.99356 43.3876 3.14513 43.3498 3.3346C43.3119 3.56196 43.0845 4.62296 42.9329 5.57029C42.8193 6.21448 42.7435 6.78287 42.7435 6.89655V7.7302L41.9477 7.91967L41.7961 7.95756ZM40.0531 6.29026C40.2425 6.21447 40.432 6.13869 40.6215 6.1008L40.773 5.22925C40.9246 4.20614 41.152 3.06934 41.2277 2.80409C41.3414 2.34937 41.493 2.00834 41.7204 1.70519C41.9098 1.43994 42.0993 1.21258 42.3645 0.947329C42.5919 0.71997 42.9708 0.454718 43.3876 0.265252C43.7666 0.113679 44.1834 0 44.5623 0H48.1622C48.5411 0 48.9579 0.113679 49.299 0.265252C49.7158 0.454718 50.0947 0.71997 50.3221 0.947329C51.3452 1.85676 51.5347 3.03145 51.7241 4.20614C51.762 4.3956 51.7999 4.58507 51.8378 4.85032C51.8757 5.15347 51.9136 5.34293 51.9515 5.5324L52.0273 6.02501C52.6715 6.21448 53.3157 6.51762 53.8083 6.74498C53.8083 6.74498 54.3388 7.01023 54.4146 7.01023L54.9829 7.27548C55.2482 7.42706 55.3619 7.46495 55.4756 7.54073C55.4756 7.54073 55.4756 7.50284 55.5135 7.50284C55.5513 7.46495 55.5892 7.46495 55.9303 7.1997C56.2334 6.97234 56.4608 6.82077 56.6881 6.6313L57.3323 6.17658C58.2418 5.49451 58.6965 5.15347 60.2501 5.15347C60.8943 5.15347 61.5006 5.41872 62.0311 5.79765C62.4858 6.1008 62.8647 6.51762 63.1679 6.82077C63.3194 6.97234 63.5089 7.1618 63.6984 7.31338C64.7215 8.2607 65.7825 9.32171 65.7825 11.1406C65.7825 12.2395 65.4036 12.8458 64.9488 13.49C64.4183 14.2857 63.8878 15.0436 63.3573 15.8393L63.5847 16.3319C64.0015 17.1656 64.532 18.2645 64.7973 19.2497C65.0625 19.2876 65.2899 19.3634 65.5551 19.4013C65.7446 19.4392 65.9341 19.4771 66.1614 19.5529H66.2372C68.7761 20.0076 70.7465 20.3486 70.7465 24.1V24.7442C70.7844 26.9041 70.8223 29.4051 68.2456 30.3145C67.7151 30.504 66.9951 30.6177 66.3888 30.7313L66.0856 30.7692L64.7594 31.0345C64.6078 31.565 64.3805 32.2471 64.1152 32.8912C63.8878 33.4596 63.6226 34.0659 63.3952 34.5206L63.6226 34.8238C64.4941 36.0743 65.7446 37.8174 65.7446 38.8784C65.7446 41.0004 65.1004 41.6067 64.0394 42.6677C63.9257 42.7814 63.8121 42.895 63.5847 43.1603L63.2815 43.4634C62.4858 44.335 61.6143 45.2823 59.947 45.2823C58.6586 45.2823 57.8628 44.6381 57.0292 43.9939L56.9155 43.9181L55.9303 43.1982C55.7787 43.0845 55.665 43.0087 55.5892 42.9329L55.4756 42.8192C55.2861 42.9329 55.0587 43.0466 54.8693 43.1224C54.3388 43.3876 53.7704 43.6529 53.3157 43.8045C52.7473 44.0318 52.3683 44.1455 52.1031 44.2213L51.6862 46.5707C51.5347 47.4801 51.2315 48.3895 50.6631 49.1095C50.0568 49.9053 49.1474 50.3979 47.859 50.3979H44.7518C44.0697 50.3979 43.4255 50.1705 42.895 49.8295C42.2887 49.4127 41.7961 48.8443 41.5309 48.3138C41.2277 47.6696 40.9625 46.1159 40.8109 45.1686L40.773 44.8276C40.7351 44.6381 40.7351 44.4487 40.6972 44.2971C40.0152 44.0697 39.371 43.8045 38.7268 43.5392C38.2342 43.3119 37.7795 43.0845 37.3247 42.8192L36.8321 43.1982C36.6806 43.3119 36.6048 43.3498 36.529 43.4255L36.3016 43.5771L35.9985 43.8045C35.1269 44.4865 34.1796 45.2444 32.8155 45.2444C31.1482 45.2444 30.3145 44.2971 29.5188 43.4255C29.443 43.3119 29.3293 43.2361 29.1777 43.0466C29.0261 42.895 28.9504 42.8192 28.8367 42.7056C28.003 41.9098 26.9799 40.9246 26.9799 39.371C26.9799 38.9541 27.0178 38.5752 27.1315 38.1963C27.2452 37.8174 27.3967 37.4005 27.6241 37.0595L29.3293 34.5585C29.1777 34.2933 29.0261 33.9523 28.8746 33.6491C28.6851 33.1944 28.4956 32.7018 28.3441 32.3607C28.1546 31.8681 28.0788 31.4892 27.9651 31.1861C27.9651 31.1103 28.1546 31.1103 28.2304 31.1103H28.1546C27.9272 31.0724 27.6241 31.0345 27.2831 30.9587C26.1463 30.8071 24.7063 30.5798 23.9485 30.1629C23.418 29.8977 22.8875 29.4051 22.4706 28.7988C22.1296 28.2683 21.9022 27.6241 21.9022 26.9041V23.3422C21.9022 22.5464 22.2433 21.7886 22.7359 21.1823C23.2664 20.5381 23.9864 20.0834 24.7063 19.8939C25.1232 19.7802 25.7294 19.6665 26.2599 19.5908L26.6389 19.515C26.7905 19.4771 26.9799 19.4392 27.2073 19.4013C27.3967 19.3634 27.6241 19.3255 27.8136 19.2876L28.003 18.7192C28.1546 18.2266 28.3441 17.734 28.5335 17.3172C28.6093 17.1656 28.6472 17.0519 28.6851 16.9761L28.7988 16.7488C28.8746 16.5593 28.9883 16.3698 29.064 16.1804C29.1398 15.9909 29.5567 16.2562 29.4051 16.0288C29.3293 15.9151 29.2535 15.8014 29.1398 15.6499L29.1019 15.5741C28.8367 15.233 28.382 14.5889 28.003 14.0205C27.7378 13.6415 27.5104 13.2626 27.3588 12.9595C26.0326 10.3069 27.4725 8.8291 28.8746 7.38916L29.2914 6.97234C30.0493 6.13869 31.0345 5.07768 32.5123 5.07768C34.1038 5.07768 34.7859 5.64608 35.6574 6.32815C35.8469 6.47973 36.0743 6.66919 36.2637 6.78287L36.4153 6.85866C36.529 6.93444 36.6427 7.01023 36.8321 7.1618L36.9837 7.27548C37.0974 7.35127 37.1732 7.42706 37.249 7.50284C37.7037 7.23759 38.4615 6.89655 38.9163 6.70709C39.2573 6.55551 39.6362 6.40394 40.0531 6.25237V6.29026ZM55.3998 7.69231C55.4756 7.69231 55.4377 7.65441 55.4377 7.65441L55.3998 7.69231V7.7302H55.4377L55.3998 7.69231ZM55.3619 7.69231C55.324 7.69231 55.324 7.7302 55.3619 7.7302V7.69231Z" fill="#ED1C24"/>
</svg>
