<svg width="80" height="100" viewBox="0 0 80 100" fill="none" xmlns="http://www.w3.org/2000/svg">
<path d="M55.2771 56.4066C55.2771 56.9714 55.1712 58.0657 54.8888 59.0187C54.7123 59.5482 54.5005 60.0424 54.1828 60.4306C53.7593 60.9601 53.2298 61.2778 52.5591 61.2778C52.3473 61.2778 52.1355 61.2425 51.9238 61.1719C51.359 60.9954 50.5118 60.6071 49.7 60.2188C48.8528 59.7953 48.0762 59.407 47.6527 59.1599C45.5701 58.0657 45.5701 57.9245 45.676 55.8066C45.676 55.4536 45.7113 54.9947 45.7113 54.324C45.7113 53.9711 44.7935 53.2298 43.664 52.4885C42.252 51.6061 40.593 50.8648 39.7106 50.8648C39.2517 50.8648 38.8281 51.0413 38.5457 51.3237C38.4045 51.4649 38.2633 51.6061 38.1927 51.8179C38.1221 51.9944 38.0868 52.1708 38.0868 52.3826C38.0868 52.7709 38.2633 53.1592 38.6163 53.5828C39.5341 54.5711 39.9223 54.9594 40.4518 55.4183C40.7695 55.7007 41.0872 56.0184 41.6167 56.5478L44.2993 59.1246L44.3346 59.1952C44.6523 59.5835 45.0759 60.0071 45.4995 60.4659C46.5584 61.5249 47.7233 62.725 48.5351 64.384C49.3823 66.1843 49.6294 67.9492 49.3823 69.6788C49.1352 71.5143 48.288 73.2439 47.0526 74.8676C42.8874 80.3036 37.1691 78.6445 34.2393 77.8327C33.6745 77.6562 33.2157 77.5503 33.0745 77.5503C32.7568 77.5503 32.7215 77.6562 32.3685 78.1504L32.2979 78.221C31.7331 79.0328 31.3802 79.527 30.6036 79.7035C29.9329 79.8447 29.1917 79.6329 27.9562 78.9975C25.4148 77.6915 26.0854 76.3855 26.7561 75.0441C26.8973 74.7264 27.0738 74.4088 27.0738 74.2323C27.0738 74.0558 26.5796 73.9852 25.9795 73.491C25.3089 72.8909 24.497 72.2203 23.9322 71.5496C22.5909 69.9965 21.7084 68.4081 21.3202 66.7137C20.9319 65.0194 21.0025 63.2192 21.5672 61.2425C21.6731 60.8542 21.8496 60.36 22.0967 59.9012C22.4497 59.2305 23.0145 58.7363 23.8263 58.7363C24.2499 58.7363 24.85 58.9481 25.4854 59.1952C26.3678 59.5835 27.4268 60.113 27.815 60.3247C31.7331 62.4779 31.6626 62.6897 31.1331 64.4546C31.0272 64.8429 30.8507 65.3371 30.8507 66.1843C30.8507 66.6431 31.1331 67.102 31.5214 67.4903C32.0155 67.9845 32.6509 68.3727 33.2157 68.6904L33.251 68.7257C34.5923 69.467 37.3809 70.9848 38.5104 69.82C38.9693 69.3611 39.1105 68.9022 39.0399 68.4433C38.934 67.7374 38.4398 66.9961 37.8044 66.3607C37.5221 66.0431 37.4162 65.9019 37.3103 65.796C37.2397 65.7254 37.2044 65.6548 36.569 65.1253C36.0042 64.6664 35.263 63.9958 34.7688 63.4663C34.3805 63.078 33.9569 62.6897 33.4981 62.2661C32.1214 60.9954 30.7448 59.6894 29.6153 58.1716C28.1327 56.1948 27.4974 53.9711 27.6385 51.7826C27.7797 49.6294 28.7681 47.5115 30.533 45.7819C31.3802 44.9347 32.4744 44.1934 33.6745 43.6993C34.7688 43.2051 35.9689 42.9227 37.1691 42.9227H37.6986C39.1458 42.9227 39.64 42.9227 41.3696 43.3816C41.8285 43.5228 42.1461 43.6287 42.4285 43.6993C42.8521 43.8405 43.0286 43.911 44.0169 43.911L43.9111 43.8405C43.8758 43.8405 43.8405 43.8052 43.8758 43.8052C44.264 43.2051 44.6876 42.4991 45.8878 42.4991C46.4878 42.4991 47.5468 42.9227 48.3939 43.4522C49.3117 44.0169 50.0882 44.7582 50.0882 45.4642C50.0882 46.1348 49.9118 46.5937 49.7706 46.9467C49.7 47.1232 49.6647 47.2291 50.1235 47.6174L50.6177 48.0409C51.3237 48.6057 51.5002 48.7469 52.4179 49.7C53.1239 50.4059 53.8652 51.5708 54.3593 52.9121C54.8182 54.077 55.1359 55.3477 55.1359 56.5478L55.2771 56.4066ZM52.9121 58.4186C53.1239 57.6774 53.1945 56.8302 53.1945 56.4066C53.1945 55.4536 52.9474 54.4299 52.5944 53.5122C52.1708 52.4532 51.6061 51.5355 51.0766 51.006C50.2294 50.1588 50.0882 50.0177 49.4529 49.5235L48.9234 49.0999C47.2997 47.7939 47.5468 47.1232 47.9351 46.0995C48.0056 45.8878 48.1115 45.6407 48.1115 45.323C48.1115 45.1818 47.7939 45.323 47.4409 45.1112C46.8761 44.7582 46.2407 44.4758 45.9936 44.4758C45.9231 44.4758 45.8172 44.6523 45.7113 44.8288C45.3583 45.3936 45.0406 45.8878 44.1581 45.8878C42.7815 45.8878 42.4638 45.7819 41.8285 45.5348C41.6167 45.4642 41.3696 45.3583 40.9107 45.2524C39.4282 44.8641 39.0046 44.8641 37.7691 44.8641H37.2397C36.3219 44.8641 35.4042 45.1112 34.557 45.4642C33.604 45.8878 32.7215 46.4878 32.0508 47.1232C30.6742 48.4645 29.8976 50.1235 29.7917 51.7826C29.6505 53.4769 30.18 55.2418 31.3449 56.7949C32.3685 58.1716 33.6745 59.407 34.9806 60.6071C35.4042 60.9954 35.7924 61.3837 36.2513 61.8073L37.9809 63.3957C38.7928 64.0664 38.8634 64.1723 39.0399 64.384C39.1105 64.4546 39.1811 64.5605 39.3576 64.737C40.24 65.6548 40.9813 66.7843 41.1225 67.9845C41.2637 69.0434 40.9813 70.1377 39.9929 71.0907C37.7691 73.3145 34.0981 71.3025 32.2979 70.3495L32.2626 70.3142C31.5567 69.9259 30.7448 69.4317 30.0741 68.761C29.3329 68.0198 28.7681 67.102 28.7681 65.9725C28.7681 64.8782 28.9799 64.1723 29.1211 63.6428C29.227 63.3251 29.227 63.2898 26.7914 61.9485C26.4384 61.772 25.4854 61.2778 24.6735 60.9248C24.2499 60.7483 23.8969 60.6071 23.791 60.6071C23.6851 60.6071 23.8969 60.6424 23.8616 60.713C23.7204 60.9601 23.6145 61.3484 23.5086 61.5955C23.0498 63.2192 22.9792 64.6664 23.2969 66.0431C23.6145 67.4197 24.3205 68.6904 25.4501 69.9965C25.9442 70.5612 26.6502 71.1966 27.2856 71.7261C28.2739 72.5732 29.0858 73.2792 29.0858 74.0205C29.0858 74.6911 28.8034 75.2206 28.5563 75.7501C28.3445 76.1737 28.1327 76.5972 28.874 76.9502C29.6505 77.3385 30.0035 77.515 30.1447 77.4797C30.1447 77.4797 30.3212 77.2326 30.6036 76.8443L30.6742 76.7737C31.5214 75.5383 31.6978 75.2912 33.0745 75.2912C33.4981 75.2912 34.0628 75.4677 34.8041 75.6795C37.275 76.3855 42.1108 77.7621 45.4289 73.4557C46.4525 72.1144 47.1232 70.7024 47.335 69.2552C47.5115 67.9139 47.335 66.5372 46.6643 65.1253C46.0289 63.7487 44.97 62.6897 44.0522 61.772C43.5934 61.2778 43.1345 60.8542 42.7815 60.3953L40.2047 57.9245C39.7106 57.4656 39.3929 57.1479 39.0752 56.8302C38.5457 56.336 38.0868 55.9478 37.1338 54.8535C36.3572 54.0064 36.0395 53.1239 36.0395 52.2414C36.0395 51.7473 36.1454 51.2531 36.3572 50.8295C36.569 50.4059 36.8514 50.0177 37.1691 49.7C37.8397 49.0999 38.7575 48.7116 39.7459 48.7116C40.9813 48.7116 43.0992 49.5941 44.7935 50.653C46.4525 51.712 47.7939 53.0886 47.7939 54.2181C47.7939 54.8182 47.7586 55.383 47.7586 55.8066C47.7233 56.689 47.7233 56.7243 48.641 57.2185C49.1352 57.4656 49.9118 57.8892 50.653 58.2421C51.3943 58.5951 52.1355 58.9481 52.5944 59.0893H52.6297C52.665 59.0893 52.6297 59.054 52.665 59.0187C52.8062 58.8422 52.9121 58.5951 53.018 58.2774L52.9121 58.4186ZM44.1228 43.7699H44.1934C44.3699 43.7699 44.1581 43.7346 44.0522 43.6993L44.1581 43.7699H44.1228ZM29.9329 0C31.239 0 32.7921 0.458878 34.3099 1.02365C35.7571 1.58842 37.2044 2.25909 38.228 2.75327C39.64 3.42393 40.9813 4.23579 42.3226 5.08295C43.6287 5.93011 44.8641 6.88316 46.0642 7.87151C46.5937 8.29509 48.1115 9.63643 49.2058 10.6954C49.6294 11.0837 49.9824 11.4719 50.2647 11.8249C50.4412 11.7896 50.6177 11.7896 50.7942 11.7543C50.9354 11.719 51.1119 11.6837 51.359 11.6837C52.9121 11.4719 54.7476 11.1896 56.5478 10.9425C59.3011 10.5189 62.0544 10.0953 64.8429 9.81292C65.6195 9.74232 66.2196 9.67173 66.8196 9.84822C67.5256 10.06 68.0198 10.4836 68.4786 11.366C68.6551 11.7543 68.8316 12.1073 69.0081 12.5309C72.3968 20.6495 75.503 28.9446 78.9622 37.0279C79.5623 38.4751 79.88 39.2164 79.9153 39.9576C79.9153 40.0988 79.9153 40.2753 79.9153 40.4165C79.8447 41.1578 79.5623 41.6873 79.0328 42.6403C76.8796 46.4878 74.5852 50.3 72.3615 54.1123L71.9379 54.8182C71.7614 55.1359 71.5496 55.4536 71.2672 55.9478C70.4906 57.3244 69.6788 58.6657 68.8669 60.0424C67.808 61.8073 66.749 63.5722 65.8666 65.1959C65.6901 65.5489 65.5136 65.8666 65.3371 66.149L64.7723 67.0667C63.8193 68.6198 63.0427 70.0318 62.2309 71.4084C61.2778 73.1027 60.2894 74.7617 59.3364 76.3502L57.1832 80.0212C56.3007 81.6449 55.3477 83.198 54.3946 84.7864C53.5122 86.269 52.6297 87.7162 51.7826 89.2693C51.2531 90.2224 49.347 93.5757 47.8645 96.0113C46.9114 97.635 46.0642 98.9411 45.7819 99.1528L45.7466 99.1881C45.6407 99.2587 45.6054 99.3293 45.4995 99.3646C45.3936 99.4352 45.323 99.4705 45.2171 99.5411H45.1818C45.0053 99.647 44.7935 99.7529 44.5464 99.8235C44.264 99.9294 43.9816 100 43.6287 100C42.6403 100 36.216 96.329 32.192 94.0346C30.8507 93.258 29.7917 92.658 29.3329 92.4462C26.6502 91.1048 24.0028 89.234 21.3202 87.8927C19.4493 86.7984 17.6491 85.7748 15.8489 84.7512C14.1193 83.7981 12.3897 82.8097 10.6601 81.7861L9.35404 81.0448C6.24779 79.3152 0 75.7854 0 74.2676V73.7734C0 72.9968 1.16484 71.0201 2.0473 69.5729C2.36498 69.0787 2.61207 68.6198 2.78856 68.3022C3.60042 66.7843 4.76527 64.7723 5.89481 62.8662C6.56548 61.772 7.20085 60.6777 7.80092 59.5835C12.2485 51.7473 16.8726 43.911 21.4966 36.0748C23.5086 32.6509 25.4854 29.2976 26.7914 27.0738L33.5334 15.5665C33.9922 14.8253 34.8041 14.3311 35.7219 14.0487C36.8161 13.6957 38.0515 13.5898 39.0046 13.5898H39.1105C40.1341 13.5898 40.3106 13.5898 41.1225 14.2958C41.7932 14.9312 42.5697 15.6018 43.2051 16.2372C43.4169 16.4137 43.5228 16.5902 43.6287 16.7314C43.6993 16.802 43.7699 16.9079 43.8405 16.9785C44.8641 18.0727 46.6996 20.2612 48.041 22.2379C49.0646 23.7557 49.8059 25.1677 49.8059 26.0854C49.8059 26.6855 49.7 27.2503 49.5941 27.815C49.4882 28.2739 49.4176 28.7328 49.4176 29.1917C49.4176 30.9213 50.2294 32.5803 51.4649 33.8157C52.7003 35.0512 54.3593 35.863 56.1243 35.863C57.1479 35.863 58.1009 35.6866 58.9128 35.3689C59.7953 35.0512 60.5365 34.5923 61.066 34.0275C61.9132 33.1804 62.4779 32.4744 62.7956 31.6978C63.1133 30.9213 63.2192 30.0388 63.2192 28.7681C63.2192 27.9915 62.9721 27.1797 62.6191 26.4384C62.1603 25.5206 61.5249 24.6735 60.8542 24.0381C60.5718 23.7557 60.2188 23.5086 59.8659 23.2616C59.5129 23.0498 59.1246 22.838 58.701 22.6968C58.4892 22.6262 58.2421 22.5203 57.9951 22.4497C57.7833 22.3791 57.5715 22.3438 57.395 22.2732H57.2538L57.4303 22.5909C57.8539 23.4028 58.5245 24.7794 58.9834 26.0854C59.3364 27.0385 59.5835 27.9562 59.5835 28.6622C59.5835 29.58 59.1599 30.3565 58.5598 30.886C58.1363 31.2743 57.6068 31.5214 57.042 31.6273C56.4772 31.7331 55.8772 31.7331 55.3124 31.5567C54.4299 31.2743 53.6181 30.6389 53.1592 29.58C52.9121 29.0152 52.6297 28.3798 52.3473 27.7444C51.6061 26.0501 50.9001 24.4617 49.9118 22.6968C49.5588 22.0614 49.2411 21.6025 48.9234 21.0731L48.641 20.6142L44.1581 15.0018C43.4875 14.3311 42.7462 13.6604 42.0049 13.0251C41.2637 12.3897 40.4518 11.7896 39.6753 11.2249L37.5927 9.88352L37.4515 9.81292C37.1691 9.63643 36.8867 9.45994 36.6043 9.31874C35.8277 8.93046 35.0512 8.57748 34.2393 8.1892C33.4275 7.83622 32.6509 7.48323 31.8743 7.20085C31.6626 7.13025 31.4155 7.02436 31.1331 6.95376C29.3682 6.38899 27.1797 5.68302 27.1797 3.21214C27.1797 2.47088 27.5679 1.65902 28.0974 1.05895C28.6269 0.423579 29.4035 0 30.1447 0L29.9329 0ZM29.9329 2.0826C29.7917 2.0826 29.6152 2.22379 29.4035 2.43558C29.1917 2.68267 29.0152 3.00035 29.0152 3.24744C29.0152 4.23579 30.3918 4.65937 31.5214 5.04765C31.8037 5.15355 32.0861 5.22414 32.3685 5.33004C33.251 5.64772 34.0628 6.00071 34.8747 6.38899C35.6513 6.74197 36.4631 7.13025 37.275 7.51853C37.6633 7.69502 37.9456 7.87151 38.2986 8.0833C39.0399 8.54218 39.9223 9.07166 40.6283 9.56583C41.5108 10.2012 42.3579 10.8366 43.1345 11.5072C43.9464 12.1779 44.7229 12.8839 45.4642 13.6251C46.8055 14.9665 49.347 18.1786 50.5118 20.0494C50.8648 20.6142 51.2178 21.179 51.5355 21.7437C52.5944 23.5792 53.3004 25.2383 54.077 27.0032C54.324 27.5679 54.5711 28.1327 54.8888 28.8034C55.1006 29.2623 55.4183 29.5447 55.7713 29.6505C56.0184 29.7211 56.2654 29.7211 56.4772 29.6858C56.7243 29.6505 56.9008 29.5447 57.0773 29.4035C57.2538 29.227 57.395 29.0152 57.395 28.7328C57.395 28.3092 57.1832 27.6032 56.9361 26.862C56.5125 25.6618 55.8772 24.3558 55.4889 23.6145C55.383 23.4028 55.1712 23.0498 55.03 22.6262C54.8535 22.1673 54.677 21.6731 54.677 21.2496L54.6417 20.1553C55.6301 20.1906 56.5831 20.2612 57.5715 20.2965H57.6421C57.9598 20.3671 58.2421 20.4377 58.5245 20.5083C58.8069 20.5789 59.0893 20.6848 59.3717 20.7907C59.9012 21.0025 60.3953 21.2496 60.8542 21.5319C61.3131 21.8143 61.772 22.1673 62.1603 22.5556C62.9721 23.3322 63.7487 24.3911 64.3134 25.5559C64.8076 26.5796 65.1253 27.6738 65.1253 28.8034C65.1253 30.3212 64.9841 31.4861 64.5252 32.5097C64.1017 33.5687 63.3957 34.4511 62.3367 35.5101C61.5955 36.2513 60.6071 36.8867 59.4423 37.3103C58.3833 37.6986 57.1832 37.9456 55.9478 37.9456C53.6534 37.9456 51.4649 36.922 49.8412 35.2983C48.2174 33.6745 47.1938 31.4861 47.1938 29.227C47.1938 28.5916 47.2997 28.0268 47.4409 27.4621C47.5468 27.0385 47.6174 26.5796 47.6174 26.156C47.6174 25.6971 47.0173 24.6382 46.2054 23.4381C44.9347 21.5672 43.2051 19.4846 42.2167 18.4257C42.0755 18.2492 41.9696 18.1433 41.899 18.0374C41.8284 17.9668 41.7579 17.8609 41.652 17.755L39.64 15.8842C39.3929 15.6724 39.3223 15.6724 38.934 15.6724H38.8281C38.0515 15.6724 37.0279 15.743 36.1807 16.0254C35.6866 16.2019 35.2983 16.4137 35.1218 16.6961L28.4151 28.1327C26.1913 31.9096 24.6382 34.557 23.1204 37.1338C18.5316 44.8994 13.9428 52.7003 9.42464 60.6071C8.93046 61.4896 8.2245 62.6897 7.48323 63.8899C6.38899 65.7607 5.22414 67.7021 4.41228 69.2199C4.27109 69.5023 3.95341 69.9965 3.63572 70.5965C2.89446 71.8673 1.90611 73.5263 1.90611 73.7381V74.2323C1.90611 74.5147 7.44794 77.6562 10.2012 79.2093C10.7307 79.4917 11.119 79.7388 11.5425 79.9859C13.2369 80.9742 14.9665 81.9626 16.6961 82.9156C18.5669 83.9746 20.4377 84.9982 22.2379 86.0572L30.2153 90.5754C30.7448 90.8577 31.7684 91.4578 33.0745 92.1991C36.8867 94.3876 43.0639 97.8821 43.4875 97.8821C43.5934 97.8821 43.664 97.8468 43.7346 97.8468C43.8405 97.8115 43.9816 97.7409 44.0875 97.6703L44.2287 97.5997L44.3346 97.4938C44.4052 97.4232 45.1112 96.329 45.9584 94.8818C47.4762 92.3756 49.347 89.0928 49.8412 88.1751C50.6883 86.6573 51.6061 85.1394 52.5238 83.6216C53.4769 82.0685 54.4299 80.4801 55.2771 78.8916V78.8563L57.4303 75.15C58.4539 73.491 59.3717 71.8673 60.2894 70.2436C61.1719 68.7257 62.0544 67.1726 62.8309 65.8666L63.3957 64.9488C63.5722 64.6311 63.7487 64.3134 63.8899 64.0664C64.9135 62.1956 65.9372 60.5012 66.9255 58.8422C67.7374 57.5009 68.5139 56.1595 69.3258 54.7829C69.5023 54.4652 69.7494 54.0417 69.9965 53.6181L70.42 52.9474L76.8796 41.8285L77.0561 41.5108C77.4444 40.8401 77.6562 40.4518 77.6915 40.1694V39.9576C77.6562 39.5341 77.3738 38.8987 76.8796 37.6986C73.5263 29.58 70.3494 21.3202 66.9255 13.2369C66.7843 12.8839 66.6431 12.5662 66.4666 12.2132C66.3255 11.8955 66.1843 11.7896 66.0784 11.7543C65.8666 11.6837 65.443 11.719 64.9135 11.7896C62.2661 12.072 59.4776 12.4956 56.7243 12.9192C55.0653 13.1663 53.371 13.4133 51.5002 13.6604L51.006 13.731C50.5824 13.8016 50.1941 13.8722 49.6294 13.8722H48.8528L48.641 13.0957C48.641 13.0604 48.2174 12.6368 47.6527 12.1073C46.5937 11.0484 45.1465 9.81292 44.6523 9.38934C43.5228 8.43629 42.3226 7.55383 41.0872 6.74197C39.8517 5.93011 38.581 5.18885 37.2397 4.51818C36.216 4.024 34.8394 3.35334 33.4628 2.85916C32.1567 2.36498 30.8154 1.9767 29.7917 1.9767L29.9329 2.0826Z" fill="#ED1C24"/>
</svg>
