<svg width="79" height="78" viewBox="0 0 79 78" fill="none" xmlns="http://www.w3.org/2000/svg">
<path fill-rule="evenodd" clip-rule="evenodd" d="M12.6107 0C16.1137 0 19.2664 1.40119 21.5239 3.69759C23.8203 5.99398 25.2214 9.14667 25.2214 12.6107C25.2214 16.1137 23.8203 19.2664 21.5239 21.5239C19.2275 23.8203 16.0748 25.2214 12.6107 25.2214C9.10774 25.2214 5.95506 23.8203 3.69759 21.5239C1.40119 19.2275 0 16.0748 0 12.6107C0 9.10774 1.40119 5.95506 3.69759 3.69759C5.99398 1.40119 9.14667 0 12.6107 0ZM12.6107 1.20658C18.9161 1.20658 24.0538 6.30536 24.0538 12.6496C24.0538 18.955 18.955 24.0927 12.6107 24.0927C6.30536 24.0927 1.16766 18.9939 1.16766 12.6496C1.16766 6.34428 6.26644 1.20658 12.6107 1.20658Z" fill="#FF0000"/>
<path d="M12.4941 14.8682C13.8483 14.8682 14.9462 13.7704 14.9462 12.4161C14.9462 11.0619 13.8483 9.96402 12.4941 9.96402C11.1398 9.96402 10.042 11.0619 10.042 12.4161C10.042 13.7704 11.1398 14.8682 12.4941 14.8682Z" fill="#FF0000"/>
<path fill-rule="evenodd" clip-rule="evenodd" d="M65.5448 51.9998C69.0478 51.9998 72.2005 53.401 74.4579 55.6973C76.7543 57.9937 78.1555 61.1464 78.1555 64.6105C78.1555 68.1135 76.7543 71.2661 74.4579 73.5236C72.1615 75.82 69.0089 77.2212 65.5448 77.2212C62.0418 77.2212 58.8891 75.82 56.6317 73.5236C54.3353 71.2272 52.9341 68.0745 52.9341 64.6105C52.9341 61.1075 54.3353 57.9548 56.6317 55.6973C58.9281 53.401 62.0807 51.9998 65.5448 51.9998ZM65.5448 53.2063C71.8502 53.2063 76.9879 58.3051 76.9879 64.6494C76.9879 70.9548 71.8891 76.0925 65.5448 76.0925C59.2394 76.0925 54.1017 70.9937 54.1017 64.6494C54.1017 58.344 59.2005 53.2063 65.5448 53.2063Z" fill="#FF0000"/>
<path d="M60.368 60.2902C60.1345 60.0566 60.1345 59.6674 60.368 59.4339C60.6016 59.2003 60.9908 59.2003 61.2243 59.4339L60.368 60.2902ZM69.8261 69.7482L60.368 60.2902L61.2243 59.4339L70.6823 68.8919L69.8261 69.7482ZM70.6823 68.8919C70.9159 69.1255 70.9159 69.5147 70.6823 69.7482C70.4488 69.9817 70.0596 69.9817 69.8261 69.7482L70.6823 68.8919Z" fill="#FF0000"/>
<path d="M69.8261 59.4339C70.0596 59.2003 70.4488 59.2003 70.6823 59.4339C70.9159 59.6674 70.9159 60.0566 70.6823 60.2902L69.8261 59.4339ZM60.368 68.8919L69.8261 59.4339L70.6823 60.2902L61.2243 69.7482L60.368 68.8919ZM61.2243 69.7482C60.9908 69.9817 60.6016 69.9817 60.368 69.7482C60.1345 69.5147 60.1345 69.1255 60.368 68.8919L61.2243 69.7482Z" fill="#FF0000"/>
<path d="M24.8711 13.2335C24.5208 13.2335 24.2873 12.961 24.2873 12.6497C24.2873 12.2994 24.5598 12.0658 24.8711 12.0658V13.2724V13.2335ZM51.9998 13.2335H24.8711V12.0269H51.9998V13.2335ZM51.9998 12.0269C52.3501 12.0269 52.5836 12.2994 52.5836 12.6107C52.5836 12.961 52.3111 13.1946 51.9998 13.1946V11.988V12.0269ZM61.0297 13.7395L60.3291 14.7125L60.1345 14.5568L59.9398 14.4401L59.7452 14.3233L59.5506 14.2065L59.3171 14.0898L59.0836 14.0119L58.85 13.9341L58.6165 13.8562L58.383 13.7784L58.1494 13.7005L57.9159 13.6227L57.6435 13.5838L57.371 13.5449L57.0985 13.5059L56.8261 13.467L56.5536 13.4281L56.2812 13.3892L56.0087 13.3502L55.7363 13.3113L55.4638 13.2724H55.1914H54.9189H54.6465H54.374H54.1016H53.8291H53.5566H53.2842H53.0117H52.7393H52.4668H52.1944V12.0658H52.4668H52.7393H53.0117H53.2842H53.5956H53.9069H54.2183H54.5297H54.8411H55.1525H55.4638H55.7752L56.0866 12.1047L56.398 12.1437L56.7093 12.1826L57.0207 12.2215L57.2932 12.2604L57.5656 12.2994L57.8381 12.3383L58.1105 12.3772L58.383 12.455L58.6554 12.5329L58.9279 12.6107L59.2003 12.6886L59.4728 12.7664L59.7452 12.8832L60.0177 12.9999L60.2901 13.1167L60.5626 13.2335L60.7961 13.3892L61.0297 13.5449L61.2632 13.7005L61.0297 13.7395ZM62.0416 25.5328L61.1464 24.7544L61.341 24.4819L61.5357 24.2095L61.7303 23.937L61.886 23.6256L62.0416 23.3143L62.1584 23.0029L62.2752 22.6915L62.3919 22.3412L62.4698 21.9909L62.5476 21.6406L62.6255 21.2903L62.6644 20.94L62.7033 20.5897V20.2394V19.8891V19.5388L62.6644 19.1885L62.6255 18.8382L62.5476 18.4879L62.4698 18.1376L62.3919 17.7874L62.2752 17.4371L62.1584 17.1257L62.0027 16.8143L61.847 16.5029L61.6913 16.1915L61.4967 15.9191L61.3021 15.6466L61.0686 15.3742L60.8351 15.1407L60.6015 14.9071L60.3291 14.7125L61.0297 13.7395L61.341 14.0119L61.6524 14.2844L61.9249 14.5957L62.1973 14.9071L62.4309 15.2185L62.6644 15.5688L62.859 15.9191L63.0536 16.2694L63.2093 16.6586L63.365 17.0478L63.4818 17.4371L63.5985 17.8263L63.6764 18.2155L63.7542 18.6047L63.7931 19.0329L63.8321 19.461L63.871 19.8891V20.3173V20.7454L63.8321 21.1736L63.7931 21.6017L63.7153 21.9909L63.6374 22.3801L63.5207 22.7694L63.4039 23.1586L63.2482 23.5478L63.0925 23.937L62.8979 24.2873L62.7033 24.6376L62.5087 24.9879L62.2752 25.2993L62.0416 25.6107V25.5328ZM56.4369 29.6586L55.8141 28.6466L56.0087 28.5298L56.2033 28.4131L56.398 28.2963L56.5926 28.1795L56.7872 28.0628L56.9818 27.946L57.1764 27.8292L57.371 27.7125L57.5656 27.5957L57.7602 27.4789L57.9548 27.3622L58.1494 27.2454L58.3441 27.1286L58.5387 27.0119L58.7333 26.8951L58.889 26.7783L59.0446 26.6616L59.2003 26.5448L59.356 26.428L59.5117 26.3113L59.6674 26.1945L59.8231 26.0777L59.9788 25.961L60.1345 25.8442L60.2901 25.7274L60.4458 25.6107L60.6015 25.4939L60.7572 25.3771L60.874 25.2604L60.9907 25.1436L61.1075 24.9879L61.2243 24.8322L62.1195 25.6107L61.9638 25.7664L61.8081 25.922L61.6524 26.0777L61.4967 26.2334L61.341 26.3891L61.1854 26.5448L61.0297 26.7005L60.874 26.8562L60.7183 27.0119L60.5626 27.1286L60.4069 27.2454L60.2512 27.3622L60.0955 27.4789L59.9009 27.5957L59.7063 27.7125L59.5117 27.8292L59.3171 27.946L59.1225 28.0628L58.9279 28.1795L58.7333 28.2963L58.5387 28.4131L58.3441 28.5298L58.1494 28.6466L57.9548 28.7633L57.7602 28.8801L57.5656 28.9969L57.371 29.1136L57.1764 29.2304L56.9818 29.3472L56.7872 29.4639L56.5926 29.5807L56.398 29.6975L56.4369 29.6586ZM23.8592 48.4968L55.7752 28.6077L56.398 29.6196L24.4819 49.5088L23.8592 48.4968ZM21.2903 60.7961L20.3173 61.5357L20.2784 61.4578L20.0059 60.9518L19.7724 60.4458L19.5778 59.9399L19.3831 59.4728L19.2275 59.0057L19.1107 58.5387L18.9939 58.0716L18.9161 57.6045L18.8382 57.1375L18.7993 56.6704V56.2033V55.7752L18.8382 55.3471L18.9161 54.9189L18.9939 54.4908L19.1107 54.0626L19.2664 53.6345L19.4221 53.2453L19.6167 52.8561L19.8113 52.4668L20.0448 52.0776L20.2784 51.6884L20.5508 51.3381L20.8233 50.9878L21.1346 50.6375L21.446 50.2872L21.7963 49.9758L22.1466 49.6645L22.5358 49.3531L22.925 49.0417L23.3532 48.7692L23.7813 48.4968L24.4041 49.5088L24.0149 49.7812L23.6256 50.0537L23.2364 50.3261L22.8861 50.5986L22.5358 50.871L22.2245 51.1824L21.9131 51.4938L21.6406 51.8052L21.3682 52.1165L21.1346 52.4279L20.9011 52.7393L20.7065 53.0507L20.5119 53.362L20.3562 53.7123L20.2394 54.0626L20.1227 54.4129L20.0448 54.7632L19.967 55.1135L19.9281 55.4638L19.8891 55.8531V56.2423V56.6315L19.9281 57.0207L19.967 57.4099L20.0448 57.7991L20.1227 58.2273L20.2394 58.6554L20.3951 59.0836L20.5508 59.5117L20.7454 59.9399L20.9789 60.4069L21.2125 60.874L21.1736 60.7961H21.2903ZM21.3292 60.874C21.4849 61.1464 21.3682 61.5357 21.0957 61.6913C20.8233 61.847 20.434 61.7303 20.2784 61.4578L21.3292 60.874ZM29.5029 63.6764V64.8829H29.1915H28.8801H28.5687H28.2574H27.946H27.6346H27.3232L27.0119 64.844L26.7005 64.8051L26.3891 64.7662L26.0777 64.7273L25.7664 64.6883L25.455 64.6494L25.1436 64.5716L24.8322 64.4937L24.5208 64.4159L24.2484 64.338L23.9759 64.2602L23.7035 64.1434L23.431 64.0267L23.1586 63.9099L22.8861 63.7542L22.6137 63.5985L22.3412 63.4428L22.0688 63.2482L21.7963 63.0536L21.5239 62.859L21.2514 62.6255L21.0179 62.3919L20.7843 62.1195L20.5508 61.847L20.3173 61.5357L21.2903 60.7961L21.4849 61.0686L21.6795 61.3021L21.8742 61.5357L22.0688 61.7303L22.3023 61.9249L22.5358 62.1195L22.7694 62.2752L23.0029 62.4309L23.2364 62.5866L23.47 62.7033L23.7035 62.8201L23.937 62.9369L24.1706 63.0536L24.4041 63.1315L24.6376 63.2093L24.9101 63.2871L25.1825 63.365L25.455 63.4428L25.7274 63.4818L25.9999 63.5207L26.2723 63.5596L26.5448 63.5985L26.8172 63.6374L27.0897 63.6764H27.3622H27.6735H27.9849H28.2963H28.6077H28.919H29.2304H29.5418H29.5029ZM29.5029 63.6764C29.8532 63.6764 30.0867 63.9488 30.0867 64.2602C30.0867 64.6105 29.8142 64.844 29.5029 64.844V63.6374V63.6764ZM53.2842 64.8829H29.5029V63.6764H53.2842V64.8829ZM53.2842 63.6764C53.6345 63.6764 53.868 63.9488 53.868 64.2602C53.868 64.6105 53.5956 64.844 53.2842 64.844V63.6374V63.6764Z" fill="#FF0000"/>
</svg>
