<svg width="86" height="70" viewBox="0 0 86 70" fill="none" xmlns="http://www.w3.org/2000/svg">
<path d="M75.1962 62.025C75.5155 62.025 75.7949 62.3044 75.7949 62.6237C75.7949 62.943 75.5155 63.2224 75.1962 63.2224V62.025ZM36.6401 62.025H75.1962V63.2224H36.6401V62.025ZM36.6401 63.2224C36.3208 63.2224 36.0414 62.943 36.0414 62.6237C36.0414 62.3044 36.3208 62.025 36.6401 62.025V63.2224ZM23.4288 28.498C23.4288 28.8173 23.1494 29.0967 22.8301 29.0967C22.5108 29.0967 22.2314 28.8173 22.2314 28.498H23.4288ZM23.4288 2.51453V28.498H22.2314V2.51453H23.4288ZM24.7061 0.0399132V1.23731H24.6262H24.5464H24.4666H24.3868H24.3069H24.2271L24.1872 1.27722L24.1473 1.31713L24.1074 1.35705L24.0675 1.39696L24.0275 1.43687L23.9876 1.47679L23.9477 1.5167L23.9078 1.55661L23.8679 1.59653L23.828 1.63644L23.7881 1.67635L23.7481 1.71627L23.7082 1.75618L23.6683 1.79609L23.6284 1.836L23.5885 1.87592L23.5486 1.91583L23.5087 1.95574L23.4688 1.99566L23.4288 2.03557V2.07548V2.15531V2.23514V2.31496V2.39479V2.47462H22.2314V2.35488V2.23514V2.1154L22.2714 1.99566L22.3113 1.87592L22.3512 1.75618L22.3911 1.63644L22.431 1.5167L22.4709 1.39696L22.5108 1.27722L22.5508 1.15748L22.6306 1.03774L22.7104 0.957916L22.7902 0.878089L22.8701 0.798263L22.9499 0.718437L23.0297 0.63861L23.1095 0.558784L23.1894 0.478958L23.2692 0.399132L23.3889 0.319305L23.5087 0.279392L23.6284 0.239479L23.7481 0.199566L23.8679 0.159653L23.9876 0.119739L24.1074 0.0798263L24.2271 0.0399132L24.3468 0H24.4666H24.5863H24.7061V0.0399132ZM83.0591 1.23731H24.7061V0.0399132H83.0591V1.23731ZM85.5337 2.51453H84.3363V2.4347V2.35488V2.27505V2.19522V2.1154V2.07548L84.2964 2.03557L84.2565 1.99566L84.2166 1.95574L84.1767 1.91583L84.1367 1.87592L84.0968 1.836L84.0569 1.79609L84.017 1.75618L83.9771 1.71627L83.9372 1.67635L83.8973 1.63644L83.8574 1.59653L83.8174 1.55661L83.7775 1.5167L83.7376 1.47679L83.6977 1.43687L83.6578 1.39696L83.6179 1.35705L83.578 1.31713L83.538 1.27722H83.4981H83.4183H83.3385H83.2587H83.1788H83.099V0.0798263H83.2187H83.3385H83.4582L83.578 0.119739L83.6977 0.159653L83.8174 0.199566L83.9372 0.239479L84.0569 0.279392L84.1767 0.319305L84.2964 0.359218L84.4161 0.399132L84.5359 0.478958L84.6157 0.558784L84.6955 0.63861L84.7754 0.718437L84.8552 0.798263L84.935 0.878089L85.0148 0.957916L85.0947 1.03774L85.1745 1.11757L85.2543 1.23731L85.2942 1.35705L85.3341 1.47679L85.3741 1.59653L85.414 1.71627L85.4539 1.836L85.4938 1.95574L85.5337 2.07548L85.5736 2.19522V2.31496V2.4347V2.55444L85.5337 2.51453ZM84.3363 60.7079V2.51453H85.5337V60.7079H84.3363ZM83.0591 63.1825V61.9851H83.1389H83.2187H83.2986H83.3784H83.4582H83.4981L83.538 61.9452L83.578 61.9053L83.6179 61.8654L83.6578 61.8255L83.6977 61.7856L83.7376 61.7456L83.7775 61.7057L83.8174 61.6658L83.8574 61.6259L83.8973 61.586L83.9372 61.5461L83.9771 61.5062L84.017 61.4663L84.0569 61.4263L84.0968 61.3864L84.1367 61.3465L84.1767 61.3066L84.2166 61.2667L84.2565 61.2268L84.2964 61.1869V61.1469V61.0671V60.9873V60.9075V60.8276V60.7478H85.4938V60.8676V60.9873V61.107L85.4539 61.2268L85.414 61.3465L85.3741 61.4663L85.3341 61.586L85.2942 61.7057L85.2543 61.8255L85.2144 61.9452L85.1745 62.065L85.0947 62.1847L85.0148 62.2645L84.935 62.3443L84.8552 62.4242L84.7754 62.504L84.6955 62.5838L84.6157 62.6636L84.5359 62.7435L84.456 62.8233L84.3363 62.9031L84.2166 62.943L84.0968 62.983L83.9771 63.0229L83.8574 63.0628L83.7376 63.1027L83.6179 63.1426L83.4981 63.1825L83.3784 63.2224H83.2587H83.1389H83.0192L83.0591 63.1825ZM79.1077 61.9851H83.0591V63.1825H79.1077V61.9851ZM79.1077 63.1825C78.7884 63.1825 78.509 62.9031 78.509 62.5838C78.509 62.2645 78.7884 61.9851 79.1077 61.9851V63.1825Z" fill="#FF0000"/>
<path d="M60.3488 5.46811C60.3488 5.78741 60.0694 6.0668 59.7501 6.0668C59.4308 6.0668 59.1514 5.78741 59.1514 5.46811H60.3488ZM60.3488 1.91584V5.46811H59.1514V1.91584H60.3488ZM59.1514 1.91584C59.1514 1.59653 59.4308 1.31714 59.7501 1.31714C60.0694 1.31714 60.3488 1.59653 60.3488 1.91584H59.1514ZM60.3488 0.638614V1.91584H59.1514V0.638614L59.7501 0.039917L60.3488 0.638614ZM59.1514 0.638614C59.1514 0.319309 59.4308 0.039917 59.7501 0.039917C60.0694 0.039917 60.3488 0.319309 60.3488 0.638614H59.1514ZM58.4729 0.039917H59.7501V1.23731H58.4729V0.039917ZM58.4729 1.23731C58.1535 1.23731 57.8742 0.957919 57.8742 0.638614C57.8742 0.319309 58.1535 0.039917 58.4729 0.039917V1.23731ZM49.7319 0.039917L58.4729 0.039917V1.23731H49.7319V0.039917ZM49.7319 1.23731C49.4126 1.23731 49.1332 0.957919 49.1332 0.638614C49.1332 0.319309 49.4126 0.039917 49.7319 0.039917V1.23731ZM48.4547 0.039917H49.7319V1.23731H48.4547L47.856 0.638614L48.4547 0.039917ZM48.4547 1.23731C48.1354 1.23731 47.856 0.957919 47.856 0.638614C47.856 0.319309 48.1354 0.039917 48.4547 0.039917V1.23731ZM47.856 1.91584V0.638614H49.0534V1.91584H47.856ZM49.0534 1.91584C49.0534 2.23514 48.774 2.51453 48.4547 2.51453C48.1354 2.51453 47.856 2.23514 47.856 1.91584H49.0534ZM47.856 9.81864V1.91584H49.0534V9.81864H47.856ZM49.0534 9.81864C49.0534 10.1379 48.774 10.4173 48.4547 10.4173C48.1354 10.4173 47.856 10.1379 47.856 9.81864H49.0534ZM47.856 13.8499V9.81864H49.0534V13.8499H47.856ZM49.7319 14.5284V15.7258H49.652H49.5722H49.4924H49.4126L49.3327 15.6859L49.2529 15.646L49.1731 15.606L49.0933 15.5661L49.0134 15.5262L48.9336 15.4863L48.8538 15.4464L48.774 15.4065L48.6941 15.3666L48.6143 15.3267L48.5345 15.2468L48.4547 15.167L48.3748 15.0872L48.295 15.0073L48.2551 14.9275L48.2152 14.8477L48.1753 14.7679L48.1354 14.688L48.0954 14.6082L48.0555 14.5284L48.0156 14.4486L47.9757 14.3687L47.9358 14.2889L47.8959 14.2091V14.1293V14.0494V13.9696V13.8898H49.0933V13.9297V13.9696V14.0095V14.0494V14.0893V14.1293V14.1692V14.2091V14.249V14.2889V14.3288V14.3687L49.1332 14.4087L49.1731 14.4486L49.213 14.4885L49.2529 14.5284L49.2928 14.5683L49.3327 14.6082L49.3727 14.6481L49.4126 14.688H49.4525H49.4924H49.5323H49.5722H49.6121H49.652H49.692H49.7319H49.7718H49.8117H49.8516H49.8915L49.7319 14.5284ZM58.4729 15.7258H49.7319V14.5284H58.4729V15.7258ZM59.1514 13.8499H60.3488V13.9297V14.0095V14.0893V14.1692L60.3089 14.249L60.2689 14.3288L60.229 14.4087L60.1891 14.4885L60.1492 14.5683L60.1093 14.6481L60.0694 14.728L60.0295 14.8078L59.9896 14.8876L59.9496 14.9674L59.8698 15.0473L59.79 15.1271L59.7102 15.2069L59.6303 15.2468L59.5505 15.2867L59.4707 15.3267L59.3909 15.3666L59.311 15.4065L59.2312 15.4464L59.1514 15.4863L59.0716 15.5262L58.9917 15.5661L58.9119 15.606L58.8321 15.646H58.7522H58.6724H58.5926H58.5128V14.4486H58.5527H58.5926H58.6325H58.6724H58.7123H58.7522H58.7922H58.8321H58.872H58.9119H58.9518H58.9917H59.0316L59.0716 14.4087L59.1115 14.3687L59.1514 14.3288L59.1913 14.2889L59.2312 14.249L59.2711 14.2091V14.1692V14.1293V14.0893V14.0494V14.0095V13.9696V13.9297V13.8898V13.8499V13.81V13.77V13.7301V13.6902L59.1514 13.8499ZM60.3488 9.89847V13.8499H59.1514V9.89847H60.3488ZM59.1514 9.89847C59.1514 9.57916 59.4308 9.29977 59.7501 9.29977C60.0694 9.29977 60.3488 9.57916 60.3488 9.89847H59.1514Z" fill="#FF0000"/>
<path d="M0.598697 9.06028C0.279392 9.06028 0 8.78089 0 8.46158C0 8.14228 0.279392 7.86288 0.598697 7.86288V9.06028ZM31.0524 9.06028H0.598697V7.86288H31.0524V9.06028ZM31.0524 7.86288C31.3717 7.86288 31.6511 8.14228 31.6511 8.46158C31.6511 8.78089 31.3717 9.06028 31.0524 9.06028V7.86288Z" fill="#FF0000"/>
<path d="M5.38825 15.7258C5.06894 15.7258 4.78955 15.4464 4.78955 15.1271C4.78955 14.8078 5.06894 14.5284 5.38825 14.5284V15.7258ZM35.842 15.7258H5.38825V14.5284H35.842V15.7258ZM35.842 14.5284C36.1613 14.5284 36.4407 14.8078 36.4407 15.1271C36.4407 15.4464 36.1613 15.7258 35.842 15.7258V14.5284Z" fill="#FF0000"/>
<path d="M10.1778 22.3913C9.85849 22.3913 9.5791 22.1119 9.5791 21.7926C9.5791 21.4733 9.85849 21.1939 10.1778 21.1939V22.3913ZM40.6315 22.3913H10.1778V21.1939H40.6315V22.3913ZM40.6315 21.1939C40.9508 21.1939 41.2302 21.4733 41.2302 21.7926C41.2302 22.1119 40.9508 22.3913 40.6315 22.3913V21.1939Z" fill="#FF0000"/>
<path fill-rule="evenodd" clip-rule="evenodd" d="M63.0629 21.7926H76.7531C77.5913 21.7926 78.3896 22.1518 78.9484 22.7106C79.5072 23.2694 79.8664 24.0277 79.8664 24.9058V43.7448C79.8664 44.583 79.5072 45.3812 78.9484 45.94C78.3896 46.4988 77.6312 46.858 76.7531 46.858H63.0629C62.2248 46.858 61.4265 46.4988 60.8677 45.94C60.3089 45.3812 59.9497 44.6229 59.9497 43.7448V24.9058C59.9497 24.0676 60.3089 23.2694 60.8677 22.7106C61.4265 22.1518 62.1848 21.7926 63.0629 21.7926ZM63.0629 22.99H76.7531C77.7909 22.99 78.6291 23.8281 78.6291 24.8659V43.7049C78.6291 44.7426 77.7909 45.5808 76.7531 45.5808H63.0629C62.0252 45.5808 61.187 44.7426 61.187 43.7049V24.8659C61.187 23.8281 62.0252 22.99 63.0629 22.99Z" fill="#FF0000"/>
<path d="M65.0587 42.0285C64.7394 42.0285 64.46 41.7491 64.46 41.4298C64.46 41.1105 64.7394 40.8311 65.0587 40.8311V42.0285ZM74.7975 42.0285H65.0587V40.8311H74.7975V42.0285ZM74.7975 40.8311C75.1168 40.8311 75.3962 41.1105 75.3962 41.4298C75.3962 41.7491 75.1168 42.0285 74.7975 42.0285V40.8311Z" fill="#FF0000"/>
<path d="M70.6462 37.3188C70.6462 37.6381 70.3668 37.9175 70.0475 37.9175C69.7282 37.9175 69.4488 37.6381 69.4488 37.3188H70.6462ZM70.6462 26.0234V37.3188H69.4488V26.0234L69.5685 25.6642L70.6462 26.0234ZM69.4488 26.0234C69.4488 25.7041 69.7282 25.4247 70.0475 25.4247C70.3668 25.4247 70.6462 25.7041 70.6462 26.0234H69.4488ZM65.218 31.6511L69.5685 25.6642L70.5264 26.3826L66.1759 32.3696L65.218 31.6511ZM66.1759 32.3696C65.9763 32.649 65.6171 32.6889 65.3377 32.4893C65.0583 32.2897 65.0184 31.9305 65.218 31.6511L66.1759 32.3696ZM70.6462 37.3188C70.6462 37.6381 70.3668 37.9175 70.0475 37.9175C69.7282 37.9175 69.4488 37.6381 69.4488 37.3188H70.6462ZM70.6462 26.0234V37.3188H69.4488V26.0234L70.5264 25.6642L70.6462 26.0234ZM69.4488 26.0234C69.4488 25.7041 69.7282 25.4247 70.0475 25.4247C70.3668 25.4247 70.6462 25.7041 70.6462 26.0234H69.4488ZM73.6796 32.3696L69.5685 26.3826L70.5664 25.7041L74.6774 31.691L73.6796 32.3696ZM74.6774 31.691C74.877 31.9704 74.7971 32.3297 74.5178 32.5292C74.2384 32.7288 73.8791 32.649 73.6796 32.3696L74.6774 31.691Z" fill="#FF0000"/>
<path d="M61.2667 51.3283C60.9474 51.3283 60.668 51.0489 60.668 50.7296C60.668 50.4103 60.9474 50.1309 61.2667 50.1309V51.3283ZM78.7087 51.3283H61.2667V50.1309H78.7087V51.3283ZM78.7087 50.1309C79.028 50.1309 79.3074 50.4103 79.3074 50.7296C79.3074 51.0489 79.028 51.3283 78.7087 51.3283V50.1309Z" fill="#FF0000"/>
<path d="M61.2667 56.4771C60.9474 56.4771 60.668 56.1977 60.668 55.8784C60.668 55.5591 60.9474 55.2797 61.2667 55.2797V56.4771ZM78.7087 56.4771H61.2667V55.2797H78.7087V56.4771ZM78.7087 55.2797C79.028 55.2797 79.3074 55.5591 79.3074 55.8784C79.3074 56.1977 79.028 56.4771 78.7087 56.4771V55.2797Z" fill="#FF0000"/>
<path fill-rule="evenodd" clip-rule="evenodd" d="M21.3936 27.8195C27.2209 27.8195 32.4495 30.1743 36.2812 33.9661C40.073 37.7578 42.4278 43.0264 42.4278 48.8537C42.4278 54.681 40.073 59.9096 36.2812 63.7413C32.4895 67.533 27.2209 69.8879 21.3936 69.8879C15.5663 69.8879 10.3377 67.533 6.506 63.7413C2.71425 59.9495 0.359375 54.681 0.359375 48.8537C0.359375 43.0264 2.71425 37.7977 6.506 33.9661C10.2977 30.1743 15.5663 27.8195 21.3936 27.8195ZM21.3936 29.0169C32.3298 29.0169 41.2304 37.8776 41.2304 48.8537C41.2304 59.7899 32.3697 68.6905 21.3936 68.6905C10.4574 68.6905 1.55677 59.8298 1.55677 48.8537C1.55677 37.9175 10.4175 29.0169 21.3936 29.0169Z" fill="#FF0000"/>
<path fill-rule="evenodd" clip-rule="evenodd" d="M21.3937 38.6359C24.1876 38.6359 26.742 39.7934 28.578 41.6294C30.414 43.4654 31.5715 46.0199 31.5715 48.8138C31.5715 51.6077 30.414 54.1621 28.578 55.9981C26.742 57.8342 24.1876 58.9916 21.3937 58.9916C18.5998 58.9916 16.0453 57.8342 14.2093 55.9981C12.3733 54.1621 11.2158 51.6077 11.2158 48.8138C11.2158 46.0199 12.3733 43.4654 14.2093 41.6294C16.0453 39.7934 18.5998 38.6359 21.3937 38.6359ZM21.3937 39.8333C26.3429 39.8333 30.3741 43.8645 30.3741 48.8138C30.3741 53.763 26.3429 57.7942 21.3937 57.7942C16.4444 57.7942 12.4132 53.763 12.4132 48.8138C12.4132 43.8645 16.4444 39.8333 21.3937 39.8333Z" fill="#FF0000"/>
</svg>
