<svg width="74" height="62" viewBox="0 0 74 62" fill="none" xmlns="http://www.w3.org/2000/svg">
<path d="M9.95461 0C10.2769 0 10.5633 0.286464 10.5633 0.608735C10.5633 0.931006 10.2769 1.21747 9.95461 1.21747V0ZM0.608735 0H9.95461V1.21747H0.608735L0 0.608735L0.608735 0ZM0.608735 1.21747C0.286464 1.21747 0 0.931006 0 0.608735C0 0.286464 0.286464 0 0.608735 0V1.21747ZM0 8.48648V0.608735H1.21747V8.48648H0ZM1.21747 8.48648C1.21747 8.80875 0.931006 9.09522 0.608735 9.09522C0.286464 9.09522 0 8.80875 0 8.48648H1.21747Z" fill="#FF0000"/>
<path d="M9.95461 60.4796C10.2769 60.4796 10.5633 60.7661 10.5633 61.0883C10.5633 61.4106 10.2769 61.6971 9.95461 61.6971V60.4796ZM0.608735 60.4796H9.95461V61.6971H0.608735L0 61.0883L0.608735 60.4796ZM0.608735 61.6971C0.286464 61.6971 0 61.4106 0 61.0883C0 60.7661 0.286464 60.4796 0.608735 60.4796V61.6971ZM1.21747 53.2106V61.0883H0L0 53.2106H1.21747ZM0 53.2106C0 52.8883 0.286464 52.6019 0.608735 52.6019C0.931006 52.6019 1.21747 52.8883 1.21747 53.2106H0Z" fill="#FF0000"/>
<path d="M63.5589 1.21747C63.2367 1.21747 62.9502 0.931006 62.9502 0.608735C62.9502 0.286464 63.2367 0 63.5589 0V1.21747ZM72.9048 1.21747H63.5589V0H72.9048L73.5135 0.608735L72.9048 1.21747ZM72.9048 0C73.2271 0 73.5135 0.286464 73.5135 0.608735C73.5135 0.931006 73.2271 1.21747 72.9048 1.21747V0ZM72.2961 8.48648V0.608735H73.5135V8.48648H72.2961ZM73.5135 8.48648C73.5135 8.80875 73.2271 9.09522 72.9048 9.09522C72.5825 9.09522 72.2961 8.80875 72.2961 8.48648H73.5135Z" fill="#FF0000"/>
<path d="M63.5589 61.6613C63.2367 61.6613 62.9502 61.3748 62.9502 61.0525C62.9502 60.7303 63.2367 60.4438 63.5589 60.4438V61.6613ZM72.9048 61.6613H63.5589V60.4438H72.9048L73.5135 61.0525L72.9048 61.6613ZM72.9048 60.4438C73.2271 60.4438 73.5135 60.7303 73.5135 61.0525C73.5135 61.3748 73.2271 61.6613 72.9048 61.6613V60.4438ZM73.5135 53.1748V61.0525H72.2961V53.1748H73.5135ZM72.2961 53.1748C72.2961 52.8525 72.5825 52.5661 72.9048 52.5661C73.2271 52.5661 73.5135 52.8525 73.5135 53.1748H72.2961Z" fill="#FF0000"/>
<path d="M8.62988 7.30481C8.62988 6.98254 8.91635 6.69608 9.23862 6.69608C9.56089 6.69608 9.84735 6.98254 9.84735 7.30481H8.62988ZM8.62988 52.566V7.30481H9.84735V52.566H8.62988ZM9.84735 52.566C9.84735 52.8883 9.56089 53.1748 9.23862 53.1748C8.91635 53.1748 8.62988 52.8883 8.62988 52.566H9.84735Z" fill="#FF0000"/>
<path d="M13.1416 7.30481C13.1416 6.98254 13.4281 6.69608 13.7503 6.69608C14.0726 6.69608 14.3591 6.98254 14.3591 7.30481H13.1416ZM13.1416 52.566V7.30481H14.3591V52.566H13.1416ZM14.3591 52.566C14.3591 52.8883 14.0726 53.1748 13.7503 53.1748C13.4281 53.1748 13.1416 52.8883 13.1416 52.566H14.3591Z" fill="#FF0000"/>
<path d="M25.4238 7.30481C25.4238 6.98254 25.7103 6.69608 26.0326 6.69608C26.3548 6.69608 26.6413 6.98254 26.6413 7.30481H25.4238ZM25.4238 52.566V7.30481H26.6413V52.566H25.4238ZM26.6413 52.566C26.6413 52.8883 26.3548 53.1748 26.0326 53.1748C25.7103 53.1748 25.4238 52.8883 25.4238 52.566H26.6413Z" fill="#FF0000"/>
<path d="M33.4448 7.30481C33.4448 6.98254 33.7313 6.69608 34.0536 6.69608C34.3758 6.69608 34.6623 6.98254 34.6623 7.30481H33.4448ZM33.4448 52.566V7.30481H34.6623V52.566H33.4448ZM34.6623 52.566C34.6623 52.8883 34.3758 53.1748 34.0536 53.1748C33.7313 53.1748 33.4448 52.8883 33.4448 52.566H34.6623Z" fill="#FF0000"/>
<path d="M41.9312 7.30481C41.9312 6.98254 42.2176 6.69608 42.5399 6.69608C42.8622 6.69608 43.1486 6.98254 43.1486 7.30481H41.9312ZM41.9312 52.566V7.30481H43.1486V52.566H41.9312ZM43.1486 52.566C43.1486 52.8883 42.8622 53.1748 42.5399 53.1748C42.2176 53.1748 41.9312 52.8883 41.9312 52.566H43.1486Z" fill="#FF0000"/>
<path d="M53.0317 7.30481C53.0317 6.98254 53.3182 6.69608 53.6405 6.69608C53.9627 6.69608 54.2492 6.98254 54.2492 7.30481H53.0317ZM53.0317 52.566V7.30481H54.2492V52.566H53.0317ZM54.2492 52.566C54.2492 52.8883 53.9627 53.1748 53.6405 53.1748C53.3182 53.1748 53.0317 52.8883 53.0317 52.566H54.2492Z" fill="#FF0000"/>
<path d="M56.8271 7.30481C56.8271 6.98254 57.1136 6.69608 57.4359 6.69608C57.7582 6.69608 58.0446 6.98254 58.0446 7.30481H56.8271ZM56.8271 52.566V7.30481H58.0446V52.566H56.8271ZM58.0446 52.566C58.0446 52.8883 57.7582 53.1748 57.4359 53.1748C57.1136 53.1748 56.8271 52.8883 56.8271 52.566H58.0446Z" fill="#FF0000"/>
<path d="M64.1318 7.30481C64.1318 6.98254 64.4183 6.69608 64.7406 6.69608C65.0628 6.69608 65.3493 6.98254 65.3493 7.30481H64.1318ZM64.1318 52.566V7.30481H65.3493V52.566H64.1318ZM65.3493 52.566C65.3493 52.8883 65.0628 53.1748 64.7406 53.1748C64.4183 53.1748 64.1318 52.8883 64.1318 52.566H65.3493Z" fill="#FF0000"/>
</svg>
