<svg width="73" height="80" viewBox="0 0 73 80" fill="none" xmlns="http://www.w3.org/2000/svg">
<path fill-rule="evenodd" clip-rule="evenodd" d="M1.25359 11.1434C1.29566 11.1434 21.0261 9.5868 35.7082 0.205389C36.1289 -0.0890944 36.6758 -0.0470253 37.0965 0.205389C51.7786 9.5868 71.509 11.1434 71.5511 11.1434C72.2663 11.1854 72.7711 11.8165 72.729 12.5316C73.9911 70.5029 36.802 79.9685 36.7179 79.9685C36.5075 80.0105 36.2551 80.0105 36.0448 79.9685C35.8344 79.9264 -1.27055 70.3767 0.0335886 12.4054C0.0335886 11.7323 0.580487 11.1854 1.21152 11.1434H1.25359ZM1.3798 12.4475C1.3798 12.4475 21.4468 10.8489 36.4234 1.29919C51.4 10.8489 71.467 12.4475 71.467 12.4475C72.729 69.4932 36.4234 78.7484 36.4234 78.7484C36.4234 78.7484 0.0756578 69.4932 1.3798 12.4475Z" fill="#FF0000"/>
<path d="M21.236 29.6117C21.0256 29.9062 20.6049 29.9903 20.3525 29.78C20.058 29.5696 19.9739 29.1489 20.1842 28.8965L21.236 29.6538V29.6117ZM25.1484 24.1006L21.236 29.6117L20.1842 28.8544L24.0967 23.3434L24.6436 23.091L25.1905 24.1006H25.1484ZM24.0967 23.3434C24.307 23.0489 24.7277 22.9648 24.9801 23.1751C25.2746 23.3855 25.3587 23.8061 25.1484 24.0586L24.0967 23.3013V23.3434ZM48.7071 24.353H24.6436V23.0489H48.7071L49.254 23.3434L48.7071 24.353ZM48.7071 23.0489C49.0436 23.0489 49.3381 23.3434 49.3381 23.6799C49.3381 24.0165 49.0436 24.311 48.7071 24.311V23.0068V23.0489ZM52.0726 29.8641L48.1602 24.0586L49.254 23.3434L53.1664 29.1489L52.0726 29.8641ZM53.1664 29.1489C53.3768 29.4434 53.2926 29.8641 52.9981 30.0324C52.7037 30.2427 52.283 30.1586 52.1147 29.8641L53.2085 29.1489H53.1664Z" fill="#FF0000"/>
<path d="M33.6047 23.68C33.6468 23.3434 33.9833 23.091 34.3199 23.1331C34.6564 23.1751 34.9088 23.5117 34.8668 23.8482L33.6047 23.68ZM32.8054 29.5696L33.6047 23.68L34.8668 23.8482L34.0674 29.7379L32.8054 29.5696ZM34.0674 29.7379C34.0254 30.0745 33.6888 30.3269 33.3523 30.2848C33.0157 30.2427 32.7633 29.9062 32.8054 29.5696L34.0674 29.7379Z" fill="#FF0000"/>
<path d="M38.2321 23.8482C38.1901 23.5117 38.4425 23.1751 38.779 23.1331C39.1156 23.091 39.4521 23.3434 39.4942 23.68L38.2321 23.8482ZM39.0314 29.7379L38.2321 23.8482L39.4942 23.68L40.2935 29.5696L39.0314 29.7379ZM40.2935 29.5696C40.3356 29.9062 40.0832 30.2427 39.7466 30.2848C39.4101 30.3269 39.0735 30.0745 39.0314 29.7379L40.2935 29.5696Z" fill="#FF0000"/>
<path fill-rule="evenodd" clip-rule="evenodd" d="M19.5114 29.0228H53.7136C54.3026 29.0228 54.8915 29.2752 55.2702 29.6538C55.6908 30.0745 55.9433 30.6214 55.9433 31.2524V37.6469V53.2967V55.0636C55.9433 56.3256 55.3964 57.4615 54.555 58.2608C53.7136 59.0601 52.5777 59.5649 51.3157 59.5649H21.9093C20.6473 59.5649 19.4693 59.0601 18.67 58.2608C17.8286 57.4194 17.2817 56.2836 17.2817 55.0636V53.2967V37.6469V31.2524C17.2817 30.6214 17.5342 30.0745 17.9548 29.6538C18.3755 29.2752 18.9224 29.0228 19.5114 29.0228ZM19.5114 30.3269H53.7136C54.2605 30.3269 54.6812 30.7476 54.6812 31.2524V37.6469V53.2967V55.0636C54.6812 56.8305 53.1667 58.3029 51.3157 58.3029H21.9093C20.0583 58.3029 18.5438 56.8305 18.5438 55.0636V53.2967V37.6469V31.2524C18.5438 30.7476 18.9645 30.3269 19.5114 30.3269Z" fill="#FF0000"/>
<path fill-rule="evenodd" clip-rule="evenodd" d="M21.6572 31.2103H51.5262C52.1152 31.2103 52.62 31.4207 52.9987 31.7993C53.3773 32.1779 53.6297 32.7248 53.6297 33.3138V38.4883V52.9601V54.5166C53.6297 55.947 52.9987 56.7042 51.9469 57.0828C51.1897 57.3773 50.3483 57.3773 49.4228 57.3773H23.7606C22.8351 57.3773 21.9937 57.3773 21.2365 57.0828C20.1847 56.6621 19.5537 55.9049 19.5537 54.5166V52.9601V38.4883V33.3138C19.5537 32.7248 19.8061 32.22 20.1847 31.7993C20.5634 31.4207 21.1103 31.2103 21.6572 31.2103ZM21.6572 32.5145H51.5262C51.989 32.5145 52.3676 32.8931 52.3676 33.3138V38.4883V52.9601V54.5166C52.3676 56.0732 51.0635 56.1152 49.4649 56.1152H23.8027C22.2041 56.1152 20.8999 56.0732 20.8999 54.5166V52.9601V38.4883V33.3138C20.8999 32.851 21.2785 32.5145 21.7413 32.5145H21.6572Z" fill="#FF0000"/>
</svg>
