<svg width="58" height="78" viewBox="0 0 58 78" fill="none" xmlns="http://www.w3.org/2000/svg">
<path fill-rule="evenodd" clip-rule="evenodd" d="M5.88345 0H51.3465C52.951 0 54.4367 0.653716 55.5065 1.72343C56.5762 2.79315 57.2299 4.27887 57.2299 5.88345V72.0277C57.2299 73.6322 56.5762 75.118 55.5065 76.1877C54.4367 77.2574 52.951 77.9111 51.3465 77.9111H5.88345C4.27887 77.9111 2.79315 77.2574 1.72343 76.1877C0.653716 75.118 0 73.6322 0 72.0277V5.88345C0 4.27887 0.653716 2.79315 1.72343 1.72343C2.79315 0.653716 4.27887 0 5.88345 0ZM5.88345 1.18858H51.3465C53.9613 1.18858 56.0413 3.32801 56.0413 5.88345V72.0277C56.0413 74.6425 53.9019 76.7225 51.3465 76.7225H5.88345C3.26858 76.7225 1.18858 74.5831 1.18858 72.0277V5.88345C1.18858 3.26858 3.32801 1.18858 5.88345 1.18858Z" fill="#FF0000"/>
<path fill-rule="evenodd" clip-rule="evenodd" d="M10.103 4.63544H47.1271C47.7809 4.63544 48.3157 5.1703 48.3157 5.82401C48.3157 6.8343 48.7317 7.6663 49.326 8.32002C49.9797 8.97374 50.8712 9.33031 51.822 9.33031C52.4757 9.33031 53.0106 9.86517 53.0106 10.5189V67.3328C53.0106 67.9865 52.4757 68.5214 51.822 68.5214C50.8117 68.5214 49.9797 68.9374 49.326 69.5316L49.2666 69.5911C48.6723 70.2448 48.2563 71.0768 48.2563 72.0276C48.2563 72.6814 47.7214 73.2162 47.0677 73.2162H10.0436C9.38989 73.2162 8.85503 72.6814 8.85503 72.0276C8.85503 71.0174 8.43903 70.1854 7.84474 69.5316C7.19102 68.8779 6.29959 68.5214 5.34873 68.5214C4.69502 68.5214 4.16016 67.9865 4.16016 67.3328V10.5189C4.16016 9.86517 4.69502 9.33031 5.34873 9.33031C6.35902 9.33031 7.19102 8.91431 7.84474 8.32002C8.49846 7.6663 8.85503 6.77487 8.85503 5.82401C8.85503 5.1703 9.38989 4.63544 10.0436 4.63544H10.103ZM10.103 5.82401H47.1271C47.1271 8.43888 49.2666 10.5783 51.8814 10.5783V67.3922C49.2666 67.3922 47.1271 69.5316 47.1271 72.1465H10.103C10.103 69.5316 7.9636 67.3922 5.34873 67.3922V10.5783C7.9636 10.5783 10.103 8.43888 10.103 5.82401Z" fill="#FF0000"/>
<path d="M11.7076 56.7545C11.351 56.7545 11.1133 56.4573 11.1133 56.1602C11.1133 55.8036 11.4104 55.5659 11.7076 55.5659V56.7545ZM45.582 56.7545H11.7076V55.5659H45.582V56.7545ZM45.582 55.5659C45.9385 55.5659 46.1763 55.8631 46.1763 56.1602C46.1763 56.5168 45.8791 56.7545 45.582 56.7545V55.5659Z" fill="#FF0000"/>
<path d="M11.7076 61.5682C11.351 61.5682 11.1133 61.2711 11.1133 60.9739C11.1133 60.6174 11.4104 60.3796 11.7076 60.3796V61.5682ZM45.582 61.5682H11.7076V60.3796H45.582V61.5682ZM45.582 60.3796C45.9385 60.3796 46.1763 60.6768 46.1763 60.9739C46.1763 61.3305 45.8791 61.5682 45.582 61.5682V60.3796Z" fill="#FF0000"/>
<path d="M11.7076 66.0254C11.351 66.0254 11.1133 65.7282 11.1133 65.4311C11.1133 65.0745 11.4104 64.8368 11.7076 64.8368V66.0254ZM45.582 66.0254H11.7076V64.8368H45.582V66.0254ZM45.582 64.8368C45.9385 64.8368 46.1763 65.1339 46.1763 65.4311C46.1763 65.7877 45.8791 66.0254 45.582 66.0254V64.8368Z" fill="#FF0000"/>
<path d="M22.583 20.8C22.3453 21.0378 21.9887 20.9783 21.751 20.7406C21.5133 20.5029 21.5727 20.1463 21.8104 19.9086L22.6424 20.8H22.583ZM28.6447 17.2343V18.4229H28.407H28.1693H27.9316H27.6939H27.4562H27.2184L26.9807 18.4823L26.743 18.5417L26.5647 18.6012L26.3864 18.6606L26.2082 18.72L26.0299 18.7795L25.8516 18.8389L25.6733 18.8983L25.495 18.9577L25.3167 19.0172L25.1384 19.0766L24.9602 19.136L24.7819 19.1955L24.6036 19.3143L24.4253 19.4332L24.247 19.552L24.0687 19.6709L23.8904 19.7897L23.7122 19.9086L23.5339 20.0275L23.3556 20.1463L23.1773 20.2652L22.999 20.384L22.8207 20.5029L22.6424 20.6218L22.4641 20.7406L21.6321 19.8492L21.8104 19.6709L21.9887 19.4926L22.167 19.3737L22.3453 19.2549L22.5236 19.136L22.7019 19.0172L22.8801 18.8983L23.0584 18.7795L23.2367 18.6606L23.415 18.5417L23.5933 18.4229L23.7716 18.304L24.0093 18.1852L24.247 18.0663L24.4847 17.9475L24.7224 17.888L24.9602 17.8286L25.1979 17.7692L25.4356 17.7097L25.6733 17.6503L25.911 17.5909L26.1487 17.5315L26.3864 17.472L26.6242 17.4126L26.8619 17.3532L27.0996 17.2937L27.3373 17.2343H27.575H27.8127H28.0505H28.2882H28.5259H28.6447ZM38.8071 27.3966H37.6185V26.9212L37.5591 26.4458L37.4996 25.9703L37.4402 25.5543L37.3213 25.1383L37.2025 24.7223L37.0836 24.3063L36.9053 23.8903L36.727 23.4743L36.5488 23.0583L36.311 22.7018L36.0733 22.3452L35.8356 21.9886L35.5979 21.632L35.3008 21.3349L35.0036 21.0378L34.7065 20.7406L34.4093 20.4435L34.0528 20.2058L33.6962 19.968L33.3396 19.7303L32.983 19.4926L32.567 19.3143L32.151 19.136L31.735 18.9577L31.319 18.8389L30.903 18.72L30.487 18.6012L30.071 18.5417L29.5956 18.4823L29.1202 18.4229H28.6447V17.2343H29.1796L29.7145 17.2937L30.2493 17.3532L30.7247 17.472L31.2002 17.5909L31.6756 17.7097L32.151 17.888L32.6265 18.0663L33.1019 18.2446L33.5179 18.4823L33.9339 18.72L34.3499 18.9577L34.7659 19.2549L35.1225 19.552L35.479 19.8492L35.8356 20.2058L36.1922 20.5623L36.4893 20.9189L36.7865 21.2755L37.0836 21.6915L37.3213 22.1075L37.5591 22.5235L37.7968 22.9395L37.9751 23.4149L38.1533 23.8903L38.3316 24.3658L38.4505 24.8412L38.5693 25.3166L38.6882 25.7921L38.7476 26.3269L38.8071 26.8618V27.3966ZM28.6447 37.559V36.3704H29.1202L29.5956 36.3109L30.071 36.2515L30.487 36.1921L30.903 36.0732L31.319 35.9544L31.735 35.8355L32.151 35.6572L32.567 35.4789L32.983 35.3007L33.3396 35.0629L33.6962 34.8252L34.0528 34.5875L34.4093 34.3498L34.7065 34.0527L35.0036 33.7555L35.3008 33.4584L35.5979 33.1612L35.8356 32.8046L36.0733 32.4481L36.311 32.0915L36.5488 31.7349L36.727 31.3189L36.9053 30.9029L37.0836 30.4869L37.2025 30.0709L37.3213 29.6549L37.4402 29.2389L37.4996 28.8229L37.5591 28.3475L37.6185 27.8721V27.3966H38.8071V27.9315L38.7476 28.4663L38.6882 29.0012L38.5693 29.4766L38.4505 29.9521L38.3316 30.4275L38.1533 30.9029L37.9751 31.3784L37.7968 31.8538L37.5591 32.2698L37.3213 32.6858L37.0836 33.1018L36.7865 33.5178L36.4893 33.8744L36.1922 34.2309L35.8356 34.5875L35.479 34.9441L35.1225 35.2412L34.7659 35.5384L34.3499 35.8355L33.9339 36.0732L33.5179 36.3109L33.1019 36.5487L32.6265 36.7269L32.151 36.9052L31.6756 37.0835L31.2002 37.2024L30.7247 37.3212L30.2493 37.4401L29.7145 37.4995L29.1796 37.559H28.6447ZM18.4824 27.3966H19.671V27.8721L19.7304 28.3475L19.7899 28.8229L19.8493 29.2389L19.9681 29.6549L20.087 30.0709L20.2059 30.4869L20.3841 30.9029L20.5624 31.3189L20.7407 31.7349L20.9784 32.0915L21.2161 32.4481L21.4539 32.8046L21.6916 33.1612L21.9887 33.4584L22.2859 33.7555L22.583 34.0527L22.8801 34.3498L23.2367 34.5875L23.5933 34.8252L23.9499 35.0629L24.3064 35.3007L24.7224 35.4789L25.1384 35.6572L25.5544 35.8355L25.9704 35.9544L26.3864 36.0732L26.8024 36.1921L27.2184 36.2515L27.6939 36.3109L28.1693 36.3704H28.6447V37.559H28.1099L27.575 37.4995L27.0402 37.4401L26.5647 37.3212L26.0893 37.2024L25.6139 37.0835L25.1384 36.9052L24.663 36.7269L24.1876 36.5487L23.7716 36.3109L23.3556 36.0732L22.9396 35.8355L22.5236 35.5384L22.167 35.2412L21.8104 34.9441L21.4539 34.5875L21.0973 34.2309L20.8001 33.8744L20.503 33.5178L20.2059 33.1018L19.9681 32.6858L19.7304 32.2698L19.4927 31.8538L19.3144 31.3784L19.1361 30.9029L18.9579 30.4275L18.839 29.9521L18.7201 29.4766L18.6013 29.0012L18.5419 28.4663L18.4824 27.9315V27.3966ZM19.255 23.4743L20.3841 23.9498L20.3247 24.0686L20.2653 24.1875L20.2059 24.3063L20.1464 24.4252L20.087 24.5441L20.0276 24.6629L19.9681 24.7818L19.9087 24.9006L19.8493 25.0195L19.7899 25.1383V25.2572V25.3761V25.4949V25.6138V25.7326V25.8515V25.9703V26.0892V26.2081V26.3269V26.4458V26.5646V26.6835V26.8023V26.9212V27.0401V27.1589V27.2778V27.3966V27.5155V27.6343V27.7532H18.6013V27.6343V27.5155V27.3966V27.2778V27.1589V27.0401V26.9212V26.8023V26.6835V26.5646V26.4458V26.3269V26.2081V26.0892V25.9703V25.8515V25.7326V25.6138V25.4949L18.6607 25.3761L18.7201 25.2572L18.7796 25.1383L18.839 25.0195L18.8984 24.9006L18.9579 24.7818L19.0173 24.6629L19.0767 24.5441L19.1361 24.4252L19.1956 24.3063L19.255 24.1875L19.3144 24.0686L19.3739 23.9498L19.255 23.4743ZM19.255 23.4743C19.3739 23.1772 19.7304 22.9989 20.0276 23.1772C20.3247 23.296 20.503 23.6526 20.3247 23.9498L19.1956 23.4743H19.255Z" fill="#FF0000"/>
<path fill-rule="evenodd" clip-rule="evenodd" d="M26.624 12.1235C26.624 12.1235 28.7634 13.9063 30.2492 12.3018C30.3086 12.2423 30.368 12.1829 30.368 12.1829C30.368 12.1829 34.4686 9.0926 36.3109 14.5006V14.56C36.4297 14.9166 37.1429 16.4618 39.5795 16.5212C39.5795 16.5212 43.8583 16.5212 42.6698 21.8104C42.6698 21.8698 42.6103 21.9886 42.6103 22.0481C42.4915 22.3452 42.1349 23.7715 44.1555 25.0195C44.1555 25.0195 47.3646 26.9212 43.7395 30.6652C43.68 30.7247 43.5612 30.7841 43.5018 30.8435C43.3235 30.9624 41.8378 32.0915 42.6103 34.647C42.6103 34.7064 42.6698 34.7658 42.6698 34.8253C42.6698 34.8253 43.3235 39.1041 39.3417 39.1041C37.5589 39.1041 37.0835 39.9361 36.608 40.8276L36.5486 41.0058C36.1326 41.7784 35.5383 42.8481 34.528 43.383C33.3989 43.9773 31.9726 44.0367 30.0114 42.6698C29.536 42.3133 29.0606 42.135 28.6446 42.0756C28.1691 42.0161 27.7531 42.0756 27.3966 42.2539C27.2183 42.3133 26.9806 42.4916 26.7429 42.6698C26.4457 42.8481 26.208 43.0264 25.9109 43.2047C24.544 43.9179 23.1177 44.0961 21.8103 41.6001C21.3943 40.7681 20.9188 40.1144 20.3245 39.6984C19.7897 39.2824 19.1954 39.0447 18.4228 38.9853C17.056 38.8664 16.0457 38.4504 15.3325 37.4995C14.6788 36.6675 14.4411 35.4195 14.5005 33.7555C14.6194 31.8538 14.0845 31.2595 13.312 30.4275C13.1337 30.2492 12.9554 30.071 12.8365 29.8927C11.9451 28.8824 11.6479 27.8127 12.0045 26.6241C12.2422 25.6732 12.9554 24.6629 13.9657 23.7121C15.0948 22.6424 14.7382 20.9189 14.7382 20.7406C14.56 20.1464 13.6091 16.5212 18.4823 15.8081C21.216 15.4515 21.0971 14.0252 21.0971 14.0252C21.0971 13.9063 21.0971 13.7875 21.1565 13.6686C21.1565 13.6686 22.1668 9.33032 26.5051 11.8263C26.5646 11.8858 26.624 11.8858 26.6834 11.9452L26.624 12.1235ZM27.872 14.0252H29.6549C30.1303 13.9063 30.6652 13.6092 31.0812 13.0743C31.0812 13.0743 33.8743 10.9943 35.1817 14.8572C35.1817 14.8572 36.0137 17.6503 39.5795 17.7098C39.5795 17.7098 42.3726 17.7098 41.5406 21.5726C41.5406 21.5726 40.4709 24.1281 43.5612 26.0298C43.5612 26.0298 45.5223 27.2184 42.9669 29.8332C42.9669 29.8332 40.4115 31.3784 41.6 35.0035C41.6 35.0035 42.0755 37.9156 39.4606 37.9156C36.8457 37.9156 36.3109 39.1636 35.5977 40.471C34.8846 41.7784 33.7554 43.799 30.784 41.719C29.2983 40.6493 27.9909 40.7681 27.04 41.1841C25.792 41.719 24.3657 43.7396 22.9394 41.0653C21.9291 39.1041 20.6217 37.975 18.6011 37.7967C16.5805 37.6184 15.6891 36.6081 15.808 33.8744C15.9862 31.0812 15.0354 30.5464 13.7874 29.1795C12.5394 27.8127 13.0742 26.3269 14.7977 24.7224C16.5211 23.1178 15.8674 20.5624 15.8674 20.5624C15.8674 20.5624 14.7977 17.7098 18.6605 17.1749C22.5234 16.6401 22.2857 14.144 22.2857 14.144C22.2857 14.144 22.9394 11.3509 25.8514 13.0743C25.8514 13.0743 26.7429 13.7875 27.872 14.0846V14.0252Z" fill="#FF0000"/>
<path d="M16.5211 37.8561C16.6993 37.559 17.0559 37.4996 17.3531 37.6184C17.6502 37.7967 17.7096 38.1533 17.5908 38.4504L16.5805 37.8561H16.5211ZM12.777 44.215L16.5211 37.8561L17.5313 38.4504L13.7873 44.8093L12.777 44.1556V44.215ZM15.0353 46.1762L15.3919 47.3053H15.3325L14.9759 47.3647L14.6193 47.4242H14.3222H14.025H13.7279L13.4902 47.3647L13.2525 47.3053L13.0148 47.1865L12.8365 47.0676L12.6582 46.9487L12.5393 46.7705L12.4205 46.5922L12.361 46.4139L12.3016 46.2356L12.2422 46.0573V45.879V45.7007V45.5225V45.3442L12.3016 45.1659L12.361 45.047L12.4205 44.9282L12.4799 44.8093L12.5393 44.6905L12.5988 44.5716L12.6582 44.4527L12.7176 44.3933L12.777 44.3339L12.8365 44.2744V44.215V44.1556L13.8468 44.8093V44.8687V44.9282V44.9876L13.7873 45.047L13.7279 45.1065L13.6685 45.1659L13.609 45.2253L13.5496 45.2847L13.4902 45.4036V45.5225V45.6413V45.7007V45.7602V45.8196V45.879V45.9385V45.9979H13.5496H13.609L13.6685 46.0573L13.7873 46.1167H13.9062H14.0845H14.2628H14.5005L14.7976 46.0573L15.0948 45.9979H15.0353V46.1762ZM15.0948 46.1762C15.3919 46.1167 15.7485 46.3545 15.8079 46.6516C15.8673 46.9487 15.6296 47.3053 15.3325 47.3647L15.0948 46.1762ZM19.9679 48.9693L18.7794 49.207L18.7199 48.9099L18.6605 48.6722L18.6011 48.4345L18.4822 48.2562L18.3633 48.0779L18.2445 47.8996L18.1256 47.7807L18.0068 47.6619L17.8879 47.543L17.7691 47.4836L17.6502 47.4242L17.5313 47.3647L17.4125 47.3053L17.2936 47.2459L17.1748 47.1865H17.0559H16.9371H16.8182H16.6993H16.5805H16.4616H16.3428H16.2239H16.1051H15.9862H15.8673H15.8079H15.7485H15.6891H15.6296L15.2731 46.0573H15.3325H15.3919H15.4513H15.5702H15.6891H15.8079H15.9268H16.0456H16.2239H16.4022H16.5805H16.7588H16.9371H17.1153H17.2936L17.5313 46.1167L17.7691 46.1762L18.0068 46.2356L18.2445 46.295L18.4822 46.4139L18.7199 46.5327L18.9576 46.6516L19.1359 46.8299L19.3142 47.0082L19.4925 47.2459L19.6708 47.4836L19.8491 47.7213L19.9679 48.0185L20.0868 48.3156L20.2056 48.6722L20.2651 49.0288L19.9679 48.9693ZM22.4639 48.1373L23.5337 48.7316L23.4742 48.8505L23.4148 48.9693L23.3554 49.0882L23.2959 49.207L23.1771 49.3259L23.0582 49.4447L22.9394 49.5636L22.8205 49.7419L22.7016 49.9202L22.5828 50.0985L22.4639 50.2768L22.3451 50.3956L22.1668 50.5145L21.9885 50.6333L21.8102 50.7522L21.6319 50.871L21.4536 50.9899L21.2754 51.1088L21.0971 51.1682L20.8594 51.2276L20.6216 51.287H20.3839L20.1462 51.2276L19.9085 51.1682L19.6708 51.0493L19.4925 50.871L19.3142 50.6928L19.1954 50.455L19.0765 50.2173L18.9576 49.9202L18.8388 49.623L18.7794 49.2665L19.9679 49.0288L20.0274 49.3259L20.0868 49.5636L20.1462 49.7419L20.2056 49.8608L20.2651 49.9796L20.3245 50.039L20.3839 50.0985H20.4434H20.5028H20.5622H20.6216L20.6811 50.039L20.7999 49.9796L20.9188 49.9202L21.0376 49.8608L21.1565 49.7419L21.2754 49.623L21.3942 49.5042L21.5131 49.3853L21.6319 49.2665L21.7508 49.1476L21.8696 49.0288L21.9885 48.9099L22.1074 48.791L22.1668 48.6722L22.2262 48.5533L22.2856 48.4345L22.3451 48.3156L22.4045 48.2562L22.4639 48.1967V48.1373ZM26.8022 42.551L23.4742 48.6722L22.4045 48.0779L25.7325 41.9567L26.8022 42.551ZM25.7325 41.9567C25.9108 41.6596 26.2674 41.5407 26.5645 41.719C26.8617 41.8973 26.9805 42.2539 26.8022 42.551L25.7325 41.9567Z" fill="#FF0000"/>
<path d="M39.9954 38.6881C39.8171 38.391 39.9359 38.0344 40.2331 37.8561C40.5302 37.6778 40.8868 37.7967 41.0651 38.0938L40.0548 38.6881H39.9954ZM43.6205 44.8687L39.9954 38.6881L41.0056 38.0938L44.6308 44.2744L43.6205 44.9281V44.8687ZM42.0159 47.3647L42.3725 46.2356H42.3131L42.6102 46.295L42.9074 46.3544H43.1451H43.3234H43.5017H43.6205L43.7394 46.295L43.7988 46.2356H43.8582H43.9177V46.1761V46.1167V46.0573V45.9978V45.9384V45.879V45.7601V45.6413L43.8582 45.5224L43.7988 45.463L43.7394 45.4036L43.6799 45.3441L43.6205 45.2847L43.5611 45.2253V45.1658V45.1064V45.047L44.5714 44.3933V44.4527V44.5121L44.6308 44.5716L44.6902 44.631L44.7497 44.6904L44.8091 44.8093L44.8685 44.9281L44.9279 45.047L44.9874 45.1658L45.0468 45.2847L45.1062 45.4036L45.1657 45.5818V45.7601V45.9384V46.1167V46.295L45.1062 46.4733L45.0468 46.6516L44.9874 46.8299L44.8685 47.0081L44.7497 47.1864L44.5714 47.3053L44.3931 47.4241L44.1554 47.543L43.9177 47.6024L43.6799 47.6619H43.3828H43.0857H42.7885L42.4319 47.6024L42.0754 47.543H42.0159V47.3647ZM42.0754 47.3647C41.7782 47.3053 41.5405 47.0081 41.5999 46.6516C41.6594 46.3544 41.9565 46.1167 42.3131 46.1761L42.0754 47.3647ZM38.5691 49.207L37.3805 48.9693L37.4399 48.6127L37.5588 48.2561L37.6776 47.959L37.7965 47.6619L37.9748 47.4241L38.1531 47.1864L38.3313 46.9487L38.5096 46.7704L38.6879 46.5921L38.9256 46.4733L39.1634 46.3544L39.4011 46.2356L39.6388 46.1761L39.8765 46.1167L40.1142 46.0573L40.3519 45.9978H40.5302H40.7085H40.8868H41.0651H41.2434H41.4216H41.5999H41.7188H41.8376H41.9565H42.0754H42.1942H42.2536H42.3131H42.3725L42.0159 47.127H41.9565H41.8971H41.8376H41.7782H41.6594H41.5405H41.4216H41.3028H41.1839H41.0651H40.9462H40.8274H40.7085H40.5896H40.4708L40.3519 47.1864L40.2331 47.2458L40.1142 47.3053L39.9954 47.3647L39.8765 47.4241L39.7576 47.4836L39.6388 47.6024L39.5199 47.7213L39.4011 47.8401L39.2822 48.0184L39.1634 48.1967L39.0445 48.375L38.9851 48.6127L38.9256 48.8504L38.8662 49.1476L38.5691 49.207ZM33.8742 48.6721L34.9439 48.0779L35.0033 48.1373L35.0628 48.1967L35.1222 48.3156L35.1816 48.4344L35.2411 48.5533L35.3005 48.6721L35.4193 48.791L35.5382 48.9099L35.6571 49.0287L35.7759 49.1476L35.8948 49.2664L36.0136 49.3853L36.1325 49.5041L36.2513 49.623L36.3702 49.7419L36.4891 49.8013L36.6079 49.8607L36.7268 49.9201L36.7862 49.9796H36.8456H36.9051H36.9645H37.0239L37.0833 49.9201L37.1428 49.8607L37.2022 49.7419L37.2616 49.623L37.3211 49.4447L37.3805 49.207L37.4399 48.9099L38.6285 49.1476L38.5691 49.5041L38.4502 49.8013L38.3313 50.0984L38.2125 50.3361L38.0936 50.5739L37.9154 50.7521L37.7371 50.9304L37.4993 51.0493L37.2616 51.1087L37.0239 51.1681H36.7862L36.5485 51.1087L36.3108 51.0493L36.1325 50.9899L35.9542 50.871L35.7759 50.7521L35.5976 50.6333L35.4193 50.5144L35.2411 50.3956L35.0628 50.2767L34.9439 50.1579L34.8251 49.9796L34.7062 49.8013L34.5873 49.623L34.4685 49.4447L34.3496 49.3259L34.2308 49.207L34.1119 49.0881L34.0525 48.9693L33.9931 48.8504L33.9336 48.7316L33.8742 48.6127V48.6721ZM32.0319 42.7293L34.9439 48.1373L33.8742 48.7316L30.9622 43.3236L32.0319 42.7293ZM30.9622 43.3236C30.7839 43.0264 30.9028 42.6698 31.1999 42.4916C31.497 42.3133 31.8536 42.4321 32.0319 42.7293L30.9622 43.3236Z" fill="#FF0000"/>
</svg>
