<svg width="59" height="80" viewBox="0 0 59 80" fill="none" xmlns="http://www.w3.org/2000/svg">
<path fill-rule="evenodd" clip-rule="evenodd" d="M12.0084 21.5149H21.4038C22.1266 21.5149 22.7937 21.7929 23.294 22.2933C23.3496 22.3489 23.3496 22.3489 23.4052 22.4045C23.85 22.9048 24.128 23.5163 24.128 24.1835V33.7457C24.128 34.4684 23.85 35.1355 23.3496 35.6359C22.8493 36.1362 22.1822 36.4142 21.4594 36.4142H12.064C11.3413 36.4142 10.6742 36.1362 10.1738 35.6359C9.67348 35.1355 9.39551 34.4684 9.39551 33.7457V24.1835C9.39551 23.4607 9.67348 22.7936 10.1738 22.2933C10.2294 22.2377 10.2294 22.2377 10.285 22.1821C10.7854 21.7373 11.3969 21.4594 12.064 21.4594L12.0084 21.5149ZM12.0084 22.738H21.4038C22.1822 22.738 22.8493 23.4051 22.8493 24.1835V33.7457C22.8493 34.524 22.1822 35.1911 21.4038 35.1911H12.0084C11.2301 35.1911 10.563 34.524 10.563 33.7457V24.1835C10.563 23.4051 11.2301 22.738 12.0084 22.738Z" fill="#FF0000"/>
<path fill-rule="evenodd" clip-rule="evenodd" d="M12.0084 38.8047H21.4038C22.1266 38.8047 22.7937 39.0827 23.294 39.583C23.3496 39.6386 23.3496 39.6386 23.4052 39.6942C23.85 40.1946 24.128 40.8061 24.128 41.4732V51.0354C24.128 51.7581 23.85 52.4253 23.3496 52.9256C22.8493 53.426 22.1822 53.7039 21.4594 53.7039H12.064C11.3413 53.7039 10.6742 53.426 10.1738 52.9256C9.67348 52.4253 9.39551 51.7581 9.39551 51.0354V41.4732C9.39551 40.7505 9.67348 40.0834 10.1738 39.583C10.2294 39.5274 10.2294 39.5274 10.285 39.4718C10.7854 39.0271 11.3969 38.7491 12.064 38.7491L12.0084 38.8047ZM12.0084 40.0278H21.4038C22.1822 40.0278 22.8493 40.6949 22.8493 41.4732V51.0354C22.8493 51.8137 22.1822 52.4809 21.4038 52.4809H12.0084C11.2301 52.4809 10.563 51.8137 10.563 51.0354V41.4732C10.563 40.6949 11.2301 40.0278 12.0084 40.0278Z" fill="#FF0000"/>
<path fill-rule="evenodd" clip-rule="evenodd" d="M12.0084 56.1501H21.4038C22.1265 56.1501 22.7936 56.4281 23.294 56.9284C23.7943 57.4288 24.0723 58.0959 24.0723 58.8186V68.3808C24.0723 69.1036 23.7943 69.7707 23.294 70.271C23.2384 70.3266 23.2384 70.3266 23.1828 70.3822C22.6824 70.827 22.0709 71.1049 21.4038 71.1049H12.0084C11.2856 71.1049 10.6185 70.827 10.1182 70.3266C9.61782 69.8263 9.33984 69.1591 9.33984 68.4364V58.8742C9.33984 58.1515 9.61782 57.4844 10.1182 56.984C10.6185 56.4837 11.2856 56.2057 12.0084 56.2057V56.1501ZM12.0084 57.3732H21.4038C22.1821 57.3732 22.8492 58.0403 22.8492 58.8186V68.3808C22.8492 69.1592 22.1821 69.8263 21.4038 69.8263H12.0084C11.23 69.8263 10.5629 69.1592 10.5629 68.3808V58.8186C10.5629 58.0403 11.23 57.3732 12.0084 57.3732Z" fill="#FF0000"/>
<path d="M26.6296 29.6317C26.296 29.6317 26.0181 29.3537 26.0181 29.0202C26.0181 28.6866 26.296 28.4086 26.6296 28.4086V29.6317ZM49.1452 29.6317H26.6296V28.4086H49.1452V29.6317ZM49.1452 28.4086C49.4788 28.4086 49.7568 28.6866 49.7568 29.0202C49.7568 29.3537 49.4788 29.6317 49.1452 29.6317V28.4086Z" fill="#FF0000"/>
<path d="M26.6296 46.8659C26.296 46.8659 26.0181 46.5879 26.0181 46.2543C26.0181 45.9208 26.296 45.6428 26.6296 45.6428V46.8659ZM49.1452 46.8659H26.6296V45.6428H49.1452V46.8659ZM49.1452 45.6428C49.4788 45.6428 49.7568 45.9208 49.7568 46.2543C49.7568 46.5879 49.4788 46.8659 49.1452 46.8659V45.6428Z" fill="#FF0000"/>
<path d="M26.6296 64.2668C26.296 64.2668 26.0181 63.9889 26.0181 63.6553C26.0181 63.3217 26.296 63.0438 26.6296 63.0438V64.2668ZM49.1452 64.2668H26.6296V63.0438H49.1452V64.2668ZM49.1452 63.0438C49.4788 63.0438 49.7568 63.3217 49.7568 63.6553C49.7568 63.9889 49.4788 64.2668 49.1452 64.2668V63.0438Z" fill="#FF0000"/>
<path d="M13.3429 28.2418C13.1761 27.9083 13.3429 27.5747 13.6209 27.4079C13.9544 27.2411 14.288 27.4079 14.4548 27.6859L13.3429 28.2418ZM14.9551 31.5219L13.3429 28.2418L14.4548 27.6859L16.067 30.966L15.9558 31.6331L14.9551 31.5219ZM16.067 30.966C16.2338 31.2995 16.067 31.6331 15.7891 31.7999C15.4555 31.9667 15.1219 31.7999 14.9551 31.5219L16.067 30.966ZM20.0142 27.0744L16.0114 31.6331L15.0663 30.7992L19.0691 26.2405L20.0142 27.0744ZM19.0691 26.2405C19.2915 25.9625 19.6806 25.9625 19.9586 26.1849C20.2366 26.4072 20.2366 26.7964 20.0142 27.0744L19.0691 26.2405Z" fill="#FF0000"/>
<path fill-rule="evenodd" clip-rule="evenodd" d="M12.0084 38.8047H21.4038C22.1266 38.8047 22.7937 39.0827 23.294 39.583C23.3496 39.6386 23.3496 39.6386 23.4052 39.6942C23.85 40.1946 24.128 40.8061 24.128 41.4732V51.0354C24.128 51.7581 23.85 52.4253 23.3496 52.9256C22.8493 53.426 22.1822 53.7039 21.4594 53.7039H12.064C11.3413 53.7039 10.6742 53.426 10.1738 52.9256C9.67348 52.4253 9.39551 51.7581 9.39551 51.0354V41.4732C9.39551 40.7505 9.67348 40.0834 10.1738 39.583C10.2294 39.5274 10.2294 39.5274 10.285 39.4718C10.7854 39.0271 11.3969 38.7491 12.064 38.7491L12.0084 38.8047ZM12.0084 40.0278H21.4038C22.1822 40.0278 22.8493 40.6949 22.8493 41.4732V51.0354C22.8493 51.8137 22.1822 52.4809 21.4038 52.4809H12.0084C11.2301 52.4809 10.563 51.8137 10.563 51.0354V41.4732C10.563 40.6949 11.2301 40.0278 12.0084 40.0278Z" fill="#FF0000"/>
<path d="M13.3429 45.5316C13.1761 45.1981 13.3429 44.8645 13.6209 44.6977C13.9544 44.5309 14.288 44.6977 14.4548 44.9757L13.3429 45.5316ZM14.9551 48.8117L13.3429 45.5316L14.4548 44.9757L16.067 48.2557L15.9558 48.9229L14.9551 48.8117ZM16.067 48.2557C16.2338 48.5893 16.067 48.9229 15.7891 49.0897C15.4555 49.2564 15.1219 49.0897 14.9551 48.8117L16.067 48.2557ZM20.0142 44.3642L16.0114 48.9229L15.0663 48.089L19.0691 43.5302L20.0142 44.3642ZM19.0691 43.5302C19.2915 43.2523 19.6806 43.2523 19.9586 43.4747C20.2366 43.697 20.2366 44.0862 20.0142 44.3642L19.0691 43.5302Z" fill="#FF0000"/>
<path fill-rule="evenodd" clip-rule="evenodd" d="M12.0084 56.1501H21.4038C22.1265 56.1501 22.7936 56.4281 23.294 56.9284C23.7943 57.4288 24.0723 58.0959 24.0723 58.8186V68.3808C24.0723 69.1036 23.7943 69.7707 23.294 70.271C23.2384 70.3266 23.2384 70.3266 23.1828 70.3822C22.6824 70.827 22.0709 71.1049 21.4038 71.1049H12.0084C11.2856 71.1049 10.6185 70.827 10.1182 70.3266C9.61782 69.8263 9.33984 69.1591 9.33984 68.4364V58.8742C9.33984 58.1515 9.61782 57.4844 10.1182 56.984C10.6185 56.4837 11.2856 56.2057 12.0084 56.2057V56.1501ZM12.0084 57.3732H21.4038C22.1821 57.3732 22.8492 58.0403 22.8492 58.8186V68.3808C22.8492 69.1592 22.1821 69.8263 21.4038 69.8263H12.0084C11.23 69.8263 10.5629 69.1592 10.5629 68.3808V58.8186C10.5629 58.0403 11.23 57.3732 12.0084 57.3732Z" fill="#FF0000"/>
<path d="M13.3429 62.877C13.1761 62.5434 13.3429 62.2099 13.6209 62.0431C13.9544 61.8763 14.288 62.0431 14.4548 62.3211L13.3429 62.877ZM14.9551 66.1571L13.3429 62.877L14.4548 62.3211L16.067 65.6011L15.9558 66.2683L14.9551 66.1571ZM16.067 65.6011C16.2338 65.9347 16.067 66.2682 15.7891 66.435C15.4555 66.6018 15.1219 66.435 14.9551 66.1571L16.067 65.6011ZM20.0142 61.7095L16.0114 66.2683L15.0663 65.4343L19.0691 60.8756L20.0142 61.7095ZM19.0691 60.8756C19.2915 60.5976 19.6806 60.5976 19.9586 60.82C20.2366 61.0424 20.2366 61.4316 20.0142 61.7095L19.0691 60.8756Z" fill="#FF0000"/>
<path fill-rule="evenodd" clip-rule="evenodd" d="M15.6219 4.44753H21.0701V3.44684C21.0701 2.50174 21.4592 1.61223 22.0708 1.00069C22.6823 0.389159 23.5718 0 24.5169 0H33.69C34.6351 0 35.5246 0.389159 36.1361 1.00069C36.7476 1.61223 37.1368 2.50174 37.1368 3.44684V4.44753H42.585C43.3633 4.44753 44.0861 4.7811 44.5864 5.28145C44.642 5.33704 44.642 5.33704 44.6976 5.39263C45.1424 5.89298 45.4203 6.56011 45.4203 7.28284V16.5115C45.4203 17.2898 45.0868 18.0125 44.5864 18.5129C44.0861 19.0132 43.3633 19.3468 42.585 19.3468H15.5663C14.7879 19.3468 14.0652 19.0132 13.5649 18.5129C13.0645 18.0125 12.731 17.2898 12.731 16.5115V7.28284C12.731 6.50452 13.0645 5.78179 13.5649 5.28145C14.0652 4.7811 14.7879 4.44753 15.5663 4.44753H15.6219ZM15.6219 5.6706H22.2932V3.44684C22.2932 2.22377 23.2938 1.22307 24.5169 1.22307H33.69C34.913 1.22307 35.9137 2.22377 35.9137 3.44684V5.6706H42.585C43.4745 5.6706 44.1973 6.39333 44.1973 7.28284V16.5115C44.1973 17.401 43.4745 18.1237 42.585 18.1237H15.5663C14.6768 18.1237 13.954 17.401 13.954 16.5115V7.28284C13.954 6.39333 14.6768 5.6706 15.5663 5.6706H15.6219Z" fill="#FF0000"/>
<path d="M45.1979 73.6067C45.5314 73.6067 45.8094 73.8847 45.8094 74.2182C45.8094 74.5518 45.5314 74.8298 45.1979 74.8298V73.6067ZM7.72739 73.6067H45.1979V74.8298H7.72739V73.6067ZM4.55852 71.6609H5.7816V71.7721V71.8833V71.9945V72.1056V72.2168V72.328L5.83719 72.4392L5.89278 72.5504L5.94838 72.6616L6.00397 72.7728L6.05957 72.8284L6.11516 72.884L6.17075 72.9396L6.22635 72.9952L6.28194 73.0508L6.33754 73.1063L6.39313 73.1619L6.44873 73.2175L6.50432 73.2731L6.55991 73.3287L6.61551 73.3843L6.6711 73.4399L6.78229 73.4955L6.89348 73.5511L7.00467 73.6067L7.11586 73.6623H7.22704H7.33823H7.44942H7.56061H7.6718H7.78299V74.8854H7.6162H7.44942H7.28264L7.11586 74.8298L6.94907 74.7742L6.78229 74.7186L6.61551 74.663L6.44873 74.6074L6.28194 74.5518L6.17075 74.4962L6.05957 74.4406L5.94838 74.3294L5.83719 74.2182L5.726 74.107L5.61481 73.9959L5.50362 73.8847L5.39244 73.7735L5.28125 73.6623L5.17006 73.5511L5.05887 73.4399L5.00328 73.3287L4.94768 73.2175L4.89209 73.1063L4.83649 72.9396L4.7809 72.7728L4.72531 72.606L4.66971 72.4392L4.61412 72.2724L4.55852 72.1056V71.9389V71.7721V71.6053V71.6609ZM5.7816 15.5664V71.6609H4.55852V15.5664H5.7816ZM7.72739 12.3975V13.6206H7.6162H7.50501H7.39383H7.28264H7.17145H7.06026L6.94907 13.6762L6.83788 13.7318L6.7267 13.7874L6.61551 13.843L6.55991 13.8986L6.50432 13.9541L6.44873 14.0097L6.39313 14.0653L6.33754 14.1209L6.28194 14.1765L6.22635 14.2321L6.17075 14.2877L6.11516 14.3433L6.05957 14.3989L6.00397 14.4545L5.94838 14.5101L5.89278 14.6213L5.83719 14.7325L5.7816 14.8437L5.726 14.9548V15.066V15.1772V15.2884V15.3996V15.5108V15.622H4.50293V15.4552V15.2884V15.1216L4.55852 14.9548L4.61412 14.7881L4.66971 14.6213L4.72531 14.4545L4.7809 14.2877L4.83649 14.1209L4.89209 14.0097L4.94768 13.8986L5.05887 13.7874L5.17006 13.6762L5.28125 13.565L5.39244 13.4538L5.50362 13.3426L5.61481 13.2314L5.726 13.1202L5.83719 13.009L5.94838 12.8979L6.05957 12.7867L6.17075 12.7311L6.28194 12.6755L6.44873 12.6199L6.61551 12.5643L6.78229 12.5087L6.94907 12.4531L7.11586 12.3975L7.28264 12.3419H7.44942H7.6162H7.78299L7.72739 12.3975ZM13.2312 13.6206H7.72739V12.3975H13.2312L13.8428 13.009L13.2312 13.6206ZM13.2312 12.3975C13.5648 12.3975 13.8428 12.6755 13.8428 13.009C13.8428 13.3426 13.5648 13.6206 13.2312 13.6206V12.3975ZM12.6197 17.0118V13.0646H13.8428V17.0118H12.6197ZM14.8434 18.0125V19.2356H14.7323H14.6211H14.5099H14.3987H14.2875L14.1763 19.18L14.0651 19.1244L13.9539 19.0688L13.8428 19.0132L13.7316 18.9576L13.6204 18.902L13.5092 18.8464L13.398 18.7908L13.3424 18.7352L13.2868 18.6797L13.2312 18.6241L13.1756 18.5685L13.12 18.5129L13.0644 18.4017L13.0088 18.2905L12.9532 18.1793L12.8976 18.0681L12.8421 17.9569L12.7865 17.8457L12.7309 17.7346L12.6753 17.6234L12.6197 17.5122V17.401V17.2898V17.1786V17.0674V16.9562H13.8428V17.0118V17.0674V17.123V17.1786V17.2342V17.2898V17.3454V17.401V17.4566V17.5122V17.5678V17.6234V17.679L13.8983 17.7346L13.9539 17.7901L14.0095 17.8457L14.0651 17.9013L14.1207 17.9569L14.1763 18.0125H14.2319H14.2875H14.3431H14.3987H14.4543H14.5099H14.5655H14.6211H14.6767H14.7323H14.7879H14.8434ZM43.4188 19.2356H14.8434V18.0125H43.4188V19.2356ZM44.4195 17.0118H45.6426V17.123V17.2342V17.3454V17.4566V17.5678L45.587 17.679L45.5314 17.7901L45.4758 17.9013L45.4202 18.0125L45.3646 18.1237L45.309 18.2349L45.2535 18.3461L45.1979 18.4573L45.1423 18.5685L45.0867 18.6241L45.0311 18.6797L44.9755 18.7352L44.9199 18.7908L44.8087 18.8464L44.6975 18.902L44.5863 18.9576L44.4751 19.0132L44.3639 19.0688L44.2528 19.1244L44.1416 19.18L44.0304 19.2356L43.9192 19.2912H43.808H43.6968H43.5856H43.4744H43.3633V18.0681H43.4188H43.4744H43.53H43.5856H43.6412H43.6968H43.7524H43.808H43.8636H43.9192H43.9748H44.0304H44.086L44.1416 18.0125L44.1972 17.9569L44.2528 17.9013L44.3084 17.8457L44.3639 17.7901L44.4195 17.7346V17.679V17.6234V17.5678V17.5122V17.4566V17.401V17.3454V17.2898V17.2342V17.1786V17.123V17.0674V17.0118ZM45.6426 13.0646V17.0118H44.4195V13.0646L45.0311 12.4531L45.6426 13.0646ZM44.4195 13.0646C44.4195 12.7311 44.6975 12.4531 45.0311 12.4531C45.3646 12.4531 45.6426 12.7311 45.6426 13.0646H44.4195ZM50.6461 13.6762H45.0311V12.4531H50.6461V13.6762ZM53.815 15.622H52.5919V15.5108V15.3996V15.2884V15.1772V15.066V14.9548L52.5363 14.8437L52.4807 14.7325L52.4251 14.6213L52.3695 14.5101L52.3139 14.4545L52.2583 14.3989L52.2027 14.3433L52.1471 14.2877L52.0915 14.2321L52.0359 14.1765L51.9804 14.1209L51.9248 14.0653L51.8692 14.0097L51.8136 13.9541L51.758 13.8986L51.7024 13.843L51.5912 13.7874L51.48 13.7318L51.3688 13.6762L51.2576 13.6206H51.1464H51.0352H50.9241H50.8129H50.7017H50.5905V12.3975H50.7573H50.9241H51.0908L51.2576 12.4531L51.4244 12.5087L51.5912 12.5643L51.758 12.6199L51.9248 12.6755L52.0915 12.7311L52.2027 12.7867L52.3139 12.8423L52.4251 12.9535L52.5363 13.0646L52.6475 13.1758L52.7587 13.287L52.8699 13.3982L52.981 13.5094L53.0922 13.6206L53.2034 13.7318L53.3146 13.843L53.3702 13.9541L53.4258 14.0653L53.4814 14.1765L53.537 14.3433L53.5926 14.5101L53.6482 14.6769L53.7038 14.8437L53.7594 15.0104L53.815 15.1772V15.344V15.5108V15.6776V15.622ZM52.5919 71.7165V15.622H53.815V71.7165H52.5919ZM50.6461 74.8854V73.6623H50.7573H50.8685H50.9797H51.0908H51.202H51.3132L51.4244 73.6067L51.5356 73.5511L51.6468 73.4955L51.758 73.4399L51.8136 73.3843L51.8692 73.3287L51.9248 73.2731L51.9804 73.2175L52.0359 73.1619L52.0915 73.1063L52.1471 73.0508L52.2027 72.9952L52.2583 72.9396L52.3139 72.884L52.3695 72.8284L52.4251 72.7728L52.4807 72.6616L52.5363 72.5504L52.5919 72.4392L52.6475 72.328V72.2168V72.1056V71.9945V71.8833V71.7721V71.6609H53.8705V71.8277V71.9945V72.1612L53.815 72.328L53.7594 72.4948L53.7038 72.6616L53.6482 72.8284L53.5926 72.9952L53.537 73.1619L53.4814 73.2731L53.4258 73.3843L53.3146 73.4955L53.2034 73.6067L53.0922 73.7179L52.981 73.8291L52.8699 73.9403L52.7587 74.0514L52.6475 74.1626L52.5363 74.2738L52.4251 74.385L52.3139 74.4406L52.2027 74.4962L52.0915 74.5518L51.9248 74.6074L51.758 74.663L51.5912 74.7186L51.4244 74.7742L51.2576 74.8298L51.0908 74.8854H50.9241H50.7573H50.5905H50.6461ZM48.7003 73.6623H50.6461V74.8854H48.7003V73.6623ZM48.7003 74.8854C48.3667 74.8854 48.0888 74.6074 48.0888 74.2738C48.0888 73.9403 48.3667 73.6623 48.7003 73.6623V74.8854Z" fill="#FF0000"/>
<path d="M1.22307 23.2384C1.22307 23.5719 0.945101 23.8499 0.611536 23.8499C0.277971 23.8499 0 23.5719 0 23.2384H1.22307ZM1.22307 10.8409V23.2384H0V10.8409H1.22307ZM3.66921 7.22723V8.45031H3.55803H3.44684H3.33565H3.22446H3.11327L3.00208 8.5059L2.8909 8.56149L2.77971 8.61709L2.66852 8.67268L2.55733 8.72828L2.44614 8.78387L2.33495 8.83947L2.22377 8.89506L2.11258 8.95065L2.00139 9.00625L1.8902 9.06184L1.83461 9.17303L1.77901 9.28422L1.72342 9.39541L1.66782 9.5066L1.61223 9.61778L1.55664 9.72897L1.50104 9.84016L1.44545 9.95135L1.38985 10.0625L1.33426 10.1737L1.27867 10.2849V10.3961V10.5073V10.6185V10.7297V10.8409H0.0555942V10.6741V10.5073V10.3405L0.111188 10.1737L0.166782 10.0069L0.222377 9.84016L0.277971 9.67338L0.333565 9.5066L0.389159 9.33981L0.444753 9.17303L0.555942 9.00625L0.66713 8.83947L0.778318 8.67268L0.889507 8.56149L1.00069 8.45031L1.11188 8.33912L1.22307 8.22793L1.33426 8.11674L1.44545 8.00555L1.61223 7.89436L1.77901 7.78318L1.9458 7.67199L2.11258 7.61639L2.27936 7.5608L2.44614 7.50521L2.61293 7.44961L2.77971 7.39402L2.94649 7.33842L3.11327 7.28283H3.28006H3.44684H3.61362L3.66921 7.22723ZM13.1758 8.61709L3.66921 8.45031V7.22723L13.1758 7.39402L13.7874 8.00555L13.1758 8.61709ZM13.1758 7.39402C13.5094 7.39402 13.7874 7.67199 13.7874 8.00555C13.7874 8.33912 13.5094 8.61709 13.1758 8.61709V7.39402ZM12.5643 15.8999V8.06115H13.7874V15.8999H12.5643ZM13.8429 16.1779H12.6199V16.2891H13.8429V16.4003V16.1779ZM13.8429 16.0667C13.8985 16.4003 13.6762 16.7338 13.3426 16.7894C13.009 16.845 12.6755 16.6226 12.6199 16.2891L13.8429 16.0667ZM12.6199 16.9562V16.1779H13.8429V16.9562H12.6199ZM14.8436 17.9569V19.18H14.7325H14.6213H14.5101H14.3989H14.2877L14.1765 19.1244L14.0653 19.0688L13.9541 19.0132L13.8429 18.9576L13.7318 18.902L13.6206 18.8464L13.5094 18.7908L13.3982 18.7352L13.3426 18.6796L13.287 18.624L13.2314 18.5684L13.1758 18.5128L13.1202 18.4573L13.0646 18.3461L13.009 18.2349L12.9534 18.1237L12.8978 18.0125L12.8423 17.9013L12.7867 17.7901L12.7311 17.6789L12.6755 17.5677L12.6199 17.4566V17.3454V17.2342V17.123V17.0118V16.9006H13.8429V16.9562V17.0118V17.0674V17.123V17.1786V17.2342V17.2898V17.3454V17.401V17.4566V17.5122V17.5677V17.6233L13.8985 17.6789L13.9541 17.7345L14.0097 17.7901L14.0653 17.8457L14.1209 17.9013L14.1765 17.9569H14.2321H14.2877H14.3433H14.3989H14.4545H14.5101H14.5657H14.6213H14.6769H14.7325H14.788H14.8436ZM43.419 19.18H14.8436V17.9569H43.419V19.18ZM44.4197 16.9562H45.6428V17.0674V17.1786V17.2898V17.401V17.5122L45.5872 17.6233L45.5316 17.7345L45.476 17.8457L45.4204 17.9569L45.3648 18.0681L45.3092 18.1793L45.2537 18.2905L45.1981 18.4017L45.1425 18.5128L45.0869 18.5684L45.0313 18.624L44.9757 18.6796L44.9201 18.7352L44.8089 18.7908L44.6977 18.8464L44.5865 18.902L44.4753 18.9576L44.3641 19.0132L44.253 19.0688L44.1418 19.1244L44.0306 19.18L43.9194 19.2356H43.8082H43.697H43.5858H43.4746H43.3634V18.0125H43.419H43.4746H43.5302H43.5858H43.6414H43.697H43.7526H43.8082H43.8638H43.9194H43.975H44.0306H44.0862L44.1418 17.9569L44.1974 17.9013L44.253 17.8457L44.3085 17.7901L44.3641 17.7345L44.4197 17.6789V17.6233V17.5677V17.5122V17.4566V17.401V17.3454V17.2898V17.2342V17.1786V17.123V17.0674V17.0118V16.9562ZM45.6428 15.7331V16.9562H44.4197V15.7331H45.6428ZM44.4197 15.7331C44.4197 15.3996 44.6977 15.1216 45.0313 15.1216C45.3648 15.1216 45.6428 15.3996 45.6428 15.7331H44.4197ZM45.6428 7.89436V15.7331H44.4197V7.89436L45.0313 7.28283L45.6428 7.89436ZM44.4197 7.89436C44.4197 7.5608 44.6977 7.28283 45.0313 7.28283C45.3648 7.28283 45.6428 7.5608 45.6428 7.89436H44.4197ZM54.6491 8.5059H45.0313V7.28283H54.6491V8.5059ZM58.3183 10.8964H57.0952V10.7853V10.6741V10.5629V10.4517V10.3405L57.0396 10.2293L56.984 10.1181L56.9284 10.0069L56.8728 9.89575L56.8172 9.78457L56.7616 9.67338L56.706 9.56219L56.6504 9.451L56.5949 9.33981L56.5393 9.22862L56.4837 9.11744L56.3725 9.06184L56.2613 9.00625L56.1501 8.95065L56.0389 8.89506L55.9277 8.83947L55.8165 8.78387L55.7054 8.72828L55.5942 8.67268L55.483 8.61709L55.3718 8.56149L55.2606 8.5059H55.1494H55.0382H54.927H54.8158H54.7047V7.28283H54.8714H55.0382H55.205L55.3718 7.33842L55.5386 7.39402L55.7054 7.44961L55.8721 7.50521L56.0389 7.5608L56.2057 7.61639L56.3725 7.67199L56.5393 7.78318L56.706 7.89436L56.8728 8.00555L56.984 8.11674L57.0952 8.22793L57.2064 8.33912L57.3176 8.45031L57.4288 8.56149L57.54 8.67268L57.6511 8.83947L57.7623 9.00625L57.8735 9.17303L57.9291 9.33981L57.9847 9.5066L58.0403 9.67338L58.0959 9.84016L58.1515 10.0069L58.2071 10.1737L58.2627 10.3405V10.5073V10.6741V10.8409L58.3183 10.8964ZM57.0952 76.3864V10.8964H58.3183V76.3864H57.0952ZM54.6491 80V78.7769H54.7603H54.8714H54.9826H55.0938H55.205L55.3162 78.7213L55.4274 78.6657L55.5386 78.6101L55.6498 78.5545L55.7609 78.4989L55.8721 78.4434L55.9833 78.3878L56.0945 78.3322L56.2057 78.2766L56.3169 78.221L56.4281 78.1654L56.4837 78.0542L56.5393 77.943L56.5949 77.8318L56.6504 77.7206L56.706 77.6094L56.7616 77.4983L56.8172 77.3871L56.8728 77.2759L56.9284 77.1647L56.984 77.0535L57.0396 76.9423V76.8311V76.7199V76.6087V76.4976V76.3864H58.2627V76.5532V76.7199V76.8867L58.2071 77.0535L58.1515 77.2203L58.0959 77.3871L58.0403 77.5538L57.9847 77.7206L57.9291 77.8874L57.8735 78.0542L57.7623 78.221L57.6511 78.3878L57.54 78.5545L57.4288 78.6657L57.3176 78.7769L57.2064 78.8881L57.0952 78.9993L56.984 79.1105L56.8172 79.2217L56.6504 79.3329L56.4837 79.4441L56.3169 79.5552L56.1501 79.6108L55.9833 79.6664L55.8165 79.722L55.6498 79.7776L55.483 79.8332L55.3162 79.8888L55.1494 79.9444H54.9826H54.8158H54.6491V80ZM3.66921 78.7769H54.6491V80H3.66921V78.7769ZM0 76.3864H1.22307V76.4976V76.6087V76.7199V76.8311V76.9423L1.27867 77.0535L1.33426 77.1647L1.38985 77.2759L1.44545 77.3871L1.50104 77.4983L1.55664 77.6094L1.61223 77.7206L1.66782 77.8318L1.72342 77.943L1.77901 78.0542L1.83461 78.1654L1.9458 78.221L2.05698 78.2766L2.16817 78.3322L2.27936 78.3878L2.39055 78.4434L2.50174 78.4989L2.61293 78.5545L2.72411 78.6101L2.8353 78.6657L2.94649 78.7213L3.05768 78.7769H3.16887H3.28006H3.39124H3.50243H3.61362V80H3.44684H3.28006H3.11327L2.94649 79.9444L2.77971 79.8888L2.61293 79.8332L2.44614 79.7776L2.27936 79.722L2.11258 79.6664L1.9458 79.6108L1.77901 79.4996L1.61223 79.3885L1.44545 79.2773L1.27867 79.1661L1.16748 79.0549L1.05629 78.9437L0.945101 78.8325L0.833912 78.7213L0.722724 78.6101L0.611536 78.4434L0.500347 78.2766L0.389159 78.1098L0.333565 77.943L0.277971 77.7762L0.222377 77.6094L0.166782 77.4427L0.111188 77.2759L0.0555942 77.1091L0 76.9423V76.7755V76.6087V76.442L0 76.3864ZM1.22307 26.852V76.3864H0V26.852H1.22307ZM0 26.852C0 26.5184 0.277971 26.2404 0.611536 26.2404C0.945101 26.2404 1.22307 26.5184 1.22307 26.852H0Z" fill="#FF0000"/>
</svg>
