<svg width="18" height="18" viewBox="0 0 18 18" fill="none" xmlns="http://www.w3.org/2000/svg">
<path d="M9 0C11.5043 0 13.7348 1.01739 15.3783 2.62174C17.0217 4.26522 18 6.49565 18 9C18 11.5043 16.9826 13.7348 15.3783 15.3783C13.7348 17.0217 11.5043 18 9 18C6.53478 18 4.26522 16.9826 2.62174 15.3783C0.978261 13.7348 0 11.5043 0 9C0 6.53478 1.01739 4.26522 2.62174 2.62174C4.26522 0.978261 6.49565 0 9 0ZM14.0478 3.95217C12.7565 2.66087 10.9565 1.83913 9 1.83913C7.04348 1.83913 5.24348 2.62174 3.95217 3.95217C2.66087 5.24348 1.83913 7.04348 1.83913 9C1.83913 10.9565 2.62174 12.7565 3.95217 14.0478C5.24348 15.3391 7.04348 16.1609 9 16.1609C10.9565 16.1609 12.7565 15.3783 14.0478 14.0478C15.3391 12.7565 16.1609 10.9565 16.1609 9C16.1609 7.04348 15.3783 5.24348 14.0478 3.95217Z" fill="black"/>
<path d="M9.82155 3.67826V8.6087L12.4824 11.3478L11.1911 12.6391L7.98242 9.3913V3.67826H9.82155Z" fill="black"/>
</svg>
