<svg width="18" height="13" viewBox="0 0 18 13" fill="none" xmlns="http://www.w3.org/2000/svg">
<path fill-rule="evenodd" clip-rule="evenodd" d="M13.1501 7.19591V7.22633C13.1879 7.24042 13.4283 7.51117 13.452 7.53936L14.1255 8.26778C14.3711 8.51256 14.7093 8.89383 14.9548 9.15939L16.0074 10.2898C16.3219 10.6474 16.7425 11.0546 17.0659 11.43L17.511 11.9091C17.5844 11.9774 17.6067 12.0063 17.6645 12.0746C17.6927 12.1079 17.9523 12.3676 17.9598 12.4032C18.0265 12.3587 17.9657 12.4313 17.9924 12.3668C18.0035 12.3401 17.9991 12.3334 17.9991 12.3045L17.9954 6.14556L17.9976 0.845596C17.8463 0.912356 17.5614 1.31588 17.4427 1.36484L17.3856 1.43827C17.3597 1.46349 17.3463 1.47685 17.3211 1.50207C17.2744 1.5488 17.2402 1.58292 17.1935 1.62965C17.1023 1.72163 17.0229 1.80174 16.9324 1.89372C16.8708 1.95603 16.474 2.36252 16.4028 2.4048C16.3761 2.4634 15.0795 3.76299 14.9274 3.9195C14.7694 4.08269 14.5966 4.28075 14.4319 4.42836C14.2427 4.59748 14.1003 4.75697 13.9305 4.93054L12.6843 6.18562C12.6183 6.25164 12.481 6.37403 12.4365 6.43931C12.4788 6.49939 12.5567 6.56763 12.6094 6.62846C12.6672 6.69522 12.7288 6.75085 12.7866 6.81761C12.8445 6.88437 13.0945 7.16699 13.1501 7.19517V7.19591Z" fill="black"/>
<path fill-rule="evenodd" clip-rule="evenodd" d="M11.5088 7.37913L11.4694 7.41029C11.4405 7.43254 11.4724 7.41251 11.4405 7.43106C11.4057 7.48892 11.2558 7.61947 11.1957 7.67807C11.1141 7.75744 11.0452 7.82716 10.9502 7.92656C10.4792 8.41836 9.86425 9.01103 9.06833 9.00065C8.3681 8.99175 7.84515 8.52888 7.4431 8.14761C7.3222 8.03263 6.71988 7.51784 6.68798 7.44293C6.66424 7.42957 6.65089 7.4229 6.62641 7.40955L6.33564 7.13509C6.24811 7.05572 6.11682 6.89995 6.02038 6.85396C5.93656 6.97487 5.64431 7.22707 5.60499 7.32424L5.55307 7.3465C5.52562 7.41325 5.02641 7.92285 4.96262 7.99332C4.86396 8.10236 4.7616 8.20992 4.66294 8.31525L4.20675 8.79963C4.15779 8.85452 4.10809 8.89754 4.05765 8.95318C3.61778 9.43829 3.14008 9.91748 2.70243 10.4026L1.4978 11.6836C1.3168 11.8876 1.00971 12.1836 0.824265 12.3965L0.754539 12.4588C0.712258 12.55 0.339887 12.8764 0.27832 12.9973H17.5972C17.526 12.8838 17.4511 12.8267 17.3614 12.7281L17.1299 12.4558C17.0572 12.4195 16.6255 11.9114 16.5343 11.8179L13.5857 8.61641C13.493 8.51108 13.3862 8.38646 13.289 8.29151L12.4797 7.41177C12.4486 7.37691 12.436 7.36801 12.4234 7.33166L12.3714 7.30866C12.3425 7.22855 12.2594 7.16847 12.1905 7.09652C12.1244 7.02679 12.0836 6.9541 11.9998 6.8955L11.5088 7.37913Z" fill="black"/>
<path fill-rule="evenodd" clip-rule="evenodd" d="M4.7874 7.22264L5.17238 6.8154C5.20576 6.77831 5.22727 6.74939 5.26065 6.7123C5.33409 6.63144 5.50544 6.47641 5.55365 6.39408C5.50766 6.32435 5.3697 6.20344 5.30664 6.14113L2.11702 2.90997C2.0421 2.83282 1.6638 2.46416 1.63858 2.40705C1.57627 2.37367 1.19945 1.97459 1.0778 1.8611C1.04813 1.83366 1.02736 1.82179 1.0229 1.78915C0.965047 1.75132 0.842654 1.63041 0.773669 1.56068C0.695783 1.48206 0.618639 1.40343 0.546687 1.32554C0.452482 1.22318 0.134261 0.946495 0.0919799 0.8649C0.0482152 0.841905 0.0867874 0.863417 0.0482152 0.835971C0.0237367 0.818168 0.0296709 0.81891 0 0.801849L0.00519241 6.19676L0.00445064 12.3668C0.102365 12.2889 0.346408 12.0086 0.442097 11.8995L1.64006 10.6118C1.69198 10.5517 1.74465 10.5087 1.79583 10.4493C2.11109 10.0844 2.51609 9.69126 2.83357 9.33595L3.88467 8.20474C3.93585 8.1543 3.97739 8.09941 4.02634 8.04378L4.32973 7.72556C4.47215 7.57424 4.59232 7.41772 4.7429 7.27827C4.77479 7.24934 4.75031 7.26195 4.7874 7.2486V7.22264Z" fill="black"/>
<path fill-rule="evenodd" clip-rule="evenodd" d="M7.7639 7.48447C7.79803 7.55569 8.19339 7.92286 8.28092 8.01113C8.69335 8.42653 9.39358 8.39315 9.78672 8.00446C9.87573 7.91619 9.96771 7.83385 10.0508 7.74261C10.1354 7.64989 10.2652 7.53491 10.3074 7.46741L10.323 7.48151C10.3601 7.40585 10.8712 6.93334 10.9743 6.83394C11.0856 6.72638 11.1909 6.61141 11.2925 6.51498C12.0514 5.7873 12.7939 5.01956 13.5557 4.28521L14.1973 3.65248C14.4183 3.43514 14.6253 3.22892 14.8478 3.01233C14.9591 2.90328 15.0585 2.80537 15.1698 2.69707C15.2395 2.62883 15.4294 2.42039 15.4954 2.39072L16.5198 1.37078C16.5487 1.34853 16.5361 1.35743 16.5539 1.35075C16.5836 1.28696 16.6014 1.28548 16.6622 1.22539L17.0242 0.870084C17.1058 0.789973 17.4388 0.44134 17.5004 0.413894C17.5568 0.305595 17.7845 0.149081 17.8876 0.000726514L0.211914 -1.52588e-05C0.25642 0.0734203 0.742282 0.528869 0.844646 0.630492L1.05531 0.865634C1.08869 0.870085 1.48554 1.27806 1.51076 1.30254C1.5931 1.38265 1.66208 1.45015 1.74442 1.531C1.78521 1.57106 1.81563 1.60073 1.85717 1.64153C1.90167 1.68529 1.9395 1.71051 1.96547 1.76615C1.9981 1.77727 1.97733 1.76689 2.00775 1.79285C2.09528 1.86777 2.55963 2.31803 2.59004 2.38553C2.62416 2.39591 2.65309 2.43226 2.67979 2.45896L2.91716 2.70004C3.01359 2.80908 3.13153 2.91441 3.23686 3.01752L6.45616 6.20343C6.53034 6.27613 7.70011 7.42439 7.73052 7.48596L7.76465 7.48447H7.7639Z" fill="black"/>
</svg>
