<svg width="18" height="18" viewBox="0 0 18 18" fill="none" xmlns="http://www.w3.org/2000/svg">
<path fill-rule="evenodd" clip-rule="evenodd" d="M0.796139 9.81627H8.17219V17.229C8.17219 17.6081 8.54354 17.9813 8.92444 17.9813H8.92627C9.23304 17.9813 9.44918 17.9629 9.65907 17.6697C9.71228 17.5952 9.76182 17.4811 9.80548 17.3938L17.7195 1.56577C17.9158 1.1735 18.1829 0.765824 17.8211 0.314109C17.5756 0.00770594 17.3889 0 17.0575 0H17.0527C16.8748 0 16.073 0.434835 15.8664 0.538315L0.869896 8.03656C0.476159 8.23361 0.0640745 8.35911 0.00536255 8.89779C-0.0500468 9.40418 0.331581 9.81627 0.796506 9.81627H0.796139Z" fill="black"/>
</svg>
