<svg width="251" height="56" viewBox="0 0 251 56" fill="none" xmlns="http://www.w3.org/2000/svg">
<g clip-path="url(#clip0_169_1574)">
<path fill-rule="evenodd" clip-rule="evenodd" d="M1 -9.80081e-05H9.9591H12.9844C19.8964 -9.80081e-05 25.5516 5.65379 25.5516 12.5644V14.7432C25.5516 21.6538 19.8964 27.3077 12.9844 27.3077H9.9591H1V-0.000488281L1 -9.80081e-05ZM233.302 -9.80081e-05H233.325L241.716 13.2071V-9.80081e-05H250.675V27.3081H241.716L233.302 14.0638V27.3081H224.342V-9.80081e-05H224.366H233.301H233.302ZM204.989 -9.80081e-05H213.948L205.217 27.3081H196.259L204.989 -9.80081e-05ZM179.791 -9.80081e-05H184.284C189.246 -9.80081e-05 193.306 3.67432 193.306 8.16363V9.57955C193.306 12.6042 191.462 15.2592 188.742 16.6692L195.029 27.3081H186.071L180.418 17.7433H179.791V27.3081H170.832V-9.80081e-05H177.96H179.791ZM179.791 12.9375H181.361C183.635 12.9375 185.228 11.5219 185.228 9.46402V9.35085C185.228 7.29294 183.632 6.41287 181.361 6.41287H179.791V12.9378V12.9375ZM138.329 15.3345L145.405 27.3081H154.365L146.295 13.654L154.365 -9.80081e-05H145.405L138.329 11.9739V-9.80081e-05H129.37V27.3081H138.329V15.3345ZM158.429 -9.80081e-05H167.388V27.3081H158.429V-9.80081e-05ZM110.016 -9.80081e-05H118.975L110.245 27.3081H101.286L110.016 -9.80081e-05ZM89.0276 -9.80081e-05H88.6755H86.0024H85.6503V0.00497554C78.8994 0.193087 73.4348 5.77126 73.4348 12.5644V14.7432C73.4348 21.5363 78.899 27.1145 85.6503 27.3026V27.3077H86.0024H88.6755H89.0276V27.3026C95.7785 27.1145 101.243 21.5363 101.243 14.7432V12.5644C101.243 12.2795 101.233 11.9973 101.214 11.7167L101.243 11.4486H101.193H93.0889H87.0813V17.5602H92.2243C91.173 18.9836 89.4844 19.9116 87.5892 19.9116H87.0895C83.9217 19.9116 81.3302 17.3206 81.3302 14.1532V13.1544C81.3302 9.98738 83.9217 7.39597 87.0895 7.39597H87.5892C89.3708 7.39597 90.97 8.21554 92.0287 9.49642L99.6637 6.48585C97.5667 2.72245 93.5913 0.131424 89.028 0.00458527V-0.000488281L89.0276 -9.80081e-05ZM63.556 19.1549H71.7953V27.3085H63.556H54.5969V19.1549V-9.80081e-05H63.556V19.1549ZM34.3572 -9.80081e-05H43.3163L34.586 27.3081H25.6269L34.3572 -9.80081e-05ZM9.95871 7.39753V19.9105C9.99189 19.9112 10.0247 19.9116 10.0579 19.9116H11.8968C15.0646 19.9116 17.6562 17.3206 17.6562 14.1532V13.1544C17.6562 9.98738 15.0646 7.39597 11.8968 7.39597H10.0579C10.0247 7.39597 9.9915 7.39675 9.95871 7.39714V7.39753Z" fill="white"/>
<path fill-rule="evenodd" clip-rule="evenodd" d="M43.426 4.05664L52.2161 27.3083H35.9925L43.426 4.05664Z" fill="#ED1C24"/>
<path fill-rule="evenodd" clip-rule="evenodd" d="M119.085 4.05664L127.875 27.3083H111.652L119.085 4.05664Z" fill="#ED1C24"/>
<path fill-rule="evenodd" clip-rule="evenodd" d="M214.058 4.05664L222.848 27.3083H206.624L214.058 4.05664Z" fill="#ED1C24"/>
</g>
<path d="M7.48584 37.1355L14.0176 51.1416H12.5132L10.3137 46.5332H4.2771L2.08716 51.1416H0.525635L7.14307 37.1355H7.48584ZM7.31445 40.1062L4.90552 45.1812H9.69482L7.31445 40.1062ZM18.9878 51.1416H15.979V40.7822H18.9402C20.0701 40.7822 20.8826 41.0425 21.3777 41.563C21.8792 42.0835 22.1299 42.6929 22.1299 43.3911C22.1299 44.4448 21.6665 45.1589 20.7397 45.5334C22.0854 46.0095 22.7583 46.9268 22.7583 48.2852C22.7583 50.1895 21.5015 51.1416 18.9878 51.1416ZM17.3215 41.9343V45.1716H18.188C18.9751 45.1716 19.4893 45.1399 19.7305 45.0764C19.9717 45.0129 20.197 44.8574 20.4065 44.6099C20.6223 44.356 20.7302 44.0227 20.7302 43.6101C20.7302 43.1785 20.6191 42.8167 20.397 42.5247C20.1748 42.2327 19.9399 42.0613 19.6924 42.0105C19.4512 41.9597 18.9497 41.9343 18.188 41.9343H17.3215ZM17.3215 46.3904V50.0181H18.7498C19.4226 50.0181 19.9019 49.9768 20.1875 49.8943C20.4795 49.8054 20.7271 49.6182 20.9302 49.3325C21.1396 49.0469 21.2444 48.6851 21.2444 48.2471C21.2444 47.6821 21.0667 47.2314 20.7112 46.895C20.3557 46.5586 19.886 46.3904 19.302 46.3904H17.3215ZM23.939 40.7822H30.7563V41.9343H28.0142V51.1416H26.6716V41.9343H23.939V40.7822ZM37.469 40.5156C39.0623 40.5156 40.3826 41.0933 41.4299 42.2485C42.3821 43.3022 42.8582 44.5496 42.8582 45.9905C42.8582 47.4377 42.3535 48.7041 41.3442 49.7896C40.3413 50.8687 39.0496 51.4082 37.469 51.4082C35.8821 51.4082 34.584 50.8687 33.5747 49.7896C32.5718 48.7041 32.0703 47.4377 32.0703 45.9905C32.0703 44.5559 32.5464 43.3118 33.4985 42.2581C34.5459 41.0964 35.8694 40.5156 37.469 40.5156ZM37.469 41.8201C36.3645 41.8201 35.4155 42.2295 34.6221 43.0483C33.8286 43.8672 33.4319 44.8574 33.4319 46.019C33.4319 46.7681 33.6128 47.4663 33.9746 48.1138C34.3364 48.7612 34.8252 49.2627 35.4409 49.6182C36.0566 49.9673 36.7327 50.1418 37.469 50.1418C38.2053 50.1418 38.8813 49.9673 39.4971 49.6182C40.1128 49.2627 40.6016 48.7612 40.9634 48.1138C41.3252 47.4663 41.5061 46.7681 41.5061 46.019C41.5061 44.8574 41.1062 43.8672 40.3064 43.0483C39.5129 42.2295 38.5671 41.8201 37.469 41.8201ZM45.3623 40.7822H46.6858V42.6865C47.2126 41.9629 47.8188 41.4202 48.5044 41.0583C49.1899 40.6965 49.9548 40.5156 50.7991 40.5156C52.2717 40.5156 53.5317 41.0457 54.5791 42.1057C55.6265 43.1658 56.1501 44.4417 56.1501 45.9333C56.1501 47.4568 55.6296 48.7517 54.5886 49.8181C53.554 50.8782 52.3035 51.4082 50.8372 51.4082C50.012 51.4082 49.2534 51.2368 48.5615 50.894C47.8696 50.5513 47.2444 50.0403 46.6858 49.3611V54.9312H45.3623V40.7822ZM50.6943 41.801C49.5391 41.801 48.5647 42.2041 47.7712 43.0103C46.9841 43.8164 46.5906 44.8193 46.5906 46.019C46.5906 46.8062 46.7651 47.5139 47.1143 48.1423C47.4697 48.7708 47.9744 49.269 48.6282 49.6372C49.2883 50.0054 49.9834 50.1895 50.7134 50.1895C51.4307 50.1895 52.1035 50.0054 52.7319 49.6372C53.3667 49.2627 53.8713 48.7422 54.2458 48.0757C54.6204 47.4092 54.8076 46.7109 54.8076 45.981C54.8076 45.2446 54.6204 44.5464 54.2458 43.8862C53.8777 43.2261 53.3794 42.7151 52.751 42.3533C52.1226 41.9851 51.437 41.801 50.6943 41.801ZM59.9873 40.7822V48.447L67.595 40.7822H67.6997V51.1416H66.3667V43.5435L58.8162 51.1416H58.6543V40.7822H59.9873ZM72.4033 45.1431H73.0984C73.5427 45.1431 73.949 44.9971 74.3171 44.7051C74.6917 44.4131 74.8789 43.9941 74.8789 43.4482C74.8789 42.9849 74.7297 42.5881 74.4314 42.2581C74.1331 41.9216 73.676 41.7534 73.0603 41.7534C72.343 41.7534 71.6226 42.0327 70.8989 42.5913L70.1467 41.6677C71.0798 40.887 72.0701 40.4966 73.1174 40.4966C73.9807 40.4966 74.7043 40.7537 75.2883 41.2678C75.8723 41.782 76.1643 42.4453 76.1643 43.2578C76.1643 44.3369 75.6882 45.0701 74.7361 45.4573C75.9802 45.9778 76.6023 46.8887 76.6023 48.1899C76.6023 49.0151 76.3103 49.761 75.7263 50.4275C75.1487 51.0876 74.2822 51.4177 73.127 51.4177C71.7114 51.4177 70.572 50.9575 69.7087 50.0371L70.5466 49.085C71.1877 49.8086 72.0098 50.1704 73.0127 50.1704C73.6855 50.1704 74.2124 49.9895 74.5933 49.6277C74.9805 49.2659 75.1741 48.7898 75.1741 48.1995C75.1741 47.6218 74.9805 47.1584 74.5933 46.8093C74.2061 46.4602 73.749 46.2856 73.2222 46.2856H72.4033V45.1431ZM83.8196 40.5156C85.4128 40.5156 86.7332 41.0933 87.7805 42.2485C88.7327 43.3022 89.2087 44.5496 89.2087 45.9905C89.2087 47.4377 88.7041 48.7041 87.6948 49.7896C86.6919 50.8687 85.4001 51.4082 83.8196 51.4082C82.2327 51.4082 80.9346 50.8687 79.9253 49.7896C78.9224 48.7041 78.4209 47.4377 78.4209 45.9905C78.4209 44.5559 78.897 43.3118 79.8491 42.2581C80.8965 41.0964 82.22 40.5156 83.8196 40.5156ZM83.8196 41.8201C82.7151 41.8201 81.7661 42.2295 80.9727 43.0483C80.1792 43.8672 79.7825 44.8574 79.7825 46.019C79.7825 46.7681 79.9634 47.4663 80.3252 48.1138C80.687 48.7612 81.1758 49.2627 81.7915 49.6182C82.4072 49.9673 83.0833 50.1418 83.8196 50.1418C84.5559 50.1418 85.2319 49.9673 85.8477 49.6182C86.4634 49.2627 86.9521 48.7612 87.314 48.1138C87.6758 47.4663 87.8567 46.7681 87.8567 46.019C87.8567 44.8574 87.4568 43.8672 86.657 43.0483C85.8635 42.2295 84.9177 41.8201 83.8196 41.8201ZM94.7026 51.1416H91.6938V40.7822H94.655C95.7849 40.7822 96.5974 41.0425 97.0925 41.563C97.594 42.0835 97.8447 42.6929 97.8447 43.3911C97.8447 44.4448 97.3813 45.1589 96.4546 45.5334C97.8003 46.0095 98.4731 46.9268 98.4731 48.2852C98.4731 50.1895 97.2163 51.1416 94.7026 51.1416ZM93.0364 41.9343V45.1716H93.9028C94.6899 45.1716 95.2041 45.1399 95.4453 45.0764C95.6865 45.0129 95.9119 44.8574 96.1213 44.6099C96.3372 44.356 96.4451 44.0227 96.4451 43.6101C96.4451 43.1785 96.334 42.8167 96.1118 42.5247C95.8896 42.2327 95.6548 42.0613 95.4072 42.0105C95.166 41.9597 94.6646 41.9343 93.9028 41.9343H93.0364ZM93.0364 46.3904V50.0181H94.4646C95.1375 50.0181 95.6167 49.9768 95.9023 49.8943C96.1943 49.8054 96.4419 49.6182 96.645 49.3325C96.8545 49.0469 96.9592 48.6851 96.9592 48.2471C96.9592 47.6821 96.7815 47.2314 96.426 46.895C96.0706 46.5586 95.6008 46.3904 95.0168 46.3904H93.0364ZM111.137 40.7822V51.1416H109.823V49.3611C109.264 50.0403 108.636 50.5513 107.938 50.894C107.246 51.2368 106.487 51.4082 105.662 51.4082C104.196 51.4082 102.942 50.8782 101.901 49.8181C100.866 48.7517 100.349 47.4568 100.349 45.9333C100.349 44.4417 100.873 43.1658 101.92 42.1057C102.967 41.0457 104.227 40.5156 105.7 40.5156C106.551 40.5156 107.319 40.6965 108.004 41.0583C108.696 41.4202 109.302 41.9629 109.823 42.6865V40.7822H111.137ZM105.805 41.801C105.062 41.801 104.376 41.9851 103.748 42.3533C103.12 42.7151 102.618 43.2261 102.244 43.8862C101.875 44.5464 101.691 45.2446 101.691 45.981C101.691 46.7109 101.879 47.4092 102.253 48.0757C102.628 48.7422 103.129 49.2627 103.758 49.6372C104.392 50.0054 105.072 50.1895 105.795 50.1895C106.525 50.1895 107.217 50.0054 107.871 49.6372C108.525 49.269 109.026 48.7708 109.375 48.1423C109.731 47.5139 109.908 46.8062 109.908 46.019C109.908 44.8193 109.512 43.8164 108.718 43.0103C107.931 42.2041 106.96 41.801 105.805 41.801ZM121.506 46.1523H115.488V51.1416H114.146V40.7822H115.488V44.8955H121.506V40.7822H122.839V51.1416H121.506V46.1523ZM133.179 46.1523H127.161V51.1416H125.819V40.7822H127.161V44.8955H133.179V40.7822H134.512V51.1416H133.179V46.1523ZM138.816 44.886H140.082C141.091 44.886 141.882 44.9653 142.453 45.124C143.024 45.2827 143.516 45.635 143.929 46.1809C144.341 46.7205 144.548 47.3425 144.548 48.0471C144.548 48.8977 144.249 49.6277 143.653 50.2371C143.056 50.8401 142.151 51.1416 140.939 51.1416H137.492V40.7822H138.816V44.886ZM138.863 46.1047V50.0181H140.396C142.199 50.0181 143.1 49.3833 143.1 48.1138C143.1 47.752 143.002 47.3965 142.805 47.0474C142.615 46.6982 142.332 46.4539 141.958 46.3142C141.59 46.1746 140.936 46.1047 139.996 46.1047H138.863ZM146.385 40.7822H147.728V51.1416H146.385V40.7822ZM151.908 40.7822V48.447L159.515 40.7822H159.62V51.1416H158.287V43.5435L150.737 51.1416H150.575V40.7822H151.908ZM151.727 36.6213H152.984C153.199 36.9514 153.488 37.199 153.85 37.364C154.212 37.5291 154.644 37.6116 155.145 37.6116C155.653 37.6116 156.062 37.5386 156.373 37.3926C156.684 37.2466 156.979 36.9895 157.259 36.6213H158.478C158.338 37.1926 157.979 37.6719 157.402 38.0591C156.83 38.4399 156.075 38.6304 155.135 38.6304C154.202 38.6304 153.441 38.4431 152.85 38.0686C152.26 37.6877 151.885 37.2053 151.727 36.6213ZM167.999 40.7822H176.692V51.1416H175.359V42.0391H169.332V51.1416H167.999V40.7822ZM189.994 40.7822V51.1416H188.68V49.3611C188.121 50.0403 187.493 50.5513 186.794 50.894C186.103 51.2368 185.344 51.4082 184.519 51.4082C183.052 51.4082 181.799 50.8782 180.758 49.8181C179.723 48.7517 179.206 47.4568 179.206 45.9333C179.206 44.4417 179.729 43.1658 180.777 42.1057C181.824 41.0457 183.084 40.5156 184.557 40.5156C185.407 40.5156 186.176 40.6965 186.861 41.0583C187.553 41.4202 188.159 41.9629 188.68 42.6865V40.7822H189.994ZM184.662 41.801C183.919 41.801 183.233 41.9851 182.605 42.3533C181.977 42.7151 181.475 43.2261 181.101 43.8862C180.732 44.5464 180.548 45.2446 180.548 45.981C180.548 46.7109 180.736 47.4092 181.11 48.0757C181.485 48.7422 181.986 49.2627 182.615 49.6372C183.249 50.0054 183.928 50.1895 184.652 50.1895C185.382 50.1895 186.074 50.0054 186.728 49.6372C187.382 49.269 187.883 48.7708 188.232 48.1423C188.588 47.5139 188.765 46.8062 188.765 46.019C188.765 44.8193 188.369 43.8164 187.575 43.0103C186.788 42.2041 185.817 41.801 184.662 41.801ZM193.021 40.7822H194.345V42.6865C194.872 41.9629 195.478 41.4202 196.164 41.0583C196.849 40.6965 197.614 40.5156 198.458 40.5156C199.931 40.5156 201.191 41.0457 202.238 42.1057C203.286 43.1658 203.809 44.4417 203.809 45.9333C203.809 47.4568 203.289 48.7517 202.248 49.8181C201.213 50.8782 199.963 51.4082 198.496 51.4082C197.671 51.4082 196.913 51.2368 196.221 50.894C195.529 50.5513 194.904 50.0403 194.345 49.3611V54.9312H193.021V40.7822ZM198.354 41.801C197.198 41.801 196.224 42.2041 195.43 43.0103C194.643 43.8164 194.25 44.8193 194.25 46.019C194.25 46.8062 194.424 47.5139 194.773 48.1423C195.129 48.7708 195.634 49.269 196.287 49.6372C196.948 50.0054 197.643 50.1895 198.373 50.1895C199.09 50.1895 199.763 50.0054 200.391 49.6372C201.026 49.2627 201.531 48.7422 201.905 48.0757C202.28 47.4092 202.467 46.7109 202.467 45.981C202.467 45.2446 202.28 44.5464 201.905 43.8862C201.537 43.2261 201.039 42.7151 200.41 42.3533C199.782 41.9851 199.096 41.801 198.354 41.801ZM205.152 40.7822H211.969V41.9343H209.227V51.1416H207.885V41.9343H205.152V40.7822ZM221.138 46.1523H215.121V51.1416H213.778V40.7822H215.121V44.8955H221.138V40.7822H222.471V51.1416H221.138V46.1523ZM234.173 47.7043L235.297 48.2947C234.929 49.0183 234.503 49.6023 234.021 50.0466C233.539 50.491 232.996 50.8306 232.393 51.0654C231.79 51.2939 231.107 51.4082 230.346 51.4082C228.657 51.4082 227.337 50.856 226.385 49.7515C225.433 48.6406 224.957 47.387 224.957 45.9905C224.957 44.6765 225.36 43.5054 226.166 42.4771C227.188 41.1694 228.556 40.5156 230.27 40.5156C232.034 40.5156 233.443 41.1853 234.497 42.5247C235.246 43.4705 235.627 44.6511 235.64 46.0667H226.328C226.353 47.2727 226.737 48.2629 227.48 49.0374C228.222 49.8054 229.14 50.1895 230.231 50.1895C230.758 50.1895 231.269 50.0974 231.764 49.9133C232.266 49.7292 232.691 49.4849 233.04 49.1802C233.389 48.8755 233.767 48.3835 234.173 47.7043ZM234.173 44.9146C233.996 44.2036 233.735 43.6355 233.393 43.2102C233.056 42.7849 232.609 42.4421 232.05 42.1819C231.491 41.9216 230.904 41.7915 230.289 41.7915C229.273 41.7915 228.4 42.1184 227.67 42.7722C227.137 43.2483 226.734 43.9624 226.461 44.9146H234.173ZM228.365 36.688C228.67 36.688 228.93 36.7959 229.146 37.0117C229.362 37.2275 229.47 37.4878 229.47 37.7925C229.47 38.0972 229.362 38.3574 229.146 38.5732C228.93 38.7891 228.67 38.897 228.365 38.897C228.061 38.897 227.8 38.7891 227.584 38.5732C227.369 38.3574 227.261 38.0972 227.261 37.7925C227.261 37.4878 227.369 37.2275 227.584 37.0117C227.8 36.7959 228.061 36.688 228.365 36.688ZM232.25 36.688C232.555 36.688 232.815 36.7959 233.031 37.0117C233.247 37.2275 233.354 37.4878 233.354 37.7925C233.354 38.0972 233.247 38.3574 233.031 38.5732C232.815 38.7891 232.555 38.897 232.25 38.897C231.945 38.897 231.685 38.7891 231.469 38.5732C231.253 38.3574 231.146 38.0972 231.146 37.7925C231.146 37.4878 231.253 37.2275 231.469 37.0117C231.685 36.7959 231.945 36.688 232.25 36.688ZM238.134 40.7822H239.458V42.6865C239.985 41.9629 240.591 41.4202 241.276 41.0583C241.962 40.6965 242.727 40.5156 243.571 40.5156C245.044 40.5156 246.304 41.0457 247.351 42.1057C248.398 43.1658 248.922 44.4417 248.922 45.9333C248.922 47.4568 248.402 48.7517 247.361 49.8181C246.326 50.8782 245.075 51.4082 243.609 51.4082C242.784 51.4082 242.025 51.2368 241.333 50.894C240.642 50.5513 240.016 50.0403 239.458 49.3611V54.9312H238.134V40.7822ZM243.466 41.801C242.311 41.801 241.337 42.2041 240.543 43.0103C239.756 43.8164 239.363 44.8193 239.363 46.019C239.363 46.8062 239.537 47.5139 239.886 48.1423C240.242 48.7708 240.746 49.269 241.4 49.6372C242.06 50.0054 242.755 50.1895 243.485 50.1895C244.203 50.1895 244.875 50.0054 245.504 49.6372C246.139 49.2627 246.643 48.7422 247.018 48.0757C247.392 47.4092 247.58 46.7109 247.58 45.981C247.58 45.2446 247.392 44.5464 247.018 43.8862C246.65 43.2261 246.151 42.7151 245.523 42.3533C244.895 41.9851 244.209 41.801 243.466 41.801Z" fill="#D3D6DB"/>
<defs>
<clipPath id="clip0_169_1574">
<rect width="249.675" height="27.3082" fill="white" transform="translate(1)"/>
</clipPath>
</defs>
</svg>
