<svg width="18" height="20" viewBox="0 0 18 20" fill="none" xmlns="http://www.w3.org/2000/svg">
<path fill-rule="evenodd" clip-rule="evenodd" d="M0.0592155 5.61474C0.322636 7.49605 1.13274 9.4295 2.07939 11.0197C2.30822 11.404 2.53242 11.7486 2.77462 12.1006C3.13446 12.6238 3.51691 13.11 3.91412 13.606C3.98378 13.6931 4.03868 13.7499 4.11157 13.8389C4.63011 14.4719 5.49972 15.3706 6.15435 15.9265C6.2051 15.9698 6.21525 15.974 6.26692 16.0243C6.31351 16.0695 6.33658 16.0796 6.38225 16.1184L7.09271 16.7093C7.28739 16.8763 7.87328 17.2528 8.0818 17.4L9.53316 18.2451C9.71862 18.3439 9.90915 18.4269 10.0932 18.5159C11.2715 19.0852 12.7034 19.5742 14.0215 19.3897C14.7675 19.2854 15.1642 19.1955 15.8276 18.8684C16.3743 18.5985 16.867 18.2105 17.2734 17.7584C17.5373 17.4655 17.779 17.1116 17.9027 16.7412C18.095 16.1659 17.9977 15.7359 17.6508 15.2451C17.5179 15.0573 17.3334 14.8852 17.159 14.7353C16.9071 14.5189 16.6045 14.2906 16.3272 14.1079C15.6389 13.6544 14.9146 13.2314 14.1543 12.9093C13.5823 12.6671 13.0287 12.7756 12.542 13.164C12.4202 13.2613 12.3441 13.3324 12.2375 13.4376C12.1808 13.4929 12.1471 13.5303 12.0913 13.5884C11.79 13.9003 11.4998 14.3653 11.2793 14.7473C11.0837 15.0859 10.806 15.0721 10.5218 14.8571C10.4614 14.8114 10.4175 14.7754 10.3557 14.7311C10.1799 14.6038 9.99126 14.4917 9.83072 14.3395L8.83424 13.5095C8.60819 13.3259 8.39182 13.1151 8.18745 12.9084C8.07904 12.7991 7.98123 12.7133 7.87882 12.6007C7.47469 12.1546 7.0761 11.7597 6.68765 11.2873C6.58524 11.1627 6.50958 11.0682 6.40809 10.9404C6.31028 10.8172 6.22724 10.7097 6.13313 10.5888C5.65888 9.9808 5.24276 9.33585 4.83171 8.67891C4.57751 8.2734 4.35792 7.8642 4.15217 7.4287C3.92012 6.93692 4.59874 6.71317 4.98257 6.47466C5.59429 6.09544 6.42285 5.74991 6.65721 5.015C6.81083 4.53337 6.61892 3.98208 6.44176 3.52812C6.10637 2.66912 5.75207 1.77598 5.25706 0.99448C5.0084 0.602346 4.78281 0.32001 4.36992 0.11933C4.15263 0.0136847 3.90581 -0.014918 3.65669 0.00676465L3.45094 0.0358287C3.11601 0.099954 2.79031 0.242045 2.53842 0.398437C2.18412 0.618032 1.85196 0.872226 1.55486 1.16702L0.785353 2.11552C0.474415 2.55978 0.266354 3.11569 0.13718 3.64023C-0.00398827 4.21182 -0.0464325 4.86507 0.0582905 5.61289V5.61381L0.0592155 5.61474Z" fill="black"/>
</svg>
