<svg width="18" height="18" viewBox="0 0 18 18" fill="none" xmlns="http://www.w3.org/2000/svg">
<path fill-rule="evenodd" clip-rule="evenodd" d="M14.047 15.9055C14.047 16.0149 14.0669 16.2239 14.0221 16.2985C14.042 16.3881 14.032 16.4577 14.0122 16.5373L13.9724 16.6119C13.9326 16.7065 13.8232 16.8109 13.679 16.8308C13.5298 16.8507 13.3657 16.8458 13.2066 16.8507H12.9481H4.94254L4.69889 16.8458C4.57459 16.8458 4.10221 16.8657 4.05746 16.6318C4.02762 16.6119 4.03757 16.6318 4.01271 16.5871C3.98785 16.5473 4.01271 16.602 3.99282 16.5323C3.96796 16.4527 3.96298 16.3831 3.9779 16.2935C3.94309 16.2388 3.95304 15.9602 3.95304 15.9005L3.94309 12.6567L14.0669 12.6617L14.047 15.9005V15.9055ZM2.67514 8.17413C2.63536 8.20398 2.58564 8.20896 2.53094 8.22388C2.50608 8.25373 2.48619 8.25871 2.44641 8.30348C2.43646 8.31343 2.41657 8.33831 2.40663 8.34328C2.37182 8.37313 2.40663 8.35323 2.37182 8.36318L2.30718 8.48259C2.30718 8.48756 2.29724 8.49751 2.29724 8.49254C2.29724 8.48756 2.28729 8.50249 2.28729 8.50249C2.28729 8.54726 2.25746 8.75124 2.24751 8.81094C2.39669 9.01493 2.23757 8.99502 2.59061 9.23383L2.63039 9.26368C2.73481 9.24876 3.12265 9.27861 3.27182 9.27861C3.50055 9.27861 3.72928 9.27861 3.95801 9.27861C4.39558 9.27861 4.85304 9.28856 5.28066 9.25871L5.58398 9.23383C5.61878 9.21891 5.65856 9.18905 5.6884 9.16915C5.70829 9.15423 5.71823 9.14428 5.72818 9.13433C5.76298 9.10448 5.73812 9.10945 5.7779 9.10448C5.78785 9.0796 5.80773 9.0398 5.81768 9.02488C5.85746 8.96517 5.83757 9.00497 5.86243 8.9801L5.89227 8.81094L5.87735 8.52239L5.86243 8.46269L5.70829 8.28358C5.70829 8.27861 5.70331 8.27363 5.69834 8.26866L5.60387 8.21393L5.28066 8.18408L4.8779 8.1791C4.6442 8.1791 4.40553 8.1791 4.17182 8.17413C4.02762 8.16915 3.6 8.20895 3.5105 8.15423C3.40608 8.1791 2.78453 8.18905 2.68011 8.17413H2.67514ZM6.51381 13.5274C6.12597 13.5274 5.65359 13.5025 5.30552 13.5821L5.24586 13.6468C5.22099 13.6667 5.21602 13.6667 5.19116 13.6915C5.13149 13.7463 5.15635 13.7612 5.0768 13.801C5.0768 13.8557 5.06188 13.9055 5.0768 13.9701C5.09171 14.0348 5.1116 14.0597 5.11657 14.1144C5.14641 14.1343 5.12155 14.1144 5.15635 14.1443L5.30055 14.2637C5.30055 14.2587 5.3105 14.2687 5.3105 14.2736C5.36519 14.2786 5.40497 14.3035 5.47459 14.3134L6.14088 14.3433C7.02597 14.3582 8.02541 14.3483 8.92044 14.3483C9.82541 14.3433 10.7851 14.3632 11.6801 14.3483C11.9486 14.3433 12.3464 14.3035 12.5851 14.3184L12.8436 14.1393C12.8834 14.1095 12.8436 14.1343 12.8834 14.1095L12.9133 14.0099V13.8159L12.8785 13.7363L12.5801 13.5323L11.5409 13.5075C11.1083 13.5025 8.49282 13.5323 8.32873 13.4925C8.27901 13.5224 8.19945 13.5075 8.11989 13.5075C8.04033 13.5075 7.96575 13.5075 7.88619 13.5075L6.51878 13.5174L6.51381 13.5274ZM5.30055 15.2687C5.26077 15.3383 5.28564 15.2935 5.24586 15.2985C5.24088 15.3035 5.23591 15.3085 5.23591 15.3134L5.20608 15.3483C5.09668 15.4726 5.0768 15.5174 5.08674 15.6965C5.11657 15.7811 5.13149 15.791 5.1663 15.8507C5.21105 15.8706 5.27072 15.9104 5.30055 15.9602C5.39503 15.9701 5.38011 16.0099 5.67845 16.0249C5.8326 16.0348 5.99171 16.0299 6.14586 16.0348C7.64254 16.0697 9.28343 16.0299 10.8 16.0398C11.1033 16.0448 11.4166 16.0398 11.7199 16.0348C11.879 16.0299 12.0331 16.0299 12.1923 16.0249C12.3365 16.0249 12.4906 15.99 12.6249 16C12.6845 15.9353 12.7691 15.9154 12.8387 15.8358C12.9033 15.7612 12.9282 15.6716 12.9182 15.5423L12.9033 15.4627C12.8337 15.4179 12.8735 15.4328 12.8188 15.3831C12.7641 15.3333 12.779 15.3731 12.7392 15.2985L12.6199 15.2488C12.5503 15.2388 12.416 15.2338 12.3713 15.204C12.2271 15.2338 11.7497 15.204 11.5657 15.204L6.81215 15.2139C6.62818 15.2139 6.17569 15.2388 6.02652 15.209C5.95691 15.2537 5.76298 15.2289 5.65856 15.2338C5.50442 15.2388 5.43978 15.2388 5.30552 15.2786L5.30055 15.2687ZM5.58895 0H12.5851C12.9133 0.0945274 13.7735 -0.0945274 14.2856 0.19403C14.4796 0.303483 14.584 0.427861 14.6586 0.457711C14.6884 0.512438 14.7083 0.532338 14.753 0.567164C14.7978 0.651741 14.9022 0.756219 14.9718 0.875622C15.0613 1.02985 15.0713 1.06468 15.121 1.23383C15.1309 1.28856 15.1359 1.33831 15.1409 1.39303C15.1409 1.41294 15.1459 1.45274 15.1508 1.46766C15.1508 1.47264 15.1508 1.47761 15.1558 1.48259L15.1657 1.50746C15.1657 1.51244 15.1707 1.51741 15.1707 1.51741L15.1856 3.83085C15.1757 4.61194 15.2055 5.39801 15.1856 6.1791C15.5287 6.23383 16.1055 6.14428 16.6227 6.22886C16.7867 6.25373 16.8862 6.31343 17.0105 6.33831C17.0652 6.39303 17.3884 6.52239 17.647 6.86567C17.8657 7.1592 17.9304 7.31343 17.9652 7.70647C17.9801 7.85572 17.9702 8.36318 18 8.44776V12.5473C17.9453 12.7413 18.0348 13.3433 17.9105 13.7264L17.8508 13.8856C17.826 13.9453 17.8011 13.99 17.7812 14.0498C17.7414 14.0697 17.7066 14.1443 17.6818 14.1841C17.637 14.2488 17.6122 14.2736 17.5575 14.3333C17.5127 14.3831 17.2989 14.5672 17.284 14.597C17.2243 14.6169 17.2691 14.592 17.2343 14.6169C17.1945 14.6468 17.2044 14.6468 17.1895 14.6617L17.0155 14.7512L16.7271 14.8557L15.9812 14.9055C15.7425 14.9104 15.4094 14.8856 15.1856 14.9154V16.2488L15.1309 16.6716C15.116 16.791 15.0514 16.9254 15.0464 17C15.0414 17.005 15.0365 17 15.0315 17.0099C15.0315 17.0199 15.0215 17.0199 15.0215 17.0249C14.9967 17.0697 15.0215 17.01 14.9967 17.0796L14.937 17.1741C14.8923 17.2488 14.8873 17.2239 14.8724 17.2935L14.3503 17.7562C14.1862 17.8756 14.0022 17.9353 13.7635 17.9552C13.5845 17.9751 13.142 17.9502 13.0177 18H5.66354C5.57403 17.9701 5.07182 17.9851 4.92762 17.9851C4.68398 17.9801 4.43536 17.9801 4.19668 17.9502C3.9232 17.9204 3.81878 17.8756 3.62486 17.7512C3.46575 17.6468 3.26685 17.4478 3.21713 17.4129C3.20718 17.3632 3.24199 17.4179 3.18729 17.3532C3.16243 17.3234 3.13757 17.3134 3.11768 17.2985C3.09779 17.2289 3.01326 17.1443 2.95856 17.0149C2.90884 16.8955 2.89392 16.8109 2.85414 16.6866C2.83923 16.5771 2.84917 16.3781 2.80442 16.3035V14.9154C2.48122 14.8806 1.94917 14.9303 1.54144 14.8905C1.4221 14.8806 1.27293 14.8358 1.16851 14.8408C1.1337 14.806 1.1337 14.8109 1.07901 14.7861C1.0442 14.7711 0.999448 14.7562 0.964641 14.7463C0.929834 14.7214 0.780663 14.6318 0.740884 14.6119C0.671271 14.5473 0.69116 14.5373 0.591713 14.5025C0.541989 14.393 0.452486 14.3632 0.382873 14.2687C0.348066 14.2239 0.323204 14.194 0.288398 14.1493C0.253591 14.1045 0.228729 14.0448 0.198895 14.0249C0.169061 13.9154 0.119337 13.8507 0.0845304 13.7313C0.0497238 13.6169 0.0447514 13.5124 0.0348066 13.3881C0.0198895 13.2338 0.0298343 12.7413 0 12.6468V8.48756C0.0298343 8.38806 0.0149171 7.84577 0.0298343 7.68159C0.0447514 7.53234 0.0546961 7.45771 0.10442 7.32338C0.144199 7.21393 0.20884 7.11443 0.238674 7.01493C0.288398 6.98507 0.298343 6.95522 0.318232 6.90547C0.377901 6.85572 0.367956 6.8408 0.41768 6.79104L0.656354 6.56219C0.696133 6.53234 0.755801 6.50249 0.775691 6.46269C0.835359 6.44279 0.880111 6.42289 0.914917 6.37313C0.98453 6.36816 1.1337 6.29353 1.21823 6.26368C1.26796 6.25373 1.32265 6.24378 1.37735 6.23383C1.40221 6.22886 1.42707 6.22886 1.45193 6.22388C1.51657 6.20896 1.49171 6.22388 1.52652 6.19901C1.58122 6.20896 2.73481 6.19901 2.81934 6.18408L2.82928 2.06468L2.83923 1.95025V1.50249C2.87403 1.44776 2.87403 1.31343 2.88895 1.23383L2.95359 0.99005C3.00829 0.950249 2.99834 0.945274 3.0232 0.880597C3.04807 0.865672 2.99834 0.915423 3.04309 0.860696C3.05304 0.850746 3.05801 0.845771 3.06298 0.830846L3.23204 0.587065L3.24696 0.557214C3.35635 0.497512 3.66961 0.114428 4.17182 0.0497512C4.49006 0.00497512 5.49447 0.0348259 5.59392 0.00497512L5.58895 0ZM2.69503 11.5622C2.59061 11.6418 2.48122 11.6119 2.3768 11.7562C2.30221 11.8607 2.25746 12 2.26243 12.1741L2.31713 12.3731C2.37182 12.4129 2.34199 12.3781 2.36188 12.4378C2.43149 12.4776 2.45138 12.5323 2.54088 12.5771C2.6105 12.6119 2.7 12.6418 2.78453 12.6617C2.81934 12.6866 2.79945 12.6368 2.81934 12.7164L2.80442 13.7861H1.91436C1.86464 13.7811 1.87956 13.7761 1.86961 13.7761H1.60608C1.57127 13.7711 1.5663 13.7761 1.53149 13.7662C1.42707 13.7313 1.5116 13.7662 1.47182 13.7363C1.37735 13.7363 1.11381 13.4975 1.11381 13.2935V7.94527C1.11381 7.80597 1.08895 7.68657 1.1884 7.62687C1.20829 7.55224 1.24309 7.53234 1.29282 7.48756C1.34254 7.43781 1.35746 7.40796 1.44199 7.37811C1.46685 7.31841 1.52652 7.31343 1.61602 7.31343H8.91547C11.4265 7.31343 13.9376 7.31343 16.4486 7.31343C16.4934 7.32338 16.4834 7.31343 16.4884 7.33333C16.558 7.36318 16.5829 7.37811 16.6376 7.42289C16.6972 7.47264 16.7122 7.46766 16.742 7.54229C16.8215 7.59701 16.8215 7.62687 16.8315 7.75124C16.8414 7.85075 16.8514 7.97015 16.8315 8.06468L16.8464 8.1194C16.8464 8.13433 16.8464 8.1592 16.8464 8.17413L16.8514 8.54726V12.602L16.8365 13.209C16.8365 13.403 16.8265 13.4726 16.7271 13.592C16.6376 13.6965 16.568 13.7363 16.4039 13.7562C16.1901 13.7811 15.6829 13.801 15.4691 13.7761L15.3298 13.791C15.2751 13.791 15.2354 13.796 15.1757 13.791C15.1558 13.6418 15.1657 13.3682 15.1657 13.209C15.1657 13.1095 15.1657 13.0149 15.1657 12.9154C15.1657 12.8706 15.1608 12.8209 15.1608 12.7761C15.1608 12.7065 15.1459 12.6866 15.1956 12.6617C15.3497 12.6269 15.4144 12.5871 15.5287 12.5224C15.5536 12.4826 15.6182 12.403 15.663 12.3682L15.7177 12.1692C15.7276 11.9453 15.6878 11.9652 15.6481 11.806C15.6083 11.7612 15.5735 11.7164 15.5188 11.6617C15.484 11.6468 15.4492 11.6269 15.4144 11.6119C15.3895 11.602 15.3895 11.602 15.3597 11.5871C15.3199 11.5672 15.3398 11.5771 15.3199 11.5622L4.25138 11.5423C3.98785 11.5423 3.71436 11.5423 3.45083 11.5522C3.29171 11.5572 2.79945 11.5871 2.68508 11.5672L2.69503 11.5622ZM4.0326 1.40298L4.04751 1.36816C4.08232 1.29851 4.21657 1.18408 4.31105 1.1393C4.40055 1.09453 4.63425 1.1194 4.75856 1.1194L7.6326 1.12438C8.90553 1.12438 10.1685 1.1393 11.4464 1.13433C12.0829 1.12935 12.7293 1.12935 13.3657 1.13433C13.5796 1.13433 13.6691 1.0995 13.7934 1.19403C14.1912 1.50249 14.0669 1.78109 14.0669 2.34328C14.0669 3.62189 14.0669 4.9005 14.0669 6.18408L3.93812 6.1791V1.89055C3.93812 1.69154 3.89834 1.48259 4.0326 1.39303V1.40298Z" fill="#ED1C24"/>
</svg>
