<svg width="18" height="13" viewBox="0 0 18 13" fill="none" xmlns="http://www.w3.org/2000/svg">
<path fill-rule="evenodd" clip-rule="evenodd" d="M13.1491 7.19591V7.22633C13.187 7.24042 13.4273 7.51117 13.451 7.53936L14.1246 8.26778C14.3701 8.51256 14.7083 8.89383 14.9539 9.15939L16.0064 10.2898C16.321 10.6474 16.7415 11.0546 17.065 11.43L17.51 11.9091C17.5835 11.9774 17.6057 12.0063 17.6636 12.0746C17.6917 12.1079 17.9514 12.3676 17.9588 12.4032C18.0255 12.3587 17.9647 12.4313 17.9914 12.3668C18.0026 12.3401 17.9981 12.3334 17.9981 12.3045L17.9944 6.14556L17.9966 0.845596C17.8453 0.912356 17.5605 1.31588 17.4418 1.36484L17.3847 1.43827C17.3587 1.46349 17.3453 1.47685 17.3201 1.50207C17.2734 1.5488 17.2393 1.58292 17.1925 1.62965C17.1013 1.72163 17.0219 1.80174 16.9314 1.89372C16.8699 1.95603 16.473 2.36252 16.4018 2.4048C16.3751 2.4634 15.0785 3.76299 14.9264 3.9195C14.7684 4.08269 14.5956 4.28075 14.4309 4.42836C14.2418 4.59748 14.0993 4.75697 13.9295 4.93054L12.6833 6.18562C12.6173 6.25164 12.4801 6.37403 12.4355 6.43931C12.4778 6.49939 12.5557 6.56763 12.6084 6.62846C12.6662 6.69522 12.7278 6.75085 12.7857 6.81761C12.8435 6.88437 13.0935 7.16699 13.1491 7.19517V7.19591Z" fill="#ED1C24"/>
<path fill-rule="evenodd" clip-rule="evenodd" d="M11.5097 7.37913L11.4704 7.41029C11.4415 7.43254 11.4734 7.41251 11.4415 7.43106C11.4066 7.48892 11.2568 7.61947 11.1967 7.67807C11.1151 7.75744 11.0461 7.82716 10.9512 7.92656C10.4802 8.41836 9.86523 9.01103 9.06931 9.00065C8.36907 8.99175 7.84612 8.52888 7.44408 8.14761C7.32317 8.03263 6.72085 7.51784 6.68896 7.44293C6.66522 7.42957 6.65187 7.4229 6.62739 7.40955L6.33661 7.13509C6.24909 7.05572 6.11779 6.89995 6.02136 6.85396C5.93754 6.97487 5.64528 7.22707 5.60597 7.32424L5.55404 7.3465C5.5266 7.41325 5.02739 7.92285 4.96359 7.99332C4.86494 8.10236 4.76257 8.20992 4.66392 8.31525L4.20773 8.79963C4.15877 8.85452 4.10907 8.89754 4.05863 8.95318C3.61876 9.43829 3.14106 9.91748 2.70341 10.4026L1.49877 11.6836C1.31778 11.8876 1.01068 12.1836 0.825242 12.3965L0.755515 12.4588C0.713234 12.55 0.340864 12.8764 0.279297 12.9973H17.5982C17.527 12.8838 17.4521 12.8267 17.3623 12.7281L17.1309 12.4558C17.0582 12.4195 16.6265 11.9114 16.5353 11.8179L13.5867 8.61641C13.494 8.51108 13.3872 8.38646 13.29 8.29151L12.4807 7.41177C12.4496 7.37691 12.437 7.36801 12.4243 7.33166L12.3724 7.30866C12.3435 7.22855 12.2604 7.16847 12.1914 7.09652C12.1254 7.02679 12.0846 6.9541 12.0008 6.8955L11.5097 7.37913Z" fill="#ED1C24"/>
<path fill-rule="evenodd" clip-rule="evenodd" d="M4.7874 7.22264L5.17238 6.8154C5.20576 6.77831 5.22727 6.74939 5.26065 6.7123C5.33409 6.63144 5.50544 6.47641 5.55365 6.39408C5.50766 6.32435 5.3697 6.20344 5.30664 6.14113L2.11702 2.90997C2.0421 2.83282 1.6638 2.46416 1.63858 2.40705C1.57627 2.37367 1.19945 1.97459 1.0778 1.8611C1.04813 1.83366 1.02736 1.82179 1.0229 1.78915C0.965047 1.75132 0.842654 1.63041 0.773669 1.56068C0.695783 1.48206 0.618639 1.40343 0.546687 1.32554C0.452482 1.22318 0.134261 0.946495 0.0919799 0.8649C0.0482152 0.841905 0.0867874 0.863417 0.0482152 0.835971C0.0237367 0.818168 0.0296709 0.81891 0 0.801849L0.00519241 6.19676L0.00445064 12.3668C0.102365 12.2889 0.346408 12.0086 0.442097 11.8995L1.64006 10.6118C1.69198 10.5517 1.74465 10.5087 1.79583 10.4493C2.11109 10.0844 2.51609 9.69126 2.83357 9.33595L3.88467 8.20474C3.93585 8.1543 3.97739 8.09941 4.02634 8.04378L4.32973 7.72556C4.47215 7.57424 4.59232 7.41772 4.7429 7.27827C4.77479 7.24934 4.75031 7.26195 4.7874 7.2486V7.22264Z" fill="#ED1C24"/>
<path fill-rule="evenodd" clip-rule="evenodd" d="M7.76293 7.48447C7.79705 7.55569 8.19241 7.92286 8.27994 8.01113C8.69237 8.42653 9.3926 8.39315 9.78574 8.00446C9.87476 7.91619 9.96673 7.83385 10.0498 7.74261C10.1344 7.64989 10.2642 7.53491 10.3065 7.46741L10.322 7.48151C10.3591 7.40585 10.8702 6.93334 10.9733 6.83394C11.0846 6.72638 11.1899 6.61141 11.2915 6.51498C12.0504 5.7873 12.7929 5.01956 13.5547 4.28521L14.1963 3.65248C14.4174 3.43514 14.6243 3.22892 14.8469 3.01233C14.9581 2.90328 15.0575 2.80537 15.1688 2.69707C15.2385 2.62883 15.4284 2.42039 15.4944 2.39072L16.5188 1.37078C16.5477 1.34853 16.5351 1.35743 16.5529 1.35075C16.5826 1.28696 16.6004 1.28548 16.6612 1.22539L17.0232 0.870084C17.1048 0.789973 17.4379 0.44134 17.4994 0.413894C17.5558 0.305595 17.7835 0.149081 17.8866 0.000726514L0.210938 -1.52588e-05C0.255444 0.0734203 0.741305 0.528869 0.84367 0.630492L1.05433 0.865634C1.08771 0.870085 1.48456 1.27806 1.50978 1.30254C1.59212 1.38265 1.6611 1.45015 1.74344 1.531C1.78424 1.57106 1.81465 1.60073 1.85619 1.64153C1.9007 1.68529 1.93853 1.71051 1.96449 1.76615C1.99713 1.77727 1.97636 1.76689 2.00677 1.79285C2.0943 1.86777 2.55865 2.31803 2.58906 2.38553C2.62318 2.39591 2.65211 2.43226 2.67882 2.45896L2.91618 2.70004C3.01261 2.80908 3.13056 2.91441 3.23589 3.01752L6.45518 6.20343C6.52936 6.27613 7.69914 7.42439 7.72955 7.48596L7.76367 7.48447H7.76293Z" fill="#ED1C24"/>
</svg>
