<svg width="87" height="73" viewBox="0 0 87 73" fill="none" xmlns="http://www.w3.org/2000/svg">
<path d="M84.8059 2.71729H35.7751C34.6397 2.71729 33.4443 2.8512 32.3261 3.03286L32.3139 3.03519L32.3041 3.03635L32.2967 3.03752L32.2918 3.03868H32.2906C29.0427 3.57083 25.9174 4.53383 22.9993 5.85082C20.9444 6.77888 18.9938 7.88161 17.1755 9.13455L16.9818 9.26963C16.3749 9.69349 15.7778 10.1383 15.1941 10.6006C14.9354 10.8055 14.6853 11.0093 14.4426 11.2108C13.8724 11.6882 13.3195 12.1807 12.7849 12.6884C9.47939 15.8255 6.81635 19.575 4.99808 23.7425C3.2497 27.7494 2.28477 32.1452 2.28477 36.7599C2.28477 41.3734 3.2497 45.7703 4.99808 49.7772C6.81635 53.9447 9.48062 57.6943 12.7849 60.8301C13.0411 61.0735 13.2999 61.3122 13.5635 61.5474L13.713 61.6802C14.2219 62.1296 14.7552 62.5733 15.3106 63.0088C15.866 63.4443 16.4251 63.8577 16.9867 64.2489L17.1877 64.3887C19.4229 65.9199 21.8505 67.2124 24.429 68.2255C28.6503 69.8848 33.2825 70.8013 38.1463 70.8013C43.0102 70.8013 47.6423 69.8848 51.8637 68.2255C54.5537 67.1682 57.0794 65.807 59.393 64.1884L59.4935 64.1173C60.1054 63.6865 60.7098 63.2312 61.3057 62.7515C61.8979 62.2752 62.4717 61.7838 63.0246 61.2784L63.2 61.1177C63.303 61.0222 63.4059 60.9256 63.5089 60.8278C66.8144 57.6908 69.4775 53.9424 71.2958 49.7749C73.0441 45.768 74.0091 41.3711 74.0091 36.7575C74.0091 34.176 73.7099 31.6701 73.1422 29.269C72.5954 26.9576 71.7997 24.7311 70.782 22.6188H46.3009C47.8225 23.3722 49.2092 24.3306 50.4181 25.4531C53.5691 28.3782 55.5186 32.4176 55.5186 36.8786C55.5186 41.3396 53.5691 45.3791 50.4181 48.3042C47.2757 51.2223 42.9354 53.026 38.1451 53.026C33.3548 53.026 29.0157 51.2211 25.8733 48.3042C22.7223 45.3791 20.7728 41.3396 20.7728 36.8786C20.7728 32.4176 22.7223 28.3782 25.8733 25.4531C28.0287 23.4526 30.7469 21.9749 33.7876 21.2436C35.2025 20.9083 36.4457 20.7336 37.8545 20.7336C37.9514 20.7324 38.0482 20.7313 38.1451 20.7313C38.2419 20.7313 38.3388 20.7324 38.4357 20.7336H84.8035V2.71496L84.8059 2.71729ZM66.0543 61.0246C67.2325 61.2575 68.2857 61.8152 69.1048 62.5942C70.2046 63.6399 70.8862 65.0827 70.8862 66.678C70.8862 68.2721 70.2058 69.716 69.1048 70.7617C68.0037 71.8062 66.4834 72.4536 64.8049 72.4536C63.1264 72.4536 61.6061 71.8073 60.5051 70.7617C59.4592 69.7672 58.7922 68.413 58.7297 66.9109C56.806 68.0963 54.7609 69.121 52.6165 69.964C48.1535 71.7188 43.2664 72.6877 38.1463 72.6877C33.0274 72.6877 28.1391 71.7188 23.6761 69.964C21.6458 69.1652 19.7049 68.2046 17.8707 67.0983C17.8584 68.675 17.1804 70.1026 16.0904 71.1378C14.9894 72.1823 13.4691 72.8297 11.7906 72.8297C10.1121 72.8297 8.59171 72.1835 7.4907 71.1378C6.39091 70.0921 5.70921 68.6482 5.70921 67.0541C5.70921 65.46 6.38968 64.016 7.4907 62.9704C8.3232 62.1797 9.39725 61.6173 10.5976 61.3902C7.47108 58.2404 4.93678 54.5549 3.16632 50.498C1.3174 46.2617 0.297302 41.6214 0.297302 36.7587C0.297302 31.896 1.3174 27.2557 3.16632 23.0194C4.90858 19.0277 7.38893 15.3969 10.4455 12.2809C9.27219 12.0457 8.22389 11.4902 7.4061 10.7135C6.30631 9.66787 5.62461 8.22396 5.62461 6.62983C5.62461 5.0357 6.30508 3.59179 7.4061 2.54612C8.50712 1.50161 10.0262 0.854181 11.706 0.854181C13.3845 0.854181 14.9048 1.50045 16.0058 2.54612C17.0664 3.55337 17.737 4.93207 17.7836 6.45866C19.1789 5.60395 20.6391 4.83076 22.1521 4.14723C25.4172 2.67304 31.1613 0.829727 34.7807 0.829727H86.7897V22.62H72.9485C73.8472 24.6112 74.562 26.6967 75.0733 28.8568C75.6765 31.4081 75.9953 34.0525 75.9953 36.7575C75.9953 41.6203 74.9752 46.2606 73.1263 50.4968C71.4233 54.3977 69.0153 57.9551 66.053 61.0222L66.0543 61.0246ZM67.7009 63.9275C66.9604 63.2242 65.9353 62.7887 64.8049 62.7887C64.6406 62.7887 64.4923 62.7957 64.3586 62.8097C64.301 62.8155 64.2421 62.8225 64.1821 62.8318C63.8976 63.088 63.6095 63.3395 63.3177 63.5864L63.2931 63.6073L63.2686 63.6283L63.2441 63.6492L63.2233 63.6667L63.2196 63.6702L63.1951 63.6912L63.1705 63.7121L63.146 63.7331L63.1019 63.7703L63.0958 63.775L63.0712 63.796L63.0516 63.8123L63.0455 63.8169L63.0197 63.8379L62.9192 63.9206L62.8935 63.9415L62.8763 63.9555L62.8689 63.9613L62.8652 63.9636L62.7672 64.044L62.7414 64.0649L62.7157 64.0859L62.6997 64.0987L62.6899 64.1069L62.6642 64.1278L62.5882 64.1895L62.5624 64.2093L62.5367 64.2291L62.5219 64.2408L62.5109 64.2489L62.4852 64.2687L62.4594 64.2885L62.3577 64.37L62.3429 64.3817L62.3319 64.391L62.3062 64.4108L62.2804 64.4306L62.2289 64.4713L62.2032 64.4911L62.1774 64.5109L62.1308 64.547L62.1259 64.5505L62.1002 64.5703L62.0744 64.5901L62.0487 64.6099L62.0229 64.6297L61.9972 64.6495L61.9457 64.6891L61.9199 64.7089L61.8942 64.7287L61.8685 64.7485C61.5546 64.9883 61.2358 65.2247 60.9133 65.4553C60.8606 65.609 60.8165 65.7674 60.7834 65.9292C60.7356 66.1644 60.711 66.4125 60.711 66.6733C60.711 67.7469 61.1696 68.7192 61.9101 69.4237C62.6507 70.1271 63.6745 70.5626 64.8061 70.5626C65.9366 70.5626 66.9604 70.1271 67.7021 69.4237C68.4427 68.7204 68.9012 67.7469 68.9012 66.6733C68.9012 65.5997 68.4427 64.6274 67.7021 63.9229L67.7009 63.9275ZM12.3006 63.1951C12.1363 63.1753 11.9659 63.166 11.7918 63.166C10.6613 63.166 9.63756 63.6015 8.89578 64.3048C8.15523 65.0081 7.69668 65.9805 7.69668 67.0552C7.69668 68.1289 8.15523 69.1012 8.89578 69.8057C9.63633 70.509 10.6601 70.9445 11.7918 70.9445C12.9222 70.9445 13.946 70.509 14.6878 69.8057C15.4283 69.1023 15.8869 68.1289 15.8869 67.0552C15.8869 66.7525 15.855 66.4695 15.7937 66.2075C15.7459 66.0049 15.6821 65.807 15.6024 65.6171C15.0654 65.2387 14.5468 64.8533 14.0478 64.4609C13.55 64.0696 13.0559 63.6609 12.5654 63.2347C12.4796 63.2196 12.3913 63.2068 12.3018 63.1963L12.3006 63.1951ZM14.6032 3.88174C13.8626 3.17841 12.8388 2.74291 11.7072 2.74291C10.5767 2.74291 9.55173 3.17841 8.81118 3.88174C8.07063 4.58506 7.61208 5.55738 7.61208 6.63216C7.61208 7.70578 8.07063 8.67926 8.81118 9.38258C9.55173 10.0859 10.5755 10.5214 11.7072 10.5214C11.8727 10.5214 12.0247 10.5144 12.1608 10.4993C12.2246 10.4923 12.2871 10.4853 12.3484 10.476C12.6966 10.1674 13.051 9.86583 13.4127 9.56889L13.4372 9.5491L13.4617 9.5293L13.4862 9.5095L13.4899 9.50718L13.5107 9.48971C13.6481 9.37676 13.7854 9.26614 13.9227 9.15784C14.2488 8.89934 14.5811 8.64432 14.9207 8.39397L14.922 8.3928L15.0777 8.27869L15.085 8.27286L15.1034 8.25889L15.1561 8.22046L15.1819 8.20183L15.2089 8.1832L15.2346 8.16457L15.2481 8.15525L15.2603 8.14594L15.2873 8.12731L15.3131 8.10868L15.34 8.09004L15.367 8.07141L15.394 8.05278L15.47 7.99805L15.4737 7.99573L15.5007 7.97709L15.5276 7.95846L15.5816 7.92004C15.6417 7.75468 15.6919 7.58584 15.7287 7.41234C15.779 7.17363 15.806 6.91395 15.806 6.63565C15.806 5.56203 15.3474 4.58972 14.6068 3.88523L14.6032 3.88174ZM51.1807 44.4685C50.4426 43.3413 47.7293 39.4602 44.3392 37.8847C44.0965 39.0643 43.4736 40.1193 42.5933 40.9356C42.3689 41.144 42.1286 41.3361 41.8736 41.5108C42.3947 45.0158 40.8265 49.0308 39.8788 51.0534C43.4417 50.6843 46.6369 49.188 49.0388 46.9581C49.848 46.207 50.5677 45.3709 51.1807 44.4673V44.4685ZM44.3748 35.8504C47.9525 37.1616 50.8803 40.6957 52.2523 42.5937C53.0762 40.8459 53.5336 38.9129 53.5336 36.8821C53.5336 34.4123 52.858 32.0904 51.6675 30.0655C50.1557 30.1528 45.5212 30.5767 42.5111 32.5399C42.5381 32.5644 42.5663 32.5888 42.5933 32.6144C43.519 33.4738 44.1602 34.5975 44.3736 35.8516L44.3748 35.8504ZM37.6559 51.1361C38.2812 49.9449 40.2404 45.8938 39.9867 42.3946C39.4043 42.56 38.7863 42.6496 38.1475 42.6496C37.3481 42.6496 36.5831 42.5099 35.8793 42.2572C32.7283 44.5058 27.8669 44.9995 25.5717 45.1054C26.0756 45.768 26.6396 46.3875 27.2563 46.9592C29.934 49.4442 33.5963 51.0185 37.6571 51.1361H37.6559ZM24.3762 43.254C25.0359 43.2598 30.4846 43.2412 34.0034 41.1999C33.8992 41.1149 33.7986 41.0276 33.7006 40.9367C32.7969 40.0983 32.1643 39.0072 31.9362 37.7892C28.3953 36.6341 25.3902 33.3434 23.9054 31.4721C23.1685 33.1396 22.7615 34.9666 22.7615 36.881C22.7615 39.1714 23.3439 41.3361 24.3775 43.2528L24.3762 43.254ZM24.9169 29.5915C25.8463 30.8713 28.627 34.3984 31.9325 35.7736C32.1594 34.5497 32.792 33.4552 33.6993 32.6121C33.7594 32.5562 33.8207 32.5015 33.8832 32.4479C33.3609 28.9162 35.2074 24.8662 36.3918 22.7108C32.8374 23.0846 29.6508 24.5786 27.2538 26.8039C26.3563 27.6376 25.5692 28.5738 24.9157 29.5915H24.9169ZM40.7689 31.4314C43.6477 29.2527 48.0383 28.5237 50.4267 28.2815C50.0012 27.7599 49.5366 27.265 49.0388 26.8027C46.3745 24.3282 42.7331 22.7586 38.6956 22.6281C37.8913 23.9335 35.6709 27.8658 35.7714 31.3312C36.5046 31.0529 37.3064 30.8992 38.1475 30.8992C39.083 30.8992 39.9707 31.0902 40.7689 31.4314ZM41.214 33.9605C40.4317 33.2339 39.3479 32.7844 38.1475 32.7844C36.9472 32.7844 35.8634 33.2339 35.0811 33.9605C34.3062 34.679 33.8281 35.6746 33.8281 36.7738C33.8281 37.8731 34.3075 38.8687 35.0811 39.5871C35.8634 40.3137 36.9472 40.7632 38.1475 40.7632C39.3479 40.7632 40.4317 40.3137 41.214 39.5871C41.9888 38.8687 42.467 37.8731 42.467 36.7738C42.467 35.6746 41.9876 34.679 41.214 33.9605Z" fill="black"/>
<path d="M84.8059 2.71729H35.7751C34.6397 2.71729 33.4443 2.8512 32.3261 3.03286L32.3139 3.03519L32.3041 3.03635L32.2967 3.03752L32.2918 3.03868H32.2906C29.0427 3.57083 25.9174 4.53383 22.9993 5.85082C20.9444 6.77888 18.9938 7.88161 17.1755 9.13455L16.9818 9.26963C16.3749 9.69349 15.7778 10.1383 15.1941 10.6006C14.9354 10.8055 14.6853 11.0093 14.4426 11.2108C13.8724 11.6882 13.3195 12.1807 12.7849 12.6884C9.47939 15.8255 6.81635 19.575 4.99808 23.7425C3.2497 27.7494 2.28477 32.1452 2.28477 36.7599C2.28477 41.3734 3.2497 45.7703 4.99808 49.7772C6.81635 53.9447 9.48062 57.6943 12.7849 60.8301C13.0411 61.0735 13.2999 61.3122 13.5635 61.5474L13.713 61.6802C14.2219 62.1296 14.7552 62.5733 15.3106 63.0088C15.866 63.4443 16.4251 63.8577 16.9867 64.2489L17.1877 64.3887C19.4229 65.9199 21.8505 67.2124 24.429 68.2255C28.6503 69.8848 33.2825 70.8013 38.1463 70.8013C43.0102 70.8013 47.6423 69.8848 51.8637 68.2255C54.5537 67.1682 57.0794 65.807 59.393 64.1884L59.4935 64.1173C60.1054 63.6865 60.7098 63.2312 61.3057 62.7515C61.8979 62.2752 62.4717 61.7838 63.0246 61.2784L63.2 61.1177C63.303 61.0222 63.4059 60.9256 63.5089 60.8278C66.8144 57.6908 69.4775 53.9424 71.2958 49.7749C73.0441 45.768 74.0091 41.3711 74.0091 36.7575C74.0091 34.176 73.7099 31.6701 73.1422 29.269C72.5954 26.9576 71.7997 24.7311 70.782 22.6188H46.3009C47.8225 23.3722 49.2092 24.3306 50.4181 25.4531C53.5691 28.3782 55.5186 32.4176 55.5186 36.8786C55.5186 41.3396 53.5691 45.3791 50.4181 48.3042C47.2757 51.2223 42.9354 53.026 38.1451 53.026C33.3548 53.026 29.0157 51.2211 25.8733 48.3042C22.7223 45.3791 20.7728 41.3396 20.7728 36.8786C20.7728 32.4176 22.7223 28.3782 25.8733 25.4531C28.0287 23.4526 30.7469 21.9749 33.7876 21.2436C35.2025 20.9083 36.4457 20.7336 37.8545 20.7336C37.9514 20.7324 38.0482 20.7313 38.1451 20.7313C38.2419 20.7313 38.3388 20.7324 38.4357 20.7336H84.8035V2.71496L84.8059 2.71729ZM66.0543 61.0246C67.2325 61.2575 68.2857 61.8152 69.1048 62.5942C70.2046 63.6399 70.8862 65.0827 70.8862 66.678C70.8862 68.2721 70.2058 69.716 69.1048 70.7617C68.0037 71.8062 66.4834 72.4536 64.8049 72.4536C63.1264 72.4536 61.6061 71.8073 60.5051 70.7617C59.4592 69.7672 58.7922 68.413 58.7297 66.9109C56.806 68.0963 54.7609 69.121 52.6165 69.964C48.1535 71.7188 43.2664 72.6877 38.1463 72.6877C33.0274 72.6877 28.1391 71.7188 23.6761 69.964C21.6458 69.1652 19.7049 68.2046 17.8707 67.0983C17.8584 68.675 17.1804 70.1026 16.0904 71.1378C14.9894 72.1823 13.4691 72.8297 11.7906 72.8297C10.1121 72.8297 8.59171 72.1835 7.4907 71.1378C6.39091 70.0921 5.70921 68.6482 5.70921 67.0541C5.70921 65.46 6.38968 64.016 7.4907 62.9704C8.3232 62.1797 9.39725 61.6173 10.5976 61.3902C7.47108 58.2404 4.93678 54.5549 3.16632 50.498C1.3174 46.2617 0.297302 41.6214 0.297302 36.7587C0.297302 31.896 1.3174 27.2557 3.16632 23.0194C4.90858 19.0277 7.38893 15.3969 10.4455 12.2809C9.27219 12.0457 8.22389 11.4902 7.4061 10.7135C6.30631 9.66787 5.62461 8.22396 5.62461 6.62983C5.62461 5.0357 6.30508 3.59179 7.4061 2.54612C8.50712 1.50161 10.0262 0.854181 11.706 0.854181C13.3845 0.854181 14.9048 1.50045 16.0058 2.54612C17.0664 3.55337 17.737 4.93207 17.7836 6.45866C19.1789 5.60395 20.6391 4.83076 22.1521 4.14723C25.4172 2.67304 31.1613 0.829727 34.7807 0.829727H86.7897V22.62H72.9485C73.8472 24.6112 74.562 26.6967 75.0733 28.8568C75.6765 31.4081 75.9953 34.0525 75.9953 36.7575C75.9953 41.6203 74.9752 46.2606 73.1263 50.4968C71.4233 54.3977 69.0153 57.9551 66.053 61.0222L66.0543 61.0246ZM67.7009 63.9275C66.9604 63.2242 65.9353 62.7887 64.8049 62.7887C64.6406 62.7887 64.4923 62.7957 64.3586 62.8097C64.301 62.8155 64.2421 62.8225 64.1821 62.8318C63.8976 63.088 63.6095 63.3395 63.3177 63.5864L63.2931 63.6073L63.2686 63.6283L63.2441 63.6492L63.2233 63.6667L63.2196 63.6702L63.1951 63.6912L63.1705 63.7121L63.146 63.7331L63.1019 63.7703L63.0958 63.775L63.0712 63.796L63.0516 63.8123L63.0455 63.8169L63.0197 63.8379L62.9192 63.9206L62.8935 63.9415L62.8763 63.9555L62.8689 63.9613L62.8652 63.9636L62.7672 64.044L62.7414 64.0649L62.7157 64.0859L62.6997 64.0987L62.6899 64.1069L62.6642 64.1278L62.5882 64.1895L62.5624 64.2093L62.5367 64.2291L62.5219 64.2408L62.5109 64.2489L62.4852 64.2687L62.4594 64.2885L62.3577 64.37L62.3429 64.3817L62.3319 64.391L62.3062 64.4108L62.2804 64.4306L62.2289 64.4713L62.2032 64.4911L62.1774 64.5109L62.1308 64.547L62.1259 64.5505L62.1002 64.5703L62.0744 64.5901L62.0487 64.6099L62.0229 64.6297L61.9972 64.6495L61.9457 64.6891L61.9199 64.7089L61.8942 64.7287L61.8685 64.7485C61.5546 64.9883 61.2358 65.2247 60.9133 65.4553C60.8606 65.609 60.8165 65.7674 60.7834 65.9292C60.7356 66.1644 60.711 66.4125 60.711 66.6733C60.711 67.7469 61.1696 68.7192 61.9101 69.4237C62.6507 70.1271 63.6745 70.5626 64.8061 70.5626C65.9366 70.5626 66.9604 70.1271 67.7021 69.4237C68.4427 68.7204 68.9012 67.7469 68.9012 66.6733C68.9012 65.5997 68.4427 64.6274 67.7021 63.9229L67.7009 63.9275ZM12.3006 63.1951C12.1363 63.1753 11.9659 63.166 11.7918 63.166C10.6613 63.166 9.63756 63.6015 8.89578 64.3048C8.15523 65.0081 7.69668 65.9805 7.69668 67.0552C7.69668 68.1289 8.15523 69.1012 8.89578 69.8057C9.63633 70.509 10.6601 70.9445 11.7918 70.9445C12.9222 70.9445 13.946 70.509 14.6878 69.8057C15.4283 69.1023 15.8869 68.1289 15.8869 67.0552C15.8869 66.7525 15.855 66.4695 15.7937 66.2075C15.7459 66.0049 15.6821 65.807 15.6024 65.6171C15.0654 65.2387 14.5468 64.8533 14.0478 64.4609C13.55 64.0696 13.0559 63.6609 12.5654 63.2347C12.4796 63.2196 12.3913 63.2068 12.3018 63.1963L12.3006 63.1951ZM14.6032 3.88174C13.8626 3.17841 12.8388 2.74291 11.7072 2.74291C10.5767 2.74291 9.55173 3.17841 8.81118 3.88174C8.07063 4.58506 7.61208 5.55738 7.61208 6.63216C7.61208 7.70578 8.07063 8.67926 8.81118 9.38258C9.55173 10.0859 10.5755 10.5214 11.7072 10.5214C11.8727 10.5214 12.0247 10.5144 12.1608 10.4993C12.2246 10.4923 12.2871 10.4853 12.3484 10.476C12.6966 10.1674 13.051 9.86583 13.4127 9.56889L13.4372 9.5491L13.4617 9.5293L13.4862 9.5095L13.4899 9.50718L13.5107 9.48971C13.6481 9.37676 13.7854 9.26614 13.9227 9.15784C14.2488 8.89934 14.5811 8.64432 14.9207 8.39397L14.922 8.3928L15.0777 8.27869L15.085 8.27286L15.1034 8.25889L15.1561 8.22046L15.1819 8.20183L15.2089 8.1832L15.2346 8.16457L15.2481 8.15525L15.2603 8.14594L15.2873 8.12731L15.3131 8.10868L15.34 8.09004L15.367 8.07141L15.394 8.05278L15.47 7.99805L15.4737 7.99573L15.5007 7.97709L15.5276 7.95846L15.5816 7.92004C15.6417 7.75468 15.6919 7.58584 15.7287 7.41234C15.779 7.17363 15.806 6.91395 15.806 6.63565C15.806 5.56203 15.3474 4.58972 14.6068 3.88523L14.6032 3.88174ZM51.1807 44.4685C50.4426 43.3413 47.7293 39.4602 44.3392 37.8847C44.0965 39.0643 43.4736 40.1193 42.5933 40.9356C42.3689 41.144 42.1286 41.3361 41.8736 41.5108C42.3947 45.0158 40.8265 49.0308 39.8788 51.0534C43.4417 50.6843 46.6369 49.188 49.0388 46.9581C49.848 46.207 50.5677 45.3709 51.1807 44.4673V44.4685ZM44.3748 35.8504C47.9525 37.1616 50.8803 40.6957 52.2523 42.5937C53.0762 40.8459 53.5336 38.9129 53.5336 36.8821C53.5336 34.4123 52.858 32.0904 51.6675 30.0655C50.1557 30.1528 45.5212 30.5767 42.5111 32.5399C42.5381 32.5644 42.5663 32.5888 42.5933 32.6144C43.519 33.4738 44.1602 34.5975 44.3736 35.8516L44.3748 35.8504ZM37.6559 51.1361C38.2812 49.9449 40.2404 45.8938 39.9867 42.3946C39.4043 42.56 38.7863 42.6496 38.1475 42.6496C37.3481 42.6496 36.5831 42.5099 35.8793 42.2572C32.7283 44.5058 27.8669 44.9995 25.5717 45.1054C26.0756 45.768 26.6396 46.3875 27.2563 46.9592C29.934 49.4442 33.5963 51.0185 37.6571 51.1361H37.6559ZM24.3762 43.254C25.0359 43.2598 30.4846 43.2412 34.0034 41.1999C33.8992 41.1149 33.7986 41.0276 33.7006 40.9367C32.7969 40.0983 32.1643 39.0072 31.9362 37.7892C28.3953 36.6341 25.3902 33.3434 23.9054 31.4721C23.1685 33.1396 22.7615 34.9666 22.7615 36.881C22.7615 39.1714 23.3439 41.3361 24.3775 43.2528L24.3762 43.254ZM24.9169 29.5915C25.8463 30.8713 28.627 34.3984 31.9325 35.7736C32.1594 34.5497 32.792 33.4552 33.6993 32.6121C33.7594 32.5562 33.8207 32.5015 33.8832 32.4479C33.3609 28.9162 35.2074 24.8662 36.3918 22.7108C32.8374 23.0846 29.6508 24.5786 27.2538 26.8039C26.3563 27.6376 25.5692 28.5738 24.9157 29.5915H24.9169ZM40.7689 31.4314C43.6477 29.2527 48.0383 28.5237 50.4267 28.2815C50.0012 27.7599 49.5366 27.265 49.0388 26.8027C46.3745 24.3282 42.7331 22.7586 38.6956 22.6281C37.8913 23.9335 35.6709 27.8658 35.7714 31.3312C36.5046 31.0529 37.3064 30.8992 38.1475 30.8992C39.083 30.8992 39.9707 31.0902 40.7689 31.4314ZM41.214 33.9605C40.4317 33.2339 39.3479 32.7844 38.1475 32.7844C36.9472 32.7844 35.8634 33.2339 35.0811 33.9605C34.3062 34.679 33.8281 35.6746 33.8281 36.7738C33.8281 37.8731 34.3075 38.8687 35.0811 39.5871C35.8634 40.3137 36.9472 40.7632 38.1475 40.7632C39.3479 40.7632 40.4317 40.3137 41.214 39.5871C41.9888 38.8687 42.467 37.8731 42.467 36.7738C42.467 35.6746 41.9876 34.679 41.214 33.9605Z" fill="#FF0000"/>
</svg>
