<svg width="72" height="73" viewBox="0 0 72 73" fill="none" xmlns="http://www.w3.org/2000/svg">
<path fill-rule="evenodd" clip-rule="evenodd" d="M51.5833 60.9829C51.5783 61.0909 51.5529 61.2022 51.5258 61.2928L51.52 61.3118L51.5048 61.3275C51.0332 61.8063 49.2801 61.7174 48.2129 61.6632C47.9517 61.6497 47.732 61.6387 47.5835 61.6387C47.4605 61.6387 47.3491 61.6865 47.2684 61.7636C47.1877 61.8406 47.1373 61.9473 47.1373 62.065C47.1373 62.783 47.1373 63.5488 47.2064 64.3028C47.2751 65.0538 47.4119 65.7942 47.6852 66.4648C47.8639 66.9038 48.0979 67.3144 48.3645 67.706C48.6315 68.0989 48.9319 68.4735 49.2431 68.8406C49.5805 69.2377 49.9536 69.5912 50.3632 69.8993C50.7733 70.208 51.2195 70.4721 51.7027 70.6918C53.9952 71.7337 56.9822 71.6592 59.6763 71.5919C60.3248 71.5758 60.9565 71.5597 61.5435 71.5597C62.6641 71.5597 63.7874 71.2892 64.8189 70.8227C65.9007 70.3337 66.8814 69.6297 67.653 68.7961C68.5904 67.7835 69.099 66.759 69.3731 65.6617C69.6481 64.5597 69.6878 63.3803 69.6878 62.0645C69.6878 61.9473 69.6379 61.8402 69.5568 61.7631C69.4761 61.6861 69.3646 61.6382 69.2421 61.6382H57.3686C57.2674 61.6382 57.14 61.6429 56.9938 61.6484C56.3287 61.6725 55.2794 61.7106 54.9643 61.416C54.9166 61.3711 54.884 61.319 54.8626 61.2632C54.8426 61.2107 54.8319 61.1552 54.8265 61.1002C54.8189 61.0274 54.8145 60.9385 54.827 60.8529C54.8408 60.7585 54.8747 60.6671 54.9455 60.6002C55.0806 60.4728 55.3467 60.4127 55.6195 60.386C55.8798 60.3606 56.1482 60.3636 56.3051 60.3657L56.6207 60.372C56.7704 60.3754 56.9207 60.3792 57.0686 60.3792L69.2541 60.1637C69.3749 60.1616 69.4845 60.1129 69.5634 60.0363C69.6423 59.9597 69.6914 59.8539 69.6914 59.7379L69.6878 30.7622C69.6874 30.6445 69.6374 30.5382 69.5568 30.4612C69.4761 30.3841 69.3646 30.3363 69.2421 30.3363H57.3686C57.2643 30.3367 57.1346 30.3414 56.9862 30.3469C56.3207 30.371 55.2897 30.4083 54.9638 30.114C54.9126 30.0675 54.8769 30.0137 54.8528 29.9561C54.8301 29.9015 54.8172 29.8427 54.8096 29.7838C54.8011 29.7152 54.7944 29.6289 54.8042 29.5446C54.8149 29.4519 54.8457 29.3613 54.9139 29.2953C55.0423 29.1712 55.2968 29.1116 55.558 29.084C55.8063 29.0578 56.0635 29.0595 56.2128 29.0608C56.3403 29.062 56.4655 29.0654 56.5904 29.0684C56.7455 29.0722 56.9006 29.0764 57.07 29.0764L69.1074 29.0768C69.1877 29.0764 69.2621 29.0582 69.3263 29.0239C69.3905 28.9896 69.4458 28.9384 69.4877 28.8732C69.5893 28.7145 69.6504 28.4054 69.6878 28.0875C69.7261 27.7615 69.7382 27.4296 69.7435 27.234C69.7565 26.7446 69.7417 26.2472 69.7025 25.7506C69.6624 25.2414 69.596 24.7342 69.5059 24.2385C69.2577 22.8643 68.8141 21.5075 68.1237 20.2887C67.5108 19.2066 66.7035 18.2333 65.6658 17.4527C65.0351 16.9781 64.3397 16.5091 63.6011 16.1255C62.8661 15.7437 62.0873 15.4461 61.2881 15.3123C61.0799 15.2776 60.878 15.256 60.6765 15.2424C60.4702 15.2285 60.2673 15.2221 60.0574 15.2179L60.0249 15.2175C59.8902 15.2153 59.6321 15.2111 59.5203 15.1548C59.4744 15.1315 59.4369 15.0896 59.4075 15.0447C59.383 15.007 59.3625 14.9656 59.3487 14.9355C59.3183 14.8699 59.2787 14.7759 59.2586 14.6798C59.2363 14.5723 59.2381 14.4609 59.2978 14.3742C59.3741 14.2632 59.5327 14.1798 59.7003 14.1193C59.8581 14.0626 60.0271 14.024 60.1372 14.002L60.3297 13.9682C60.4332 13.9517 60.5228 13.9038 60.5878 13.8352C60.6529 13.7671 60.6944 13.6769 60.7015 13.577L60.7135 13.4182C60.7483 12.9712 60.7586 12.8425 60.5023 12.3734C60.4684 12.3116 60.4234 12.2612 60.369 12.224C60.3146 12.1867 60.2504 12.1613 60.1786 12.1503C59.666 12.0703 59.0611 12.0276 58.454 12.0195C57.8188 12.0111 57.1792 12.0403 56.6376 12.1029C56.556 12.1122 56.4829 12.1402 56.4228 12.1834C56.3621 12.2265 56.3135 12.2858 56.2814 12.3578C56.1856 12.5716 56.1357 12.7968 56.1121 13.0254C56.088 13.2574 56.0902 13.4949 56.0969 13.7298L56.1014 13.8585C56.1152 14.2057 56.1357 14.7213 55.9605 14.991L55.932 15.0295L55.8994 15.0655C55.7635 15.1988 55.4876 15.289 55.3191 15.344L54.9669 15.4562C54.6674 15.5506 54.3701 15.6446 54.0732 15.7602C53.3003 16.0612 52.5893 16.4612 51.9278 16.9286C51.2654 17.3964 50.6512 17.9323 50.0731 18.5043C49.5408 19.0309 49.0875 19.6363 48.7042 20.2827C48.2704 21.0143 47.9263 21.7987 47.658 22.5811C47.0972 24.216 47.1137 26.0639 47.1298 27.8127C47.1324 28.1163 47.1351 28.416 47.1351 28.6649C47.1351 28.7826 47.1855 28.8889 47.2662 28.9664C47.3469 29.0434 47.4583 29.0912 47.5813 29.0912C47.9072 29.0912 48.2268 29.0751 48.5473 29.0591C48.9355 29.0396 49.3255 29.0201 49.7254 29.0282C49.9554 29.0328 50.5201 29.0569 50.9677 29.1594C51.2561 29.2254 51.5003 29.327 51.5931 29.4811C51.6434 29.5645 51.6376 29.6754 51.6104 29.7809C51.5864 29.8761 51.5454 29.9676 51.5168 30.026C51.3207 30.4235 50.0998 30.3795 49.7231 30.3659L49.6986 30.3651C49.5916 30.3613 49.4789 30.3553 49.3585 30.349C48.7117 30.3147 47.8367 30.2686 47.3772 30.5111C47.3041 30.5497 47.2461 30.6034 47.2069 30.6665C47.1681 30.7296 47.1467 30.8037 47.1467 30.8845V32.5466H50.5473V58.0978H47.1503L47.1507 59.933C47.1512 60.0456 47.1962 60.1481 47.2711 60.2243C47.3455 60.3001 47.4494 60.3504 47.5666 60.3581C48.0052 60.3864 48.4617 60.3678 48.9105 60.35C49.0608 60.3441 49.2105 60.3377 49.3625 60.3335L49.3817 60.3331C49.8408 60.32 51.1816 60.2814 51.4968 60.6684C51.5654 60.753 51.5855 60.8673 51.5806 60.9842L51.5833 60.9829ZM64.5902 49.5268H67.3512C67.4029 49.5268 67.4506 49.5471 67.4849 49.5797C67.5197 49.6123 67.5411 49.6572 67.5411 49.7072V50.4188C67.5411 50.4679 67.5197 50.5132 67.4854 50.5458C67.4506 50.5788 67.4029 50.5992 67.3512 50.5992H63.1233C63.0724 50.5992 63.0256 50.5797 62.9918 50.5484C62.9574 50.517 62.9352 50.473 62.9338 50.4243C62.9307 50.3236 62.9378 50.2241 62.9552 50.1267C62.9726 50.0289 63.0007 49.932 63.0381 49.8371C63.1019 49.6775 63.183 49.526 63.277 49.3829C63.3706 49.2407 63.4781 49.1052 63.5935 48.9773C63.7473 48.8071 63.9198 48.6437 64.099 48.4867C64.2751 48.3326 64.4605 48.1836 64.6428 48.0413C64.8666 47.8669 65.1247 47.6633 65.3725 47.4461C65.6163 47.2323 65.8472 47.0071 66.0175 46.7887C66.1071 46.6731 66.1914 46.5452 66.2524 46.4098C66.3121 46.2777 66.35 46.1388 66.35 45.9978C66.35 45.8751 66.3273 45.7625 66.2823 45.6613C66.2364 45.5593 66.1673 45.4661 66.0746 45.3815C65.9738 45.29 65.8593 45.2265 65.7358 45.1863C65.6105 45.1452 65.4746 45.1279 65.3328 45.1279C65.1831 45.1279 65.04 45.1461 64.9094 45.1893C64.7801 45.2316 64.6611 45.2989 64.5568 45.3971C64.4502 45.4975 64.3789 45.6151 64.3339 45.743C64.288 45.8734 64.2688 46.0152 64.2679 46.1596C64.2679 46.1858 64.2621 46.2104 64.2519 46.232L64.251 46.2328C64.2403 46.2552 64.2247 46.2756 64.2051 46.2925C64.185 46.3098 64.1623 46.3221 64.1373 46.3302C64.1128 46.3378 64.0865 46.3403 64.0602 46.3378L63.257 46.2616C63.2048 46.2565 63.1598 46.2324 63.1295 46.1972C63.0992 46.1617 63.0822 46.1151 63.0872 46.0664C63.113 45.7972 63.1732 45.5343 63.2819 45.2934C63.3916 45.0496 63.5512 44.8277 63.774 44.6427C63.996 44.4581 64.2492 44.3345 64.518 44.2571C64.7846 44.1804 65.0667 44.1491 65.3511 44.1491C65.6417 44.1491 65.9284 44.1838 66.1963 44.2672C66.4668 44.3515 66.7182 44.4852 66.9371 44.6834C67.1354 44.8624 67.2839 45.064 67.3833 45.2858C67.4836 45.5093 67.5331 45.7532 67.5331 46.0148C67.5331 46.1486 67.5179 46.2806 67.4894 46.411C67.46 46.544 67.4167 46.6739 67.3601 46.8009C67.295 46.947 67.2108 47.0875 67.1158 47.22C67.0204 47.353 66.9152 47.4774 66.8069 47.593C66.6255 47.786 66.4214 47.9753 66.211 48.1573C66.0028 48.3377 65.7862 48.5125 65.5793 48.678L65.4086 48.8135C65.1617 49.0087 64.8933 49.2203 64.6865 49.4282C64.6549 49.4604 64.6228 49.4934 64.592 49.5277L64.5902 49.5268ZM53.1064 48.2344V38.2905H54.654L59.9651 45.8357V38.2905H61.4628V48.3186H59.9156L54.6041 40.7734V48.3186H53.1068V48.2344H53.1064ZM25.2894 36.1992H46.5039V54.6971H24.4888V36.1992H25.2894ZM44.9024 37.7198H26.09V53.1769H44.9024V37.7198ZM15.7236 49.5268H18.4846C18.5363 49.5268 18.584 49.5471 18.6183 49.5797C18.6531 49.6123 18.6745 49.6572 18.6745 49.7072V50.4188C18.6745 50.4679 18.6531 50.5132 18.6188 50.5458C18.584 50.5788 18.5363 50.5992 18.4846 50.5992H14.2567C14.2058 50.5992 14.159 50.5797 14.1252 50.5484C14.0908 50.517 14.0685 50.473 14.0672 50.4243C14.0641 50.3236 14.0712 50.2241 14.0882 50.1267C14.1055 50.0289 14.1336 49.932 14.1715 49.8371C14.2353 49.6775 14.3164 49.526 14.4104 49.3829C14.504 49.2407 14.6115 49.1052 14.7269 48.9773C14.8807 48.8071 15.0532 48.6437 15.2324 48.4867C15.4085 48.3326 15.5939 48.1836 15.7762 48.0413C16 47.8669 16.2581 47.6633 16.5059 47.4461C16.7497 47.2323 16.9806 47.0071 17.1509 46.7887C17.2405 46.6731 17.3247 46.5452 17.3858 46.4098C17.4455 46.2777 17.4834 46.1388 17.4834 45.9978C17.4834 45.8751 17.4611 45.7625 17.4157 45.6613C17.3698 45.5593 17.3007 45.4661 17.208 45.3815C17.1072 45.29 16.9927 45.2265 16.8692 45.1863C16.7439 45.1452 16.608 45.1279 16.4662 45.1279C16.3165 45.1279 16.1738 45.1461 16.0428 45.1893C15.9135 45.2316 15.7945 45.2989 15.6897 45.3971C15.5832 45.4975 15.5119 45.6151 15.4669 45.743C15.4209 45.8734 15.4018 46.0152 15.4009 46.1596C15.4009 46.1858 15.3951 46.2104 15.3848 46.232L15.384 46.2328C15.3733 46.2552 15.3577 46.2756 15.338 46.2925C15.318 46.3098 15.2952 46.3221 15.2703 46.3302C15.2458 46.3378 15.2195 46.3403 15.1927 46.3378L14.3895 46.2616C14.3373 46.2565 14.2923 46.2324 14.262 46.1972C14.2317 46.1617 14.2148 46.1151 14.2197 46.0664C14.2455 45.7972 14.3057 45.5343 14.4144 45.2934C14.5241 45.0496 14.6837 44.8277 14.9066 44.6427C15.1285 44.4581 15.3813 44.3345 15.6505 44.2571C15.9171 44.1804 16.1992 44.1491 16.4836 44.1491C16.7747 44.1491 17.0609 44.1838 17.3288 44.2672C17.5993 44.3515 17.8507 44.4852 18.0696 44.6834C18.268 44.8624 18.4168 45.064 18.5158 45.2858C18.6161 45.5093 18.6656 45.7532 18.6656 46.0148C18.6656 46.1486 18.6504 46.2806 18.6219 46.411C18.5929 46.544 18.5492 46.6739 18.4926 46.8009C18.4275 46.947 18.3433 47.0875 18.2483 47.22C18.1529 47.353 18.0477 47.4774 17.9394 47.593C17.758 47.786 17.5543 47.9753 17.3435 48.1573C17.1353 48.3377 16.9187 48.5125 16.7118 48.678L16.5411 48.8135C16.2942 49.0087 16.0258 49.2203 15.819 49.4282C15.7869 49.4604 15.7553 49.4934 15.7245 49.5277L15.7236 49.5268ZM4.23977 48.2344V38.2905H5.78741L11.0985 45.8357V38.2905H12.5958V48.3186H11.0486L5.73704 40.7734V48.3186H4.23977V48.2344ZM45.7627 60.5799L45.7511 58.097H25.3861L25.3741 62.065C25.3701 63.357 25.2885 64.6148 25.013 65.8243C24.7367 67.0376 24.2655 68.203 23.4828 69.3063L23.3762 69.4489C23.3415 69.4942 23.3054 69.5387 23.2688 69.5827C23.0259 69.8735 22.7473 70.1419 22.4509 70.3913C22.154 70.6406 21.8411 70.8692 21.5282 71.0822C21.1992 71.3057 20.8546 71.5224 20.4954 71.7155C20.1361 71.909 19.7621 72.0783 19.3752 72.2074C18.9696 72.3429 18.5813 72.4161 18.1792 72.4919L17.8672 72.5516C17.7005 72.5846 17.5365 72.6219 17.3724 72.6663C17.2106 72.7104 17.0519 72.7611 16.895 72.8208L16.8785 72.8272H8.94154L8.92371 72.8196C8.59786 72.6807 8.22299 72.6109 7.85168 72.5419C7.57888 72.4911 7.30742 72.4403 7.05022 72.3615C4.78002 71.6647 3.15259 70.4446 2.07209 68.8617C0.891303 67.1315 0.366211 64.9687 0.371114 62.5831C0.374234 60.9016 0.365765 59.2184 0.35685 57.5361L0.32431 31.3007C0.329214 30.5602 0.335008 29.8194 0.342586 29.0798C0.35061 28.339 0.361307 27.5981 0.376017 26.8585L0.383595 26.4229C0.393401 25.7828 0.404099 25.1139 0.467842 24.4937C0.643913 22.7779 1.23186 21.1083 2.14743 19.6228C3.06299 18.1372 4.30574 16.8355 5.79098 15.8554L5.87077 15.8025C6.32543 15.5024 6.78678 15.1971 7.2829 14.9516C7.41217 14.8877 7.53921 14.8288 7.66714 14.7742C7.79551 14.7196 7.92612 14.6684 8.06207 14.6193C8.12136 14.5981 8.17663 14.5799 8.23057 14.563C8.3313 14.5304 8.42803 14.4995 8.53412 14.4499L8.56131 14.4377C8.59519 14.422 8.62951 14.4063 8.66027 14.3902L8.7833 14.3208C8.90588 14.2476 9.01598 14.1642 9.10468 14.0664C9.19205 13.9699 9.2598 13.8581 9.30036 13.7264C9.35742 13.5419 9.34583 13.3628 9.33424 13.1761C9.33068 13.1206 9.32711 13.0643 9.32533 13C9.32087 12.851 9.33068 12.7108 9.35475 12.5728C9.37882 12.4352 9.41671 12.2998 9.46841 12.1592C9.51566 12.0305 9.56113 11.9361 9.61863 11.8489C9.67613 11.7617 9.74478 11.6838 9.83749 11.5881C9.91372 11.5098 9.98058 11.4357 10.0403 11.3616C10.0996 11.288 10.1526 11.2131 10.2012 11.1318L10.2199 11.1L10.2574 11.0916C10.3283 11.075 10.3991 11.0556 10.4718 11.0336C10.5444 11.0111 10.6176 10.9861 10.6933 10.9582C10.9002 10.8816 11.0896 10.8405 11.2822 10.8177C11.4712 10.7956 11.6651 10.7918 11.883 10.7897C12.0061 10.7884 12.1171 10.7398 12.1973 10.6619C12.2775 10.584 12.3266 10.4769 12.3257 10.3596L12.2927 6.80225C12.2918 6.68583 12.241 6.57999 12.1603 6.50379C12.0796 6.42759 11.9686 6.3806 11.8465 6.3806L11.4235 6.38314C11.0954 6.3861 10.7597 6.38949 10.4335 6.37679C9.02088 6.32175 7.76119 5.97673 7.84143 4.11783C7.86282 3.61786 7.96445 3.16108 8.16682 2.75297C8.37009 2.34275 8.67453 1.98249 9.10067 1.67684C9.2549 1.56634 9.41849 1.4677 9.58787 1.37838C9.75681 1.28905 9.92976 1.20947 10.104 1.13623C10.2092 1.09178 10.3144 1.05156 10.4201 1.01092C10.565 0.955037 10.7107 0.898732 10.8453 0.838194L10.8636 0.829727H15.0479L15.0666 0.838617C15.1994 0.900849 15.347 0.95673 15.4896 1.01092C15.5747 1.04309 15.659 1.07484 15.7423 1.10913C15.9184 1.18152 16.0914 1.259 16.2581 1.34536C16.4266 1.43257 16.5901 1.52867 16.7453 1.63704C17.1861 1.94481 17.5044 2.30973 17.7188 2.72673C17.9323 3.14245 18.0428 3.6094 18.0691 4.12206C18.1008 4.74014 17.984 5.21767 17.7023 5.57328C17.4201 5.92974 16.9762 6.15876 16.3552 6.28026C16.1395 6.3226 15.9215 6.34885 15.704 6.36536C15.4896 6.38144 15.2703 6.38822 15.0519 6.39076C14.956 6.39203 14.8557 6.39118 14.7546 6.39033C14.4956 6.38864 14.2259 6.38652 13.9883 6.41616C13.8751 6.43013 13.777 6.48305 13.7079 6.55967C13.6384 6.6363 13.5978 6.73705 13.5996 6.84627L13.6273 8.34745C13.6295 8.46175 13.679 8.56547 13.7579 8.64082C13.8368 8.71618 13.9451 8.76359 14.0645 8.76571L17.0319 8.81863C17.1545 8.82074 17.2672 8.77502 17.3493 8.69967C17.4317 8.62389 17.4843 8.51805 17.4865 8.40121C17.4915 8.15906 17.5097 7.90802 17.6082 7.71963C17.7152 7.51431 17.9064 7.38604 18.2506 7.42117C18.3107 7.4271 18.3745 7.43811 18.4351 7.45885C18.5006 7.48129 18.5621 7.51558 18.6103 7.5685C18.8434 7.8225 18.8225 8.57393 18.8118 8.96468C18.793 9.7068 18.7609 10.4493 18.7387 11.1915L18.6455 11.3261L18.6219 11.3362C18.218 11.5081 17.9372 11.5183 17.7469 11.3676C17.5632 11.2224 17.4816 10.9311 17.4683 10.4942C17.4647 10.3791 17.4134 10.2758 17.3332 10.2013C17.253 10.1268 17.1433 10.081 17.0225 10.081H15.4339C15.3389 10.081 15.2516 10.1077 15.1798 10.1547C15.108 10.2017 15.051 10.2707 15.0171 10.3554C14.9832 10.44 14.9779 10.5272 14.9984 10.6085C15.0189 10.6894 15.0657 10.7647 15.1366 10.8253C15.2623 10.9328 15.3933 11.0141 15.5221 11.0941C15.6425 11.169 15.7615 11.2427 15.8792 11.3392C16.6378 11.9619 16.6334 12.6715 16.628 13.516L16.6276 13.7319C16.6276 13.795 16.6401 13.8539 16.6646 13.9064C16.6891 13.9589 16.7261 14.0067 16.7751 14.049C16.9739 14.2188 17.3203 14.3602 17.5989 14.4732L17.7197 14.5223C17.9684 14.6256 18.2131 14.7306 18.4543 14.8411C18.6954 14.9516 18.9343 15.0684 19.1728 15.1963C19.9551 15.6154 20.6683 16.112 21.3204 16.6737C21.9735 17.2355 22.5654 17.8616 23.1052 18.5403C23.3945 18.9039 23.6227 19.3057 23.8505 19.707C23.9539 19.8895 24.0578 20.0723 24.1657 20.2485L24.1683 20.2531C24.6912 21.1887 25.0228 22.0328 25.2225 22.9075C25.4218 23.7804 25.4895 24.6825 25.4864 25.7367L25.4655 32.5491H45.6419C45.6414 30.9747 45.6441 29.5256 45.6503 28.2649C45.6566 26.9809 45.6673 25.892 45.682 25.0657C45.6922 24.5124 45.8665 23.6056 46.105 22.7525C46.3314 21.9423 46.6167 21.1768 46.8757 20.8018C47.1293 20.4339 47.3682 20.0558 47.6076 19.6778C47.9393 19.1537 48.2709 18.6287 48.6391 18.1347C49.092 17.5272 49.6055 17.0222 50.1698 16.5713C50.7332 16.1213 51.3457 15.7259 51.9978 15.3364C52.5336 15.0164 53.0952 14.7886 53.6613 14.5592C53.9346 14.4482 54.2087 14.3369 54.4802 14.2154C54.556 14.1815 54.6175 14.1316 54.6607 14.0706C54.7044 14.0097 54.7302 13.9373 54.7356 13.8568C54.7454 13.7087 54.749 13.5571 54.7525 13.403C54.7646 12.8878 54.7775 12.3366 55.0062 11.8874L55.0334 11.8337C55.0913 11.7189 55.1194 11.6639 55.1613 11.6135C55.2014 11.5653 55.2469 11.5289 55.3338 11.459L55.4127 11.3955C55.5442 11.2893 55.6775 11.2076 55.8121 11.1254C55.9569 11.0369 56.104 10.9472 56.2462 10.8257C56.3171 10.7656 56.3639 10.6902 56.3849 10.6089C56.4054 10.5281 56.4 10.4405 56.3661 10.3554C56.3323 10.2711 56.2752 10.2025 56.2034 10.1551C56.1317 10.1081 56.0443 10.0815 55.9494 10.0815H54.3607C54.2399 10.0815 54.1298 10.1276 54.0496 10.2021C53.9689 10.277 53.9176 10.3812 53.9145 10.4963C53.9105 10.6398 53.8954 10.8655 53.8307 11.0636C53.7594 11.2812 53.6297 11.4675 53.3943 11.4997C53.2905 11.514 53.1385 11.4912 53.0052 11.4425C52.8826 11.3976 52.7707 11.329 52.7163 11.2448C52.6009 11.0645 52.5862 10.9176 52.5719 10.7745C52.5612 10.6619 52.5501 10.5514 52.4774 10.4311C52.2546 10.0624 51.6483 10.0633 51.203 10.0637H51.0747C50.2772 10.0578 49.4775 10.0645 48.6783 10.0713C48.0792 10.0764 47.4801 10.0815 46.9319 10.0815C46.8017 10.0815 46.6154 10.0908 46.3956 10.1014C45.4792 10.1462 43.9939 10.219 43.6217 9.78935C43.5722 9.7322 43.5437 9.66616 43.529 9.59758C43.5152 9.53323 43.513 9.46676 43.5165 9.40411C43.5196 9.34527 43.5286 9.28769 43.5464 9.23308C43.5665 9.17508 43.5963 9.12005 43.6413 9.07094C43.8072 8.89017 44.1513 8.80508 44.507 8.76698C44.8489 8.73015 45.2046 8.73607 45.4123 8.74116C45.6303 8.74666 45.8424 8.75767 46.0546 8.7691C46.3461 8.78434 46.6377 8.79958 46.931 8.79958H52.0005C52.0816 8.79958 52.1565 8.78095 52.2211 8.74623C52.2858 8.71152 52.341 8.65945 52.3829 8.59341C52.4525 8.48249 52.5055 8.37158 52.547 8.25685C52.5889 8.14043 52.6187 8.02105 52.6432 7.89362L52.6508 7.84917C52.6637 7.77255 52.6851 7.64766 52.7097 7.59771L52.719 7.57908L52.7364 7.5668C52.7939 7.52531 52.9031 7.4978 53.0333 7.47959C53.1915 7.458 53.3899 7.44784 53.5561 7.44361L53.607 7.44234L53.639 7.49145C53.8298 7.78736 53.8775 7.8606 53.8936 8.40121C53.8971 8.51678 53.9488 8.6205 54.0295 8.69501C54.1102 8.76952 54.2207 8.81524 54.3415 8.81482L57.3365 8.80296C57.3985 8.80296 57.456 8.79196 57.5086 8.77079C57.5612 8.74962 57.6098 8.71745 57.653 8.67511C57.6963 8.63278 57.7288 8.58579 57.7498 8.53499C57.7711 8.48419 57.7814 8.42873 57.7801 8.36946L57.752 6.83315C57.7502 6.72689 57.7083 6.62995 57.6396 6.55628C57.571 6.48305 57.4752 6.43224 57.3651 6.41827C57.1123 6.3861 56.8386 6.38271 56.5734 6.37933L56.3229 6.37509C56.1192 6.37044 55.9159 6.36282 55.7171 6.34885C55.5157 6.33403 55.3128 6.31202 55.1109 6.2773C54.9326 6.24682 54.7503 6.20491 54.5738 6.14691C54.395 6.08807 54.2225 6.01229 54.0674 5.9145C53.7612 5.72145 53.5677 5.46702 53.4523 5.17788C53.3391 4.89382 53.3016 4.57631 53.3056 4.25161C53.3123 3.72327 53.4099 3.24109 53.6176 2.8097C53.8263 2.37704 54.1459 1.99646 54.5952 1.67472C54.7539 1.56126 54.921 1.46008 55.0949 1.3678C55.2678 1.27593 55.4452 1.19423 55.6244 1.11887C55.7069 1.08416 55.7987 1.04902 55.8914 1.01346C56.0332 0.958847 56.1794 0.902965 56.3127 0.839887L56.3314 0.830997H60.5134L60.5317 0.839464C60.6542 0.894499 60.7884 0.944876 60.9199 0.993561C61.0117 1.02785 61.1027 1.06172 61.1976 1.10067C61.3768 1.17475 61.5515 1.25392 61.7183 1.34113C61.8872 1.4296 62.0521 1.5274 62.2099 1.63831C62.6485 1.94608 62.9695 2.30931 63.1866 2.72461C63.4027 3.13864 63.5151 3.60474 63.5374 4.1191C63.6176 5.978 62.3303 6.32133 60.9083 6.37679C60.5834 6.38949 60.25 6.38695 59.925 6.38398L59.5323 6.38187C59.4097 6.38187 59.2978 6.4297 59.2172 6.50675C59.1365 6.5838 59.0861 6.69048 59.0861 6.80817V8.37327C59.0861 8.49096 59.1365 8.59764 59.2172 8.67469C59.2978 8.75174 59.4093 8.79958 59.5323 8.79958H62.4636C62.5843 8.79958 62.6944 8.75343 62.7747 8.67892C62.8554 8.60399 62.9066 8.49985 62.9097 8.38428C62.912 8.30046 62.9164 8.14551 62.9378 7.99396C62.9606 7.83139 63.0042 7.67094 63.0876 7.59093C63.1455 7.53505 63.2507 7.48933 63.3738 7.45165C63.487 7.41694 63.6185 7.38815 63.7393 7.36529L63.7892 7.35598L63.8226 7.39154C63.8931 7.46605 63.9497 7.52066 63.9974 7.56596C64.2613 7.81954 64.2688 7.82673 64.2572 8.64633C64.2541 8.86858 64.2581 9.10311 64.2617 9.34061C64.2702 9.8609 64.2791 10.3981 64.2171 10.8778C64.181 11.158 64.0402 11.3536 63.8641 11.4455C63.7758 11.4916 63.6782 11.5119 63.5806 11.5043C63.4839 11.4967 63.3867 11.4611 63.298 11.3964C63.1001 11.2512 62.9423 10.9531 62.928 10.4798C62.9244 10.3647 62.8732 10.2614 62.793 10.1864C62.7127 10.1119 62.6031 10.0662 62.4823 10.0662H60.8508C60.7514 10.0662 60.6596 10.0954 60.5856 10.1475C60.5116 10.1991 60.455 10.2741 60.4251 10.3643C60.3953 10.4548 60.3975 10.5476 60.4269 10.6305C60.4568 10.7135 60.5143 10.788 60.5959 10.8418C60.7817 10.965 61.2961 11.2711 61.4272 11.3955C61.5948 11.5551 61.7241 11.7168 61.8172 11.8963C61.9108 12.0775 61.967 12.2748 61.9879 12.5042C62 12.6389 62.0009 12.776 62.0018 12.9119C62.0031 13.1901 62.0049 13.4644 62.1163 13.7341C62.1756 13.8776 62.2594 14.0016 62.3633 14.1079C62.4676 14.2146 62.5928 14.3043 62.7346 14.3788C62.908 14.4643 63.1241 14.5384 63.3074 14.6121C65.4117 15.4592 67.2246 16.8532 68.5574 18.5809C69.8764 20.2908 70.7264 22.3279 70.9239 24.4848C71.1267 26.6977 71.0839 28.9621 71.042 31.2109C71.0246 32.1321 71.0072 33.0508 71.0072 33.9847L71.0077 62.584C71.0077 64.9704 70.4821 67.1358 69.3005 68.8681C68.2217 70.4493 66.5974 71.6685 64.329 72.3636C64.0718 72.4424 63.8008 72.4928 63.528 72.544C63.1562 72.613 62.7809 72.6833 62.4546 72.8221L62.4368 72.8297H54.5007L54.4846 72.8238C54.2328 72.7302 53.9292 72.6629 53.6533 72.602L53.4518 72.5567C53.179 72.494 52.9107 72.4288 52.6495 72.3586C52.3852 72.2874 52.1213 72.2087 51.8565 72.1181C51.1469 71.8759 50.4898 71.5682 49.8894 71.1817C49.289 70.7951 48.7456 70.3295 48.2638 69.7715C47.148 68.7521 46.4812 67.5439 46.1144 66.2463C45.7484 64.9517 45.6806 63.5687 45.7622 62.1962C45.7631 61.8372 45.7622 61.2881 45.7595 60.5828L45.7627 60.5799ZM21.5447 32.5457H24.2379L24.2241 32.1444C24.2102 31.6969 24.1862 30.9366 24.0725 30.6377C24.04 30.5518 23.9829 30.4815 23.9102 30.4332C23.838 30.385 23.7493 30.3579 23.6535 30.3579H12.3725C12.2365 30.3579 12.0604 30.3659 11.8599 30.3752C11.0713 30.4121 9.91728 30.4658 9.50764 30.1187C9.49516 30.1085 9.48223 30.0967 9.46975 30.084L9.42384 30.0328L9.41893 30.0154C9.39263 29.9218 9.36455 29.7986 9.35831 29.6805C9.35118 29.5501 9.37124 29.4244 9.44746 29.341C9.70421 29.062 10.6956 29.065 11.107 29.0663L23.7743 29.068C23.8973 29.0675 24.0088 29.0197 24.0894 28.9431C24.1701 28.866 24.2205 28.7593 24.2205 28.6421L24.2218 28.0185C24.2298 24.8985 24.2365 22.4003 22.2926 19.6537C21.8928 19.0889 21.4769 18.586 21.0129 18.1279C20.5497 17.6707 20.0385 17.2584 19.447 16.8731C18.8403 16.4777 18.1521 16.0836 17.4295 15.786C16.7101 15.4892 15.955 15.2869 15.2119 15.2725L15.1419 15.2712C14.8308 15.2666 14.2406 15.2577 14.0146 15.0849C13.9642 15.0464 13.9281 14.9977 13.9023 14.9448C13.8782 14.8957 13.8622 14.8441 13.851 14.7937C13.8381 14.7353 13.8185 14.637 13.8149 14.5384C13.8113 14.4279 13.8283 14.3162 13.896 14.2476C14.0516 14.0897 14.562 14.0152 14.8174 13.9775L14.8847 13.9677C14.9881 13.9517 15.0782 13.9038 15.1441 13.8352C15.2097 13.7667 15.2516 13.6765 15.2587 13.5766L15.2707 13.4178C15.3055 12.9708 15.3158 12.8421 15.059 12.3726C15.0305 12.3201 14.9939 12.2765 14.9507 12.2418C14.907 12.2071 14.8553 12.1808 14.796 12.1635C14.4225 12.053 13.6963 11.9975 12.9675 11.9975C12.2387 11.9975 11.5126 12.053 11.1391 12.1635C11.0816 12.1804 11.0308 12.2062 10.988 12.2397C10.9447 12.2731 10.9086 12.3154 10.8797 12.3662C10.5948 12.8658 10.6153 13.3166 10.6367 13.7946C10.6474 14.0363 10.6586 14.2848 10.6327 14.5545C10.6251 14.6345 10.6149 14.7145 10.5913 14.7903C10.5658 14.872 10.5248 14.9482 10.4566 15.0147C10.3675 15.101 10.2748 15.1738 10.1807 15.2467C10.1272 15.2881 10.0733 15.3305 10.0136 15.3809L9.99038 15.4008L9.95874 15.402C8.98344 15.4456 7.85569 15.9879 6.80016 16.7216C5.43973 17.6669 4.20367 18.9289 3.56402 19.8586C3.17711 20.4199 2.84324 21.0346 2.57133 21.6734C2.29675 22.319 2.08591 22.9896 1.94907 23.6555C1.81623 24.3028 1.67939 25.5614 1.66111 26.7125C1.64774 27.5638 1.69856 28.3542 1.86348 28.7881C1.89602 28.8741 1.95308 28.9443 2.02574 28.9926C2.09795 29.0409 2.18665 29.068 2.28249 29.068C2.4336 29.068 2.66271 29.0544 2.93462 29.0383C3.98257 28.9765 5.65592 28.8774 6.05308 29.3643C6.09409 29.4147 6.11994 29.4706 6.13465 29.529C6.14892 29.5844 6.15293 29.6412 6.15204 29.6975C6.15115 29.7563 6.14446 29.8152 6.12841 29.8715C6.11103 29.9311 6.08339 29.9879 6.04105 30.0387C5.86364 30.2525 5.46425 30.3541 5.04881 30.3998C4.64897 30.4438 4.23086 30.4383 3.99773 30.4328C3.72761 30.4265 3.46283 30.4112 3.1985 30.3964C2.85305 30.3769 2.50714 30.3575 2.16169 30.3575C2.03866 30.3575 1.92722 30.4053 1.84699 30.4823C1.76631 30.5594 1.71594 30.6661 1.71594 30.7838L1.70613 58.4056L1.71193 58.5817C1.72575 59.0288 1.74982 59.7912 1.86348 60.0905C1.89602 60.1764 1.95308 60.2467 2.02574 60.295C2.09795 60.3432 2.18665 60.3703 2.28249 60.3703C2.43716 60.3703 2.66851 60.3568 2.9413 60.3407C3.98124 60.2793 5.6158 60.1828 6.02322 60.662C6.06824 60.7149 6.09676 60.7738 6.1137 60.8356C6.12975 60.894 6.13554 60.9554 6.13599 61.0163C6.13599 61.0727 6.13109 61.129 6.11638 61.1823C6.10122 61.2395 6.07537 61.2941 6.0348 61.3444C5.86364 61.5561 5.46425 61.6569 5.0497 61.7026C4.65075 61.7462 4.23309 61.7411 4.00575 61.736C3.73296 61.7297 3.46506 61.7144 3.19761 61.6996C2.8526 61.6802 2.5067 61.6607 2.16124 61.6607C2.03822 61.6607 1.92678 61.7085 1.84654 61.7856C1.76586 61.8626 1.71549 61.9693 1.71549 62.0866L1.71505 62.3486C1.71282 64.2172 1.71148 65.663 2.71709 67.3669C3.12272 68.0544 3.60681 68.681 4.17514 69.2254C4.71227 69.7393 5.32517 70.1805 6.01965 70.5297C8.03845 71.5449 9.12608 71.5449 11.3334 71.544L11.4761 71.5436C11.9673 71.5436 12.4576 71.5525 12.9475 71.5605C13.3692 71.5677 13.7917 71.5749 14.2121 71.5771C14.7488 71.5792 15.3149 71.5779 15.8801 71.5517C16.4413 71.5258 17.0007 71.4746 17.5258 71.3777H17.5271C18.2354 71.2591 19.0863 71.0043 19.8967 70.644C20.609 70.3274 21.2906 69.9298 21.8161 69.4735C22.8057 68.6137 23.4315 67.4592 23.7903 66.2578C24.2495 64.7219 24.274 63.1102 24.0685 61.9333C24.0355 61.8508 23.9798 61.7834 23.9089 61.736C23.8367 61.6878 23.748 61.6607 23.6522 61.6607H11.4765L11.2786 61.6632C10.7406 61.6725 9.66543 61.6916 9.41136 61.4173C9.33513 61.3343 9.32131 61.2022 9.33513 61.0655C9.34806 60.9414 9.38283 60.8127 9.4118 60.7213L9.41715 60.7052L9.42829 60.6921C9.7733 60.2912 10.737 60.3297 11.267 60.3513L11.4359 60.3576C11.6446 60.364 11.8532 60.3708 12.0734 60.3708L23.7738 60.3712C23.8969 60.3708 24.0083 60.3229 24.0885 60.2463C24.1692 60.1692 24.2196 60.0626 24.2196 59.9453L24.2218 58.9792L24.2267 58.0974H20.8328V32.5461H21.5442L21.5447 32.5457ZM49.1272 33.8974H22.2561V56.7452H49.1272V33.8974ZM12.9577 5.14655C14.1145 5.19354 15.4642 5.249 16.2879 5.00473C16.3499 4.98653 16.4038 4.95859 16.4484 4.92176C16.493 4.88493 16.53 4.83794 16.5581 4.7829C16.6771 4.54668 16.756 4.29733 16.772 4.04713C16.7858 3.82615 16.7506 3.60262 16.6503 3.38629C16.4426 2.93924 16.0129 2.63401 15.5039 2.42785C14.7764 2.13362 13.888 2.04006 13.235 2.02186C12.6974 2.00704 11.8884 2.03837 11.1667 2.18993C10.6586 2.29619 10.1954 2.46214 9.90658 2.71149C9.66008 2.92443 9.39843 3.26522 9.2491 3.62633C9.13142 3.91082 9.08462 4.20631 9.17288 4.45481C9.25757 4.69315 9.42607 4.85148 9.63245 4.95351C9.90748 5.0894 10.252 5.13004 10.5672 5.1292C10.7633 5.12877 10.9621 5.12454 11.1605 5.12073C11.3651 5.1165 11.5706 5.11226 11.7769 5.11226C12.1224 5.11184 12.5271 5.12835 12.9586 5.14613L12.9577 5.14655ZM58.6109 2.06292C57.6392 2.04176 56.6541 2.08832 56.2788 2.20771L56.2235 2.22633C55.8161 2.37154 55.3351 2.70725 54.9941 3.11747C54.6603 3.51922 54.4641 3.9904 54.6139 4.41586L54.6259 4.44804C54.7173 4.67918 54.8871 4.83497 55.0935 4.93615C55.3641 5.06908 55.6993 5.11268 56.0082 5.11311C56.585 5.11396 57.1623 5.10887 57.7395 5.10379C58.6591 5.09533 59.5791 5.08728 60.4982 5.10464C60.586 5.10633 60.6734 5.11099 60.7621 5.11522C61.1718 5.13597 61.6295 5.15968 61.9246 4.91075C62.0922 4.76893 62.168 4.58562 62.1912 4.38962C62.2153 4.18514 62.1827 3.965 62.1368 3.76222C62.0682 3.45911 61.8966 3.16616 61.6688 2.91638C61.4258 2.6501 61.1187 2.43377 60.8031 2.3055C60.4595 2.16537 59.5434 2.08282 58.61 2.06292H58.6109Z" fill="black"/>
<path fill-rule="evenodd" clip-rule="evenodd" d="M51.5833 60.9829C51.5783 61.0909 51.5529 61.2022 51.5258 61.2928L51.52 61.3118L51.5048 61.3275C51.0332 61.8063 49.2801 61.7174 48.2129 61.6632C47.9517 61.6497 47.732 61.6387 47.5835 61.6387C47.4605 61.6387 47.3491 61.6865 47.2684 61.7636C47.1877 61.8406 47.1373 61.9473 47.1373 62.065C47.1373 62.783 47.1373 63.5488 47.2064 64.3028C47.2751 65.0538 47.4119 65.7942 47.6852 66.4648C47.8639 66.9038 48.0979 67.3144 48.3645 67.706C48.6315 68.0989 48.9319 68.4735 49.2431 68.8406C49.5805 69.2377 49.9536 69.5912 50.3632 69.8993C50.7733 70.208 51.2195 70.4721 51.7027 70.6918C53.9952 71.7337 56.9822 71.6592 59.6763 71.5919C60.3248 71.5758 60.9565 71.5597 61.5435 71.5597C62.6641 71.5597 63.7874 71.2892 64.8189 70.8227C65.9007 70.3337 66.8814 69.6297 67.653 68.7961C68.5904 67.7835 69.099 66.759 69.3731 65.6617C69.6481 64.5597 69.6878 63.3803 69.6878 62.0645C69.6878 61.9473 69.6379 61.8402 69.5568 61.7631C69.4761 61.6861 69.3646 61.6382 69.2421 61.6382H57.3686C57.2674 61.6382 57.14 61.6429 56.9938 61.6484C56.3287 61.6725 55.2794 61.7106 54.9643 61.416C54.9166 61.3711 54.884 61.319 54.8626 61.2632C54.8426 61.2107 54.8319 61.1552 54.8265 61.1002C54.8189 61.0274 54.8145 60.9385 54.827 60.8529C54.8408 60.7585 54.8747 60.6671 54.9455 60.6002C55.0806 60.4728 55.3467 60.4127 55.6195 60.386C55.8798 60.3606 56.1482 60.3636 56.3051 60.3657L56.6207 60.372C56.7704 60.3754 56.9207 60.3792 57.0686 60.3792L69.2541 60.1637C69.3749 60.1616 69.4845 60.1129 69.5634 60.0363C69.6423 59.9597 69.6914 59.8539 69.6914 59.7379L69.6878 30.7622C69.6874 30.6445 69.6374 30.5382 69.5568 30.4612C69.4761 30.3841 69.3646 30.3363 69.2421 30.3363H57.3686C57.2643 30.3367 57.1346 30.3414 56.9862 30.3469C56.3207 30.371 55.2897 30.4083 54.9638 30.114C54.9126 30.0675 54.8769 30.0137 54.8528 29.9561C54.8301 29.9015 54.8172 29.8427 54.8096 29.7838C54.8011 29.7152 54.7944 29.6289 54.8042 29.5446C54.8149 29.4519 54.8457 29.3613 54.9139 29.2953C55.0423 29.1712 55.2968 29.1116 55.558 29.084C55.8063 29.0578 56.0635 29.0595 56.2128 29.0608C56.3403 29.062 56.4655 29.0654 56.5904 29.0684C56.7455 29.0722 56.9006 29.0764 57.07 29.0764L69.1074 29.0768C69.1877 29.0764 69.2621 29.0582 69.3263 29.0239C69.3905 28.9896 69.4458 28.9384 69.4877 28.8732C69.5893 28.7145 69.6504 28.4054 69.6878 28.0875C69.7261 27.7615 69.7382 27.4296 69.7435 27.234C69.7565 26.7446 69.7417 26.2472 69.7025 25.7506C69.6624 25.2414 69.596 24.7342 69.5059 24.2385C69.2577 22.8643 68.8141 21.5075 68.1237 20.2887C67.5108 19.2066 66.7035 18.2333 65.6658 17.4527C65.0351 16.9781 64.3397 16.5091 63.6011 16.1255C62.8661 15.7437 62.0873 15.4461 61.2881 15.3123C61.0799 15.2776 60.878 15.256 60.6765 15.2424C60.4702 15.2285 60.2673 15.2221 60.0574 15.2179L60.0249 15.2175C59.8902 15.2153 59.6321 15.2111 59.5203 15.1548C59.4744 15.1315 59.4369 15.0896 59.4075 15.0447C59.383 15.007 59.3625 14.9656 59.3487 14.9355C59.3183 14.8699 59.2787 14.7759 59.2586 14.6798C59.2363 14.5723 59.2381 14.4609 59.2978 14.3742C59.3741 14.2632 59.5327 14.1798 59.7003 14.1193C59.8581 14.0626 60.0271 14.024 60.1372 14.002L60.3297 13.9682C60.4332 13.9517 60.5228 13.9038 60.5878 13.8352C60.6529 13.7671 60.6944 13.6769 60.7015 13.577L60.7135 13.4182C60.7483 12.9712 60.7586 12.8425 60.5023 12.3734C60.4684 12.3116 60.4234 12.2612 60.369 12.224C60.3146 12.1867 60.2504 12.1613 60.1786 12.1503C59.666 12.0703 59.0611 12.0276 58.454 12.0195C57.8188 12.0111 57.1792 12.0403 56.6376 12.1029C56.556 12.1122 56.4829 12.1402 56.4228 12.1834C56.3621 12.2265 56.3135 12.2858 56.2814 12.3578C56.1856 12.5716 56.1357 12.7968 56.1121 13.0254C56.088 13.2574 56.0902 13.4949 56.0969 13.7298L56.1014 13.8585C56.1152 14.2057 56.1357 14.7213 55.9605 14.991L55.932 15.0295L55.8994 15.0655C55.7635 15.1988 55.4876 15.289 55.3191 15.344L54.9669 15.4562C54.6674 15.5506 54.3701 15.6446 54.0732 15.7602C53.3003 16.0612 52.5893 16.4612 51.9278 16.9286C51.2654 17.3964 50.6512 17.9323 50.0731 18.5043C49.5408 19.0309 49.0875 19.6363 48.7042 20.2827C48.2704 21.0143 47.9263 21.7987 47.658 22.5811C47.0972 24.216 47.1137 26.0639 47.1298 27.8127C47.1324 28.1163 47.1351 28.416 47.1351 28.6649C47.1351 28.7826 47.1855 28.8889 47.2662 28.9664C47.3469 29.0434 47.4583 29.0912 47.5813 29.0912C47.9072 29.0912 48.2268 29.0751 48.5473 29.0591C48.9355 29.0396 49.3255 29.0201 49.7254 29.0282C49.9554 29.0328 50.5201 29.0569 50.9677 29.1594C51.2561 29.2254 51.5003 29.327 51.5931 29.4811C51.6434 29.5645 51.6376 29.6754 51.6104 29.7809C51.5864 29.8761 51.5454 29.9676 51.5168 30.026C51.3207 30.4235 50.0998 30.3795 49.7231 30.3659L49.6986 30.3651C49.5916 30.3613 49.4789 30.3553 49.3585 30.349C48.7117 30.3147 47.8367 30.2686 47.3772 30.5111C47.3041 30.5497 47.2461 30.6034 47.2069 30.6665C47.1681 30.7296 47.1467 30.8037 47.1467 30.8845V32.5466H50.5473V58.0978H47.1503L47.1507 59.933C47.1512 60.0456 47.1962 60.1481 47.2711 60.2243C47.3455 60.3001 47.4494 60.3504 47.5666 60.3581C48.0052 60.3864 48.4617 60.3678 48.9105 60.35C49.0608 60.3441 49.2105 60.3377 49.3625 60.3335L49.3817 60.3331C49.8408 60.32 51.1816 60.2814 51.4968 60.6684C51.5654 60.753 51.5855 60.8673 51.5806 60.9842L51.5833 60.9829ZM64.5902 49.5268H67.3512C67.4029 49.5268 67.4506 49.5471 67.4849 49.5797C67.5197 49.6123 67.5411 49.6572 67.5411 49.7072V50.4188C67.5411 50.4679 67.5197 50.5132 67.4854 50.5458C67.4506 50.5788 67.4029 50.5992 67.3512 50.5992H63.1233C63.0724 50.5992 63.0256 50.5797 62.9918 50.5484C62.9574 50.517 62.9352 50.473 62.9338 50.4243C62.9307 50.3236 62.9378 50.2241 62.9552 50.1267C62.9726 50.0289 63.0007 49.932 63.0381 49.8371C63.1019 49.6775 63.183 49.526 63.277 49.3829C63.3706 49.2407 63.4781 49.1052 63.5935 48.9773C63.7473 48.8071 63.9198 48.6437 64.099 48.4867C64.2751 48.3326 64.4605 48.1836 64.6428 48.0413C64.8666 47.8669 65.1247 47.6633 65.3725 47.4461C65.6163 47.2323 65.8472 47.0071 66.0175 46.7887C66.1071 46.6731 66.1914 46.5452 66.2524 46.4098C66.3121 46.2777 66.35 46.1388 66.35 45.9978C66.35 45.8751 66.3273 45.7625 66.2823 45.6613C66.2364 45.5593 66.1673 45.4661 66.0746 45.3815C65.9738 45.29 65.8593 45.2265 65.7358 45.1863C65.6105 45.1452 65.4746 45.1279 65.3328 45.1279C65.1831 45.1279 65.04 45.1461 64.9094 45.1893C64.7801 45.2316 64.6611 45.2989 64.5568 45.3971C64.4502 45.4975 64.3789 45.6151 64.3339 45.743C64.288 45.8734 64.2688 46.0152 64.2679 46.1596C64.2679 46.1858 64.2621 46.2104 64.2519 46.232L64.251 46.2328C64.2403 46.2552 64.2247 46.2756 64.2051 46.2925C64.185 46.3098 64.1623 46.3221 64.1373 46.3302C64.1128 46.3378 64.0865 46.3403 64.0602 46.3378L63.257 46.2616C63.2048 46.2565 63.1598 46.2324 63.1295 46.1972C63.0992 46.1617 63.0822 46.1151 63.0872 46.0664C63.113 45.7972 63.1732 45.5343 63.2819 45.2934C63.3916 45.0496 63.5512 44.8277 63.774 44.6427C63.996 44.4581 64.2492 44.3345 64.518 44.2571C64.7846 44.1804 65.0667 44.1491 65.3511 44.1491C65.6417 44.1491 65.9284 44.1838 66.1963 44.2672C66.4668 44.3515 66.7182 44.4852 66.9371 44.6834C67.1354 44.8624 67.2839 45.064 67.3833 45.2858C67.4836 45.5093 67.5331 45.7532 67.5331 46.0148C67.5331 46.1486 67.5179 46.2806 67.4894 46.411C67.46 46.544 67.4167 46.6739 67.3601 46.8009C67.295 46.947 67.2108 47.0875 67.1158 47.22C67.0204 47.353 66.9152 47.4774 66.8069 47.593C66.6255 47.786 66.4214 47.9753 66.211 48.1573C66.0028 48.3377 65.7862 48.5125 65.5793 48.678L65.4086 48.8135C65.1617 49.0087 64.8933 49.2203 64.6865 49.4282C64.6549 49.4604 64.6228 49.4934 64.592 49.5277L64.5902 49.5268ZM53.1064 48.2344V38.2905H54.654L59.9651 45.8357V38.2905H61.4628V48.3186H59.9156L54.6041 40.7734V48.3186H53.1068V48.2344H53.1064ZM25.2894 36.1992H46.5039V54.6971H24.4888V36.1992H25.2894ZM44.9024 37.7198H26.09V53.1769H44.9024V37.7198ZM15.7236 49.5268H18.4846C18.5363 49.5268 18.584 49.5471 18.6183 49.5797C18.6531 49.6123 18.6745 49.6572 18.6745 49.7072V50.4188C18.6745 50.4679 18.6531 50.5132 18.6188 50.5458C18.584 50.5788 18.5363 50.5992 18.4846 50.5992H14.2567C14.2058 50.5992 14.159 50.5797 14.1252 50.5484C14.0908 50.517 14.0685 50.473 14.0672 50.4243C14.0641 50.3236 14.0712 50.2241 14.0882 50.1267C14.1055 50.0289 14.1336 49.932 14.1715 49.8371C14.2353 49.6775 14.3164 49.526 14.4104 49.3829C14.504 49.2407 14.6115 49.1052 14.7269 48.9773C14.8807 48.8071 15.0532 48.6437 15.2324 48.4867C15.4085 48.3326 15.5939 48.1836 15.7762 48.0413C16 47.8669 16.2581 47.6633 16.5059 47.4461C16.7497 47.2323 16.9806 47.0071 17.1509 46.7887C17.2405 46.6731 17.3247 46.5452 17.3858 46.4098C17.4455 46.2777 17.4834 46.1388 17.4834 45.9978C17.4834 45.8751 17.4611 45.7625 17.4157 45.6613C17.3698 45.5593 17.3007 45.4661 17.208 45.3815C17.1072 45.29 16.9927 45.2265 16.8692 45.1863C16.7439 45.1452 16.608 45.1279 16.4662 45.1279C16.3165 45.1279 16.1738 45.1461 16.0428 45.1893C15.9135 45.2316 15.7945 45.2989 15.6897 45.3971C15.5832 45.4975 15.5119 45.6151 15.4669 45.743C15.4209 45.8734 15.4018 46.0152 15.4009 46.1596C15.4009 46.1858 15.3951 46.2104 15.3848 46.232L15.384 46.2328C15.3733 46.2552 15.3577 46.2756 15.338 46.2925C15.318 46.3098 15.2952 46.3221 15.2703 46.3302C15.2458 46.3378 15.2195 46.3403 15.1927 46.3378L14.3895 46.2616C14.3373 46.2565 14.2923 46.2324 14.262 46.1972C14.2317 46.1617 14.2148 46.1151 14.2197 46.0664C14.2455 45.7972 14.3057 45.5343 14.4144 45.2934C14.5241 45.0496 14.6837 44.8277 14.9066 44.6427C15.1285 44.4581 15.3813 44.3345 15.6505 44.2571C15.9171 44.1804 16.1992 44.1491 16.4836 44.1491C16.7747 44.1491 17.0609 44.1838 17.3288 44.2672C17.5993 44.3515 17.8507 44.4852 18.0696 44.6834C18.268 44.8624 18.4168 45.064 18.5158 45.2858C18.6161 45.5093 18.6656 45.7532 18.6656 46.0148C18.6656 46.1486 18.6504 46.2806 18.6219 46.411C18.5929 46.544 18.5492 46.6739 18.4926 46.8009C18.4275 46.947 18.3433 47.0875 18.2483 47.22C18.1529 47.353 18.0477 47.4774 17.9394 47.593C17.758 47.786 17.5543 47.9753 17.3435 48.1573C17.1353 48.3377 16.9187 48.5125 16.7118 48.678L16.5411 48.8135C16.2942 49.0087 16.0258 49.2203 15.819 49.4282C15.7869 49.4604 15.7553 49.4934 15.7245 49.5277L15.7236 49.5268ZM4.23977 48.2344V38.2905H5.78741L11.0985 45.8357V38.2905H12.5958V48.3186H11.0486L5.73704 40.7734V48.3186H4.23977V48.2344ZM45.7627 60.5799L45.7511 58.097H25.3861L25.3741 62.065C25.3701 63.357 25.2885 64.6148 25.013 65.8243C24.7367 67.0376 24.2655 68.203 23.4828 69.3063L23.3762 69.4489C23.3415 69.4942 23.3054 69.5387 23.2688 69.5827C23.0259 69.8735 22.7473 70.1419 22.4509 70.3913C22.154 70.6406 21.8411 70.8692 21.5282 71.0822C21.1992 71.3057 20.8546 71.5224 20.4954 71.7155C20.1361 71.909 19.7621 72.0783 19.3752 72.2074C18.9696 72.3429 18.5813 72.4161 18.1792 72.4919L17.8672 72.5516C17.7005 72.5846 17.5365 72.6219 17.3724 72.6663C17.2106 72.7104 17.0519 72.7611 16.895 72.8208L16.8785 72.8272H8.94154L8.92371 72.8196C8.59786 72.6807 8.22299 72.6109 7.85168 72.5419C7.57888 72.4911 7.30742 72.4403 7.05022 72.3615C4.78002 71.6647 3.15259 70.4446 2.07209 68.8617C0.891303 67.1315 0.366211 64.9687 0.371114 62.5831C0.374234 60.9016 0.365765 59.2184 0.35685 57.5361L0.32431 31.3007C0.329214 30.5602 0.335008 29.8194 0.342586 29.0798C0.35061 28.339 0.361307 27.5981 0.376017 26.8585L0.383595 26.4229C0.393401 25.7828 0.404099 25.1139 0.467842 24.4937C0.643913 22.7779 1.23186 21.1083 2.14743 19.6228C3.06299 18.1372 4.30574 16.8355 5.79098 15.8554L5.87077 15.8025C6.32543 15.5024 6.78678 15.1971 7.2829 14.9516C7.41217 14.8877 7.53921 14.8288 7.66714 14.7742C7.79551 14.7196 7.92612 14.6684 8.06207 14.6193C8.12136 14.5981 8.17663 14.5799 8.23057 14.563C8.3313 14.5304 8.42803 14.4995 8.53412 14.4499L8.56131 14.4377C8.59519 14.422 8.62951 14.4063 8.66027 14.3902L8.7833 14.3208C8.90588 14.2476 9.01598 14.1642 9.10468 14.0664C9.19205 13.9699 9.2598 13.8581 9.30036 13.7264C9.35742 13.5419 9.34583 13.3628 9.33424 13.1761C9.33068 13.1206 9.32711 13.0643 9.32533 13C9.32087 12.851 9.33068 12.7108 9.35475 12.5728C9.37882 12.4352 9.41671 12.2998 9.46841 12.1592C9.51566 12.0305 9.56113 11.9361 9.61863 11.8489C9.67613 11.7617 9.74478 11.6838 9.83749 11.5881C9.91372 11.5098 9.98058 11.4357 10.0403 11.3616C10.0996 11.288 10.1526 11.2131 10.2012 11.1318L10.2199 11.1L10.2574 11.0916C10.3283 11.075 10.3991 11.0556 10.4718 11.0336C10.5444 11.0111 10.6176 10.9861 10.6933 10.9582C10.9002 10.8816 11.0896 10.8405 11.2822 10.8177C11.4712 10.7956 11.6651 10.7918 11.883 10.7897C12.0061 10.7884 12.1171 10.7398 12.1973 10.6619C12.2775 10.584 12.3266 10.4769 12.3257 10.3596L12.2927 6.80225C12.2918 6.68583 12.241 6.57999 12.1603 6.50379C12.0796 6.42759 11.9686 6.3806 11.8465 6.3806L11.4235 6.38314C11.0954 6.3861 10.7597 6.38949 10.4335 6.37679C9.02088 6.32175 7.76119 5.97673 7.84143 4.11783C7.86282 3.61786 7.96445 3.16108 8.16682 2.75297C8.37009 2.34275 8.67453 1.98249 9.10067 1.67684C9.2549 1.56634 9.41849 1.4677 9.58787 1.37838C9.75681 1.28905 9.92976 1.20947 10.104 1.13623C10.2092 1.09178 10.3144 1.05156 10.4201 1.01092C10.565 0.955037 10.7107 0.898732 10.8453 0.838194L10.8636 0.829727H15.0479L15.0666 0.838617C15.1994 0.900849 15.347 0.95673 15.4896 1.01092C15.5747 1.04309 15.659 1.07484 15.7423 1.10913C15.9184 1.18152 16.0914 1.259 16.2581 1.34536C16.4266 1.43257 16.5901 1.52867 16.7453 1.63704C17.1861 1.94481 17.5044 2.30973 17.7188 2.72673C17.9323 3.14245 18.0428 3.6094 18.0691 4.12206C18.1008 4.74014 17.984 5.21767 17.7023 5.57328C17.4201 5.92974 16.9762 6.15876 16.3552 6.28026C16.1395 6.3226 15.9215 6.34885 15.704 6.36536C15.4896 6.38144 15.2703 6.38822 15.0519 6.39076C14.956 6.39203 14.8557 6.39118 14.7546 6.39033C14.4956 6.38864 14.2259 6.38652 13.9883 6.41616C13.8751 6.43013 13.777 6.48305 13.7079 6.55967C13.6384 6.6363 13.5978 6.73705 13.5996 6.84627L13.6273 8.34745C13.6295 8.46175 13.679 8.56547 13.7579 8.64082C13.8368 8.71618 13.9451 8.76359 14.0645 8.76571L17.0319 8.81863C17.1545 8.82074 17.2672 8.77502 17.3493 8.69967C17.4317 8.62389 17.4843 8.51805 17.4865 8.40121C17.4915 8.15906 17.5097 7.90802 17.6082 7.71963C17.7152 7.51431 17.9064 7.38604 18.2506 7.42117C18.3107 7.4271 18.3745 7.43811 18.4351 7.45885C18.5006 7.48129 18.5621 7.51558 18.6103 7.5685C18.8434 7.8225 18.8225 8.57393 18.8118 8.96468C18.793 9.7068 18.7609 10.4493 18.7387 11.1915L18.6455 11.3261L18.6219 11.3362C18.218 11.5081 17.9372 11.5183 17.7469 11.3676C17.5632 11.2224 17.4816 10.9311 17.4683 10.4942C17.4647 10.3791 17.4134 10.2758 17.3332 10.2013C17.253 10.1268 17.1433 10.081 17.0225 10.081H15.4339C15.3389 10.081 15.2516 10.1077 15.1798 10.1547C15.108 10.2017 15.051 10.2707 15.0171 10.3554C14.9832 10.44 14.9779 10.5272 14.9984 10.6085C15.0189 10.6894 15.0657 10.7647 15.1366 10.8253C15.2623 10.9328 15.3933 11.0141 15.5221 11.0941C15.6425 11.169 15.7615 11.2427 15.8792 11.3392C16.6378 11.9619 16.6334 12.6715 16.628 13.516L16.6276 13.7319C16.6276 13.795 16.6401 13.8539 16.6646 13.9064C16.6891 13.9589 16.7261 14.0067 16.7751 14.049C16.9739 14.2188 17.3203 14.3602 17.5989 14.4732L17.7197 14.5223C17.9684 14.6256 18.2131 14.7306 18.4543 14.8411C18.6954 14.9516 18.9343 15.0684 19.1728 15.1963C19.9551 15.6154 20.6683 16.112 21.3204 16.6737C21.9735 17.2355 22.5654 17.8616 23.1052 18.5403C23.3945 18.9039 23.6227 19.3057 23.8505 19.707C23.9539 19.8895 24.0578 20.0723 24.1657 20.2485L24.1683 20.2531C24.6912 21.1887 25.0228 22.0328 25.2225 22.9075C25.4218 23.7804 25.4895 24.6825 25.4864 25.7367L25.4655 32.5491H45.6419C45.6414 30.9747 45.6441 29.5256 45.6503 28.2649C45.6566 26.9809 45.6673 25.892 45.682 25.0657C45.6922 24.5124 45.8665 23.6056 46.105 22.7525C46.3314 21.9423 46.6167 21.1768 46.8757 20.8018C47.1293 20.4339 47.3682 20.0558 47.6076 19.6778C47.9393 19.1537 48.2709 18.6287 48.6391 18.1347C49.092 17.5272 49.6055 17.0222 50.1698 16.5713C50.7332 16.1213 51.3457 15.7259 51.9978 15.3364C52.5336 15.0164 53.0952 14.7886 53.6613 14.5592C53.9346 14.4482 54.2087 14.3369 54.4802 14.2154C54.556 14.1815 54.6175 14.1316 54.6607 14.0706C54.7044 14.0097 54.7302 13.9373 54.7356 13.8568C54.7454 13.7087 54.749 13.5571 54.7525 13.403C54.7646 12.8878 54.7775 12.3366 55.0062 11.8874L55.0334 11.8337C55.0913 11.7189 55.1194 11.6639 55.1613 11.6135C55.2014 11.5653 55.2469 11.5289 55.3338 11.459L55.4127 11.3955C55.5442 11.2893 55.6775 11.2076 55.8121 11.1254C55.9569 11.0369 56.104 10.9472 56.2462 10.8257C56.3171 10.7656 56.3639 10.6902 56.3849 10.6089C56.4054 10.5281 56.4 10.4405 56.3661 10.3554C56.3323 10.2711 56.2752 10.2025 56.2034 10.1551C56.1317 10.1081 56.0443 10.0815 55.9494 10.0815H54.3607C54.2399 10.0815 54.1298 10.1276 54.0496 10.2021C53.9689 10.277 53.9176 10.3812 53.9145 10.4963C53.9105 10.6398 53.8954 10.8655 53.8307 11.0636C53.7594 11.2812 53.6297 11.4675 53.3943 11.4997C53.2905 11.514 53.1385 11.4912 53.0052 11.4425C52.8826 11.3976 52.7707 11.329 52.7163 11.2448C52.6009 11.0645 52.5862 10.9176 52.5719 10.7745C52.5612 10.6619 52.5501 10.5514 52.4774 10.4311C52.2546 10.0624 51.6483 10.0633 51.203 10.0637H51.0747C50.2772 10.0578 49.4775 10.0645 48.6783 10.0713C48.0792 10.0764 47.4801 10.0815 46.9319 10.0815C46.8017 10.0815 46.6154 10.0908 46.3956 10.1014C45.4792 10.1462 43.9939 10.219 43.6217 9.78935C43.5722 9.7322 43.5437 9.66616 43.529 9.59758C43.5152 9.53323 43.513 9.46676 43.5165 9.40411C43.5196 9.34527 43.5286 9.28769 43.5464 9.23308C43.5665 9.17508 43.5963 9.12005 43.6413 9.07094C43.8072 8.89017 44.1513 8.80508 44.507 8.76698C44.8489 8.73015 45.2046 8.73607 45.4123 8.74116C45.6303 8.74666 45.8424 8.75767 46.0546 8.7691C46.3461 8.78434 46.6377 8.79958 46.931 8.79958H52.0005C52.0816 8.79958 52.1565 8.78095 52.2211 8.74623C52.2858 8.71152 52.341 8.65945 52.3829 8.59341C52.4525 8.48249 52.5055 8.37158 52.547 8.25685C52.5889 8.14043 52.6187 8.02105 52.6432 7.89362L52.6508 7.84917C52.6637 7.77255 52.6851 7.64766 52.7097 7.59771L52.719 7.57908L52.7364 7.5668C52.7939 7.52531 52.9031 7.4978 53.0333 7.47959C53.1915 7.458 53.3899 7.44784 53.5561 7.44361L53.607 7.44234L53.639 7.49145C53.8298 7.78736 53.8775 7.8606 53.8936 8.40121C53.8971 8.51678 53.9488 8.6205 54.0295 8.69501C54.1102 8.76952 54.2207 8.81524 54.3415 8.81482L57.3365 8.80296C57.3985 8.80296 57.456 8.79196 57.5086 8.77079C57.5612 8.74962 57.6098 8.71745 57.653 8.67511C57.6963 8.63278 57.7288 8.58579 57.7498 8.53499C57.7711 8.48419 57.7814 8.42873 57.7801 8.36946L57.752 6.83315C57.7502 6.72689 57.7083 6.62995 57.6396 6.55628C57.571 6.48305 57.4752 6.43224 57.3651 6.41827C57.1123 6.3861 56.8386 6.38271 56.5734 6.37933L56.3229 6.37509C56.1192 6.37044 55.9159 6.36282 55.7171 6.34885C55.5157 6.33403 55.3128 6.31202 55.1109 6.2773C54.9326 6.24682 54.7503 6.20491 54.5738 6.14691C54.395 6.08807 54.2225 6.01229 54.0674 5.9145C53.7612 5.72145 53.5677 5.46702 53.4523 5.17788C53.3391 4.89382 53.3016 4.57631 53.3056 4.25161C53.3123 3.72327 53.4099 3.24109 53.6176 2.8097C53.8263 2.37704 54.1459 1.99646 54.5952 1.67472C54.7539 1.56126 54.921 1.46008 55.0949 1.3678C55.2678 1.27593 55.4452 1.19423 55.6244 1.11887C55.7069 1.08416 55.7987 1.04902 55.8914 1.01346C56.0332 0.958847 56.1794 0.902965 56.3127 0.839887L56.3314 0.830997H60.5134L60.5317 0.839464C60.6542 0.894499 60.7884 0.944876 60.9199 0.993561C61.0117 1.02785 61.1027 1.06172 61.1976 1.10067C61.3768 1.17475 61.5515 1.25392 61.7183 1.34113C61.8872 1.4296 62.0521 1.5274 62.2099 1.63831C62.6485 1.94608 62.9695 2.30931 63.1866 2.72461C63.4027 3.13864 63.5151 3.60474 63.5374 4.1191C63.6176 5.978 62.3303 6.32133 60.9083 6.37679C60.5834 6.38949 60.25 6.38695 59.925 6.38398L59.5323 6.38187C59.4097 6.38187 59.2978 6.4297 59.2172 6.50675C59.1365 6.5838 59.0861 6.69048 59.0861 6.80817V8.37327C59.0861 8.49096 59.1365 8.59764 59.2172 8.67469C59.2978 8.75174 59.4093 8.79958 59.5323 8.79958H62.4636C62.5843 8.79958 62.6944 8.75343 62.7747 8.67892C62.8554 8.60399 62.9066 8.49985 62.9097 8.38428C62.912 8.30046 62.9164 8.14551 62.9378 7.99396C62.9606 7.83139 63.0042 7.67094 63.0876 7.59093C63.1455 7.53505 63.2507 7.48933 63.3738 7.45165C63.487 7.41694 63.6185 7.38815 63.7393 7.36529L63.7892 7.35598L63.8226 7.39154C63.8931 7.46605 63.9497 7.52066 63.9974 7.56596C64.2613 7.81954 64.2688 7.82673 64.2572 8.64633C64.2541 8.86858 64.2581 9.10311 64.2617 9.34061C64.2702 9.8609 64.2791 10.3981 64.2171 10.8778C64.181 11.158 64.0402 11.3536 63.8641 11.4455C63.7758 11.4916 63.6782 11.5119 63.5806 11.5043C63.4839 11.4967 63.3867 11.4611 63.298 11.3964C63.1001 11.2512 62.9423 10.9531 62.928 10.4798C62.9244 10.3647 62.8732 10.2614 62.793 10.1864C62.7127 10.1119 62.6031 10.0662 62.4823 10.0662H60.8508C60.7514 10.0662 60.6596 10.0954 60.5856 10.1475C60.5116 10.1991 60.455 10.2741 60.4251 10.3643C60.3953 10.4548 60.3975 10.5476 60.4269 10.6305C60.4568 10.7135 60.5143 10.788 60.5959 10.8418C60.7817 10.965 61.2961 11.2711 61.4272 11.3955C61.5948 11.5551 61.7241 11.7168 61.8172 11.8963C61.9108 12.0775 61.967 12.2748 61.9879 12.5042C62 12.6389 62.0009 12.776 62.0018 12.9119C62.0031 13.1901 62.0049 13.4644 62.1163 13.7341C62.1756 13.8776 62.2594 14.0016 62.3633 14.1079C62.4676 14.2146 62.5928 14.3043 62.7346 14.3788C62.908 14.4643 63.1241 14.5384 63.3074 14.6121C65.4117 15.4592 67.2246 16.8532 68.5574 18.5809C69.8764 20.2908 70.7264 22.3279 70.9239 24.4848C71.1267 26.6977 71.0839 28.9621 71.042 31.2109C71.0246 32.1321 71.0072 33.0508 71.0072 33.9847L71.0077 62.584C71.0077 64.9704 70.4821 67.1358 69.3005 68.8681C68.2217 70.4493 66.5974 71.6685 64.329 72.3636C64.0718 72.4424 63.8008 72.4928 63.528 72.544C63.1562 72.613 62.7809 72.6833 62.4546 72.8221L62.4368 72.8297H54.5007L54.4846 72.8238C54.2328 72.7302 53.9292 72.6629 53.6533 72.602L53.4518 72.5567C53.179 72.494 52.9107 72.4288 52.6495 72.3586C52.3852 72.2874 52.1213 72.2087 51.8565 72.1181C51.1469 71.8759 50.4898 71.5682 49.8894 71.1817C49.289 70.7951 48.7456 70.3295 48.2638 69.7715C47.148 68.7521 46.4812 67.5439 46.1144 66.2463C45.7484 64.9517 45.6806 63.5687 45.7622 62.1962C45.7631 61.8372 45.7622 61.2881 45.7595 60.5828L45.7627 60.5799ZM21.5447 32.5457H24.2379L24.2241 32.1444C24.2102 31.6969 24.1862 30.9366 24.0725 30.6377C24.04 30.5518 23.9829 30.4815 23.9102 30.4332C23.838 30.385 23.7493 30.3579 23.6535 30.3579H12.3725C12.2365 30.3579 12.0604 30.3659 11.8599 30.3752C11.0713 30.4121 9.91728 30.4658 9.50764 30.1187C9.49516 30.1085 9.48223 30.0967 9.46975 30.084L9.42384 30.0328L9.41893 30.0154C9.39263 29.9218 9.36455 29.7986 9.35831 29.6805C9.35118 29.5501 9.37124 29.4244 9.44746 29.341C9.70421 29.062 10.6956 29.065 11.107 29.0663L23.7743 29.068C23.8973 29.0675 24.0088 29.0197 24.0894 28.9431C24.1701 28.866 24.2205 28.7593 24.2205 28.6421L24.2218 28.0185C24.2298 24.8985 24.2365 22.4003 22.2926 19.6537C21.8928 19.0889 21.4769 18.586 21.0129 18.1279C20.5497 17.6707 20.0385 17.2584 19.447 16.8731C18.8403 16.4777 18.1521 16.0836 17.4295 15.786C16.7101 15.4892 15.955 15.2869 15.2119 15.2725L15.1419 15.2712C14.8308 15.2666 14.2406 15.2577 14.0146 15.0849C13.9642 15.0464 13.9281 14.9977 13.9023 14.9448C13.8782 14.8957 13.8622 14.8441 13.851 14.7937C13.8381 14.7353 13.8185 14.637 13.8149 14.5384C13.8113 14.4279 13.8283 14.3162 13.896 14.2476C14.0516 14.0897 14.562 14.0152 14.8174 13.9775L14.8847 13.9677C14.9881 13.9517 15.0782 13.9038 15.1441 13.8352C15.2097 13.7667 15.2516 13.6765 15.2587 13.5766L15.2707 13.4178C15.3055 12.9708 15.3158 12.8421 15.059 12.3726C15.0305 12.3201 14.9939 12.2765 14.9507 12.2418C14.907 12.2071 14.8553 12.1808 14.796 12.1635C14.4225 12.053 13.6963 11.9975 12.9675 11.9975C12.2387 11.9975 11.5126 12.053 11.1391 12.1635C11.0816 12.1804 11.0308 12.2062 10.988 12.2397C10.9447 12.2731 10.9086 12.3154 10.8797 12.3662C10.5948 12.8658 10.6153 13.3166 10.6367 13.7946C10.6474 14.0363 10.6586 14.2848 10.6327 14.5545C10.6251 14.6345 10.6149 14.7145 10.5913 14.7903C10.5658 14.872 10.5248 14.9482 10.4566 15.0147C10.3675 15.101 10.2748 15.1738 10.1807 15.2467C10.1272 15.2881 10.0733 15.3305 10.0136 15.3809L9.99038 15.4008L9.95874 15.402C8.98344 15.4456 7.85569 15.9879 6.80016 16.7216C5.43973 17.6669 4.20367 18.9289 3.56402 19.8586C3.17711 20.4199 2.84324 21.0346 2.57133 21.6734C2.29675 22.319 2.08591 22.9896 1.94907 23.6555C1.81623 24.3028 1.67939 25.5614 1.66111 26.7125C1.64774 27.5638 1.69856 28.3542 1.86348 28.7881C1.89602 28.8741 1.95308 28.9443 2.02574 28.9926C2.09795 29.0409 2.18665 29.068 2.28249 29.068C2.4336 29.068 2.66271 29.0544 2.93462 29.0383C3.98257 28.9765 5.65592 28.8774 6.05308 29.3643C6.09409 29.4147 6.11994 29.4706 6.13465 29.529C6.14892 29.5844 6.15293 29.6412 6.15204 29.6975C6.15115 29.7563 6.14446 29.8152 6.12841 29.8715C6.11103 29.9311 6.08339 29.9879 6.04105 30.0387C5.86364 30.2525 5.46425 30.3541 5.04881 30.3998C4.64897 30.4438 4.23086 30.4383 3.99773 30.4328C3.72761 30.4265 3.46283 30.4112 3.1985 30.3964C2.85305 30.3769 2.50714 30.3575 2.16169 30.3575C2.03866 30.3575 1.92722 30.4053 1.84699 30.4823C1.76631 30.5594 1.71594 30.6661 1.71594 30.7838L1.70613 58.4056L1.71193 58.5817C1.72575 59.0288 1.74982 59.7912 1.86348 60.0905C1.89602 60.1764 1.95308 60.2467 2.02574 60.295C2.09795 60.3432 2.18665 60.3703 2.28249 60.3703C2.43716 60.3703 2.66851 60.3568 2.9413 60.3407C3.98124 60.2793 5.6158 60.1828 6.02322 60.662C6.06824 60.7149 6.09676 60.7738 6.1137 60.8356C6.12975 60.894 6.13554 60.9554 6.13599 61.0163C6.13599 61.0727 6.13109 61.129 6.11638 61.1823C6.10122 61.2395 6.07537 61.2941 6.0348 61.3444C5.86364 61.5561 5.46425 61.6569 5.0497 61.7026C4.65075 61.7462 4.23309 61.7411 4.00575 61.736C3.73296 61.7297 3.46506 61.7144 3.19761 61.6996C2.8526 61.6802 2.5067 61.6607 2.16124 61.6607C2.03822 61.6607 1.92678 61.7085 1.84654 61.7856C1.76586 61.8626 1.71549 61.9693 1.71549 62.0866L1.71505 62.3486C1.71282 64.2172 1.71148 65.663 2.71709 67.3669C3.12272 68.0544 3.60681 68.681 4.17514 69.2254C4.71227 69.7393 5.32517 70.1805 6.01965 70.5297C8.03845 71.5449 9.12608 71.5449 11.3334 71.544L11.4761 71.5436C11.9673 71.5436 12.4576 71.5525 12.9475 71.5605C13.3692 71.5677 13.7917 71.5749 14.2121 71.5771C14.7488 71.5792 15.3149 71.5779 15.8801 71.5517C16.4413 71.5258 17.0007 71.4746 17.5258 71.3777H17.5271C18.2354 71.2591 19.0863 71.0043 19.8967 70.644C20.609 70.3274 21.2906 69.9298 21.8161 69.4735C22.8057 68.6137 23.4315 67.4592 23.7903 66.2578C24.2495 64.7219 24.274 63.1102 24.0685 61.9333C24.0355 61.8508 23.9798 61.7834 23.9089 61.736C23.8367 61.6878 23.748 61.6607 23.6522 61.6607H11.4765L11.2786 61.6632C10.7406 61.6725 9.66543 61.6916 9.41136 61.4173C9.33513 61.3343 9.32131 61.2022 9.33513 61.0655C9.34806 60.9414 9.38283 60.8127 9.4118 60.7213L9.41715 60.7052L9.42829 60.6921C9.7733 60.2912 10.737 60.3297 11.267 60.3513L11.4359 60.3576C11.6446 60.364 11.8532 60.3708 12.0734 60.3708L23.7738 60.3712C23.8969 60.3708 24.0083 60.3229 24.0885 60.2463C24.1692 60.1692 24.2196 60.0626 24.2196 59.9453L24.2218 58.9792L24.2267 58.0974H20.8328V32.5461H21.5442L21.5447 32.5457ZM49.1272 33.8974H22.2561V56.7452H49.1272V33.8974ZM12.9577 5.14655C14.1145 5.19354 15.4642 5.249 16.2879 5.00473C16.3499 4.98653 16.4038 4.95859 16.4484 4.92176C16.493 4.88493 16.53 4.83794 16.5581 4.7829C16.6771 4.54668 16.756 4.29733 16.772 4.04713C16.7858 3.82615 16.7506 3.60262 16.6503 3.38629C16.4426 2.93924 16.0129 2.63401 15.5039 2.42785C14.7764 2.13362 13.888 2.04006 13.235 2.02186C12.6974 2.00704 11.8884 2.03837 11.1667 2.18993C10.6586 2.29619 10.1954 2.46214 9.90658 2.71149C9.66008 2.92443 9.39843 3.26522 9.2491 3.62633C9.13142 3.91082 9.08462 4.20631 9.17288 4.45481C9.25757 4.69315 9.42607 4.85148 9.63245 4.95351C9.90748 5.0894 10.252 5.13004 10.5672 5.1292C10.7633 5.12877 10.9621 5.12454 11.1605 5.12073C11.3651 5.1165 11.5706 5.11226 11.7769 5.11226C12.1224 5.11184 12.5271 5.12835 12.9586 5.14613L12.9577 5.14655ZM58.6109 2.06292C57.6392 2.04176 56.6541 2.08832 56.2788 2.20771L56.2235 2.22633C55.8161 2.37154 55.3351 2.70725 54.9941 3.11747C54.6603 3.51922 54.4641 3.9904 54.6139 4.41586L54.6259 4.44804C54.7173 4.67918 54.8871 4.83497 55.0935 4.93615C55.3641 5.06908 55.6993 5.11268 56.0082 5.11311C56.585 5.11396 57.1623 5.10887 57.7395 5.10379C58.6591 5.09533 59.5791 5.08728 60.4982 5.10464C60.586 5.10633 60.6734 5.11099 60.7621 5.11522C61.1718 5.13597 61.6295 5.15968 61.9246 4.91075C62.0922 4.76893 62.168 4.58562 62.1912 4.38962C62.2153 4.18514 62.1827 3.965 62.1368 3.76222C62.0682 3.45911 61.8966 3.16616 61.6688 2.91638C61.4258 2.6501 61.1187 2.43377 60.8031 2.3055C60.4595 2.16537 59.5434 2.08282 58.61 2.06292H58.6109Z" fill="#FF0000"/>
</svg>
