<svg width="72" height="73" viewBox="0 0 72 73" fill="none" xmlns="http://www.w3.org/2000/svg">
<path fill-rule="evenodd" clip-rule="evenodd" d="M23.1416 0.829727C18.6237 1.05957 14.5203 3.65656 12.4792 7.8038C11.8724 9.03725 11.1656 11.0371 11.135 12.4242L11.123 12.9675H10.5893C9.77456 12.9675 8.90164 12.9405 8.09259 13.022C7.70581 13.0611 7.20619 13.138 6.89818 13.4029C6.16436 14.0331 6.22397 16.3989 6.22397 17.2677C6.22397 19.7427 6.22397 22.2177 6.22397 24.6927V25.1335L5.80241 25.2332C2.61873 25.9881 1.59464 27.9307 1.17451 31.0581C0.150419 38.6907 -0.0170688 46.2282 1.05031 53.8622C1.30509 55.6827 1.33703 57.3576 2.66486 58.7589C3.37313 59.5057 4.14102 60.1076 5.12537 60.4184C5.85777 60.6495 6.64056 60.7028 7.40277 60.7169C8.46234 60.7365 9.5283 60.692 10.5886 60.692H11.091L11.1329 61.2016C11.3863 64.298 12.8071 67.0595 14.9397 69.2467C17.0972 71.4601 20.0041 72.6835 23.048 72.8297H24.2928C28.0619 72.6444 31.5707 70.8306 33.8275 67.7321C35.0936 65.9938 36.2844 63.4508 36.2844 61.2474V60.692H45.7957V69.672C45.7957 70.6634 46.2301 71.5956 47.0136 72.1921C47.4287 72.5082 48.088 72.8291 48.6182 72.8291H56.3361C57.7569 72.8291 59.1578 71.2296 59.1578 69.8148V60.692H59.7036C61.1038 60.692 62.5133 60.785 63.9114 60.7298C65.0547 60.6846 66.291 60.5316 67.3122 59.9695C67.6642 59.776 67.9843 59.5367 68.2682 59.2496C69.4853 58.0195 69.8997 57.2478 70.1332 55.4866C70.6236 51.7916 71.0005 48.0865 71.0856 44.37V41.0504C71.009 37.7012 70.6918 34.3763 70.2411 31.0595C69.8153 27.9266 68.8104 25.9908 65.6139 25.2332L65.1916 25.1335V24.6927C65.1916 22.9146 65.2435 21.1359 65.2406 19.3558C65.2385 18.2336 65.2271 17.1032 65.1682 15.983C65.1448 15.5449 65.0951 14.4665 64.9347 14.0715C64.802 13.7459 64.6097 13.4817 64.3116 13.2957C63.4848 12.7787 61.8007 12.9675 60.8263 12.9675H60.2926L60.2806 12.4242C60.2188 9.60747 58.3871 6.37286 56.4759 4.41214C54.2943 2.17372 51.3122 0.954421 48.2357 0.829727H47.1903C44.7851 0.926112 42.429 1.69112 40.4517 3.09713C39.2517 3.95043 36.7124 6.51305 36.3795 7.96826L36.2816 8.39761H35.1347L35.0368 7.96826C34.7018 6.50496 32.1703 3.95448 30.9646 3.09713C29.0342 1.72415 26.7809 0.949702 24.4311 0.829727H23.143L23.1416 0.829727ZM47.23 69.9577V67.9741H57.7235V68.5295C57.7235 69.2426 57.7881 70.2604 57.3204 70.8427C56.7946 71.4985 55.7087 71.5221 54.9472 71.5417C54.229 71.5599 53.5051 71.5471 52.7862 71.5376C51.7238 71.5242 50.6621 71.512 49.5997 71.512C48.6601 71.512 47.23 71.1447 47.23 69.9571V69.9577ZM12.4288 59.962C12.4288 57.2356 13.6282 54.0779 15.4904 52.1124C17.3094 50.1921 20.261 48.5543 22.9379 48.5543C26.5893 48.5543 29.0661 49.2054 31.7083 51.894C33.6202 53.8399 34.7912 56.3102 34.9829 59.0629C35.1574 61.5689 34.4967 64.0884 33.1696 66.2014C31.054 69.5695 27.4821 71.5498 23.5405 71.4089C17.3598 71.1885 12.4288 66.3268 12.4288 59.9614V59.962ZM6.80024 26.5638H64.6154C66.1455 26.5638 67.4101 27.3348 68.2022 28.6505C69.0382 30.0397 69.4101 35.9501 69.5101 37.7983L69.777 42.7092L69.393 49.8922L69.3916 49.907C69.063 53.023 69.3249 59.2321 64.8957 59.2321H59.1578V58.6767C59.1578 58.3141 59.2274 57.3597 58.984 57.09C58.8278 56.9168 58.6 56.8056 58.3658 56.8326C57.8499 56.8926 57.7235 57.5315 57.7235 57.9622V66.5142H47.23V57.9622C47.23 56.3783 45.7957 56.6883 45.7957 57.5336V59.2314H36.2844V58.676C36.2844 56.6499 35.1141 53.8635 33.8963 52.2863C29.6261 46.758 22.4539 45.4053 16.6394 49.2849C13.8028 51.1782 11.211 55.1839 11.1343 58.6875L11.1223 59.2307H10.5886C8.74693 59.2307 6.18778 59.5758 4.55406 58.6019C3.92315 58.2258 3.4583 57.6913 3.12616 57.0307C2.81886 56.4194 2.64783 55.2891 2.54208 54.607C2.35543 53.3978 2.22414 52.1711 2.11059 50.9524C2.00769 49.845 1.92181 48.7349 1.85581 47.6248C1.59322 43.2403 1.78768 40.0967 2.04033 35.6428C2.13472 34.2179 2.53215 29.859 3.151 28.7536C3.91676 27.3847 5.24105 26.5624 6.79953 26.5624L6.80024 26.5638ZM60.3239 14.426H63.7574V25.1038H54.4171L55.0537 24.2202C55.3298 23.8367 55.8358 23.4147 56.1835 23.0845C56.7669 22.5304 57.3148 21.9582 57.813 21.3219C59.2792 19.4475 60.0868 17.325 60.2827 14.9349L60.3246 14.4254L60.3239 14.426ZM35.134 18.853H36.2809L36.3788 19.2823C36.5562 20.0554 37.1439 20.8912 37.6336 21.4958C38.1609 22.1469 38.7556 22.7555 39.3673 23.3244C39.576 23.5185 39.7889 23.7086 40.0039 23.8953C40.0997 23.9782 40.2857 24.1218 40.3574 24.2215L40.9932 25.1052H30.0377L31.1399 24.1305C31.9553 23.4093 32.7083 22.8971 33.3676 21.9966C33.8729 21.3071 34.8466 20.1107 35.0361 19.2837L35.1347 18.8543L35.134 18.853ZM7.65755 14.426H11.091L11.1329 14.9356C11.3316 17.3674 12.2166 19.5385 13.7056 21.4399C14.2073 22.0802 14.7587 22.6639 15.3471 23.2206C15.6267 23.4848 16.1717 23.931 16.3747 24.2397L16.9439 25.1038H7.65755V14.426ZM48.1966 25.1038C44.6496 25.1038 42.1791 24.2546 39.6377 21.6953C36.3206 18.3542 35.4612 12.9297 37.5576 8.68609C39.1857 5.39014 41.8655 3.21575 45.426 2.45142C49.2001 1.64125 52.9842 2.87537 55.7038 5.62672C59.4957 9.46323 60.0166 15.4768 57.0742 20.0022C55.8862 21.8294 54.6236 22.9497 52.706 23.9513C51.381 24.6428 49.6934 25.1038 48.1973 25.1038H48.1966ZM12.4288 13.6961C12.4288 10.7715 13.6701 7.69191 15.7119 5.62672C18.4314 2.87537 22.2148 1.64125 25.9896 2.45142C28.2926 2.94615 29.7815 3.75429 31.5018 5.38205L31.521 5.40025L32.8048 6.87702L32.8183 6.89522C33.2633 7.50049 33.5266 8.01544 33.8573 8.68609C35.9537 12.9297 35.0936 18.3542 31.7772 21.6953C30.3287 23.1539 28.5502 24.204 26.5794 24.7358C24.715 25.2393 22.7442 25.2589 20.8727 24.7823C18.8693 24.2714 17.0532 23.2105 15.6281 21.6866C15.208 21.2377 14.7949 20.6917 14.4557 20.1768C13.2187 18.3023 12.4288 15.9635 12.4288 13.6961ZM18.2916 59.3898C18.2916 60.996 18.4711 62.3278 19.579 63.5552C21.1424 65.2868 23.7903 66.1981 25.9392 65.0623C27.2394 64.3755 28.0314 63.7035 28.6701 62.3427C29.9611 59.5934 28.8149 56.2954 26.1209 54.9851C24.1572 54.03 21.7123 54.2181 20.1276 55.8182C19.579 56.3722 19.293 56.6519 18.9282 57.3597C18.6706 57.8605 18.2916 58.8216 18.2916 59.3898ZM23.4993 55.8357C29.3365 55.8357 29.1591 64.0864 23.6398 64.0864C19.4278 64.0864 18.1702 58.3127 21.8088 56.3041C22.3269 56.0184 22.9067 55.8364 23.4993 55.8364V55.8357ZM11.135 31.6876C11.135 31.8757 11.1265 32.1817 11.2018 32.3549C11.348 32.694 12.1307 32.7027 12.4139 32.7027C12.5658 32.7027 12.717 32.7047 12.8681 32.7088C13.5118 32.7236 15.3833 32.8928 15.8595 32.4068C15.9688 32.2956 16.0128 32.1493 16.0312 31.9963C16.0475 31.8602 16.0461 31.7031 15.9617 31.5879C15.616 31.1154 14.0228 31.1734 13.5068 31.1895C12.9561 31.2071 12.4033 31.2428 11.8518 31.2428C11.7354 31.2428 11.6105 31.2805 11.5062 31.3304C11.4076 31.3776 11.135 31.5582 11.135 31.687V31.6876ZM20.5527 32.7027H59.0024C60.9484 32.7027 60.3742 31.2435 59.5638 31.2435H20.4121C19.0396 31.2435 19.2348 32.7027 20.5527 32.7027ZM54.0757 12.41C54.0757 12.8765 54.0594 14.0904 54.5973 14.3C54.7691 14.3667 55.0033 14.4274 55.1701 14.3141C55.5086 14.085 55.5583 13.355 55.5341 12.989C55.5136 12.6668 55.3489 11.8115 54.9919 11.6895C54.9728 11.6828 54.9529 11.6794 54.933 11.6794C54.4881 11.6794 54.0757 11.9153 54.0757 12.4094V12.41ZM49.4762 6.55551C49.4762 6.33174 49.4428 6.07359 49.2612 5.92261C48.885 5.61054 47.8411 5.68266 47.3556 5.68266C44.546 5.68266 42.2125 7.36299 40.8321 9.77732C40.3247 10.6643 39.8925 11.7697 39.8166 12.8016C39.7853 13.2317 39.8031 14.0519 40.2438 14.2946C40.3694 14.364 40.588 14.4665 40.7314 14.3876C40.9315 14.2764 41.072 13.8814 41.1316 13.6738C41.2111 13.3981 41.2594 13.107 41.2913 12.8212C41.3083 12.6675 41.3119 12.406 41.3481 12.2645C42.006 9.66948 43.8299 7.68719 46.4699 7.20459C46.8347 7.13787 47.2109 7.12978 47.5813 7.13517C47.9468 7.14056 49.0731 7.23223 49.3527 6.98689C49.4627 6.8905 49.4762 6.69032 49.4762 6.55484V6.55551ZM49.1803 10.8234C49.0035 10.8234 48.6232 10.6953 48.4308 10.6549C48.0483 10.5747 47.653 10.5356 47.2627 10.5653C46.0803 10.6556 45.3252 11.3525 44.8625 12.439C44.3565 13.6273 44.5992 14.8601 45.4558 15.8024C46.1988 16.6193 47.3138 16.9671 48.3797 16.7291C49.9609 16.3766 50.7395 14.9828 50.7395 13.4096C50.7395 12.9452 50.5734 12.6891 50.4733 12.2503L50.4194 12.0157L50.5514 11.8156C50.9126 11.2662 51.5293 10.76 52.0084 10.3098C52.3817 9.95863 53.1254 9.259 53.1254 8.69755C53.1254 8.21158 52.8501 8.11047 52.4079 8.11047C52.0559 8.11047 51.3427 8.87144 51.117 9.11813C50.8055 9.45919 50.5124 9.81709 50.2008 10.1568C49.9425 10.4385 49.5876 10.8234 49.1803 10.8234ZM45.9682 13.8376C45.9682 11.3747 49.3052 11.4448 49.3052 13.5518C49.3052 16.2776 45.9682 15.6467 45.9682 13.8376ZM20.1219 17.7152C20.1389 17.6613 20.1538 17.5986 20.1666 17.5494L20.2844 17.1005L20.7393 17.139C21.0651 17.1666 21.3177 17.2306 21.6066 17.3843C21.779 17.476 21.8862 17.5339 22.0806 17.5798L22.5029 17.6795V18.1203C22.5029 19.0491 22.6044 20.4888 23.1714 21.2707C23.3503 21.5174 23.642 21.7695 23.9627 21.6414C24.2239 21.5369 24.3588 21.2498 24.3588 20.9768C24.3588 20.6984 24.2942 20.4666 24.209 20.2057C24.0529 19.7272 23.9379 19.3511 23.9379 18.8348C23.9379 18.6191 23.9989 18.4149 24.1288 18.243C24.5021 17.7489 25.0521 17.844 25.5106 17.6195L25.9371 17.4113L26.2004 17.8109C26.5524 18.3454 28.1875 19.5641 28.8341 19.5641C29.3316 19.5641 29.6871 18.8685 29.3841 18.4439C29.2471 18.2518 28.7851 18.0408 28.5765 17.9323C28.0555 17.6606 27.5914 17.3654 27.2578 16.8586L27.1202 16.6496L27.184 16.4063C27.2997 15.9641 27.5808 15.5503 27.7901 15.1472L27.9441 14.8513H28.2727C29.1591 14.8513 30.4948 14.7806 31.2506 14.2771C31.4976 14.1126 31.6232 13.8673 31.5863 13.5667C31.5593 13.3469 31.428 13.0854 31.2186 12.9931C31.1874 12.9796 31.1562 12.9701 31.1228 12.9661L27.8675 13.6637V12.9789C27.8675 12.1061 27.3168 11.7953 28.0215 10.9461C28.4693 10.4069 29.5445 9.18823 29.5125 8.44748C29.5033 8.23786 29.3465 8.02959 29.1804 7.91703C28.673 7.57328 28.2713 8.06936 28.057 8.51017C27.9101 8.81145 27.8086 9.05882 27.6049 9.33382C27.5034 9.47064 27.4211 9.55692 27.3054 9.66072C27.2862 9.71734 27.2692 9.78811 27.2564 9.83798L27.0918 10.4662L24.9201 9.48412V9.12285C24.9201 8.40772 24.8342 5.97181 23.8953 5.70423C23.703 5.64963 23.4979 5.70962 23.3347 5.81746C23.2545 5.87071 23.0785 6.02574 23.065 6.12414C23.065 6.69167 23.1367 6.7348 23.3041 7.24706C23.5156 7.89344 23.4858 8.17114 23.4858 8.83707V9.27787L23.0643 9.37763C22.6888 9.4666 22.3177 9.57377 21.9415 9.66341L21.7109 9.71801L21.5143 9.58388C21.004 9.23609 20.5378 8.79528 20.0261 8.43333C19.5641 8.10643 18.6968 7.52206 18.1624 8.01274C17.9779 8.18259 18.0134 8.29448 18.0134 8.55128C18.0134 8.63082 18.0262 8.70563 18.0602 8.77775C18.1674 9.00153 18.5017 9.21452 18.7025 9.33988C19.1879 9.64252 19.6812 9.90741 20.1567 10.2316L20.5654 10.51L20.3355 10.9528C20.1418 11.3255 19.8841 12.0124 19.5399 12.2436C19.3178 12.3925 19.0708 12.4148 18.8132 12.437C18.4477 12.4687 18.0943 12.5064 17.7309 12.5651C17.2008 12.6507 16.4322 12.8482 16.0596 13.2788C15.9028 13.4602 15.8275 13.6792 15.9155 13.9118C16.0383 14.2373 16.3903 14.4099 16.7203 14.3438C16.9531 14.2966 17.1717 14.2231 17.396 14.1463C17.9602 13.9542 18.4087 13.8497 19.0119 13.8497H19.5144L19.5563 14.3593C19.5761 14.6019 19.6088 14.8567 19.6805 15.0899C19.7351 15.2672 19.8032 15.4 19.7968 15.5968C19.789 15.8381 19.6755 16.016 19.5343 16.198C19.359 16.4245 19.1737 16.6456 18.997 16.8714C18.6961 17.2562 17.4286 19.0107 18.3264 19.4266C18.5173 19.5149 18.8288 19.5297 19.0077 19.405C19.2965 19.2028 19.6769 18.3475 19.8813 18.0253C19.9601 17.9013 20.0296 17.8096 20.124 17.7112L20.1219 17.7152ZM26.5723 13.2667C26.5723 18.1372 20.85 17.1915 20.85 13.6954C20.85 9.67352 26.5723 10.0557 26.5723 13.2667Z" fill="black"/>
<path fill-rule="evenodd" clip-rule="evenodd" d="M23.1416 0.829727C18.6237 1.05957 14.5203 3.65656 12.4792 7.8038C11.8724 9.03725 11.1656 11.0371 11.135 12.4242L11.123 12.9675H10.5893C9.77456 12.9675 8.90164 12.9405 8.09259 13.022C7.70581 13.0611 7.20619 13.138 6.89818 13.4029C6.16436 14.0331 6.22397 16.3989 6.22397 17.2677C6.22397 19.7427 6.22397 22.2177 6.22397 24.6927V25.1335L5.80241 25.2332C2.61873 25.9881 1.59464 27.9307 1.17451 31.0581C0.150419 38.6907 -0.0170688 46.2282 1.05031 53.8622C1.30509 55.6827 1.33703 57.3576 2.66486 58.7589C3.37313 59.5057 4.14102 60.1076 5.12537 60.4184C5.85777 60.6495 6.64056 60.7028 7.40277 60.7169C8.46234 60.7365 9.5283 60.692 10.5886 60.692H11.091L11.1329 61.2016C11.3863 64.298 12.8071 67.0595 14.9397 69.2467C17.0972 71.4601 20.0041 72.6835 23.048 72.8297H24.2928C28.0619 72.6444 31.5707 70.8306 33.8275 67.7321C35.0936 65.9938 36.2844 63.4508 36.2844 61.2474V60.692H45.7957V69.672C45.7957 70.6634 46.2301 71.5956 47.0136 72.1921C47.4287 72.5082 48.088 72.8291 48.6182 72.8291H56.3361C57.7569 72.8291 59.1578 71.2296 59.1578 69.8148V60.692H59.7036C61.1038 60.692 62.5133 60.785 63.9114 60.7298C65.0547 60.6846 66.291 60.5316 67.3122 59.9695C67.6642 59.776 67.9843 59.5367 68.2682 59.2496C69.4853 58.0195 69.8997 57.2478 70.1332 55.4866C70.6236 51.7916 71.0005 48.0865 71.0856 44.37V41.0504C71.009 37.7012 70.6918 34.3763 70.2411 31.0595C69.8153 27.9266 68.8104 25.9908 65.6139 25.2332L65.1916 25.1335V24.6927C65.1916 22.9146 65.2435 21.1359 65.2406 19.3558C65.2385 18.2336 65.2271 17.1032 65.1682 15.983C65.1448 15.5449 65.0951 14.4665 64.9347 14.0715C64.802 13.7459 64.6097 13.4817 64.3116 13.2957C63.4848 12.7787 61.8007 12.9675 60.8263 12.9675H60.2926L60.2806 12.4242C60.2188 9.60747 58.3871 6.37286 56.4759 4.41214C54.2943 2.17372 51.3122 0.954421 48.2357 0.829727H47.1903C44.7851 0.926112 42.429 1.69112 40.4517 3.09713C39.2517 3.95043 36.7124 6.51305 36.3795 7.96826L36.2816 8.39761H35.1347L35.0368 7.96826C34.7018 6.50496 32.1703 3.95448 30.9646 3.09713C29.0342 1.72415 26.7809 0.949702 24.4311 0.829727H23.143L23.1416 0.829727ZM47.23 69.9577V67.9741H57.7235V68.5295C57.7235 69.2426 57.7881 70.2604 57.3204 70.8427C56.7946 71.4985 55.7087 71.5221 54.9472 71.5417C54.229 71.5599 53.5051 71.5471 52.7862 71.5376C51.7238 71.5242 50.6621 71.512 49.5997 71.512C48.6601 71.512 47.23 71.1447 47.23 69.9571V69.9577ZM12.4288 59.962C12.4288 57.2356 13.6282 54.0779 15.4904 52.1124C17.3094 50.1921 20.261 48.5543 22.9379 48.5543C26.5893 48.5543 29.0661 49.2054 31.7083 51.894C33.6202 53.8399 34.7912 56.3102 34.9829 59.0629C35.1574 61.5689 34.4967 64.0884 33.1696 66.2014C31.054 69.5695 27.4821 71.5498 23.5405 71.4089C17.3598 71.1885 12.4288 66.3268 12.4288 59.9614V59.962ZM6.80024 26.5638H64.6154C66.1455 26.5638 67.4101 27.3348 68.2022 28.6505C69.0382 30.0397 69.4101 35.9501 69.5101 37.7983L69.777 42.7092L69.393 49.8922L69.3916 49.907C69.063 53.023 69.3249 59.2321 64.8957 59.2321H59.1578V58.6767C59.1578 58.3141 59.2274 57.3597 58.984 57.09C58.8278 56.9168 58.6 56.8056 58.3658 56.8326C57.8499 56.8926 57.7235 57.5315 57.7235 57.9622V66.5142H47.23V57.9622C47.23 56.3783 45.7957 56.6883 45.7957 57.5336V59.2314H36.2844V58.676C36.2844 56.6499 35.1141 53.8635 33.8963 52.2863C29.6261 46.758 22.4539 45.4053 16.6394 49.2849C13.8028 51.1782 11.211 55.1839 11.1343 58.6875L11.1223 59.2307H10.5886C8.74693 59.2307 6.18778 59.5758 4.55406 58.6019C3.92315 58.2258 3.4583 57.6913 3.12616 57.0307C2.81886 56.4194 2.64783 55.2891 2.54208 54.607C2.35543 53.3978 2.22414 52.1711 2.11059 50.9524C2.00769 49.845 1.92181 48.7349 1.85581 47.6248C1.59322 43.2403 1.78768 40.0967 2.04033 35.6428C2.13472 34.2179 2.53215 29.859 3.151 28.7536C3.91676 27.3847 5.24105 26.5624 6.79953 26.5624L6.80024 26.5638ZM60.3239 14.426H63.7574V25.1038H54.4171L55.0537 24.2202C55.3298 23.8367 55.8358 23.4147 56.1835 23.0845C56.7669 22.5304 57.3148 21.9582 57.813 21.3219C59.2792 19.4475 60.0868 17.325 60.2827 14.9349L60.3246 14.4254L60.3239 14.426ZM35.134 18.853H36.2809L36.3788 19.2823C36.5562 20.0554 37.1439 20.8912 37.6336 21.4958C38.1609 22.1469 38.7556 22.7555 39.3673 23.3244C39.576 23.5185 39.7889 23.7086 40.0039 23.8953C40.0997 23.9782 40.2857 24.1218 40.3574 24.2215L40.9932 25.1052H30.0377L31.1399 24.1305C31.9553 23.4093 32.7083 22.8971 33.3676 21.9966C33.8729 21.3071 34.8466 20.1107 35.0361 19.2837L35.1347 18.8543L35.134 18.853ZM7.65755 14.426H11.091L11.1329 14.9356C11.3316 17.3674 12.2166 19.5385 13.7056 21.4399C14.2073 22.0802 14.7587 22.6639 15.3471 23.2206C15.6267 23.4848 16.1717 23.931 16.3747 24.2397L16.9439 25.1038H7.65755V14.426ZM48.1966 25.1038C44.6496 25.1038 42.1791 24.2546 39.6377 21.6953C36.3206 18.3542 35.4612 12.9297 37.5576 8.68609C39.1857 5.39014 41.8655 3.21575 45.426 2.45142C49.2001 1.64125 52.9842 2.87537 55.7038 5.62672C59.4957 9.46323 60.0166 15.4768 57.0742 20.0022C55.8862 21.8294 54.6236 22.9497 52.706 23.9513C51.381 24.6428 49.6934 25.1038 48.1973 25.1038H48.1966ZM12.4288 13.6961C12.4288 10.7715 13.6701 7.69191 15.7119 5.62672C18.4314 2.87537 22.2148 1.64125 25.9896 2.45142C28.2926 2.94615 29.7815 3.75429 31.5018 5.38205L31.521 5.40025L32.8048 6.87702L32.8183 6.89522C33.2633 7.50049 33.5266 8.01544 33.8573 8.68609C35.9537 12.9297 35.0936 18.3542 31.7772 21.6953C30.3287 23.1539 28.5502 24.204 26.5794 24.7358C24.715 25.2393 22.7442 25.2589 20.8727 24.7823C18.8693 24.2714 17.0532 23.2105 15.6281 21.6866C15.208 21.2377 14.7949 20.6917 14.4557 20.1768C13.2187 18.3023 12.4288 15.9635 12.4288 13.6961ZM18.2916 59.3898C18.2916 60.996 18.4711 62.3278 19.579 63.5552C21.1424 65.2868 23.7903 66.1981 25.9392 65.0623C27.2394 64.3755 28.0314 63.7035 28.6701 62.3427C29.9611 59.5934 28.8149 56.2954 26.1209 54.9851C24.1572 54.03 21.7123 54.2181 20.1276 55.8182C19.579 56.3722 19.293 56.6519 18.9282 57.3597C18.6706 57.8605 18.2916 58.8216 18.2916 59.3898ZM23.4993 55.8357C29.3365 55.8357 29.1591 64.0864 23.6398 64.0864C19.4278 64.0864 18.1702 58.3127 21.8088 56.3041C22.3269 56.0184 22.9067 55.8364 23.4993 55.8364V55.8357ZM11.135 31.6876C11.135 31.8757 11.1265 32.1817 11.2018 32.3549C11.348 32.694 12.1307 32.7027 12.4139 32.7027C12.5658 32.7027 12.717 32.7047 12.8681 32.7088C13.5118 32.7236 15.3833 32.8928 15.8595 32.4068C15.9688 32.2956 16.0128 32.1493 16.0312 31.9963C16.0475 31.8602 16.0461 31.7031 15.9617 31.5879C15.616 31.1154 14.0228 31.1734 13.5068 31.1895C12.9561 31.2071 12.4033 31.2428 11.8518 31.2428C11.7354 31.2428 11.6105 31.2805 11.5062 31.3304C11.4076 31.3776 11.135 31.5582 11.135 31.687V31.6876ZM20.5527 32.7027H59.0024C60.9484 32.7027 60.3742 31.2435 59.5638 31.2435H20.4121C19.0396 31.2435 19.2348 32.7027 20.5527 32.7027ZM54.0757 12.41C54.0757 12.8765 54.0594 14.0904 54.5973 14.3C54.7691 14.3667 55.0033 14.4274 55.1701 14.3141C55.5086 14.085 55.5583 13.355 55.5341 12.989C55.5136 12.6668 55.3489 11.8115 54.9919 11.6895C54.9728 11.6828 54.9529 11.6794 54.933 11.6794C54.4881 11.6794 54.0757 11.9153 54.0757 12.4094V12.41ZM49.4762 6.55551C49.4762 6.33174 49.4428 6.07359 49.2612 5.92261C48.885 5.61054 47.8411 5.68266 47.3556 5.68266C44.546 5.68266 42.2125 7.36299 40.8321 9.77732C40.3247 10.6643 39.8925 11.7697 39.8166 12.8016C39.7853 13.2317 39.8031 14.0519 40.2438 14.2946C40.3694 14.364 40.588 14.4665 40.7314 14.3876C40.9315 14.2764 41.072 13.8814 41.1316 13.6738C41.2111 13.3981 41.2594 13.107 41.2913 12.8212C41.3083 12.6675 41.3119 12.406 41.3481 12.2645C42.006 9.66948 43.8299 7.68719 46.4699 7.20459C46.8347 7.13787 47.2109 7.12978 47.5813 7.13517C47.9468 7.14056 49.0731 7.23223 49.3527 6.98689C49.4627 6.8905 49.4762 6.69032 49.4762 6.55484V6.55551ZM49.1803 10.8234C49.0035 10.8234 48.6232 10.6953 48.4308 10.6549C48.0483 10.5747 47.653 10.5356 47.2627 10.5653C46.0803 10.6556 45.3252 11.3525 44.8625 12.439C44.3565 13.6273 44.5992 14.8601 45.4558 15.8024C46.1988 16.6193 47.3138 16.9671 48.3797 16.7291C49.9609 16.3766 50.7395 14.9828 50.7395 13.4096C50.7395 12.9452 50.5734 12.6891 50.4733 12.2503L50.4194 12.0157L50.5514 11.8156C50.9126 11.2662 51.5293 10.76 52.0084 10.3098C52.3817 9.95863 53.1254 9.259 53.1254 8.69755C53.1254 8.21158 52.8501 8.11047 52.4079 8.11047C52.0559 8.11047 51.3427 8.87144 51.117 9.11813C50.8055 9.45919 50.5124 9.81709 50.2008 10.1568C49.9425 10.4385 49.5876 10.8234 49.1803 10.8234ZM45.9682 13.8376C45.9682 11.3747 49.3052 11.4448 49.3052 13.5518C49.3052 16.2776 45.9682 15.6467 45.9682 13.8376ZM20.1219 17.7152C20.1389 17.6613 20.1538 17.5986 20.1666 17.5494L20.2844 17.1005L20.7393 17.139C21.0651 17.1666 21.3177 17.2306 21.6066 17.3843C21.779 17.476 21.8862 17.5339 22.0806 17.5798L22.5029 17.6795V18.1203C22.5029 19.0491 22.6044 20.4888 23.1714 21.2707C23.3503 21.5174 23.642 21.7695 23.9627 21.6414C24.2239 21.5369 24.3588 21.2498 24.3588 20.9768C24.3588 20.6984 24.2942 20.4666 24.209 20.2057C24.0529 19.7272 23.9379 19.3511 23.9379 18.8348C23.9379 18.6191 23.9989 18.4149 24.1288 18.243C24.5021 17.7489 25.0521 17.844 25.5106 17.6195L25.9371 17.4113L26.2004 17.8109C26.5524 18.3454 28.1875 19.5641 28.8341 19.5641C29.3316 19.5641 29.6871 18.8685 29.3841 18.4439C29.2471 18.2518 28.7851 18.0408 28.5765 17.9323C28.0555 17.6606 27.5914 17.3654 27.2578 16.8586L27.1202 16.6496L27.184 16.4063C27.2997 15.9641 27.5808 15.5503 27.7901 15.1472L27.9441 14.8513H28.2727C29.1591 14.8513 30.4948 14.7806 31.2506 14.2771C31.4976 14.1126 31.6232 13.8673 31.5863 13.5667C31.5593 13.3469 31.428 13.0854 31.2186 12.9931C31.1874 12.9796 31.1562 12.9701 31.1228 12.9661L27.8675 13.6637V12.9789C27.8675 12.1061 27.3168 11.7953 28.0215 10.9461C28.4693 10.4069 29.5445 9.18823 29.5125 8.44748C29.5033 8.23786 29.3465 8.02959 29.1804 7.91703C28.673 7.57328 28.2713 8.06936 28.057 8.51017C27.9101 8.81145 27.8086 9.05882 27.6049 9.33382C27.5034 9.47064 27.4211 9.55692 27.3054 9.66072C27.2862 9.71734 27.2692 9.78811 27.2564 9.83798L27.0918 10.4662L24.9201 9.48412V9.12285C24.9201 8.40772 24.8342 5.97181 23.8953 5.70423C23.703 5.64963 23.4979 5.70962 23.3347 5.81746C23.2545 5.87071 23.0785 6.02574 23.065 6.12414C23.065 6.69167 23.1367 6.7348 23.3041 7.24706C23.5156 7.89344 23.4858 8.17114 23.4858 8.83707V9.27787L23.0643 9.37763C22.6888 9.4666 22.3177 9.57377 21.9415 9.66341L21.7109 9.71801L21.5143 9.58388C21.004 9.23609 20.5378 8.79528 20.0261 8.43333C19.5641 8.10643 18.6968 7.52206 18.1624 8.01274C17.9779 8.18259 18.0134 8.29448 18.0134 8.55128C18.0134 8.63082 18.0262 8.70563 18.0602 8.77775C18.1674 9.00153 18.5017 9.21452 18.7025 9.33988C19.1879 9.64252 19.6812 9.90741 20.1567 10.2316L20.5654 10.51L20.3355 10.9528C20.1418 11.3255 19.8841 12.0124 19.5399 12.2436C19.3178 12.3925 19.0708 12.4148 18.8132 12.437C18.4477 12.4687 18.0943 12.5064 17.7309 12.5651C17.2008 12.6507 16.4322 12.8482 16.0596 13.2788C15.9028 13.4602 15.8275 13.6792 15.9155 13.9118C16.0383 14.2373 16.3903 14.4099 16.7203 14.3438C16.9531 14.2966 17.1717 14.2231 17.396 14.1463C17.9602 13.9542 18.4087 13.8497 19.0119 13.8497H19.5144L19.5563 14.3593C19.5761 14.6019 19.6088 14.8567 19.6805 15.0899C19.7351 15.2672 19.8032 15.4 19.7968 15.5968C19.789 15.8381 19.6755 16.016 19.5343 16.198C19.359 16.4245 19.1737 16.6456 18.997 16.8714C18.6961 17.2562 17.4286 19.0107 18.3264 19.4266C18.5173 19.5149 18.8288 19.5297 19.0077 19.405C19.2965 19.2028 19.6769 18.3475 19.8813 18.0253C19.9601 17.9013 20.0296 17.8096 20.124 17.7112L20.1219 17.7152ZM26.5723 13.2667C26.5723 18.1372 20.85 17.1915 20.85 13.6954C20.85 9.67352 26.5723 10.0557 26.5723 13.2667Z" fill="#FF0000"/>
</svg>
