<svg width="72" height="73" viewBox="0 0 72 73" fill="none" xmlns="http://www.w3.org/2000/svg">
<path fill-rule="evenodd" clip-rule="evenodd" d="M57.2324 6.68702L48.692 6.67996C48.5991 7.78025 48.6753 8.94578 48.6864 10.0425C48.692 10.5451 48.7402 11.4091 48.3596 11.8093C48.2371 11.9381 48.0793 12.0315 47.9345 12.1355C47.7247 12.2854 47.5465 12.4494 47.3775 12.6398C46.1224 14.0399 45.3984 15.7749 45.2703 17.6088C45.1997 18.6279 45.3798 19.328 45.532 20.303C46.2413 21.8812 46.3842 22.2973 46.3842 24.0782C46.3842 25.5982 46.3805 27.1181 46.3694 28.6381L46.3675 28.9255L42.6933 28.9325H39.9511L35.4321 28.9237V28.6328C35.4377 26.3581 35.434 24.0853 35.434 21.8106C35.434 21.0718 35.4061 20.3436 35.3838 19.6066C35.3727 19.2416 35.3597 18.8413 35.4785 18.4904C35.5769 18.1977 35.7607 17.942 35.9482 17.6952C36.2676 17.2755 36.6036 16.8647 36.9248 16.4432C38.5921 14.2532 40.2537 12.058 41.9339 9.87502C43.4898 7.85607 44.2566 4.28367 42.2106 2.31938C40.5582 0.734194 38.5104 0.328641 36.4662 1.51885C35.3801 2.15187 33.4047 5.18471 32.6899 6.26031C31.951 7.37117 31.2325 8.49614 30.4843 9.59995C30.1501 10.0919 29.4167 11.2134 28.934 11.5554L28.6722 11.7423L23.379 3.95218C21.2848 0.87173 18.2622 -0.0116721 15.2397 2.59093C14.4191 3.70708 14.1016 4.86026 14.252 6.22328C14.4042 7.60569 14.8498 8.61957 15.6518 9.75688C16.0492 10.3211 16.4836 10.8766 16.9032 11.4249C17.5474 12.2678 18.1973 13.1071 18.8434 13.9464C19.5971 14.925 20.3528 15.9054 21.0936 16.8946C21.2866 17.1521 22.1388 18.2471 22.2094 18.5239C22.2651 18.7425 22.2762 19.03 22.2874 19.2557C22.3078 19.6577 22.3171 20.0597 22.3226 20.4617C22.3375 21.5479 22.3301 22.6341 22.3189 23.7203C22.3022 25.3601 22.2576 27.0035 22.2484 28.6433L22.2465 28.9325L12.4474 28.9219V26.0178L18.1787 26.0249L18.162 19.5695L14.7403 19.5043L14.7384 18.0796L14.7551 18.0337C14.9259 17.5559 16.0622 17.0463 16.4539 16.4626C16.8976 15.8032 17.0833 14.9885 17.0072 14.2127C16.8605 12.721 15.6277 11.4443 14.0125 11.3897C13.3497 11.3668 12.7036 11.5554 12.1651 11.9222C10.5926 12.9925 10.3847 15.015 11.3947 16.512C11.5729 16.7765 11.8198 17.0939 12.115 17.2526C12.2858 17.3443 12.4845 17.3725 12.6442 17.4747C13.1194 17.778 13.0526 18.806 13.0526 19.2751V19.566L8.99778 19.5484L8.98107 14.8933L6.16275 14.9162L6.19617 16.6319L7.3027 16.6636L7.31384 19.573L5.0098 19.566L5.05621 26.009H10.7634L10.7393 28.869L7.08177 29.8512L3.1402 25.942L1.99467 27.067C2.4811 27.8093 4.72388 29.987 5.26786 30.4948L5.50365 30.7152L5.25115 30.9215C1.70133 33.8221 0.275456 36.7139 0.325584 41.1485L0.440693 51.5395L0.932694 54.4524C1.07008 54.6711 1.19262 55.0132 1.28545 55.2353C1.48039 55.7008 1.68647 56.1558 1.92598 56.6036C2.61292 57.8802 3.52266 58.9964 4.72202 59.878C5.00237 60.0843 5.31242 60.2783 5.60391 60.4723C5.80442 60.6063 6.30942 60.9184 6.53221 61.1176C7.46051 61.428 8.257 61.8459 9.24471 62.0469C10.329 62.269 11.3928 62.2567 12.4901 62.3308L12.8632 62.3554L12.7611 62.6975C12.594 63.2635 12.3638 63.789 12.1744 64.3444C11.8774 65.2102 11.8588 65.9578 11.9498 66.8624C12.089 68.2712 12.6869 69.6237 13.6783 70.6852C15.9378 73.1061 19.9517 73.4112 22.5844 71.3746C24.7474 69.7013 25.2022 67.3737 24.9107 65.1926C24.7882 64.2809 24.5357 63.6338 24.2238 62.6869L24.0994 62.3096L47.3552 62.3043L47.2327 62.6799C46.633 64.5278 46.076 65.4518 46.5253 67.4848C47.1027 70.105 49.1821 72.3091 52.0116 72.7676C53.7438 73.048 56.0516 72.3568 57.2936 71.1524C58.9033 69.5902 59.7481 67.4213 59.4974 65.2313C59.3842 64.2457 58.9701 63.6003 58.6991 62.701L58.5951 62.3572L58.972 62.3325C62.1041 62.1245 64.8463 61.7401 67.1875 59.5342C68.7062 58.1024 69.7384 56.5983 70.4142 54.6517C71.1439 52.5499 71.0251 50.7707 71.0529 48.6019C71.0863 45.9587 71.1012 43.3138 71.0566 40.6707C71.0195 38.4912 70.5795 36.4388 69.4748 34.5133C68.5762 32.9475 67.258 31.6109 65.6948 30.627C64.9503 30.158 64.1575 29.7454 63.3016 29.4897C62.6889 29.3063 62.0985 29.2252 61.4636 29.1494C60.888 29.0806 60.3366 29.0066 59.7759 28.8585L59.5513 28.7985V28.5763C59.5587 26.7443 59.5587 24.9123 59.5494 23.0802C59.5475 22.56 59.7499 21.9887 59.9244 21.5003C60.1509 20.8691 60.3812 20.2537 60.5353 19.6013C60.979 17.7251 60.6782 16.0553 59.7573 14.3467C59.3972 13.6766 59.0314 13.1776 58.4763 12.6434C58.0845 12.266 57.6984 11.9169 57.3382 11.5061L57.2676 11.4249L57.2621 9.01454L57.2268 6.68526L57.2324 6.68702ZM34.6078 15.9707C34.4741 15.812 34.3516 15.6445 34.2309 15.477C33.8503 14.9427 33.5458 14.516 33.0389 14.0716C32.4114 13.5215 31.5425 13.1582 30.759 12.8585L30.4137 12.7262L36.6835 3.57483L36.6965 3.56073C37.2442 2.95592 38.0184 2.61737 38.8613 2.63324C39.862 2.6544 40.7791 3.16752 41.3027 3.9751C41.9878 5.02954 41.8708 6.31673 41.4215 7.43112C40.9945 8.48556 40.081 9.51179 39.3755 10.4163C37.9385 12.2607 36.5516 14.1404 35.0905 15.9671L34.8529 16.2651L34.6078 15.9724V15.9707ZM22.6011 15.9883C22.1425 15.5122 21.6951 14.9215 21.2866 14.4031C20.609 13.5444 19.9425 12.6751 19.2871 11.7988C18.615 10.9013 17.9485 9.99493 17.3117 9.0745C17.0722 8.72889 16.8345 8.378 16.6117 8.02182C16.4799 7.81023 16.3165 7.55279 16.2274 7.3218C15.8208 6.25502 15.7261 5.04012 16.3332 4.02271C16.8029 3.23628 17.6347 2.69849 18.5871 2.61208C19.5619 2.52392 20.4567 2.92242 21.0601 3.64536L21.0694 3.65594L27.2538 12.6998L26.9196 12.8356C25.3508 13.4756 24.9144 13.7913 23.7986 14.9973C23.5109 15.3094 23.3568 15.678 23.0467 15.9883L22.8202 16.2158L22.5974 15.9848L22.6011 15.9883ZM50.3685 8.45382L55.5726 8.45559L55.5911 10.575L55.2328 10.5204C54.4159 10.3952 53.703 10.1995 52.8601 10.2136C52.1118 10.2277 51.4008 10.4763 50.6655 10.4745H50.3592L50.3685 8.45559V8.45382ZM13.3385 13.287C13.6987 13.1142 14.096 13.0807 14.4655 13.2464C15.5367 13.726 15.6983 15.4311 14.4729 15.9072C12.6794 16.6055 11.6063 14.121 13.3367 13.287H13.3385ZM51.683 12.1303C55.0564 11.2662 58.1885 13.6943 58.8643 16.7747C59.321 18.8536 58.8736 20.9396 57.2546 22.4631C55.9067 23.7309 53.9425 24.3762 52.058 24.1488C49.3715 23.8243 47.6764 21.927 47.099 19.5008C46.6961 17.8062 46.9449 16.0994 47.9753 14.6465C48.8405 13.4263 50.1865 12.5129 51.683 12.1303V12.1303ZM6.71045 21.3328L16.5207 21.3257L16.4892 24.2457L6.69002 24.2545L6.70859 21.331L6.71045 21.3328ZM32.5915 24.2616L32.6268 26.0125L33.7482 26.1342V28.7791L33.5272 28.8391C33.0408 28.9713 32.1738 28.9766 31.6613 28.9889C30.6866 29.0119 29.7063 29.0048 28.7316 28.9942C27.2389 28.9784 25.7388 28.9255 24.2498 28.9255H23.9434L23.949 26.0178L29.6785 25.9949L29.6692 24.2528L23.9267 24.2545L23.9286 23.9618C23.9397 22.0769 23.6464 18.806 24.4392 17.1291C25.2839 15.3447 27.0533 14.2039 29.1382 14.3326C31.0208 14.449 32.6082 15.5739 33.3082 17.2314C34.0489 18.9876 33.7277 22.0152 33.7407 23.9442L33.7426 24.2281L32.5915 24.2616V24.2616ZM48.51 24.6213C50.2608 25.383 50.8995 26.0161 52.9974 26.0055C53.8422 26.0002 54.6647 25.8433 55.4593 25.5735C56.1945 25.3231 56.7645 24.8523 57.4737 24.6054L57.8859 24.4626L57.8729 28.929L48.0663 28.936L48.0793 24.4344L48.5119 24.6213H48.51ZM62.4141 60.072L60.4406 60.5216L60.4109 60.5234C59.568 60.5587 58.6898 60.6063 57.8469 60.5851C57.4477 60.5745 57.0653 60.5463 56.6884 60.4088C56.473 60.3312 56.2669 60.2254 56.059 60.1302C55.7267 59.9785 55.3887 59.8445 55.0416 59.7246C53.5767 59.215 51.6588 59.2944 50.2719 59.9803C49.9582 60.1355 49.5182 60.4 49.184 60.4881C48.7959 60.5922 48.109 60.5428 47.7024 60.5393H23.7671C23.3382 60.5428 22.5993 60.5886 22.1927 60.4582C21.8659 60.3524 21.4352 60.0896 21.1121 59.9398C19.7141 59.2909 18.4145 59.1886 16.9348 59.6241C16.3871 59.7846 15.8709 60.0032 15.3399 60.2025C14.8888 60.3718 14.3819 60.5463 13.8918 60.5463C12.8651 60.5463 11.8198 60.5957 10.7968 60.5058C9.57704 60.3982 8.39624 60.0685 7.3157 59.5166C3.75102 57.6933 2.14506 54.0204 2.10978 50.3123L2.02066 41.0586C1.97796 36.7015 3.72874 33.1591 8.10476 31.3782C9.74042 30.7134 12.5012 30.6535 14.2798 30.6376C16.0529 30.6235 17.8204 30.6923 19.5916 30.694L55.7768 30.7064C56.952 30.7064 58.131 30.6729 59.3062 30.694C60.2586 30.7117 61.2111 30.7734 62.1375 30.992C63.5727 31.3288 64.7553 32.0042 65.8916 32.8876C67.0835 33.8133 67.9524 35.1428 68.5576 36.4723C69.3634 38.2409 69.3745 40.1928 69.3727 42.0866C69.3708 43.0511 69.3987 44.0174 69.4265 44.9819C69.5286 48.5596 69.7756 53.1741 67.7389 56.3338C67.3898 56.8752 66.9758 57.3742 66.5005 57.8203C65.6743 58.5926 63.6414 60.1566 62.4123 60.0755L62.4141 60.072ZM57.819 66.642C57.5034 69.2975 55.3071 71.3534 52.3996 71.0325C51.061 70.8844 49.9118 70.2831 49.1283 69.234C48.4339 68.3047 48.1201 67.1445 48.1461 66.0125C48.2111 63.0802 50.3722 60.8302 53.5897 61.1917C53.7791 61.2128 53.9647 61.2463 54.1485 61.2904C56.6215 61.8917 58.0975 64.295 57.8172 66.6402L57.819 66.642ZM13.6783 66.9347C13.4759 65.6034 13.7693 64.2563 14.5806 63.1454C15.2917 62.1738 16.3704 61.4421 17.6069 61.2322C19.1386 60.9713 20.6183 61.2816 21.7452 62.3343C22.7311 63.2547 23.2528 64.5719 23.3233 65.8679C23.4589 68.3312 22.0237 70.5512 19.3521 70.9937C16.543 71.4575 14.0756 69.5478 13.6783 66.9364V66.9347ZM49.8505 21.3169L56.0831 21.3257L56.1221 19.603L49.8431 19.5695L49.8505 21.3169ZM49.8505 16.6354L56.0813 16.6425L56.1128 14.9215L49.8412 14.888L49.8505 16.6354V16.6354ZM28.5163 17.3531C27.5026 17.9297 28.1468 19.3438 29.2181 18.8713C30.0869 18.4886 29.543 16.7694 28.5163 17.3531ZM21.1028 55.2759L50.3685 55.2812L50.3703 39.4804L21.1028 39.4752V55.2759V55.2759ZM22.7942 41.2314L48.6827 41.2578L48.6418 53.5144L22.8072 53.5091L22.7849 43.5025L22.7942 41.2314V41.2314ZM25.7091 45.934L25.8335 45.9164H28.9173H31.4237H34.4834H36.9898H40.0495H42.5559L45.766 45.9094L45.7734 44.1619L25.7016 44.1584L25.7054 45.9323L25.7091 45.934ZM47.9605 34.7972L9.65873 34.7954L9.61417 36.5481L48.0644 36.5516L47.9605 34.7972V34.7972ZM50.9756 36.5129L56.1258 36.5516L56.1147 34.8183L51.022 34.7848L50.9756 36.5129ZM52.1917 66.3969C52.3179 66.8589 52.8248 67.0546 53.2889 66.9118C53.7568 66.7672 53.8515 66.1712 53.7382 65.7762C53.469 64.8417 51.8742 65.2349 52.1917 66.3969V66.3969ZM18.3254 65.2948C17.1817 65.6228 17.6533 67.2574 18.7784 66.9153C19.638 66.6543 19.3409 65.0039 18.3254 65.2948Z" fill="#FF0000"/>
<path fill-rule="evenodd" clip-rule="evenodd" d="M57.2324 6.68702L48.692 6.67996C48.5991 7.78025 48.6753 8.94578 48.6864 10.0425C48.692 10.5451 48.7402 11.4091 48.3596 11.8093C48.2371 11.9381 48.0793 12.0315 47.9345 12.1355C47.7247 12.2854 47.5465 12.4494 47.3775 12.6398C46.1224 14.0399 45.3984 15.7749 45.2703 17.6088C45.1997 18.6279 45.3798 19.328 45.532 20.303C46.2413 21.8812 46.3842 22.2973 46.3842 24.0782C46.3842 25.5982 46.3805 27.1181 46.3694 28.6381L46.3675 28.9255L42.6933 28.9325H39.9511L35.4321 28.9237V28.6328C35.4377 26.3581 35.434 24.0853 35.434 21.8106C35.434 21.0718 35.4061 20.3436 35.3838 19.6066C35.3727 19.2416 35.3597 18.8413 35.4785 18.4904C35.5769 18.1977 35.7607 17.942 35.9482 17.6952C36.2676 17.2755 36.6036 16.8647 36.9248 16.4432C38.5921 14.2532 40.2537 12.058 41.9339 9.87502C43.4898 7.85607 44.2566 4.28367 42.2106 2.31938C40.5582 0.734194 38.5104 0.328641 36.4662 1.51885C35.3801 2.15187 33.4047 5.18471 32.6899 6.26031C31.951 7.37117 31.2325 8.49614 30.4843 9.59995C30.1501 10.0919 29.4167 11.2134 28.934 11.5554L28.6722 11.7423L23.379 3.95218C21.2848 0.87173 18.2622 -0.0116721 15.2397 2.59093C14.4191 3.70708 14.1016 4.86026 14.252 6.22328C14.4042 7.60569 14.8498 8.61957 15.6518 9.75688C16.0492 10.3211 16.4836 10.8766 16.9032 11.4249C17.5474 12.2678 18.1973 13.1071 18.8434 13.9464C19.5971 14.925 20.3528 15.9054 21.0936 16.8946C21.2866 17.1521 22.1388 18.2471 22.2094 18.5239C22.2651 18.7425 22.2762 19.03 22.2874 19.2557C22.3078 19.6577 22.3171 20.0597 22.3226 20.4617C22.3375 21.5479 22.3301 22.6341 22.3189 23.7203C22.3022 25.3601 22.2576 27.0035 22.2484 28.6433L22.2465 28.9325L12.4474 28.9219V26.0178L18.1787 26.0249L18.162 19.5695L14.7403 19.5043L14.7384 18.0796L14.7551 18.0337C14.9259 17.5559 16.0622 17.0463 16.4539 16.4626C16.8976 15.8032 17.0833 14.9885 17.0072 14.2127C16.8605 12.721 15.6277 11.4443 14.0125 11.3897C13.3497 11.3668 12.7036 11.5554 12.1651 11.9222C10.5926 12.9925 10.3847 15.015 11.3947 16.512C11.5729 16.7765 11.8198 17.0939 12.115 17.2526C12.2858 17.3443 12.4845 17.3725 12.6442 17.4747C13.1194 17.778 13.0526 18.806 13.0526 19.2751V19.566L8.99778 19.5484L8.98107 14.8933L6.16275 14.9162L6.19617 16.6319L7.3027 16.6636L7.31384 19.573L5.0098 19.566L5.05621 26.009H10.7634L10.7393 28.869L7.08177 29.8512L3.1402 25.942L1.99467 27.067C2.4811 27.8093 4.72388 29.987 5.26786 30.4948L5.50365 30.7152L5.25115 30.9215C1.70133 33.8221 0.275456 36.7139 0.325584 41.1485L0.440693 51.5395L0.932694 54.4524C1.07008 54.6711 1.19262 55.0132 1.28545 55.2353C1.48039 55.7008 1.68647 56.1558 1.92598 56.6036C2.61292 57.8802 3.52266 58.9964 4.72202 59.878C5.00237 60.0843 5.31242 60.2783 5.60391 60.4723C5.80442 60.6063 6.30942 60.9184 6.53221 61.1176C7.46051 61.428 8.257 61.8459 9.24471 62.0469C10.329 62.269 11.3928 62.2567 12.4901 62.3308L12.8632 62.3554L12.7611 62.6975C12.594 63.2635 12.3638 63.789 12.1744 64.3444C11.8774 65.2102 11.8588 65.9578 11.9498 66.8624C12.089 68.2712 12.6869 69.6237 13.6783 70.6852C15.9378 73.1061 19.9517 73.4112 22.5844 71.3746C24.7474 69.7013 25.2022 67.3737 24.9107 65.1926C24.7882 64.2809 24.5357 63.6338 24.2238 62.6869L24.0994 62.3096L47.3552 62.3043L47.2327 62.6799C46.633 64.5278 46.076 65.4518 46.5253 67.4848C47.1027 70.105 49.1821 72.3091 52.0116 72.7676C53.7438 73.048 56.0516 72.3568 57.2936 71.1524C58.9033 69.5902 59.7481 67.4213 59.4974 65.2313C59.3842 64.2457 58.9701 63.6003 58.6991 62.701L58.5951 62.3572L58.972 62.3325C62.1041 62.1245 64.8463 61.7401 67.1875 59.5342C68.7062 58.1024 69.7384 56.5983 70.4142 54.6517C71.1439 52.5499 71.0251 50.7707 71.0529 48.6019C71.0863 45.9587 71.1012 43.3138 71.0566 40.6707C71.0195 38.4912 70.5795 36.4388 69.4748 34.5133C68.5762 32.9475 67.258 31.6109 65.6948 30.627C64.9503 30.158 64.1575 29.7454 63.3016 29.4897C62.6889 29.3063 62.0985 29.2252 61.4636 29.1494C60.888 29.0806 60.3366 29.0066 59.7759 28.8585L59.5513 28.7985V28.5763C59.5587 26.7443 59.5587 24.9123 59.5494 23.0802C59.5475 22.56 59.7499 21.9887 59.9244 21.5003C60.1509 20.8691 60.3812 20.2537 60.5353 19.6013C60.979 17.7251 60.6782 16.0553 59.7573 14.3467C59.3972 13.6766 59.0314 13.1776 58.4763 12.6434C58.0845 12.266 57.6984 11.9169 57.3382 11.5061L57.2676 11.4249L57.2621 9.01454L57.2268 6.68526L57.2324 6.68702ZM34.6078 15.9707C34.4741 15.812 34.3516 15.6445 34.2309 15.477C33.8503 14.9427 33.5458 14.516 33.0389 14.0716C32.4114 13.5215 31.5425 13.1582 30.759 12.8585L30.4137 12.7262L36.6835 3.57483L36.6965 3.56073C37.2442 2.95592 38.0184 2.61737 38.8613 2.63324C39.862 2.6544 40.7791 3.16752 41.3027 3.9751C41.9878 5.02954 41.8708 6.31673 41.4215 7.43112C40.9945 8.48556 40.081 9.51179 39.3755 10.4163C37.9385 12.2607 36.5516 14.1404 35.0905 15.9671L34.8529 16.2651L34.6078 15.9724V15.9707ZM22.6011 15.9883C22.1425 15.5122 21.6951 14.9215 21.2866 14.4031C20.609 13.5444 19.9425 12.6751 19.2871 11.7988C18.615 10.9013 17.9485 9.99493 17.3117 9.0745C17.0722 8.72889 16.8345 8.378 16.6117 8.02182C16.4799 7.81023 16.3165 7.55279 16.2274 7.3218C15.8208 6.25502 15.7261 5.04012 16.3332 4.02271C16.8029 3.23628 17.6347 2.69849 18.5871 2.61208C19.5619 2.52392 20.4567 2.92242 21.0601 3.64536L21.0694 3.65594L27.2538 12.6998L26.9196 12.8356C25.3508 13.4756 24.9144 13.7913 23.7986 14.9973C23.5109 15.3094 23.3568 15.678 23.0467 15.9883L22.8202 16.2158L22.5974 15.9848L22.6011 15.9883ZM50.3685 8.45382L55.5726 8.45559L55.5911 10.575L55.2328 10.5204C54.4159 10.3952 53.703 10.1995 52.8601 10.2136C52.1118 10.2277 51.4008 10.4763 50.6655 10.4745H50.3592L50.3685 8.45559V8.45382ZM13.3385 13.287C13.6987 13.1142 14.096 13.0807 14.4655 13.2464C15.5367 13.726 15.6983 15.4311 14.4729 15.9072C12.6794 16.6055 11.6063 14.121 13.3367 13.287H13.3385ZM51.683 12.1303C55.0564 11.2662 58.1885 13.6943 58.8643 16.7747C59.321 18.8536 58.8736 20.9396 57.2546 22.4631C55.9067 23.7309 53.9425 24.3762 52.058 24.1488C49.3715 23.8243 47.6764 21.927 47.099 19.5008C46.6961 17.8062 46.9449 16.0994 47.9753 14.6465C48.8405 13.4263 50.1865 12.5129 51.683 12.1303V12.1303ZM6.71045 21.3328L16.5207 21.3257L16.4892 24.2457L6.69002 24.2545L6.70859 21.331L6.71045 21.3328ZM32.5915 24.2616L32.6268 26.0125L33.7482 26.1342V28.7791L33.5272 28.8391C33.0408 28.9713 32.1738 28.9766 31.6613 28.9889C30.6866 29.0119 29.7063 29.0048 28.7316 28.9942C27.2389 28.9784 25.7388 28.9255 24.2498 28.9255H23.9434L23.949 26.0178L29.6785 25.9949L29.6692 24.2528L23.9267 24.2545L23.9286 23.9618C23.9397 22.0769 23.6464 18.806 24.4392 17.1291C25.2839 15.3447 27.0533 14.2039 29.1382 14.3326C31.0208 14.449 32.6082 15.5739 33.3082 17.2314C34.0489 18.9876 33.7277 22.0152 33.7407 23.9442L33.7426 24.2281L32.5915 24.2616V24.2616ZM48.51 24.6213C50.2608 25.383 50.8995 26.0161 52.9974 26.0055C53.8422 26.0002 54.6647 25.8433 55.4593 25.5735C56.1945 25.3231 56.7645 24.8523 57.4737 24.6054L57.8859 24.4626L57.8729 28.929L48.0663 28.936L48.0793 24.4344L48.5119 24.6213H48.51ZM62.4141 60.072L60.4406 60.5216L60.4109 60.5234C59.568 60.5587 58.6898 60.6063 57.8469 60.5851C57.4477 60.5745 57.0653 60.5463 56.6884 60.4088C56.473 60.3312 56.2669 60.2254 56.059 60.1302C55.7267 59.9785 55.3887 59.8445 55.0416 59.7246C53.5767 59.215 51.6588 59.2944 50.2719 59.9803C49.9582 60.1355 49.5182 60.4 49.184 60.4881C48.7959 60.5922 48.109 60.5428 47.7024 60.5393H23.7671C23.3382 60.5428 22.5993 60.5886 22.1927 60.4582C21.8659 60.3524 21.4352 60.0896 21.1121 59.9398C19.7141 59.2909 18.4145 59.1886 16.9348 59.6241C16.3871 59.7846 15.8709 60.0032 15.3399 60.2025C14.8888 60.3718 14.3819 60.5463 13.8918 60.5463C12.8651 60.5463 11.8198 60.5957 10.7968 60.5058C9.57704 60.3982 8.39624 60.0685 7.3157 59.5166C3.75102 57.6933 2.14506 54.0204 2.10978 50.3123L2.02066 41.0586C1.97796 36.7015 3.72874 33.1591 8.10476 31.3782C9.74042 30.7134 12.5012 30.6535 14.2798 30.6376C16.0529 30.6235 17.8204 30.6923 19.5916 30.694L55.7768 30.7064C56.952 30.7064 58.131 30.6729 59.3062 30.694C60.2586 30.7117 61.2111 30.7734 62.1375 30.992C63.5727 31.3288 64.7553 32.0042 65.8916 32.8876C67.0835 33.8133 67.9524 35.1428 68.5576 36.4723C69.3634 38.2409 69.3745 40.1928 69.3727 42.0866C69.3708 43.0511 69.3987 44.0174 69.4265 44.9819C69.5286 48.5596 69.7756 53.1741 67.7389 56.3338C67.3898 56.8752 66.9758 57.3742 66.5005 57.8203C65.6743 58.5926 63.6414 60.1566 62.4123 60.0755L62.4141 60.072ZM57.819 66.642C57.5034 69.2975 55.3071 71.3534 52.3996 71.0325C51.061 70.8844 49.9118 70.2831 49.1283 69.234C48.4339 68.3047 48.1201 67.1445 48.1461 66.0125C48.2111 63.0802 50.3722 60.8302 53.5897 61.1917C53.7791 61.2128 53.9647 61.2463 54.1485 61.2904C56.6215 61.8917 58.0975 64.295 57.8172 66.6402L57.819 66.642ZM13.6783 66.9347C13.4759 65.6034 13.7693 64.2563 14.5806 63.1454C15.2917 62.1738 16.3704 61.4421 17.6069 61.2322C19.1386 60.9713 20.6183 61.2816 21.7452 62.3343C22.7311 63.2547 23.2528 64.5719 23.3233 65.8679C23.4589 68.3312 22.0237 70.5512 19.3521 70.9937C16.543 71.4575 14.0756 69.5478 13.6783 66.9364V66.9347ZM49.8505 21.3169L56.0831 21.3257L56.1221 19.603L49.8431 19.5695L49.8505 21.3169ZM49.8505 16.6354L56.0813 16.6425L56.1128 14.9215L49.8412 14.888L49.8505 16.6354V16.6354ZM28.5163 17.3531C27.5026 17.9297 28.1468 19.3438 29.2181 18.8713C30.0869 18.4886 29.543 16.7694 28.5163 17.3531ZM21.1028 55.2759L50.3685 55.2812L50.3703 39.4804L21.1028 39.4752V55.2759V55.2759ZM22.7942 41.2314L48.6827 41.2578L48.6418 53.5144L22.8072 53.5091L22.7849 43.5025L22.7942 41.2314V41.2314ZM25.7091 45.934L25.8335 45.9164H28.9173H31.4237H34.4834H36.9898H40.0495H42.5559L45.766 45.9094L45.7734 44.1619L25.7016 44.1584L25.7054 45.9323L25.7091 45.934ZM47.9605 34.7972L9.65873 34.7954L9.61417 36.5481L48.0644 36.5516L47.9605 34.7972V34.7972ZM50.9756 36.5129L56.1258 36.5516L56.1147 34.8183L51.022 34.7848L50.9756 36.5129ZM52.1917 66.3969C52.3179 66.8589 52.8248 67.0546 53.2889 66.9118C53.7568 66.7672 53.8515 66.1712 53.7382 65.7762C53.469 64.8417 51.8742 65.2349 52.1917 66.3969V66.3969ZM18.3254 65.2948C17.1817 65.6228 17.6533 67.2574 18.7784 66.9153C19.638 66.6543 19.3409 65.0039 18.3254 65.2948Z" fill="white"/>
</svg>
