<svg width="71" height="73" viewBox="0 0 71 73" fill="none" xmlns="http://www.w3.org/2000/svg">
<path fill-rule="evenodd" clip-rule="evenodd" d="M37.1075 7.34904L51.4909 7.36146L51.4936 5.80222L37.101 5.74383L37.1075 7.34904ZM16.7836 51.286C14.5545 51.5283 12.4405 52.3781 10.7241 53.7373C9.05358 55.0605 7.89715 56.739 7.29015 58.5964C6.98273 58.3678 6.72764 58.1392 6.47777 57.9081C5.00084 56.5415 3.67565 54.3387 2.947 52.4713C1.86644 49.7032 1.68984 42.799 2.39364 39.9154C3.15892 36.782 4.92627 33.9667 7.43275 31.9366C10.2584 29.648 13.7251 28.5733 17.3383 28.5721L48.0151 28.5534C49.9224 28.5522 51.8298 28.5683 53.7345 28.6603C54.3428 28.6901 54.8438 28.7647 55.4312 28.9063C56.5405 29.1747 57.6695 29.1399 58.8011 29.084C58.9423 28.8852 59.0692 28.6814 59.1804 28.469C58.8495 28.3484 58.5237 28.2192 58.1954 28.0888C57.0782 27.6452 56.0997 27.2911 54.8883 27.1731C54.5992 27.1445 54.3807 26.9035 54.3807 26.6128L54.3781 21.7288C54.3781 21.5735 54.433 21.4393 54.5429 21.33C54.6528 21.2207 54.7863 21.1648 54.9419 21.166L59.374 21.1735C59.3793 20.9846 59.3806 20.7945 59.3845 20.6144C59.3989 19.9037 59.4067 19.1918 59.4133 18.4799C59.4303 16.4833 59.4342 14.4855 59.4329 12.4877C59.4316 10.4514 59.4237 8.41379 59.4002 6.37746C59.3923 5.66804 59.3832 4.95738 59.3649 4.24671C59.3583 3.96344 59.3649 3.55841 59.323 3.28508C59.2079 2.61044 58.9397 2.01408 58.4073 1.56929C57.1933 0.555476 54.8569 0.615113 53.3629 0.667294C52.4027 0.70084 51.4386 0.765446 50.4771 0.765446C49.0093 0.765446 47.5402 0.729415 46.0712 0.72693C45.0966 0.724446 44.118 0.728173 43.1434 0.766688C42.7366 0.782839 41.8536 0.803961 41.4755 0.928203C40.1451 1.36802 39.5316 2.43899 39.4021 3.72489L41.0713 3.71868C41.1027 3.62426 41.1302 3.52735 41.155 3.42671C41.2126 3.19935 41.2623 2.99435 41.4166 2.80674C41.6874 2.47874 42.1113 2.42781 42.5077 2.40544C43.1918 2.36568 43.9127 2.38681 44.5995 2.38681H55.1277C55.7857 2.38681 56.7001 2.33462 57.2286 2.79183C57.8147 3.29874 57.8095 4.3051 57.8134 5.01701C57.8173 5.66928 57.7977 6.32528 57.7833 6.97755C57.7637 7.93794 57.7493 8.89709 57.7493 9.85749C57.7493 11.2999 57.8055 12.7449 57.8304 14.1873C57.8592 15.7727 57.8893 17.4748 57.7087 19.0489C57.676 19.3347 57.4366 19.5471 57.1501 19.5471L52.5924 19.5484C52.6932 19.6502 52.756 19.7906 52.756 19.9459L52.7442 26.3842C52.7442 26.5395 52.6879 26.6724 52.578 26.7817C52.4682 26.8911 52.3347 26.9457 52.179 26.9457L46.546 26.9271C46.3904 26.9271 46.2569 26.8712 46.1483 26.7606C46.0398 26.6501 45.9848 26.5159 45.9861 26.3606L46.0306 19.9199C46.0319 19.7782 46.0855 19.649 46.1732 19.5496L41.6076 19.5509C41.3055 19.5509 41.0582 19.3123 41.0451 19.0104L41.0137 18.2351L39.3824 18.214L39.3785 21.1759L43.8067 21.1697C43.9624 21.1697 44.0958 21.2244 44.2057 21.335C44.3156 21.4443 44.3705 21.5785 44.3705 21.7338L44.3587 26.3867C44.3587 26.542 44.3025 26.6749 44.1926 26.7855C44.0827 26.8948 43.9493 26.9495 43.7936 26.9482C39.3523 26.9246 34.9111 26.9445 30.4698 26.9445C25.6949 26.9445 20.9031 26.7457 16.1321 26.9569C12.7806 27.106 8.62711 28.5224 6.15989 30.8606C5.67848 31.3178 5.19053 31.7726 4.73397 32.2534C4.03409 32.9901 3.15369 34.24 2.60687 35.0948C1.24505 38.0915 -0.328687 41.9703 0.401278 48.1489C0.715241 52.1035 2.07967 54.858 4.43309 58.0846C4.98514 58.6809 6.00029 59.6599 6.88854 60.3408C6.76688 61.2179 6.75903 62.1212 6.8663 63.0344C6.96049 63.8308 7.15934 64.616 7.45106 65.3689C9.25635 70.0217 14.2026 72.8868 19.4445 72.242C20.5211 72.109 21.5716 71.8257 22.5618 71.4095C27.1169 69.4937 29.8013 65.1514 29.1943 60.4799C29.0517 59.3866 28.7195 58.3206 28.221 57.3242C26.1554 53.1956 21.6278 50.7568 16.7849 51.2823L16.7836 51.286ZM17.0688 52.9509C21.2824 52.5806 25.3457 54.8729 26.8749 58.5977C27.1523 59.2723 27.3354 59.9792 27.4139 60.6986C27.7893 64.1302 26.1515 67.4363 23.038 69.2887C21.8528 69.9944 20.5145 70.4429 19.12 70.5895C16.6973 70.8442 13.7081 70.1025 11.8858 68.537C11.6621 68.3445 11.5051 68.1221 11.2958 67.932C9.54807 66.3566 8.61534 64.2408 8.59179 61.9721C8.5447 57.354 12.1147 53.3845 17.0701 52.9484L17.0688 52.9509ZM37.1232 16.1901L51.4595 16.1889L51.487 14.6073L37.1363 14.5737L37.1245 16.1901H37.1232ZM37.1075 11.7721L51.4988 11.7845L51.4949 10.2066L37.1154 10.1606L37.1075 11.7721ZM9.23149 23.057L9.2014 24.6808L14.9038 24.6771L14.8985 23.0445C14.7468 23.0371 14.5963 23.0545 14.4027 23.0532C14.2 23.052 14.026 22.9526 13.9226 22.7774C13.8193 22.6022 13.8154 22.4022 13.9109 22.2233C14.2392 21.6145 14.6788 21.3909 15.045 20.8865C15.1981 20.6752 15.4663 20.5982 15.7083 20.6951C15.8391 20.7473 15.9673 20.8045 16.0942 20.8653C16.8595 21.2356 17.5437 21.7276 18.3299 22.0742C19.4471 22.5675 20.6061 22.729 21.8214 22.7315C23.7327 22.7339 24.8433 22.3724 26.4759 21.4605C26.9521 21.1946 27.423 20.9299 27.9202 20.7038C28.1648 20.5932 28.4447 20.6665 28.6043 20.8815C28.7626 21.0964 28.9314 21.2443 29.1224 21.4257C29.384 21.6729 29.5737 21.9102 29.7438 22.2308C29.8393 22.4109 29.834 22.6134 29.7268 22.7874C29.6208 22.9613 29.4442 23.0595 29.2401 23.057C29.0687 23.0545 28.9196 23.0358 28.7705 23.0408L28.7587 24.6821L34.8116 24.6758L34.7999 23.0619C34.1576 23.0793 33.4054 23.0768 32.9174 22.8458C32.4478 22.6246 32.0239 22.145 31.6602 21.7798C31.0192 21.1387 30.3638 20.3584 29.6561 19.8043C29.4455 19.6403 29.3801 19.3595 29.4952 19.1185C29.7608 18.5619 30.0747 18.0475 30.3822 17.5145C31.0402 16.3727 31.3332 15.472 31.4758 14.1476C31.6759 12.2827 31.3031 10.101 30.39 8.461C28.7064 5.43571 25.7198 3.43541 22.2348 3.28632C18.4672 3.1248 15.1811 5.17853 13.3169 8.40137C11.9407 10.7806 11.7589 14.1563 12.8355 16.6858C13.2084 17.5617 13.814 18.2923 14.1699 19.1583C14.2641 19.3893 14.2013 19.644 14.0103 19.8043C13.351 20.3559 12.757 20.9312 12.2011 21.5872C11.891 21.9537 11.5731 22.391 11.1715 22.6582C10.6378 23.0122 9.90521 23.0632 9.23411 23.0545L9.23149 23.057ZM20.8272 5.01204C24.774 4.50886 28.5023 6.97755 29.5959 10.8017C29.6993 11.162 29.7765 11.5298 29.8249 11.9013C30.254 15.1577 28.8123 18.2513 25.9945 19.9497C25.067 20.5088 24.0362 20.8815 22.9648 21.038C20.7474 21.3611 18.5431 20.7423 16.798 19.3434C15.185 18.0513 14.0521 16.1541 13.8101 14.0892C13.2842 9.59285 16.3506 5.58356 20.8259 5.01204H20.8272ZM33.1529 62.0479L32.8389 63.6282L43.7478 63.6643C44.0566 63.6655 44.309 63.9177 44.309 64.2271V72.642L52.387 72.6432L52.3831 64.2196C52.3831 63.9227 52.6134 63.6767 52.9103 63.6581C58.0292 63.3313 62.5634 61.1161 65.5827 56.9142C67.019 54.9151 68.0433 52.5769 68.4829 50.1529C68.7812 48.5055 68.8361 44.7372 68.1624 42.6872C68.0878 42.8202 68.0224 42.9432 67.9766 43.0264C67.7725 43.3979 67.5711 43.7942 67.3382 44.1471C67.2715 44.2477 66.9131 44.7745 66.9039 44.8913C66.8961 44.9919 66.968 45.2851 66.9863 45.3945C67.0779 45.925 67.1132 46.4605 67.1224 46.9972C67.1656 49.241 66.6554 51.4711 65.7331 53.5112C64.1764 56.9539 61.042 59.7618 57.5217 61.09C55.1565 61.982 52.0508 62.105 49.5378 62.1224L33.1542 62.0479H33.1529ZM50.7728 70.4603C50.7741 70.6156 50.7191 70.7498 50.6092 70.8604C50.4993 70.9709 50.3659 71.0269 50.2102 71.0256L46.4963 71.0182C46.1863 71.0182 45.9338 70.7635 45.9351 70.4541C45.943 67.7866 45.9312 67.0499 45.9273 64.2221C45.9273 64.0668 45.9822 63.9326 46.0921 63.8233C46.202 63.714 46.3354 63.6581 46.4911 63.6593L50.205 63.6705C50.5137 63.6717 50.7662 63.9239 50.7662 64.2333C50.7662 67.0126 50.7597 67.814 50.7741 70.4603H50.7728ZM70.8847 17.7556C71.2405 16.7753 70.4216 16.61 69.6053 16.6113C68.3259 16.6138 67.5737 16.615 66.2956 16.615C65.4937 16.615 64.421 16.5094 63.6858 16.8138C63.3391 16.9567 62.774 17.6847 62.7073 18.1457L60.7385 31.6222C60.6704 31.8719 60.4494 32.0397 60.1917 32.0372C55.0845 31.9925 49.9774 32.0335 44.8716 32.0335C43.8198 32.0335 42.7588 31.9664 41.7123 31.9813C41.38 31.9862 40.7076 31.9974 40.4421 32.2335C40.1176 32.5217 40.1189 33.4287 40.1216 33.8151C40.1268 35.0202 40.0535 36.2304 40.0692 37.4293C40.0745 37.7958 40.0849 38.5897 40.3583 38.8755C40.5899 39.1165 41.1406 39.1339 41.4467 39.1339C45.2719 39.1364 49.0983 39.1699 52.9234 39.1774C55.4652 39.1824 58.007 39.1848 60.5488 39.1699C61.4318 39.165 62.3161 39.1575 63.2005 39.1401C63.5393 39.1327 64.0665 39.1451 64.3804 39.0941C64.4589 39.0755 64.5309 39.0469 64.5976 39.0022C64.9587 38.7599 65.4754 37.6206 65.7082 37.2168L70.8873 17.7543L70.8847 17.7556ZM62.1186 32.4832L64.1777 18.4613C64.2876 18.3109 64.4472 18.2289 64.6329 18.2289L68.2278 18.2326C68.4057 18.2326 68.5588 18.3072 68.67 18.4476C68.7798 18.588 68.8165 18.7545 68.7746 18.9284L64.3517 36.1595C64.1973 36.5012 64.0338 36.8938 63.8506 37.2206C63.7486 37.4032 63.5694 37.5076 63.3601 37.5076L42.3193 37.5038C42.0106 37.5038 41.7581 37.2529 41.7568 36.9435L41.7437 34.2512C41.7424 33.9605 41.9595 33.7182 42.2473 33.6884C42.7117 33.6399 43.201 33.6312 43.6667 33.6213C44.4072 33.6051 45.1476 33.6002 45.888 33.5989C47.8267 33.5952 49.7655 33.6126 51.7042 33.63C53.8012 33.6486 55.8995 33.6722 57.9965 33.6747C58.7343 33.6759 59.4735 33.6747 60.2113 33.6598C60.4795 33.6536 60.9726 33.6623 61.2251 33.6089C61.6947 33.4933 61.9001 32.8845 62.1186 32.482V32.4832Z" fill="black"/>
<path fill-rule="evenodd" clip-rule="evenodd" d="M37.1075 7.34904L51.4909 7.36146L51.4936 5.80222L37.101 5.74383L37.1075 7.34904ZM16.7836 51.286C14.5545 51.5283 12.4405 52.3781 10.7241 53.7373C9.05358 55.0605 7.89715 56.739 7.29015 58.5964C6.98273 58.3678 6.72764 58.1392 6.47777 57.9081C5.00084 56.5415 3.67565 54.3387 2.947 52.4713C1.86644 49.7032 1.68984 42.799 2.39364 39.9154C3.15892 36.782 4.92627 33.9667 7.43275 31.9366C10.2584 29.648 13.7251 28.5733 17.3383 28.5721L48.0151 28.5534C49.9224 28.5522 51.8298 28.5683 53.7345 28.6603C54.3428 28.6901 54.8438 28.7647 55.4312 28.9063C56.5405 29.1747 57.6695 29.1399 58.8011 29.084C58.9423 28.8852 59.0692 28.6814 59.1804 28.469C58.8495 28.3484 58.5237 28.2192 58.1954 28.0888C57.0782 27.6452 56.0997 27.2911 54.8883 27.1731C54.5992 27.1445 54.3807 26.9035 54.3807 26.6128L54.3781 21.7288C54.3781 21.5735 54.433 21.4393 54.5429 21.33C54.6528 21.2207 54.7863 21.1648 54.9419 21.166L59.374 21.1735C59.3793 20.9846 59.3806 20.7945 59.3845 20.6144C59.3989 19.9037 59.4067 19.1918 59.4133 18.4799C59.4303 16.4833 59.4342 14.4855 59.4329 12.4877C59.4316 10.4514 59.4237 8.41379 59.4002 6.37746C59.3923 5.66804 59.3832 4.95738 59.3649 4.24671C59.3583 3.96344 59.3649 3.55841 59.323 3.28508C59.2079 2.61044 58.9397 2.01408 58.4073 1.56929C57.1933 0.555476 54.8569 0.615113 53.3629 0.667294C52.4027 0.70084 51.4386 0.765446 50.4771 0.765446C49.0093 0.765446 47.5402 0.729415 46.0712 0.72693C45.0966 0.724446 44.118 0.728173 43.1434 0.766688C42.7366 0.782839 41.8536 0.803961 41.4755 0.928203C40.1451 1.36802 39.5316 2.43899 39.4021 3.72489L41.0713 3.71868C41.1027 3.62426 41.1302 3.52735 41.155 3.42671C41.2126 3.19935 41.2623 2.99435 41.4166 2.80674C41.6874 2.47874 42.1113 2.42781 42.5077 2.40544C43.1918 2.36568 43.9127 2.38681 44.5995 2.38681H55.1277C55.7857 2.38681 56.7001 2.33462 57.2286 2.79183C57.8147 3.29874 57.8095 4.3051 57.8134 5.01701C57.8173 5.66928 57.7977 6.32528 57.7833 6.97755C57.7637 7.93794 57.7493 8.89709 57.7493 9.85749C57.7493 11.2999 57.8055 12.7449 57.8304 14.1873C57.8592 15.7727 57.8893 17.4748 57.7087 19.0489C57.676 19.3347 57.4366 19.5471 57.1501 19.5471L52.5924 19.5484C52.6932 19.6502 52.756 19.7906 52.756 19.9459L52.7442 26.3842C52.7442 26.5395 52.6879 26.6724 52.578 26.7817C52.4682 26.8911 52.3347 26.9457 52.179 26.9457L46.546 26.9271C46.3904 26.9271 46.2569 26.8712 46.1483 26.7606C46.0398 26.6501 45.9848 26.5159 45.9861 26.3606L46.0306 19.9199C46.0319 19.7782 46.0855 19.649 46.1732 19.5496L41.6076 19.5509C41.3055 19.5509 41.0582 19.3123 41.0451 19.0104L41.0137 18.2351L39.3824 18.214L39.3785 21.1759L43.8067 21.1697C43.9624 21.1697 44.0958 21.2244 44.2057 21.335C44.3156 21.4443 44.3705 21.5785 44.3705 21.7338L44.3587 26.3867C44.3587 26.542 44.3025 26.6749 44.1926 26.7855C44.0827 26.8948 43.9493 26.9495 43.7936 26.9482C39.3523 26.9246 34.9111 26.9445 30.4698 26.9445C25.6949 26.9445 20.9031 26.7457 16.1321 26.9569C12.7806 27.106 8.62711 28.5224 6.15989 30.8606C5.67848 31.3178 5.19053 31.7726 4.73397 32.2534C4.03409 32.9901 3.15369 34.24 2.60687 35.0948C1.24505 38.0915 -0.328687 41.9703 0.401278 48.1489C0.715241 52.1035 2.07967 54.858 4.43309 58.0846C4.98514 58.6809 6.00029 59.6599 6.88854 60.3408C6.76688 61.2179 6.75903 62.1212 6.8663 63.0344C6.96049 63.8308 7.15934 64.616 7.45106 65.3689C9.25635 70.0217 14.2026 72.8868 19.4445 72.242C20.5211 72.109 21.5716 71.8257 22.5618 71.4095C27.1169 69.4937 29.8013 65.1514 29.1943 60.4799C29.0517 59.3866 28.7195 58.3206 28.221 57.3242C26.1554 53.1956 21.6278 50.7568 16.7849 51.2823L16.7836 51.286ZM17.0688 52.9509C21.2824 52.5806 25.3457 54.8729 26.8749 58.5977C27.1523 59.2723 27.3354 59.9792 27.4139 60.6986C27.7893 64.1302 26.1515 67.4363 23.038 69.2887C21.8528 69.9944 20.5145 70.4429 19.12 70.5895C16.6973 70.8442 13.7081 70.1025 11.8858 68.537C11.6621 68.3445 11.5051 68.1221 11.2958 67.932C9.54807 66.3566 8.61534 64.2408 8.59179 61.9721C8.5447 57.354 12.1147 53.3845 17.0701 52.9484L17.0688 52.9509ZM37.1232 16.1901L51.4595 16.1889L51.487 14.6073L37.1363 14.5737L37.1245 16.1901H37.1232ZM37.1075 11.7721L51.4988 11.7845L51.4949 10.2066L37.1154 10.1606L37.1075 11.7721ZM9.23149 23.057L9.2014 24.6808L14.9038 24.6771L14.8985 23.0445C14.7468 23.0371 14.5963 23.0545 14.4027 23.0532C14.2 23.052 14.026 22.9526 13.9226 22.7774C13.8193 22.6022 13.8154 22.4022 13.9109 22.2233C14.2392 21.6145 14.6788 21.3909 15.045 20.8865C15.1981 20.6752 15.4663 20.5982 15.7083 20.6951C15.8391 20.7473 15.9673 20.8045 16.0942 20.8653C16.8595 21.2356 17.5437 21.7276 18.3299 22.0742C19.4471 22.5675 20.6061 22.729 21.8214 22.7315C23.7327 22.7339 24.8433 22.3724 26.4759 21.4605C26.9521 21.1946 27.423 20.9299 27.9202 20.7038C28.1648 20.5932 28.4447 20.6665 28.6043 20.8815C28.7626 21.0964 28.9314 21.2443 29.1224 21.4257C29.384 21.6729 29.5737 21.9102 29.7438 22.2308C29.8393 22.4109 29.834 22.6134 29.7268 22.7874C29.6208 22.9613 29.4442 23.0595 29.2401 23.057C29.0687 23.0545 28.9196 23.0358 28.7705 23.0408L28.7587 24.6821L34.8116 24.6758L34.7999 23.0619C34.1576 23.0793 33.4054 23.0768 32.9174 22.8458C32.4478 22.6246 32.0239 22.145 31.6602 21.7798C31.0192 21.1387 30.3638 20.3584 29.6561 19.8043C29.4455 19.6403 29.3801 19.3595 29.4952 19.1185C29.7608 18.5619 30.0747 18.0475 30.3822 17.5145C31.0402 16.3727 31.3332 15.472 31.4758 14.1476C31.6759 12.2827 31.3031 10.101 30.39 8.461C28.7064 5.43571 25.7198 3.43541 22.2348 3.28632C18.4672 3.1248 15.1811 5.17853 13.3169 8.40137C11.9407 10.7806 11.7589 14.1563 12.8355 16.6858C13.2084 17.5617 13.814 18.2923 14.1699 19.1583C14.2641 19.3893 14.2013 19.644 14.0103 19.8043C13.351 20.3559 12.757 20.9312 12.2011 21.5872C11.891 21.9537 11.5731 22.391 11.1715 22.6582C10.6378 23.0122 9.90521 23.0632 9.23411 23.0545L9.23149 23.057ZM20.8272 5.01204C24.774 4.50886 28.5023 6.97755 29.5959 10.8017C29.6993 11.162 29.7765 11.5298 29.8249 11.9013C30.254 15.1577 28.8123 18.2513 25.9945 19.9497C25.067 20.5088 24.0362 20.8815 22.9648 21.038C20.7474 21.3611 18.5431 20.7423 16.798 19.3434C15.185 18.0513 14.0521 16.1541 13.8101 14.0892C13.2842 9.59285 16.3506 5.58356 20.8259 5.01204H20.8272ZM33.1529 62.0479L32.8389 63.6282L43.7478 63.6643C44.0566 63.6655 44.309 63.9177 44.309 64.2271V72.642L52.387 72.6432L52.3831 64.2196C52.3831 63.9227 52.6134 63.6767 52.9103 63.6581C58.0292 63.3313 62.5634 61.1161 65.5827 56.9142C67.019 54.9151 68.0433 52.5769 68.4829 50.1529C68.7812 48.5055 68.8361 44.7372 68.1624 42.6872C68.0878 42.8202 68.0224 42.9432 67.9766 43.0264C67.7725 43.3979 67.5711 43.7942 67.3382 44.1471C67.2715 44.2477 66.9131 44.7745 66.9039 44.8913C66.8961 44.9919 66.968 45.2851 66.9863 45.3945C67.0779 45.925 67.1132 46.4605 67.1224 46.9972C67.1656 49.241 66.6554 51.4711 65.7331 53.5112C64.1764 56.9539 61.042 59.7618 57.5217 61.09C55.1565 61.982 52.0508 62.105 49.5378 62.1224L33.1542 62.0479H33.1529ZM50.7728 70.4603C50.7741 70.6156 50.7191 70.7498 50.6092 70.8604C50.4993 70.9709 50.3659 71.0269 50.2102 71.0256L46.4963 71.0182C46.1863 71.0182 45.9338 70.7635 45.9351 70.4541C45.943 67.7866 45.9312 67.0499 45.9273 64.2221C45.9273 64.0668 45.9822 63.9326 46.0921 63.8233C46.202 63.714 46.3354 63.6581 46.4911 63.6593L50.205 63.6705C50.5137 63.6717 50.7662 63.9239 50.7662 64.2333C50.7662 67.0126 50.7597 67.814 50.7741 70.4603H50.7728ZM70.8847 17.7556C71.2405 16.7753 70.4216 16.61 69.6053 16.6113C68.3259 16.6138 67.5737 16.615 66.2956 16.615C65.4937 16.615 64.421 16.5094 63.6858 16.8138C63.3391 16.9567 62.774 17.6847 62.7073 18.1457L60.7385 31.6222C60.6704 31.8719 60.4494 32.0397 60.1917 32.0372C55.0845 31.9925 49.9774 32.0335 44.8716 32.0335C43.8198 32.0335 42.7588 31.9664 41.7123 31.9813C41.38 31.9862 40.7076 31.9974 40.4421 32.2335C40.1176 32.5217 40.1189 33.4287 40.1216 33.8151C40.1268 35.0202 40.0535 36.2304 40.0692 37.4293C40.0745 37.7958 40.0849 38.5897 40.3583 38.8755C40.5899 39.1165 41.1406 39.1339 41.4467 39.1339C45.2719 39.1364 49.0983 39.1699 52.9234 39.1774C55.4652 39.1824 58.007 39.1848 60.5488 39.1699C61.4318 39.165 62.3161 39.1575 63.2005 39.1401C63.5393 39.1327 64.0665 39.1451 64.3804 39.0941C64.4589 39.0755 64.5309 39.0469 64.5976 39.0022C64.9587 38.7599 65.4754 37.6206 65.7082 37.2168L70.8873 17.7543L70.8847 17.7556ZM62.1186 32.4832L64.1777 18.4613C64.2876 18.3109 64.4472 18.2289 64.6329 18.2289L68.2278 18.2326C68.4057 18.2326 68.5588 18.3072 68.67 18.4476C68.7798 18.588 68.8165 18.7545 68.7746 18.9284L64.3517 36.1595C64.1973 36.5012 64.0338 36.8938 63.8506 37.2206C63.7486 37.4032 63.5694 37.5076 63.3601 37.5076L42.3193 37.5038C42.0106 37.5038 41.7581 37.2529 41.7568 36.9435L41.7437 34.2512C41.7424 33.9605 41.9595 33.7182 42.2473 33.6884C42.7117 33.6399 43.201 33.6312 43.6667 33.6213C44.4072 33.6051 45.1476 33.6002 45.888 33.5989C47.8267 33.5952 49.7655 33.6126 51.7042 33.63C53.8012 33.6486 55.8995 33.6722 57.9965 33.6747C58.7343 33.6759 59.4735 33.6747 60.2113 33.6598C60.4795 33.6536 60.9726 33.6623 61.2251 33.6089C61.6947 33.4933 61.9001 32.8845 62.1186 32.482V32.4832Z" fill="#FF0000"/>
</svg>
