<svg width="72" height="73" viewBox="0 0 72 73" fill="none" xmlns="http://www.w3.org/2000/svg">
<path d="M55.9723 38.9402C57.3165 38.5051 58.7539 38.2138 60.1678 37.9272C60.8601 37.7869 61.5462 37.6478 62.0912 37.5231C62.2855 37.4786 62.435 37.4521 62.5695 37.4285C62.7526 37.3962 62.8475 37.3793 62.8772 37.1705C62.9686 36.5333 63.0241 35.7971 63.0521 35.0501C63.0852 34.1718 63.0804 33.2787 63.0507 32.5095L63.0287 31.9092C62.9605 30.0238 62.9568 29.9215 62.2555 29.7634L60.5566 29.3712C59.8068 29.1978 59.0539 29.0236 58.1901 28.8335C57.7088 28.7277 57.3743 28.6707 57.1135 28.6262L57.1129 28.6295C56.486 28.5229 56.1543 28.4664 55.8003 28.1723C55.4164 27.8532 55.3101 27.4996 55.0845 26.7491C55.0051 26.4853 54.909 26.1657 54.8667 26.034C54.6753 25.4362 54.4639 24.8537 54.231 24.283C54.0037 23.7263 53.7539 23.1804 53.4793 22.6416C53.4414 22.5671 53.3776 22.4648 53.3083 22.3545V22.3512C52.9534 21.7842 52.5133 21.081 52.8402 20.3745C52.9933 20.0433 53.2531 19.6527 53.4958 19.287C53.6306 19.0843 53.7598 18.8897 53.8295 18.7721C54.6707 17.3542 55.307 16.4035 55.7634 15.7216C56.2243 15.0331 56.4773 14.6551 56.5163 14.4645C56.5273 14.4104 56.367 14.2111 56.0117 13.77C55.8066 13.5152 55.5578 13.2064 55.2709 12.82C54.9822 12.431 54.5737 12.0488 54.1677 11.6686C53.9646 11.4784 53.7616 11.2887 53.518 11.0408H53.5147C53.3912 10.9153 53.312 10.8203 53.2383 10.7321C53.1652 10.6444 53.1001 10.5665 52.9911 10.4786C52.7633 10.2945 52.6712 10.2104 52.5011 10.0554L52.2979 9.87123C52.1728 9.75864 51.8039 9.43302 51.4882 9.21655C51.3926 9.15103 51.4656 9.1099 51.404 9.10674C51.3997 9.1066 47.9564 11.3879 46.4833 12.364C46.26 12.5119 46.1038 12.6157 45.8684 12.7689C45.0285 13.3156 44.9777 13.2824 44.2666 12.8129H44.2631L44.1813 12.7587L37.9743 10.1449L37.835 9.9585C37.5206 9.53809 37.2664 8.12565 36.9864 6.56727C36.6662 4.78583 36.306 2.78252 36.2062 2.71608C35.9344 2.5352 34.753 2.47337 33.3862 2.47904C31.7356 2.48577 29.9118 2.61879 28.958 2.76947L28.8949 3.06082C28.4459 5.13466 27.4047 9.94347 26.9519 10.2063C26.8507 10.265 26.5493 10.3742 26.1017 10.5358C25.0926 10.9003 23.2403 11.5696 22.3139 12.017L22.3146 12.0182C22.0965 12.1237 21.8771 12.2534 21.6669 12.3775C20.8685 12.8493 20.1547 13.2713 19.3685 12.8353C19.1459 12.7119 18.9482 12.5728 18.7439 12.4292C18.6109 12.3357 18.4742 12.2394 18.3379 12.1552C17.4081 11.4887 16.316 10.9122 15.3847 10.246C15.0648 10.0303 14.8225 9.85079 14.6052 9.6897C14.0649 9.28906 13.7788 9.07734 13.4586 9.34021L13.4308 9.36302C13.1193 9.61851 12.945 9.76154 12.6359 10.0603C12.4618 10.2284 12.3036 10.35 12.1482 10.4695C12.0179 10.5697 11.8898 10.6681 11.7818 10.7851C11.6435 10.9344 11.5622 11.0265 11.4872 11.1114C11.3486 11.2684 11.2245 11.4089 11.0265 11.6088L10.9661 11.6697C10.6889 11.9495 10.5533 12.0863 10.1734 12.4431C10.0551 12.5553 9.95117 12.692 9.84665 12.8297C9.73116 12.9819 9.6147 13.1352 9.45951 13.2999L9.374 13.3893V13.3926C9.09264 13.6872 8.52061 14.2861 8.55295 14.3687C8.74659 14.8628 9.52489 16.0444 10.1731 17.0284C10.5077 17.536 10.8111 17.9968 10.9667 18.2529C11.3036 18.8077 11.5819 19.212 11.7865 19.5094C12.064 19.9127 12.2296 20.1533 12.3193 20.4518C12.4883 21.0128 12.3402 21.3046 11.9745 22.0265L11.9284 22.1176L11.9271 22.117C11.5662 22.8308 11.2189 23.5572 10.9002 24.3106C10.588 25.0482 10.3099 25.7982 10.0839 26.5671V26.5703C10.0522 26.6775 10.0272 26.7743 10.0028 26.8686C9.90759 27.2359 9.81861 27.5795 9.58666 27.9606L9.40107 28.2655L2.33167 29.8876C2.18495 30.8372 2.06446 32.6898 2.05697 34.3841C2.05044 35.8535 2.11402 37.141 2.2978 37.4349C2.30238 37.4422 3.99654 37.7797 5.63241 38.1053C7.17319 38.4121 8.66983 38.7101 9.24089 39.009L9.3704 39.0768L9.46548 39.177C9.53294 39.2248 9.58069 39.2688 9.66037 39.3912L9.66717 39.4009C9.71062 39.47 9.72575 39.504 9.7492 39.5643L9.74726 39.5649C9.75531 39.5852 9.76989 39.6216 9.79709 39.6811C9.87969 39.8621 9.96949 40.1482 10.093 40.543C10.3611 41.3984 10.8005 42.8011 11.4185 44.1288C11.5087 44.3229 11.6295 44.5356 11.7489 44.7464C12.1846 45.515 12.6114 46.2676 12.2378 46.9841C11.8208 47.7829 11.2525 48.6423 10.6994 49.4789C10.3466 50.0127 9.99989 50.5369 9.71298 51.0165C9.49338 51.3832 9.28697 51.666 9.09916 51.9229C8.73493 52.4215 8.48549 52.7627 8.80058 53.1602L9.07459 53.5127C9.43633 53.9804 9.88454 54.5597 10.1971 54.8319L10.2481 54.8772L11.8501 56.5144C11.9582 56.6361 12.0916 56.7402 12.2263 56.8454C12.3778 56.9639 12.5307 57.0835 12.6878 57.2369C13.6919 58.2163 13.8431 58.1082 14.7999 57.4222C14.9275 57.3308 15.0668 57.2306 15.4441 56.9689C15.9319 56.6304 16.4025 56.3351 16.8823 56.034C16.993 55.9645 17.0982 55.8986 17.4042 55.7039C17.5803 55.5918 17.8064 55.4328 18.044 55.2658C18.5276 54.9258 19.0554 54.5546 19.4822 54.3504C20.23 53.9926 20.6259 54.2548 21.1122 54.5768C21.1926 54.63 21.279 54.6872 21.3303 54.7143C21.8486 54.988 22.3679 55.2535 22.9055 55.5065C23.4194 55.7483 23.9451 55.9749 24.4947 56.1804L26.3137 56.7667C26.3544 56.7792 26.4525 56.8139 26.5368 56.8453C26.6053 56.8706 26.6833 56.9024 26.7421 56.9306L26.7428 56.9292L26.8069 56.9605L26.808 56.9584C26.8695 56.987 26.8997 57.001 26.9612 57.0405L26.9646 57.0438C27.0397 57.0923 27.0662 57.118 27.1174 57.1671L27.1191 57.1655C27.1428 57.188 27.1077 57.1592 27.1479 57.195L27.2532 57.289L27.3245 57.4212C27.5828 57.9002 28.0971 60.3921 28.434 62.0256C28.5477 62.5765 28.6414 63.0304 28.6869 63.231C28.7413 63.4722 28.7801 63.6921 28.8148 63.889C28.9455 64.6339 28.969 64.7665 32.5558 64.7652C36.1677 64.764 36.1919 64.6245 36.3245 63.8518C36.3544 63.6778 36.3873 63.4859 36.4387 63.2461C36.5296 62.8216 36.638 62.2776 36.7503 61.7141C37.0342 60.2902 37.3439 58.7365 37.7126 57.5315L37.8039 57.2325L38.0761 57.066C38.411 56.8612 39.1985 56.6136 39.922 56.3865L40.0719 56.3393L35.5528 51.1956L35.4643 51.0889C35.134 51.1558 34.7934 51.2124 34.4283 51.256C33.8935 51.3197 33.2873 51.3554 32.5557 51.3558C29.611 51.357 26.7518 50.5501 24.2542 49.1749C21.6608 47.7472 19.4503 45.7047 17.9338 43.3182C16.2146 40.6125 15.2821 37.6519 15.1367 34.6119C14.9909 31.5717 15.6347 28.4601 17.0674 25.4538C17.4392 24.6734 17.8965 23.9113 18.4152 23.1857C18.9542 22.4316 19.5519 21.7277 20.1824 21.0931C22.9556 18.3013 26.7826 16.412 30.903 15.9916C34.6231 15.6121 38.579 16.4268 42.2116 18.8504H42.215C44.6583 20.4808 46.6283 22.7004 47.9783 25.2759C49.3099 27.8161 50.0392 30.7085 50.0251 33.7276C50.0216 34.4739 49.9809 35.0952 49.9116 35.6485C49.8635 36.0329 49.8007 36.394 49.7266 36.7474L52.2385 38.8019L54.9056 40.9865C55.09 40.3582 55.2813 39.7188 55.4766 39.3511L55.6367 39.0495L55.9725 38.9407L55.9723 38.9402ZM62.6732 60.4317L62.7027 60.428L62.7094 60.4248C63.9595 60.2797 65.0972 60.6845 65.9595 61.4047C66.8003 62.1069 67.3751 63.1156 67.5246 64.2024L67.5289 64.2372L67.5323 64.2405C67.6903 65.4711 67.3349 66.602 66.6798 67.4725C65.9711 68.4139 64.9025 69.0536 63.7401 69.1947C61.6663 69.4464 60.1875 68.4799 59.4078 67.0975C59.1101 66.5695 58.9187 65.9828 58.8398 65.385C58.762 64.7942 58.7946 64.1817 58.9441 63.5949C59.3419 62.0335 60.548 60.6965 62.6698 60.4316H62.6733L62.6732 60.4317ZM62.913 62.0641L62.8939 62.0663C61.6027 62.2279 60.8698 63.0377 60.6289 63.9827C60.5315 64.3655 60.5118 64.777 60.5655 65.1848C60.6184 65.5856 60.7436 65.9731 60.9365 66.3155C61.3996 67.1367 62.2819 67.7102 63.5227 67.5596C64.197 67.4779 64.8315 67.0876 65.2665 66.5096C65.6828 65.9563 65.9083 65.233 65.8065 64.4409L65.8094 64.4405L65.8061 64.4156C65.711 63.7265 65.3482 63.0883 64.8182 62.6456C64.3097 62.221 63.6425 61.9819 62.9135 62.0665L62.9132 62.0641H62.913ZM42.1789 37.5768C42.2737 37.1949 42.3502 36.9105 42.4223 36.6416C42.7367 35.4709 42.9692 34.605 42.8804 33.0363C42.8406 32.3353 42.7322 31.6547 42.5698 31.0009C42.3971 30.3051 42.1611 29.6428 41.8804 29.0215C41.1118 27.3189 39.9393 25.9511 38.5381 24.9563C37.118 23.9481 35.4659 23.3205 33.7629 23.1133C32.0621 22.9063 30.3047 23.117 28.6719 23.7839C27.1206 24.4178 25.6796 25.4671 24.504 26.9657C24.4485 27.0363 24.3673 27.1331 24.2865 27.2293H24.2832C24.1931 27.3365 24.1037 27.4429 24.0342 27.5461C25.5236 27.6318 29.1986 27.5796 31.2463 27.5506C31.7801 27.5431 32.2056 27.537 32.4704 27.5357L32.972 27.5333L33.2244 27.9494C33.4343 28.2952 34.5405 30.2124 35.3194 31.622C35.8424 32.5686 36.246 33.3781 36.2484 33.6164C36.2526 34.0465 35.4426 35.4352 34.6457 36.8011C34.0397 37.8394 33.4421 38.8639 33.3131 39.1966L33.1001 39.7467L32.4843 39.7363C31.3729 39.7175 30.257 39.7219 29.1442 39.7263C28.2468 39.7299 27.9999 39.7336 27.6743 39.7336C27.5194 39.7336 27.1832 39.7192 26.7854 39.7024C25.8826 39.6642 24.5764 39.609 23.9834 39.6559C24.0683 39.7698 24.1866 39.9172 24.2872 40.0426C24.3723 40.1487 24.4514 40.2473 24.5083 40.3273C24.9015 40.8805 25.515 41.474 26.2088 42.0119C26.9414 42.5799 27.7537 43.0796 28.4865 43.4018C29.8696 44.0099 31.1122 44.26 32.3508 44.2504C33.6151 44.2405 34.9088 43.9616 36.3586 43.5159L36.879 43.3559L37.2553 43.7357C37.3188 43.7998 37.3648 43.8427 37.4058 43.881C37.5422 44.0079 37.6452 44.1038 37.8119 44.3268L42.2019 49.5857C42.259 49.657 42.3103 49.7096 42.3604 49.7606C42.4469 49.8488 42.5316 49.9351 42.6469 50.0852L42.6457 50.0861L46.1237 54.2268L46.1254 54.2256C46.2549 54.3713 46.328 54.4712 46.3989 54.5684C46.4588 54.6503 46.5172 54.7299 46.5702 54.787L46.5976 54.816L50.5044 59.4334L50.5349 59.472C50.6604 59.6394 50.6812 59.6621 50.7717 59.7605L50.7734 59.759C50.8139 59.8029 50.708 59.6886 50.909 59.9097C51.0496 60.0645 51.1164 60.1585 51.1837 60.2532C51.227 60.3144 51.271 60.3764 51.3237 60.4358L55.3362 65.1819L55.3599 65.2142C55.4984 65.3949 55.4721 65.3599 55.4772 65.3667C55.5406 65.4515 55.5608 65.4784 55.7265 65.6558L55.7572 65.6946L57.4635 67.7461C57.8018 68.1093 58.0277 68.3854 58.2381 68.6427C58.7436 69.2609 59.1549 69.7638 60.2075 70.375C61.3907 71.0621 62.7129 71.3002 63.9853 71.1158C65.2652 70.9303 66.5003 70.3159 67.5011 69.3C68.1699 68.6212 68.6697 67.8513 68.978 66.9968C69.2787 66.1638 69.3986 65.2448 69.3177 64.2452C69.0974 61.5216 67.4339 60.1354 65.5467 58.5629C65.3294 58.3819 65.1089 58.1981 64.8261 57.9573C64.0951 57.3346 63.2216 56.5504 62.318 55.7393C61.0311 54.584 59.6839 53.3749 58.7824 52.6512L58.7584 52.6285L44.9061 40.5653C44.7237 40.3881 44.701 40.3704 44.598 40.2896H44.5946L44.4724 40.1927C44.3346 40.083 44.2349 39.9853 44.1354 39.8874C44.075 39.8279 44.0139 39.7682 43.9356 39.7057L43.9016 39.6734L42.0642 38.0366L42.1783 37.5767L42.1789 37.5768ZM44.1073 37.0487L43.9881 37.4948L45.0494 38.4402L45.0504 38.4391C45.1878 38.5488 45.2853 38.6445 45.3827 38.7402L45.3861 38.7434C45.4456 38.8019 45.5052 38.8604 45.5836 38.923L45.7027 39.0164L45.7014 39.018C45.8715 39.1515 45.9099 39.1817 46.1433 39.4085L59.903 51.3919L59.9039 51.391C60.8362 52.1393 62.2023 53.3656 63.5077 54.5373C64.4447 55.3781 65.3509 56.1919 65.9817 56.7293C66.1782 56.8968 66.4355 57.1109 66.6888 57.3221C68.8611 59.1323 70.776 60.7282 71.0507 64.1225C71.15 65.3509 70.9992 66.4904 70.6226 67.5334C70.2342 68.6096 69.6059 69.5781 68.7652 70.4312C67.4899 71.7257 65.9008 72.5109 64.2439 72.751C62.5788 72.9922 60.8499 72.6816 59.3044 71.784C57.9731 71.0108 57.4765 70.4037 56.8661 69.6576C56.6453 69.3876 56.4082 69.0977 56.1569 68.8283L54.4304 66.7539L54.4295 66.7548C54.2175 66.528 54.1807 66.479 54.0645 66.3235L53.985 66.2158L49.9994 61.5023C49.8729 61.3598 49.8078 61.2682 49.7437 61.1778C49.6972 61.1123 49.651 61.0473 49.5982 60.9891C49.5083 60.8902 49.5786 60.9699 49.4694 60.8515V60.8483C49.3304 60.6978 49.2964 60.6609 49.1396 60.4519L45.246 55.8503C45.115 55.7068 45.0447 55.6107 44.9728 55.5122C44.918 55.4374 44.8615 55.3602 44.8011 55.2922L44.7875 55.2729L41.2718 51.0874L41.248 51.0614C41.1935 50.9905 41.1425 50.9387 41.0906 50.8857C41.0147 50.8082 40.9367 50.7286 40.8335 50.6008L36.4384 45.3365L36.3657 45.2427C34.968 45.6434 33.6738 45.8888 32.3648 45.8989C30.8684 45.9105 29.3861 45.6168 27.7599 44.9017C26.9013 44.5242 25.9582 43.946 25.1152 43.2921C24.2919 42.6537 23.5545 41.9363 23.0683 41.2522C23.0198 41.1838 22.9659 41.1169 22.9083 41.045C22.4438 40.4663 21.8278 39.6987 22.3159 38.7498L22.3897 38.6059L22.506 38.5042C23.1967 37.9 25.4334 37.9947 26.8605 38.0552C27.1745 38.0684 27.4393 38.0797 27.6746 38.0797L29.1376 38.0791C30.0746 38.0754 31.0136 38.0717 31.9463 38.0813C32.2314 37.5419 32.6791 36.7749 33.1309 36.0005C33.818 34.823 34.5163 33.6338 34.5163 33.63C34.5158 33.5642 34.1985 33.1413 33.7843 32.3919C33.1666 31.2738 32.3791 29.8959 31.9692 29.1897L31.2668 29.1994C28.6646 29.2363 23.556 29.3088 22.766 29.0042L22.3929 28.8602L22.2666 28.4968C21.8976 27.4342 22.408 26.825 22.93 26.2041L22.9279 26.2025C22.9823 26.1376 23.0374 26.072 23.1114 25.9777C24.4789 24.2345 26.1648 23.0098 27.9858 22.2659C29.9051 21.4819 31.9743 21.2347 33.9804 21.479C35.9844 21.7229 37.921 22.456 39.5777 23.6322C41.2151 24.7945 42.5831 26.3887 43.4773 28.3694C43.7949 29.0726 44.0632 29.8275 44.2617 30.627C44.4442 31.3623 44.5668 32.1393 44.613 32.9532C44.7164 34.7814 44.4576 35.7459 44.1075 37.0497L44.1073 37.0487ZM60.528 39.5429C59.2976 39.7923 58.0488 40.0455 56.9015 40.3885C56.7943 40.6837 56.6722 41.1 56.5532 41.5054C56.4173 41.9689 56.2848 42.42 56.1671 42.7236C56.0061 43.0821 55.8582 43.4565 55.7057 43.8194L51.1105 40.0553L47.8076 37.3544L47.9243 36.8689C48.032 36.4212 48.1216 35.9663 48.1858 35.4539C48.2512 34.9316 48.2897 34.3684 48.2926 33.7206C48.3053 30.9711 47.6391 28.3328 46.4225 26.0119C45.1992 23.6785 43.4195 21.6708 41.2164 20.2006L41.2175 20.199C37.9573 18.0249 34.414 17.2933 31.0864 17.6328C27.3836 18.0105 23.942 19.7109 21.4459 22.2236C20.8666 22.8068 20.326 23.4416 19.8485 24.1094C19.3928 24.7471 18.9865 25.4263 18.6502 26.1318C17.3298 28.9031 16.7359 31.7595 16.869 34.5403C17.001 37.2997 17.852 39.994 19.4217 42.4644C20.7885 44.6151 22.7827 46.4571 25.124 47.746C27.37 48.9824 29.9304 49.7083 32.5558 49.7071C33.1763 49.7069 33.7169 49.6732 34.2178 49.6137C34.6998 49.5562 35.1285 49.4738 35.5481 49.3733L36.0305 49.2577L36.4309 49.6489C36.5721 49.7868 36.7105 49.9217 36.8882 50.1393L42.9214 57.0064L41.8874 57.457C41.7595 57.5126 41.8084 57.4935 41.7523 57.5169L41.6156 57.5722C41.3373 57.6827 40.9142 57.8154 40.4657 57.9563C40.0275 58.094 39.5625 58.24 39.2733 58.3454C38.9742 59.4148 38.7046 60.767 38.4556 62.017C38.3514 62.5406 38.2503 63.0466 38.1373 63.5747C38.0986 63.7552 38.0661 63.9447 38.0367 64.1158C37.7028 66.0602 37.6426 66.4107 32.5558 66.4124C27.499 66.4144 27.4387 66.0733 27.1027 64.1595C27.0721 63.9859 27.0381 63.792 26.9884 63.5728C26.9276 63.3042 26.838 62.8701 26.7289 62.3413C26.4496 60.987 26.0419 59.0114 25.8508 58.3623C25.2031 58.1333 24.5303 57.9491 23.8807 57.7241C23.2821 57.501 22.7054 57.2524 22.138 56.9854C21.5893 56.7271 21.0419 56.447 20.488 56.1546C20.3251 56.0686 20.2196 55.9986 20.1205 55.933C20.1177 55.9311 20.1218 55.926 20.1309 55.9188L20.1633 55.8742C19.8649 56.0352 19.4554 56.3232 19.0769 56.5895C18.8231 56.7679 18.5816 56.9378 18.3691 57.0729L17.8334 57.4094C17.369 57.7009 16.9133 57.9868 16.4633 58.2992C16.373 58.3619 16.095 58.5612 15.8461 58.7396C13.8352 60.1811 13.5179 60.4084 11.4443 58.3862C11.3452 58.2893 11.2347 58.2031 11.1255 58.1177C10.9296 57.9646 10.7356 57.813 10.54 57.5962L8.9777 56.0009C8.53837 55.6034 8.06198 54.988 7.67512 54.4877C7.59711 54.3869 7.52479 54.2934 7.41458 54.1545C6.34131 52.8004 6.88197 52.0599 7.67248 50.9784C7.84933 50.7362 8.04421 50.4696 8.20482 50.2012C8.50922 49.6925 8.86749 49.1507 9.232 48.5992C9.75989 47.8008 10.3021 46.9807 10.6821 46.253C10.7063 46.2066 10.4413 45.9175 10.2203 45.5277C10.0815 45.2829 9.94132 45.0357 9.82874 44.7935C9.16787 43.3737 8.70869 41.9078 8.42858 41.0139C8.3353 40.716 8.26325 40.486 8.22633 40.3823C7.71024 40.2041 6.5101 39.965 5.27942 39.7201C3.27488 39.321 1.19885 38.9078 0.803244 38.2743C0.445116 37.7008 0.316996 36.103 0.32463 34.3768C0.334208 32.2163 0.536036 29.7472 0.753411 28.9925L0.889028 28.5214L8.21439 26.8407C8.25257 26.7263 8.28477 26.6021 8.31808 26.4735C8.34807 26.3571 8.37902 26.2378 8.41275 26.1235C8.66039 25.2855 8.95841 24.48 9.29016 23.6959C9.61525 22.9274 9.98088 22.1641 10.3658 21.4027V21.3995L10.412 21.3084C10.5718 20.9929 10.6595 20.9415 10.648 20.9034C10.6312 20.8474 10.5195 20.6852 10.3326 20.4134C10.1263 20.1133 9.84582 19.7057 9.4652 19.0794C9.25824 18.7385 8.99533 18.3397 8.70578 17.8999C8.01298 16.8481 7.18096 15.5852 6.9293 14.9429C6.52689 13.9163 7.57462 12.8198 8.09016 12.2801L8.09183 12.2816L8.169 12.2006C8.26103 12.1026 8.35126 11.9837 8.44065 11.866C8.59209 11.6668 8.74228 11.4688 8.95411 11.2694L8.95758 11.2663C9.29794 10.9464 9.43078 10.8124 9.7027 10.538L9.76309 10.4771C9.91425 10.3245 10.0285 10.1951 10.1559 10.0508C10.2595 9.93345 10.37 9.80834 10.4775 9.6922C10.671 9.48285 10.8641 9.33428 11.0615 9.18254C11.1787 9.0925 11.2985 9.00048 11.3996 8.90266C11.7553 8.55898 11.9495 8.39972 12.2965 8.11497L12.3243 8.09216C13.7222 6.94444 14.3967 7.44434 15.672 8.38997C15.8896 8.5512 16.1319 8.73102 16.3697 8.89172L19.2819 10.7719C19.4633 10.883 19.6223 10.9948 19.7768 11.1035C19.9364 11.2156 20.0908 11.3244 20.2382 11.4061C20.3514 11.4689 20.4199 11.169 20.7497 10.974C20.9991 10.8266 21.2597 10.6726 21.5265 10.5436H21.5298C22.5352 10.0575 24.4482 9.36631 25.4901 8.98993C25.8459 8.86153 26.0118 8.81737 26.0483 8.79641C26.2371 8.68672 26.7934 4.59111 27.1961 2.73005L27.3748 1.90347L27.4823 1.424L27.9726 1.28294C28.7305 1.06502 31.2227 0.838797 33.3792 0.829964C35.0526 0.823109 36.5965 0.964037 37.1978 1.36428C37.8965 1.82964 38.3211 4.18969 38.6982 6.28831C38.9016 7.42008 39.0894 8.46419 39.1942 8.85059L45.0054 11.298L45.0286 11.3124L45.491 11.0059C47.1098 9.93332 50.8944 7.42575 51.4986 7.45792C51.8135 7.4744 52.1667 7.64934 52.5 7.87807C52.9096 8.159 53.3406 8.53775 53.4897 8.67182L53.7034 8.86562C53.8412 8.99125 53.9163 9.05954 54.1117 9.21761C54.3544 9.41351 54.4685 9.54995 54.5969 9.7038C54.6517 9.76945 54.7107 9.83998 54.7848 9.91552L54.783 9.9171C54.9383 10.0749 55.161 10.2831 55.3836 10.4916C55.8481 10.9265 56.3155 11.364 56.6907 11.8693C56.9649 12.2385 57.1981 12.5283 57.3908 12.7676C58.0726 13.6143 58.3802 13.9965 58.2214 14.7742C58.1207 15.267 57.8028 15.7418 57.2241 16.6064C56.7731 17.2804 56.1442 18.22 55.3377 19.5793C55.2154 19.7857 55.0917 19.972 54.9632 20.1653C54.7582 20.4739 54.539 20.8037 54.43 21.0396C54.3998 21.1048 54.6447 21.2699 54.7947 21.5081L54.7962 21.5072C54.8903 21.6575 54.9775 21.7967 55.042 21.9238C55.3305 22.4899 55.5984 23.0768 55.8478 23.6878C56.0917 24.285 56.3166 24.9065 56.5245 25.5553C56.6647 25.9928 56.713 26.1539 56.7559 26.2961C56.8867 26.731 56.9355 26.9256 56.9418 26.9309C56.9594 26.9455 57.0953 26.9452 57.4186 27.0002V27.0035C57.7237 27.0553 58.115 27.122 58.5775 27.2237C59.2903 27.3805 60.1295 27.5747 60.9644 27.7677C61.3235 27.8509 61.6886 27.9353 62.6565 28.1536C64.6436 28.6013 64.6497 28.7686 64.7611 31.8568L64.7832 32.4505C64.8143 33.2547 64.8192 34.1887 64.7846 35.1076C64.7546 35.9099 64.6945 36.7018 64.5962 37.3895C64.3973 38.7825 63.8812 38.8736 62.8821 39.05C62.7558 39.0723 62.6161 39.0971 62.4922 39.1254C61.7713 39.2903 61.1516 39.4162 60.528 39.5424V39.5429ZM20.2634 55.8232L20.1632 55.8746L20.1307 55.9192C20.1857 55.8745 20.4183 55.7492 20.2636 55.8233L20.2634 55.8232ZM26.8066 56.9601C26.8031 56.9586 26.7999 56.9571 26.8066 56.9601V56.9601ZM26.0469 58.4407L26.0301 58.433L26.0469 58.4437V58.4407Z" fill="black"/>
<path d="M55.9723 38.9402C57.3165 38.5051 58.7539 38.2138 60.1678 37.9272C60.8601 37.7869 61.5462 37.6478 62.0912 37.5231C62.2855 37.4786 62.435 37.4521 62.5695 37.4285C62.7526 37.3962 62.8475 37.3793 62.8772 37.1705C62.9686 36.5333 63.0241 35.7971 63.0521 35.0501C63.0852 34.1718 63.0804 33.2787 63.0507 32.5095L63.0287 31.9092C62.9605 30.0238 62.9568 29.9215 62.2555 29.7634L60.5566 29.3712C59.8068 29.1978 59.0539 29.0236 58.1901 28.8335C57.7088 28.7277 57.3743 28.6707 57.1135 28.6262L57.1129 28.6295C56.486 28.5229 56.1543 28.4664 55.8003 28.1723C55.4164 27.8532 55.3101 27.4996 55.0845 26.7491C55.0051 26.4853 54.909 26.1657 54.8667 26.034C54.6753 25.4362 54.4639 24.8537 54.231 24.283C54.0037 23.7263 53.7539 23.1804 53.4793 22.6416C53.4414 22.5671 53.3776 22.4648 53.3083 22.3545V22.3512C52.9534 21.7842 52.5133 21.081 52.8402 20.3745C52.9933 20.0433 53.2531 19.6527 53.4958 19.287C53.6306 19.0843 53.7598 18.8897 53.8295 18.7721C54.6707 17.3542 55.307 16.4035 55.7634 15.7216C56.2243 15.0331 56.4773 14.6551 56.5163 14.4645C56.5273 14.4104 56.367 14.2111 56.0117 13.77C55.8066 13.5152 55.5578 13.2064 55.2709 12.82C54.9822 12.431 54.5737 12.0488 54.1677 11.6686C53.9646 11.4784 53.7616 11.2887 53.518 11.0408H53.5147C53.3912 10.9153 53.312 10.8203 53.2383 10.7321C53.1652 10.6444 53.1001 10.5665 52.9911 10.4786C52.7633 10.2945 52.6712 10.2104 52.5011 10.0554L52.2979 9.87123C52.1728 9.75864 51.8039 9.43302 51.4882 9.21655C51.3926 9.15103 51.4656 9.1099 51.404 9.10674C51.3997 9.1066 47.9564 11.3879 46.4833 12.364C46.26 12.5119 46.1038 12.6157 45.8684 12.7689C45.0285 13.3156 44.9777 13.2824 44.2666 12.8129H44.2631L44.1813 12.7587L37.9743 10.1449L37.835 9.9585C37.5206 9.53809 37.2664 8.12565 36.9864 6.56727C36.6662 4.78583 36.306 2.78252 36.2062 2.71608C35.9344 2.5352 34.753 2.47337 33.3862 2.47904C31.7356 2.48577 29.9118 2.61879 28.958 2.76947L28.8949 3.06082C28.4459 5.13466 27.4047 9.94347 26.9519 10.2063C26.8507 10.265 26.5493 10.3742 26.1017 10.5358C25.0926 10.9003 23.2403 11.5696 22.3139 12.017L22.3146 12.0182C22.0965 12.1237 21.8771 12.2534 21.6669 12.3775C20.8685 12.8493 20.1547 13.2713 19.3685 12.8353C19.1459 12.7119 18.9482 12.5728 18.7439 12.4292C18.6109 12.3357 18.4742 12.2394 18.3379 12.1552C17.4081 11.4887 16.316 10.9122 15.3847 10.246C15.0648 10.0303 14.8225 9.85079 14.6052 9.6897C14.0649 9.28906 13.7788 9.07734 13.4586 9.34021L13.4308 9.36302C13.1193 9.61851 12.945 9.76154 12.6359 10.0603C12.4618 10.2284 12.3036 10.35 12.1482 10.4695C12.0179 10.5697 11.8898 10.6681 11.7818 10.7851C11.6435 10.9344 11.5622 11.0265 11.4872 11.1114C11.3486 11.2684 11.2245 11.4089 11.0265 11.6088L10.9661 11.6697C10.6889 11.9495 10.5533 12.0863 10.1734 12.4431C10.0551 12.5553 9.95117 12.692 9.84665 12.8297C9.73116 12.9819 9.6147 13.1352 9.45951 13.2999L9.374 13.3893V13.3926C9.09264 13.6872 8.52061 14.2861 8.55295 14.3687C8.74659 14.8628 9.52489 16.0444 10.1731 17.0284C10.5077 17.536 10.8111 17.9968 10.9667 18.2529C11.3036 18.8077 11.5819 19.212 11.7865 19.5094C12.064 19.9127 12.2296 20.1533 12.3193 20.4518C12.4883 21.0128 12.3402 21.3046 11.9745 22.0265L11.9284 22.1176L11.9271 22.117C11.5662 22.8308 11.2189 23.5572 10.9002 24.3106C10.588 25.0482 10.3099 25.7982 10.0839 26.5671V26.5703C10.0522 26.6775 10.0272 26.7743 10.0028 26.8686C9.90759 27.2359 9.81861 27.5795 9.58666 27.9606L9.40107 28.2655L2.33167 29.8876C2.18495 30.8372 2.06446 32.6898 2.05697 34.3841C2.05044 35.8535 2.11402 37.141 2.2978 37.4349C2.30238 37.4422 3.99654 37.7797 5.63241 38.1053C7.17319 38.4121 8.66983 38.7101 9.24089 39.009L9.3704 39.0768L9.46548 39.177C9.53294 39.2248 9.58069 39.2688 9.66037 39.3912L9.66717 39.4009C9.71062 39.47 9.72575 39.504 9.7492 39.5643L9.74726 39.5649C9.75531 39.5852 9.76989 39.6216 9.79709 39.6811C9.87969 39.8621 9.96949 40.1482 10.093 40.543C10.3611 41.3984 10.8005 42.8011 11.4185 44.1288C11.5087 44.3229 11.6295 44.5356 11.7489 44.7464C12.1846 45.515 12.6114 46.2676 12.2378 46.9841C11.8208 47.7829 11.2525 48.6423 10.6994 49.4789C10.3466 50.0127 9.99989 50.5369 9.71298 51.0165C9.49338 51.3832 9.28697 51.666 9.09916 51.9229C8.73493 52.4215 8.48549 52.7627 8.80058 53.1602L9.07459 53.5127C9.43633 53.9804 9.88454 54.5597 10.1971 54.8319L10.2481 54.8772L11.8501 56.5144C11.9582 56.6361 12.0916 56.7402 12.2263 56.8454C12.3778 56.9639 12.5307 57.0835 12.6878 57.2369C13.6919 58.2163 13.8431 58.1082 14.7999 57.4222C14.9275 57.3308 15.0668 57.2306 15.4441 56.9689C15.9319 56.6304 16.4025 56.3351 16.8823 56.034C16.993 55.9645 17.0982 55.8986 17.4042 55.7039C17.5803 55.5918 17.8064 55.4328 18.044 55.2658C18.5276 54.9258 19.0554 54.5546 19.4822 54.3504C20.23 53.9926 20.6259 54.2548 21.1122 54.5768C21.1926 54.63 21.279 54.6872 21.3303 54.7143C21.8486 54.988 22.3679 55.2535 22.9055 55.5065C23.4194 55.7483 23.9451 55.9749 24.4947 56.1804L26.3137 56.7667C26.3544 56.7792 26.4525 56.8139 26.5368 56.8453C26.6053 56.8706 26.6833 56.9024 26.7421 56.9306L26.7428 56.9292L26.8069 56.9605L26.808 56.9584C26.8695 56.987 26.8997 57.001 26.9612 57.0405L26.9646 57.0438C27.0397 57.0923 27.0662 57.118 27.1174 57.1671L27.1191 57.1655C27.1428 57.188 27.1077 57.1592 27.1479 57.195L27.2532 57.289L27.3245 57.4212C27.5828 57.9002 28.0971 60.3921 28.434 62.0256C28.5477 62.5765 28.6414 63.0304 28.6869 63.231C28.7413 63.4722 28.7801 63.6921 28.8148 63.889C28.9455 64.6339 28.969 64.7665 32.5558 64.7652C36.1677 64.764 36.1919 64.6245 36.3245 63.8518C36.3544 63.6778 36.3873 63.4859 36.4387 63.2461C36.5296 62.8216 36.638 62.2776 36.7503 61.7141C37.0342 60.2902 37.3439 58.7365 37.7126 57.5315L37.8039 57.2325L38.0761 57.066C38.411 56.8612 39.1985 56.6136 39.922 56.3865L40.0719 56.3393L35.5528 51.1956L35.4643 51.0889C35.134 51.1558 34.7934 51.2124 34.4283 51.256C33.8935 51.3197 33.2873 51.3554 32.5557 51.3558C29.611 51.357 26.7518 50.5501 24.2542 49.1749C21.6608 47.7472 19.4503 45.7047 17.9338 43.3182C16.2146 40.6125 15.2821 37.6519 15.1367 34.6119C14.9909 31.5717 15.6347 28.4601 17.0674 25.4538C17.4392 24.6734 17.8965 23.9113 18.4152 23.1857C18.9542 22.4316 19.5519 21.7277 20.1824 21.0931C22.9556 18.3013 26.7826 16.412 30.903 15.9916C34.6231 15.6121 38.579 16.4268 42.2116 18.8504H42.215C44.6583 20.4808 46.6283 22.7004 47.9783 25.2759C49.3099 27.8161 50.0392 30.7085 50.0251 33.7276C50.0216 34.4739 49.9809 35.0952 49.9116 35.6485C49.8635 36.0329 49.8007 36.394 49.7266 36.7474L52.2385 38.8019L54.9056 40.9865C55.09 40.3582 55.2813 39.7188 55.4766 39.3511L55.6367 39.0495L55.9725 38.9407L55.9723 38.9402ZM62.6732 60.4317L62.7027 60.428L62.7094 60.4248C63.9595 60.2797 65.0972 60.6845 65.9595 61.4047C66.8003 62.1069 67.3751 63.1156 67.5246 64.2024L67.5289 64.2372L67.5323 64.2405C67.6903 65.4711 67.3349 66.602 66.6798 67.4725C65.9711 68.4139 64.9025 69.0536 63.7401 69.1947C61.6663 69.4464 60.1875 68.4799 59.4078 67.0975C59.1101 66.5695 58.9187 65.9828 58.8398 65.385C58.762 64.7942 58.7946 64.1817 58.9441 63.5949C59.3419 62.0335 60.548 60.6965 62.6698 60.4316H62.6733L62.6732 60.4317ZM62.913 62.0641L62.8939 62.0663C61.6027 62.2279 60.8698 63.0377 60.6289 63.9827C60.5315 64.3655 60.5118 64.777 60.5655 65.1848C60.6184 65.5856 60.7436 65.9731 60.9365 66.3155C61.3996 67.1367 62.2819 67.7102 63.5227 67.5596C64.197 67.4779 64.8315 67.0876 65.2665 66.5096C65.6828 65.9563 65.9083 65.233 65.8065 64.4409L65.8094 64.4405L65.8061 64.4156C65.711 63.7265 65.3482 63.0883 64.8182 62.6456C64.3097 62.221 63.6425 61.9819 62.9135 62.0665L62.9132 62.0641H62.913ZM42.1789 37.5768C42.2737 37.1949 42.3502 36.9105 42.4223 36.6416C42.7367 35.4709 42.9692 34.605 42.8804 33.0363C42.8406 32.3353 42.7322 31.6547 42.5698 31.0009C42.3971 30.3051 42.1611 29.6428 41.8804 29.0215C41.1118 27.3189 39.9393 25.9511 38.5381 24.9563C37.118 23.9481 35.4659 23.3205 33.7629 23.1133C32.0621 22.9063 30.3047 23.117 28.6719 23.7839C27.1206 24.4178 25.6796 25.4671 24.504 26.9657C24.4485 27.0363 24.3673 27.1331 24.2865 27.2293H24.2832C24.1931 27.3365 24.1037 27.4429 24.0342 27.5461C25.5236 27.6318 29.1986 27.5796 31.2463 27.5506C31.7801 27.5431 32.2056 27.537 32.4704 27.5357L32.972 27.5333L33.2244 27.9494C33.4343 28.2952 34.5405 30.2124 35.3194 31.622C35.8424 32.5686 36.246 33.3781 36.2484 33.6164C36.2526 34.0465 35.4426 35.4352 34.6457 36.8011C34.0397 37.8394 33.4421 38.8639 33.3131 39.1966L33.1001 39.7467L32.4843 39.7363C31.3729 39.7175 30.257 39.7219 29.1442 39.7263C28.2468 39.7299 27.9999 39.7336 27.6743 39.7336C27.5194 39.7336 27.1832 39.7192 26.7854 39.7024C25.8826 39.6642 24.5764 39.609 23.9834 39.6559C24.0683 39.7698 24.1866 39.9172 24.2872 40.0426C24.3723 40.1487 24.4514 40.2473 24.5083 40.3273C24.9015 40.8805 25.515 41.474 26.2088 42.0119C26.9414 42.5799 27.7537 43.0796 28.4865 43.4018C29.8696 44.0099 31.1122 44.26 32.3508 44.2504C33.6151 44.2405 34.9088 43.9616 36.3586 43.5159L36.879 43.3559L37.2553 43.7357C37.3188 43.7998 37.3648 43.8427 37.4058 43.881C37.5422 44.0079 37.6452 44.1038 37.8119 44.3268L42.2019 49.5857C42.259 49.657 42.3103 49.7096 42.3604 49.7606C42.4469 49.8488 42.5316 49.9351 42.6469 50.0852L42.6457 50.0861L46.1237 54.2268L46.1254 54.2256C46.2549 54.3713 46.328 54.4712 46.3989 54.5684C46.4588 54.6503 46.5172 54.7299 46.5702 54.787L46.5976 54.816L50.5044 59.4334L50.5349 59.472C50.6604 59.6394 50.6812 59.6621 50.7717 59.7605L50.7734 59.759C50.8139 59.8029 50.708 59.6886 50.909 59.9097C51.0496 60.0645 51.1164 60.1585 51.1837 60.2532C51.227 60.3144 51.271 60.3764 51.3237 60.4358L55.3362 65.1819L55.3599 65.2142C55.4984 65.3949 55.4721 65.3599 55.4772 65.3667C55.5406 65.4515 55.5608 65.4784 55.7265 65.6558L55.7572 65.6946L57.4635 67.7461C57.8018 68.1093 58.0277 68.3854 58.2381 68.6427C58.7436 69.2609 59.1549 69.7638 60.2075 70.375C61.3907 71.0621 62.7129 71.3002 63.9853 71.1158C65.2652 70.9303 66.5003 70.3159 67.5011 69.3C68.1699 68.6212 68.6697 67.8513 68.978 66.9968C69.2787 66.1638 69.3986 65.2448 69.3177 64.2452C69.0974 61.5216 67.4339 60.1354 65.5467 58.5629C65.3294 58.3819 65.1089 58.1981 64.8261 57.9573C64.0951 57.3346 63.2216 56.5504 62.318 55.7393C61.0311 54.584 59.6839 53.3749 58.7824 52.6512L58.7584 52.6285L44.9061 40.5653C44.7237 40.3881 44.701 40.3704 44.598 40.2896H44.5946L44.4724 40.1927C44.3346 40.083 44.2349 39.9853 44.1354 39.8874C44.075 39.8279 44.0139 39.7682 43.9356 39.7057L43.9016 39.6734L42.0642 38.0366L42.1783 37.5767L42.1789 37.5768ZM44.1073 37.0487L43.9881 37.4948L45.0494 38.4402L45.0504 38.4391C45.1878 38.5488 45.2853 38.6445 45.3827 38.7402L45.3861 38.7434C45.4456 38.8019 45.5052 38.8604 45.5836 38.923L45.7027 39.0164L45.7014 39.018C45.8715 39.1515 45.9099 39.1817 46.1433 39.4085L59.903 51.3919L59.9039 51.391C60.8362 52.1393 62.2023 53.3656 63.5077 54.5373C64.4447 55.3781 65.3509 56.1919 65.9817 56.7293C66.1782 56.8968 66.4355 57.1109 66.6888 57.3221C68.8611 59.1323 70.776 60.7282 71.0507 64.1225C71.15 65.3509 70.9992 66.4904 70.6226 67.5334C70.2342 68.6096 69.6059 69.5781 68.7652 70.4312C67.4899 71.7257 65.9008 72.5109 64.2439 72.751C62.5788 72.9922 60.8499 72.6816 59.3044 71.784C57.9731 71.0108 57.4765 70.4037 56.8661 69.6576C56.6453 69.3876 56.4082 69.0977 56.1569 68.8283L54.4304 66.7539L54.4295 66.7548C54.2175 66.528 54.1807 66.479 54.0645 66.3235L53.985 66.2158L49.9994 61.5023C49.8729 61.3598 49.8078 61.2682 49.7437 61.1778C49.6972 61.1123 49.651 61.0473 49.5982 60.9891C49.5083 60.8902 49.5786 60.9699 49.4694 60.8515V60.8483C49.3304 60.6978 49.2964 60.6609 49.1396 60.4519L45.246 55.8503C45.115 55.7068 45.0447 55.6107 44.9728 55.5122C44.918 55.4374 44.8615 55.3602 44.8011 55.2922L44.7875 55.2729L41.2718 51.0874L41.248 51.0614C41.1935 50.9905 41.1425 50.9387 41.0906 50.8857C41.0147 50.8082 40.9367 50.7286 40.8335 50.6008L36.4384 45.3365L36.3657 45.2427C34.968 45.6434 33.6738 45.8888 32.3648 45.8989C30.8684 45.9105 29.3861 45.6168 27.7599 44.9017C26.9013 44.5242 25.9582 43.946 25.1152 43.2921C24.2919 42.6537 23.5545 41.9363 23.0683 41.2522C23.0198 41.1838 22.9659 41.1169 22.9083 41.045C22.4438 40.4663 21.8278 39.6987 22.3159 38.7498L22.3897 38.6059L22.506 38.5042C23.1967 37.9 25.4334 37.9947 26.8605 38.0552C27.1745 38.0684 27.4393 38.0797 27.6746 38.0797L29.1376 38.0791C30.0746 38.0754 31.0136 38.0717 31.9463 38.0813C32.2314 37.5419 32.6791 36.7749 33.1309 36.0005C33.818 34.823 34.5163 33.6338 34.5163 33.63C34.5158 33.5642 34.1985 33.1413 33.7843 32.3919C33.1666 31.2738 32.3791 29.8959 31.9692 29.1897L31.2668 29.1994C28.6646 29.2363 23.556 29.3088 22.766 29.0042L22.3929 28.8602L22.2666 28.4968C21.8976 27.4342 22.408 26.825 22.93 26.2041L22.9279 26.2025C22.9823 26.1376 23.0374 26.072 23.1114 25.9777C24.4789 24.2345 26.1648 23.0098 27.9858 22.2659C29.9051 21.4819 31.9743 21.2347 33.9804 21.479C35.9844 21.7229 37.921 22.456 39.5777 23.6322C41.2151 24.7945 42.5831 26.3887 43.4773 28.3694C43.7949 29.0726 44.0632 29.8275 44.2617 30.627C44.4442 31.3623 44.5668 32.1393 44.613 32.9532C44.7164 34.7814 44.4576 35.7459 44.1075 37.0497L44.1073 37.0487ZM60.528 39.5429C59.2976 39.7923 58.0488 40.0455 56.9015 40.3885C56.7943 40.6837 56.6722 41.1 56.5532 41.5054C56.4173 41.9689 56.2848 42.42 56.1671 42.7236C56.0061 43.0821 55.8582 43.4565 55.7057 43.8194L51.1105 40.0553L47.8076 37.3544L47.9243 36.8689C48.032 36.4212 48.1216 35.9663 48.1858 35.4539C48.2512 34.9316 48.2897 34.3684 48.2926 33.7206C48.3053 30.9711 47.6391 28.3328 46.4225 26.0119C45.1992 23.6785 43.4195 21.6708 41.2164 20.2006L41.2175 20.199C37.9573 18.0249 34.414 17.2933 31.0864 17.6328C27.3836 18.0105 23.942 19.7109 21.4459 22.2236C20.8666 22.8068 20.326 23.4416 19.8485 24.1094C19.3928 24.7471 18.9865 25.4263 18.6502 26.1318C17.3298 28.9031 16.7359 31.7595 16.869 34.5403C17.001 37.2997 17.852 39.994 19.4217 42.4644C20.7885 44.6151 22.7827 46.4571 25.124 47.746C27.37 48.9824 29.9304 49.7083 32.5558 49.7071C33.1763 49.7069 33.7169 49.6732 34.2178 49.6137C34.6998 49.5562 35.1285 49.4738 35.5481 49.3733L36.0305 49.2577L36.4309 49.6489C36.5721 49.7868 36.7105 49.9217 36.8882 50.1393L42.9214 57.0064L41.8874 57.457C41.7595 57.5126 41.8084 57.4935 41.7523 57.5169L41.6156 57.5722C41.3373 57.6827 40.9142 57.8154 40.4657 57.9563C40.0275 58.094 39.5625 58.24 39.2733 58.3454C38.9742 59.4148 38.7046 60.767 38.4556 62.017C38.3514 62.5406 38.2503 63.0466 38.1373 63.5747C38.0986 63.7552 38.0661 63.9447 38.0367 64.1158C37.7028 66.0602 37.6426 66.4107 32.5558 66.4124C27.499 66.4144 27.4387 66.0733 27.1027 64.1595C27.0721 63.9859 27.0381 63.792 26.9884 63.5728C26.9276 63.3042 26.838 62.8701 26.7289 62.3413C26.4496 60.987 26.0419 59.0114 25.8508 58.3623C25.2031 58.1333 24.5303 57.9491 23.8807 57.7241C23.2821 57.501 22.7054 57.2524 22.138 56.9854C21.5893 56.7271 21.0419 56.447 20.488 56.1546C20.3251 56.0686 20.2196 55.9986 20.1205 55.933C20.1177 55.9311 20.1218 55.926 20.1309 55.9188L20.1633 55.8742C19.8649 56.0352 19.4554 56.3232 19.0769 56.5895C18.8231 56.7679 18.5816 56.9378 18.3691 57.0729L17.8334 57.4094C17.369 57.7009 16.9133 57.9868 16.4633 58.2992C16.373 58.3619 16.095 58.5612 15.8461 58.7396C13.8352 60.1811 13.5179 60.4084 11.4443 58.3862C11.3452 58.2893 11.2347 58.2031 11.1255 58.1177C10.9296 57.9646 10.7356 57.813 10.54 57.5962L8.9777 56.0009C8.53837 55.6034 8.06198 54.988 7.67512 54.4877C7.59711 54.3869 7.52479 54.2934 7.41458 54.1545C6.34131 52.8004 6.88197 52.0599 7.67248 50.9784C7.84933 50.7362 8.04421 50.4696 8.20482 50.2012C8.50922 49.6925 8.86749 49.1507 9.232 48.5992C9.75989 47.8008 10.3021 46.9807 10.6821 46.253C10.7063 46.2066 10.4413 45.9175 10.2203 45.5277C10.0815 45.2829 9.94132 45.0357 9.82874 44.7935C9.16787 43.3737 8.70869 41.9078 8.42858 41.0139C8.3353 40.716 8.26325 40.486 8.22633 40.3823C7.71024 40.2041 6.5101 39.965 5.27942 39.7201C3.27488 39.321 1.19885 38.9078 0.803244 38.2743C0.445116 37.7008 0.316996 36.103 0.32463 34.3768C0.334208 32.2163 0.536036 29.7472 0.753411 28.9925L0.889028 28.5214L8.21439 26.8407C8.25257 26.7263 8.28477 26.6021 8.31808 26.4735C8.34807 26.3571 8.37902 26.2378 8.41275 26.1235C8.66039 25.2855 8.95841 24.48 9.29016 23.6959C9.61525 22.9274 9.98088 22.1641 10.3658 21.4027V21.3995L10.412 21.3084C10.5718 20.9929 10.6595 20.9415 10.648 20.9034C10.6312 20.8474 10.5195 20.6852 10.3326 20.4134C10.1263 20.1133 9.84582 19.7057 9.4652 19.0794C9.25824 18.7385 8.99533 18.3397 8.70578 17.8999C8.01298 16.8481 7.18096 15.5852 6.9293 14.9429C6.52689 13.9163 7.57462 12.8198 8.09016 12.2801L8.09183 12.2816L8.169 12.2006C8.26103 12.1026 8.35126 11.9837 8.44065 11.866C8.59209 11.6668 8.74228 11.4688 8.95411 11.2694L8.95758 11.2663C9.29794 10.9464 9.43078 10.8124 9.7027 10.538L9.76309 10.4771C9.91425 10.3245 10.0285 10.1951 10.1559 10.0508C10.2595 9.93345 10.37 9.80834 10.4775 9.6922C10.671 9.48285 10.8641 9.33428 11.0615 9.18254C11.1787 9.0925 11.2985 9.00048 11.3996 8.90266C11.7553 8.55898 11.9495 8.39972 12.2965 8.11497L12.3243 8.09216C13.7222 6.94444 14.3967 7.44434 15.672 8.38997C15.8896 8.5512 16.1319 8.73102 16.3697 8.89172L19.2819 10.7719C19.4633 10.883 19.6223 10.9948 19.7768 11.1035C19.9364 11.2156 20.0908 11.3244 20.2382 11.4061C20.3514 11.4689 20.4199 11.169 20.7497 10.974C20.9991 10.8266 21.2597 10.6726 21.5265 10.5436H21.5298C22.5352 10.0575 24.4482 9.36631 25.4901 8.98993C25.8459 8.86153 26.0118 8.81737 26.0483 8.79641C26.2371 8.68672 26.7934 4.59111 27.1961 2.73005L27.3748 1.90347L27.4823 1.424L27.9726 1.28294C28.7305 1.06502 31.2227 0.838797 33.3792 0.829964C35.0526 0.823109 36.5965 0.964037 37.1978 1.36428C37.8965 1.82964 38.3211 4.18969 38.6982 6.28831C38.9016 7.42008 39.0894 8.46419 39.1942 8.85059L45.0054 11.298L45.0286 11.3124L45.491 11.0059C47.1098 9.93332 50.8944 7.42575 51.4986 7.45792C51.8135 7.4744 52.1667 7.64934 52.5 7.87807C52.9096 8.159 53.3406 8.53775 53.4897 8.67182L53.7034 8.86562C53.8412 8.99125 53.9163 9.05954 54.1117 9.21761C54.3544 9.41351 54.4685 9.54995 54.5969 9.7038C54.6517 9.76945 54.7107 9.83998 54.7848 9.91552L54.783 9.9171C54.9383 10.0749 55.161 10.2831 55.3836 10.4916C55.8481 10.9265 56.3155 11.364 56.6907 11.8693C56.9649 12.2385 57.1981 12.5283 57.3908 12.7676C58.0726 13.6143 58.3802 13.9965 58.2214 14.7742C58.1207 15.267 57.8028 15.7418 57.2241 16.6064C56.7731 17.2804 56.1442 18.22 55.3377 19.5793C55.2154 19.7857 55.0917 19.972 54.9632 20.1653C54.7582 20.4739 54.539 20.8037 54.43 21.0396C54.3998 21.1048 54.6447 21.2699 54.7947 21.5081L54.7962 21.5072C54.8903 21.6575 54.9775 21.7967 55.042 21.9238C55.3305 22.4899 55.5984 23.0768 55.8478 23.6878C56.0917 24.285 56.3166 24.9065 56.5245 25.5553C56.6647 25.9928 56.713 26.1539 56.7559 26.2961C56.8867 26.731 56.9355 26.9256 56.9418 26.9309C56.9594 26.9455 57.0953 26.9452 57.4186 27.0002V27.0035C57.7237 27.0553 58.115 27.122 58.5775 27.2237C59.2903 27.3805 60.1295 27.5747 60.9644 27.7677C61.3235 27.8509 61.6886 27.9353 62.6565 28.1536C64.6436 28.6013 64.6497 28.7686 64.7611 31.8568L64.7832 32.4505C64.8143 33.2547 64.8192 34.1887 64.7846 35.1076C64.7546 35.9099 64.6945 36.7018 64.5962 37.3895C64.3973 38.7825 63.8812 38.8736 62.8821 39.05C62.7558 39.0723 62.6161 39.0971 62.4922 39.1254C61.7713 39.2903 61.1516 39.4162 60.528 39.5424V39.5429ZM20.2634 55.8232L20.1632 55.8746L20.1307 55.9192C20.1857 55.8745 20.4183 55.7492 20.2636 55.8233L20.2634 55.8232ZM26.8066 56.9601C26.8031 56.9586 26.7999 56.9571 26.8066 56.9601V56.9601ZM26.0469 58.4407L26.0301 58.433L26.0469 58.4437V58.4407Z" fill="#FF0000"/>
</svg>
