<svg width="72" height="73" viewBox="0 0 72 73" fill="none" xmlns="http://www.w3.org/2000/svg">
<path d="M1.52921 0.829727H42.1085V31.4039H44.7001V20.0386H45.5809H71.0815V42.0243H69.7786V46.6467H66.3125C66.6714 46.9125 67.0082 47.2068 67.3213 47.5267C68.8377 49.072 69.7786 51.1985 69.7786 53.5337V60.4313C69.7786 62.0246 69.3374 63.5234 68.5752 64.8074C67.8684 65.9967 66.8849 66.9984 65.7179 67.7208V72.8297H64.8372H59.1447V68.9717H13.9008V72.8297H13.0201H7.32761V68.4311C5.79697 67.8514 4.47506 66.8362 3.51208 65.5372C2.45424 64.1106 1.8249 62.3415 1.8249 60.4313V57.8107H0.32431V56.1558H1.8249V53.5352C1.8249 51.2 2.76574 49.0735 4.28215 47.5282C4.59523 47.2098 4.93203 46.9155 5.29097 46.6482H1.8249V42.0258H0.646883V0.832731H1.52763L1.52921 0.829727ZM25.9419 29.0537H37.9498V37.4515H25.0612V29.0537H25.9419ZM36.1899 30.7086H26.8227V35.798H36.1899V30.7086ZM6.04206 5.45362H18.05V17.5292H5.16131V5.45362H6.04206ZM16.2901 7.10855H6.92281V15.8758H16.2901V7.10855ZM20.4993 37.7488V5.15778H22.2608V37.7488H20.4993ZM29.2499 7.70174H38.0716V9.35668H29.2499V7.70174ZM64.7392 36.0533H66.7442V37.7083H64.7392V36.0533ZM60.1773 36.0533H62.1823V37.7083H60.1773V36.0533ZM55.8668 36.0533H57.8718V37.7083H55.8668V36.0533ZM64.7392 31.4294H66.7442V33.0844H64.7392V31.4294ZM60.1773 31.4294H62.1823V33.0844H60.1773V31.4294ZM55.8668 31.4294H57.8718V33.0844H55.8668V31.4294ZM49.2003 24.7887H58.0221V26.4436H49.2003V24.7887ZM36.6848 61.3518V63.214H34.9234V61.3518C33.9904 61.1701 33.1587 60.7076 32.5167 60.0528C31.696 59.2163 31.1885 58.0675 31.1885 56.803C31.1885 55.5386 31.696 54.3882 32.5167 53.5532C33.3548 52.6987 34.517 52.1701 35.8041 52.1701C37.0912 52.1701 38.2534 52.6987 39.0915 53.5532C39.9122 54.3897 40.4197 55.5386 40.4197 56.803C40.4197 58.0675 39.9122 59.2178 39.0915 60.0528C38.4495 60.7076 37.6178 61.1701 36.6848 61.3518ZM37.798 54.6705C37.2857 54.1479 36.5805 53.8236 35.8041 53.8236C35.0277 53.8236 34.3225 54.1464 33.8102 54.6705C33.2789 55.2112 32.95 55.965 32.95 56.803C32.95 57.6395 33.2789 58.3934 33.8102 58.9355C34.3225 59.4581 35.0293 59.7825 35.8041 59.7825C36.5789 59.7825 37.2857 59.4596 37.798 58.9355C38.3293 58.3949 38.6582 57.641 38.6582 56.803C38.6582 55.9666 38.3293 55.2127 37.798 54.6705ZM61.553 64.941V49.2687H63.3145V64.941H65.7211V65.6153C66.2382 65.1513 66.6857 64.6076 67.0446 64.0054C67.6644 62.9632 68.0218 61.7408 68.0218 60.4313V53.5337C68.0218 51.6265 67.2596 49.8965 66.0326 48.6455C64.823 47.4126 63.1595 46.6482 61.3332 46.6482H10.2798C8.45345 46.6482 6.78999 47.4126 5.58034 48.6455C4.3533 49.8965 3.59115 51.6265 3.59115 53.5337V60.4313C3.59115 61.9916 4.10188 63.4348 4.9605 64.5941C5.58825 65.4411 6.39942 66.1349 7.33077 66.611V64.944H9.73741V49.2717H11.4989V64.944H13.9056V67.3198H59.1495V64.944H61.5561L61.553 64.941ZM63.9596 68.6834V66.5959H60.9078V68.9717V71.1748H63.9596V68.6849V68.6834ZM12.1441 68.9702V66.5945H9.09227V68.9687V71.1733H12.1441V68.9702ZM68.0202 42.0228H45.584H44.7033H42.1117H41.2309H3.59115V44.9917H10.2798H61.3332H68.0218V42.0228H68.0202ZM42.1117 33.0573V35.8986H44.7033V33.0573H42.1117ZM42.1117 37.5521V40.3679H44.7033V37.5521H42.1117ZM69.3232 21.6906H46.4648V40.3679H69.3232V21.6906ZM40.3502 2.48316H2.41154V40.3679H40.3502V2.48316Z" fill="#FF0000"/>
</svg>
