<svg width="72" height="73" viewBox="0 0 72 73" fill="none" xmlns="http://www.w3.org/2000/svg">
<path fill-rule="evenodd" clip-rule="evenodd" d="M63.0828 48.1269C62.9322 47.9766 62.7995 47.8088 62.6304 47.6744C60.7283 46.1622 58.5685 45.8995 56.2044 46.5292C55.7448 46.6514 55.3903 46.5922 55.0233 46.3011C53.9986 45.4865 52.8187 44.9444 51.4662 44.829C49.3959 44.6522 47.4443 45.1054 45.6789 46.12C42.7508 47.8027 39.8376 49.5075 36.9108 51.1924C36.621 51.3591 36.2269 51.4741 35.89 51.3887C34.6586 51.0767 33.4284 50.7578 32.2209 50.3722C31.7229 50.2131 31.2805 49.8977 30.8988 49.567C30.1414 48.9111 29.4744 48.1595 28.6858 47.5374C26.9172 46.1417 24.8377 45.3597 22.5611 45.0154C19.9704 44.6233 17.3158 44.5641 14.7782 45.2675C12.8554 45.8004 10.9929 46.5098 9.14955 47.2425C6.37978 48.3433 3.65238 49.5329 0.908195 50.6864C0.613632 50.8102 0.4054 50.9875 0.348646 51.293C0.268311 51.7265 0.382619 52.0708 0.755118 52.3506C1.13281 52.6341 1.51451 52.5654 1.93217 52.3927C5.22791 51.0288 8.51726 49.6525 11.829 48.3224C13.4557 47.6691 15.0392 47.0048 16.8246 46.8317C19.1179 46.6093 21.3985 46.6499 23.6451 47.1711C25.4384 47.5871 26.8585 48.5425 28.0723 49.813C28.8309 50.6075 29.6242 51.4623 30.6822 51.9144C32.6702 52.7635 34.7845 53.2714 36.9419 53.5781C38.9991 53.8704 41.079 53.9646 43.1577 53.9729C44.1353 53.9767 45.0786 54.1574 45.9303 54.6197C46.7948 55.0889 47.1949 55.828 47.1697 56.7488C47.1445 57.6963 46.6381 58.4539 45.6553 58.766C44.8955 59.007 44.0974 59.2218 43.2892 59.237C40.4899 59.2898 37.6897 59.2495 34.89 59.2666C33.2033 59.2769 31.5247 59.0897 29.8716 58.7883C28.2661 58.4953 26.6702 58.1601 25.0699 57.8447C24.4644 57.7255 23.9316 57.9696 23.7694 58.5412C23.6003 59.1376 23.9364 59.5771 24.5587 59.7388C24.8373 59.8113 25.1171 59.8797 25.3984 59.9431C28.1091 60.555 30.862 61.1353 33.6634 61.1892C37.1885 61.2568 40.7149 61.19 44.2392 61.1258C45.236 61.1076 46.2125 60.8127 47.0478 60.3097C51.1225 57.8565 55.1656 55.3588 59.2308 52.8922C60.7643 51.9619 62.2267 50.9544 63.9418 50.3179C64.8922 49.9652 65.847 49.6946 66.881 49.706C67.7831 49.7162 68.4837 50.1288 68.8954 50.8721C69.0384 51.1302 69.086 51.405 69.0281 51.6908C68.9537 52.0575 68.7435 52.3134 68.5556 52.6273C68.4789 52.7556 68.3946 52.8744 68.2755 52.9735C67.5532 53.5747 66.907 54.2428 66.0936 54.7461C61.7675 57.4215 57.427 60.0759 53.0561 62.6875C49.1033 65.0496 45.1006 67.3382 41.1314 69.6764C38.7257 71.0934 36.1494 71.2904 33.5479 70.204C31.2014 69.2243 28.9128 68.1311 26.6119 67.0637C23.9388 65.824 21.2886 64.5425 18.6123 63.3092C16.7638 62.4574 14.9261 62.3587 13.1239 63.373C11.4633 64.3075 9.8318 65.2857 8.20711 66.273C8.06362 66.36 7.93533 66.5877 7.87418 66.7323C7.7223 67.0922 7.9665 67.542 8.26826 67.7698C8.63356 68.0453 8.9549 68.0856 9.36058 67.8525C10.6176 67.1305 11.9165 66.4549 13.1 65.6293C14.8769 64.3895 16.6095 64.4632 18.518 65.3973C22.6563 67.4232 26.8481 69.3522 31.0219 71.3132C32.7221 72.1118 34.5083 72.6831 36.4188 72.8092C38.5706 72.9511 40.5226 72.3487 42.3332 71.2988C46.1973 69.0584 50.0634 66.8204 53.8915 64.5273C58.3375 61.8641 62.7567 59.1622 67.1564 56.4326C68.0852 55.8564 68.9357 55.158 69.7155 54.4163C70.616 53.5599 71.1615 52.5229 71.0684 51.3048C70.9797 50.1459 70.4073 49.1586 69.3742 48.4981C68.4821 47.9272 67.323 47.6634 66.2483 47.7925C65.3434 47.901 64.4501 48.1098 63.5549 48.2715C63.3762 48.3038 63.2063 48.2525 63.082 48.1288L63.0828 48.1269ZM49.3052 55.9502C48.9439 55.2069 48.5829 54.4637 48.2216 53.7205C48.1149 53.5011 48.1985 53.246 48.4183 53.1188C49.2496 52.6387 50.0805 52.1581 50.9119 51.6783C52.5082 50.757 54.0881 49.8115 55.7044 48.9198C57.246 48.0696 58.8706 47.854 60.5061 48.6363C60.6048 48.6834 60.6928 48.7433 60.7863 48.798C60.9382 48.8872 61.0237 49.0299 61.0253 49.1969C61.0269 49.364 60.9442 49.5082 60.7939 49.5997C57.2144 51.7842 53.6341 53.9676 50.0542 56.1521C49.9243 56.2314 49.7788 56.2516 49.6297 56.2113C49.4806 56.1711 49.3695 56.0815 49.3056 55.9498L49.3052 55.9502ZM41.0362 51.1575C41.1565 51.0672 41.2776 50.9598 41.4079 50.8838C43.1321 49.8817 44.84 48.8557 46.5874 47.8889C48.2484 46.9699 50.0358 46.4814 51.9646 46.8818C52.3399 46.9597 52.696 47.1195 53.0569 47.2413C53.246 47.3051 53.3711 47.4539 53.3919 47.6399C53.4126 47.8259 53.3239 47.9956 53.1533 48.0942C52.2884 48.5957 51.4243 49.0983 50.5582 49.5978C49.1705 50.398 47.7768 51.1894 46.3979 52.0025C45.9531 52.2648 45.529 52.332 45.0122 52.2435C44.2552 52.1137 43.4827 52.0647 42.7161 52.0082C42.2728 51.9755 41.8052 52.0044 41.3588 52.0044C41.1378 52.0044 40.9491 51.8806 40.8756 51.6867C40.8016 51.4927 40.8644 51.2862 41.0362 51.1568V51.1575ZM35.7989 37.5873C36.5071 37.5873 37.2157 37.5884 37.9239 37.5873C38.5486 37.5861 38.9279 37.2946 39.0334 36.7211C39.2832 35.3637 39.5294 34.0059 39.7976 32.6515C39.8544 32.3657 40.1082 32.0825 40.3908 31.9614C40.8887 31.7481 41.4111 31.5875 41.9075 31.3727C42.2984 31.2034 42.6413 31.2372 42.9899 31.4718C44.1429 32.2484 45.306 33.0129 46.4678 33.7781C47.1173 34.2063 47.5562 34.1661 48.1205 33.6468C49.1057 32.74 50.0885 31.8308 51.0829 30.9327C51.7276 30.3505 51.788 29.9382 51.2628 29.2542C50.4602 28.2085 49.6705 27.1547 48.8535 26.1184C48.5769 25.7677 48.549 25.4211 48.752 25.0328C48.9491 24.6567 49.1549 24.2737 49.2896 23.8736C49.4522 23.3907 49.7916 23.1508 50.3187 23.0742C51.7228 22.8703 53.1245 22.6543 54.5253 22.4315C55.1189 22.337 55.4658 21.9434 55.4698 21.3858C55.4802 19.9672 55.481 18.5487 55.481 17.1302C55.481 16.5468 55.1305 16.2184 54.5218 16.1266C53.1173 15.9136 51.7152 15.6863 50.3104 15.4744C49.8335 15.4027 49.533 15.1651 49.3831 14.7354C49.2292 14.2936 49.025 13.8665 48.8148 13.4456C48.6337 13.0834 48.6669 12.7566 48.9191 12.4324C49.7692 11.3392 50.6109 10.2403 51.439 9.13269C51.8287 8.61152 51.778 8.16285 51.3011 7.71304C50.3195 6.78684 49.3355 5.86255 48.3523 4.93788C47.6661 4.29258 47.2688 4.26487 46.473 4.7887C45.3923 5.5008 44.3088 6.20949 43.2381 6.9345C42.8308 7.21008 42.4379 7.25753 41.9831 7.03851C41.5158 6.81342 41.0067 6.66044 40.5298 6.45053C40.2589 6.33134 40.019 6.0588 39.9675 5.78208C39.7265 4.48731 39.4923 3.19102 39.2872 1.89093C39.1773 1.19287 38.8128 0.839856 38.0406 0.837579C36.5434 0.833024 35.0463 0.82695 33.5495 0.831126C32.9599 0.832644 32.5978 1.1329 32.4907 1.66774C32.2301 2.96744 31.9707 4.26715 31.7221 5.56875C31.6342 6.02881 31.3996 6.32109 30.9016 6.45622C30.4472 6.57921 30.0087 6.76217 29.5887 6.96297C29.1514 7.17212 28.7617 7.11974 28.374 6.85593C27.2473 6.08878 26.1163 5.32695 24.984 4.56702C24.4172 4.18667 23.936 4.20793 23.4352 4.66533C22.3773 5.631 21.3229 6.60047 20.2722 7.57297C19.765 8.04252 19.755 8.47563 20.1591 9.01502C20.9828 10.1151 21.8033 11.2181 22.6087 12.3303C22.7782 12.5642 22.8001 12.9164 22.6942 13.1776C22.4812 13.7033 22.2486 14.2226 21.9932 14.7316C21.8661 14.9852 21.5699 15.2091 21.2718 15.2569C19.8533 15.4836 18.4305 15.6889 17.0096 15.903C16.311 16.0081 15.9728 16.3669 15.97 17.0266C15.9645 18.4193 15.9585 19.8116 15.9601 21.2043C15.9609 21.7779 16.2726 22.1096 16.8761 22.2136C18.2742 22.4543 19.6735 22.6904 21.0735 22.9219C21.5623 23.0028 21.8861 23.2332 22.0348 23.6861C22.1694 24.0971 22.3477 24.498 22.5583 24.8806C22.7909 25.3039 22.7346 25.6732 22.4364 26.0486C21.6243 27.0723 20.8281 28.1067 20.0252 29.1369C19.5452 29.7526 19.5747 30.1512 20.1483 30.6947C21.1571 31.6513 22.1698 32.6037 23.185 33.5538C23.7082 34.0431 24.1594 34.0693 24.7662 33.6787C25.9368 32.9248 27.1143 32.1801 28.2789 31.4179C28.6398 31.1818 29.0091 31.1605 29.4056 31.3309C29.8305 31.5139 30.2597 31.7063 30.707 31.8373C31.2289 31.9903 31.4855 32.3012 31.5679 32.7961C31.7829 34.0871 32.0203 35.3747 32.2633 36.6611C32.3796 37.2749 32.7673 37.5744 33.4356 37.5801C34.1969 37.5865 34.9587 37.5816 35.7205 37.5816C35.7469 37.5816 35.7725 37.5835 35.7981 37.5869L35.7989 37.5873ZM48.9966 8.96643C48.4834 9.6421 47.9706 10.3181 47.4567 10.993C47.1709 11.3685 46.8831 11.7431 46.5957 12.1178C46.2952 12.5095 46.2532 12.8762 46.5146 13.2975C47.1249 14.2825 47.5862 15.3279 47.8831 16.431C48.0054 16.8846 48.3056 17.1154 48.7968 17.1917C50.0594 17.3876 51.3191 17.5979 52.5833 17.7839C53.1213 17.8628 53.4138 18.1513 53.3867 18.6725C53.3595 19.1868 53.3799 19.7049 53.3799 20.22C53.3799 20.4542 53.202 20.6505 52.9542 20.69C51.9378 20.8524 50.9215 21.016 49.9047 21.1758C49.5218 21.2362 49.1341 21.2749 48.7536 21.3467C48.2392 21.4438 47.9782 21.7194 47.7996 22.1681C47.3951 23.185 46.9411 24.1856 46.4399 25.1649C46.2133 25.6079 46.1853 25.9727 46.4974 26.383C47.2556 27.3798 48.0166 28.3743 48.7748 29.3707C48.8243 29.436 48.8679 29.5036 48.9147 29.5708C49.045 29.7583 49.021 29.9974 48.8551 30.1591C48.3871 30.6158 47.9191 31.0724 47.4511 31.5291C47.2744 31.7018 46.9926 31.7268 46.7836 31.5894C45.6537 30.8458 44.5166 30.1113 43.3971 29.354C42.8891 29.0105 42.4627 29.0428 41.9115 29.2903C40.8975 29.7458 39.8408 30.1109 38.7828 30.4674C38.3084 30.6272 37.9887 30.8454 37.9004 31.3275C37.6837 32.5133 37.4543 33.6977 37.2549 34.8861C37.1713 35.3845 36.8712 35.6605 36.3104 35.6392C35.7541 35.618 35.1949 35.6339 34.6382 35.6339C34.386 35.6339 34.1746 35.468 34.1326 35.2365C33.9 33.9565 33.6626 32.6773 33.4356 31.3966C33.3488 30.9069 33.1114 30.6044 32.5854 30.4757C31.416 30.1899 30.3001 29.7704 29.2637 29.1889C28.8157 28.9376 28.4228 28.9653 27.9955 29.2402C26.8429 29.9811 25.6886 30.7202 24.5347 31.46C24.3277 31.5928 24.0535 31.5682 23.8773 31.4012C23.3989 30.9472 22.9208 30.4928 22.4428 30.0381C22.2674 29.871 22.2466 29.6167 22.3925 29.4269C22.9112 28.7535 23.4288 28.0794 23.9488 27.4068C24.2438 27.0249 24.5487 26.6499 24.8381 26.2642C25.1247 25.8823 25.155 25.5187 24.8996 25.1141C24.2881 24.1435 23.8225 23.1098 23.5339 22.0163C23.4001 21.5091 23.0711 21.2776 22.53 21.1876C21.191 20.9656 19.8521 20.7446 18.5132 20.5237C18.2662 20.4831 18.0899 20.2876 18.0899 20.0542C18.0899 19.4149 18.0899 18.7757 18.0899 18.1365C18.0899 17.9011 18.2694 17.7045 18.5188 17.6662C19.9249 17.4494 21.3325 17.2422 22.7362 17.0133C23.2178 16.9347 23.43 16.6208 23.5911 16.2173C23.9872 15.2251 24.4136 14.2423 24.9072 13.288C25.163 12.793 25.2166 12.3922 24.8661 11.9272C24.0915 10.9 23.3357 9.86036 22.5723 8.82598C22.432 8.63619 22.4556 8.38718 22.6287 8.22244C23.1067 7.76808 23.5847 7.31333 24.0627 6.85859C24.2414 6.68853 24.5219 6.66614 24.729 6.80506C25.5699 7.36837 26.4108 7.93092 27.2513 8.49423C27.5455 8.69123 27.8337 8.89583 28.1334 9.08562C28.5179 9.32894 28.898 9.37145 29.3073 9.15357C30.3912 8.5766 31.5395 8.134 32.7521 7.85159C33.2077 7.74568 33.4603 7.49401 33.5467 7.06432C33.7865 5.86938 34.0379 4.67634 34.2557 3.47761C34.344 2.9906 34.6662 2.76132 35.1869 2.77271C35.7493 2.78486 36.312 2.77651 36.8744 2.77651C37.1282 2.77651 37.3404 2.94504 37.3808 3.17811C37.5906 4.39772 37.812 5.61582 38.0055 6.83771C38.1146 7.52704 38.3856 7.74454 39.0798 7.9704C40.0958 8.30102 41.0898 8.69655 42.0474 9.15395C42.599 9.41738 43.0434 9.46293 43.5586 9.11067C44.107 8.73602 44.6681 8.37731 45.2233 8.01139C45.7628 7.65534 46.3012 7.29853 46.8399 6.94172C47.0466 6.80468 47.3248 6.82746 47.5026 6.99562C47.9826 7.44922 48.463 7.90321 48.9431 8.35682C49.1189 8.5227 49.1409 8.77626 48.9966 8.96643ZM42.9475 19.3026C42.9567 15.4813 39.7724 12.5141 35.6674 12.4905C31.6566 12.4677 28.3716 15.4756 28.3525 19.2084C28.3337 22.9079 31.5143 26.0592 35.5279 26.0668C39.6593 26.0744 42.9379 23.1721 42.9471 19.3026H42.9475ZM35.6134 24.123C32.6902 24.1009 30.4184 21.8997 30.4436 19.1917C30.468 16.5426 32.8632 14.3881 35.7033 14.401C38.5458 14.4139 40.9215 16.6758 40.8983 19.3159C40.8748 21.9897 38.4815 24.1442 35.6138 24.123H35.6134Z" fill="black"/>
<path fill-rule="evenodd" clip-rule="evenodd" d="M63.0828 48.1269C62.9322 47.9766 62.7995 47.8088 62.6304 47.6744C60.7283 46.1622 58.5685 45.8995 56.2044 46.5292C55.7448 46.6514 55.3903 46.5922 55.0233 46.3011C53.9986 45.4865 52.8187 44.9444 51.4662 44.829C49.3959 44.6522 47.4443 45.1054 45.6789 46.12C42.7508 47.8027 39.8376 49.5075 36.9108 51.1924C36.621 51.3591 36.2269 51.4741 35.89 51.3887C34.6586 51.0767 33.4284 50.7578 32.2209 50.3722C31.7229 50.2131 31.2805 49.8977 30.8988 49.567C30.1414 48.9111 29.4744 48.1595 28.6858 47.5374C26.9172 46.1417 24.8377 45.3597 22.5611 45.0154C19.9704 44.6233 17.3158 44.5641 14.7782 45.2675C12.8554 45.8004 10.9929 46.5098 9.14955 47.2425C6.37978 48.3433 3.65238 49.5329 0.908195 50.6864C0.613632 50.8102 0.4054 50.9875 0.348646 51.293C0.268311 51.7265 0.382619 52.0708 0.755118 52.3506C1.13281 52.6341 1.51451 52.5654 1.93217 52.3927C5.22791 51.0288 8.51726 49.6525 11.829 48.3224C13.4557 47.6691 15.0392 47.0048 16.8246 46.8317C19.1179 46.6093 21.3985 46.6499 23.6451 47.1711C25.4384 47.5871 26.8585 48.5425 28.0723 49.813C28.8309 50.6075 29.6242 51.4623 30.6822 51.9144C32.6702 52.7635 34.7845 53.2714 36.9419 53.5781C38.9991 53.8704 41.079 53.9646 43.1577 53.9729C44.1353 53.9767 45.0786 54.1574 45.9303 54.6197C46.7948 55.0889 47.1949 55.828 47.1697 56.7488C47.1445 57.6963 46.6381 58.4539 45.6553 58.766C44.8955 59.007 44.0974 59.2218 43.2892 59.237C40.4899 59.2898 37.6897 59.2495 34.89 59.2666C33.2033 59.2769 31.5247 59.0897 29.8716 58.7883C28.2661 58.4953 26.6702 58.1601 25.0699 57.8447C24.4644 57.7255 23.9316 57.9696 23.7694 58.5412C23.6003 59.1376 23.9364 59.5771 24.5587 59.7388C24.8373 59.8113 25.1171 59.8797 25.3984 59.9431C28.1091 60.555 30.862 61.1353 33.6634 61.1892C37.1885 61.2568 40.7149 61.19 44.2392 61.1258C45.236 61.1076 46.2125 60.8127 47.0478 60.3097C51.1225 57.8565 55.1656 55.3588 59.2308 52.8922C60.7643 51.9619 62.2267 50.9544 63.9418 50.3179C64.8922 49.9652 65.847 49.6946 66.881 49.706C67.7831 49.7162 68.4837 50.1288 68.8954 50.8721C69.0384 51.1302 69.086 51.405 69.0281 51.6908C68.9537 52.0575 68.7435 52.3134 68.5556 52.6273C68.4789 52.7556 68.3946 52.8744 68.2755 52.9735C67.5532 53.5747 66.907 54.2428 66.0936 54.7461C61.7675 57.4215 57.427 60.0759 53.0561 62.6875C49.1033 65.0496 45.1006 67.3382 41.1314 69.6764C38.7257 71.0934 36.1494 71.2904 33.5479 70.204C31.2014 69.2243 28.9128 68.1311 26.6119 67.0637C23.9388 65.824 21.2886 64.5425 18.6123 63.3092C16.7638 62.4574 14.9261 62.3587 13.1239 63.373C11.4633 64.3075 9.8318 65.2857 8.20711 66.273C8.06362 66.36 7.93533 66.5877 7.87418 66.7323C7.7223 67.0922 7.9665 67.542 8.26826 67.7698C8.63356 68.0453 8.9549 68.0856 9.36058 67.8525C10.6176 67.1305 11.9165 66.4549 13.1 65.6293C14.8769 64.3895 16.6095 64.4632 18.518 65.3973C22.6563 67.4232 26.8481 69.3522 31.0219 71.3132C32.7221 72.1118 34.5083 72.6831 36.4188 72.8092C38.5706 72.9511 40.5226 72.3487 42.3332 71.2988C46.1973 69.0584 50.0634 66.8204 53.8915 64.5273C58.3375 61.8641 62.7567 59.1622 67.1564 56.4326C68.0852 55.8564 68.9357 55.158 69.7155 54.4163C70.616 53.5599 71.1615 52.5229 71.0684 51.3048C70.9797 50.1459 70.4073 49.1586 69.3742 48.4981C68.4821 47.9272 67.323 47.6634 66.2483 47.7925C65.3434 47.901 64.4501 48.1098 63.5549 48.2715C63.3762 48.3038 63.2063 48.2525 63.082 48.1288L63.0828 48.1269ZM49.3052 55.9502C48.9439 55.2069 48.5829 54.4637 48.2216 53.7205C48.1149 53.5011 48.1985 53.246 48.4183 53.1188C49.2496 52.6387 50.0805 52.1581 50.9119 51.6783C52.5082 50.757 54.0881 49.8115 55.7044 48.9198C57.246 48.0696 58.8706 47.854 60.5061 48.6363C60.6048 48.6834 60.6928 48.7433 60.7863 48.798C60.9382 48.8872 61.0237 49.0299 61.0253 49.1969C61.0269 49.364 60.9442 49.5082 60.7939 49.5997C57.2144 51.7842 53.6341 53.9676 50.0542 56.1521C49.9243 56.2314 49.7788 56.2516 49.6297 56.2113C49.4806 56.1711 49.3695 56.0815 49.3056 55.9498L49.3052 55.9502ZM41.0362 51.1575C41.1565 51.0672 41.2776 50.9598 41.4079 50.8838C43.1321 49.8817 44.84 48.8557 46.5874 47.8889C48.2484 46.9699 50.0358 46.4814 51.9646 46.8818C52.3399 46.9597 52.696 47.1195 53.0569 47.2413C53.246 47.3051 53.3711 47.4539 53.3919 47.6399C53.4126 47.8259 53.3239 47.9956 53.1533 48.0942C52.2884 48.5957 51.4243 49.0983 50.5582 49.5978C49.1705 50.398 47.7768 51.1894 46.3979 52.0025C45.9531 52.2648 45.529 52.332 45.0122 52.2435C44.2552 52.1137 43.4827 52.0647 42.7161 52.0082C42.2728 51.9755 41.8052 52.0044 41.3588 52.0044C41.1378 52.0044 40.9491 51.8806 40.8756 51.6867C40.8016 51.4927 40.8644 51.2862 41.0362 51.1568V51.1575ZM35.7989 37.5873C36.5071 37.5873 37.2157 37.5884 37.9239 37.5873C38.5486 37.5861 38.9279 37.2946 39.0334 36.7211C39.2832 35.3637 39.5294 34.0059 39.7976 32.6515C39.8544 32.3657 40.1082 32.0825 40.3908 31.9614C40.8887 31.7481 41.4111 31.5875 41.9075 31.3727C42.2984 31.2034 42.6413 31.2372 42.9899 31.4718C44.1429 32.2484 45.306 33.0129 46.4678 33.7781C47.1173 34.2063 47.5562 34.1661 48.1205 33.6468C49.1057 32.74 50.0885 31.8308 51.0829 30.9327C51.7276 30.3505 51.788 29.9382 51.2628 29.2542C50.4602 28.2085 49.6705 27.1547 48.8535 26.1184C48.5769 25.7677 48.549 25.4211 48.752 25.0328C48.9491 24.6567 49.1549 24.2737 49.2896 23.8736C49.4522 23.3907 49.7916 23.1508 50.3187 23.0742C51.7228 22.8703 53.1245 22.6543 54.5253 22.4315C55.1189 22.337 55.4658 21.9434 55.4698 21.3858C55.4802 19.9672 55.481 18.5487 55.481 17.1302C55.481 16.5468 55.1305 16.2184 54.5218 16.1266C53.1173 15.9136 51.7152 15.6863 50.3104 15.4744C49.8335 15.4027 49.533 15.1651 49.3831 14.7354C49.2292 14.2936 49.025 13.8665 48.8148 13.4456C48.6337 13.0834 48.6669 12.7566 48.9191 12.4324C49.7692 11.3392 50.6109 10.2403 51.439 9.13269C51.8287 8.61152 51.778 8.16285 51.3011 7.71304C50.3195 6.78684 49.3355 5.86255 48.3523 4.93788C47.6661 4.29258 47.2688 4.26487 46.473 4.7887C45.3923 5.5008 44.3088 6.20949 43.2381 6.9345C42.8308 7.21008 42.4379 7.25753 41.9831 7.03851C41.5158 6.81342 41.0067 6.66044 40.5298 6.45053C40.2589 6.33134 40.019 6.0588 39.9675 5.78208C39.7265 4.48731 39.4923 3.19102 39.2872 1.89093C39.1773 1.19287 38.8128 0.839856 38.0406 0.837579C36.5434 0.833024 35.0463 0.82695 33.5495 0.831126C32.9599 0.832644 32.5978 1.1329 32.4907 1.66774C32.2301 2.96744 31.9707 4.26715 31.7221 5.56875C31.6342 6.02881 31.3996 6.32109 30.9016 6.45622C30.4472 6.57921 30.0087 6.76217 29.5887 6.96297C29.1514 7.17212 28.7617 7.11974 28.374 6.85593C27.2473 6.08878 26.1163 5.32695 24.984 4.56702C24.4172 4.18667 23.936 4.20793 23.4352 4.66533C22.3773 5.631 21.3229 6.60047 20.2722 7.57297C19.765 8.04252 19.755 8.47563 20.1591 9.01502C20.9828 10.1151 21.8033 11.2181 22.6087 12.3303C22.7782 12.5642 22.8001 12.9164 22.6942 13.1776C22.4812 13.7033 22.2486 14.2226 21.9932 14.7316C21.8661 14.9852 21.5699 15.2091 21.2718 15.2569C19.8533 15.4836 18.4305 15.6889 17.0096 15.903C16.311 16.0081 15.9728 16.3669 15.97 17.0266C15.9645 18.4193 15.9585 19.8116 15.9601 21.2043C15.9609 21.7779 16.2726 22.1096 16.8761 22.2136C18.2742 22.4543 19.6735 22.6904 21.0735 22.9219C21.5623 23.0028 21.8861 23.2332 22.0348 23.6861C22.1694 24.0971 22.3477 24.498 22.5583 24.8806C22.7909 25.3039 22.7346 25.6732 22.4364 26.0486C21.6243 27.0723 20.8281 28.1067 20.0252 29.1369C19.5452 29.7526 19.5747 30.1512 20.1483 30.6947C21.1571 31.6513 22.1698 32.6037 23.185 33.5538C23.7082 34.0431 24.1594 34.0693 24.7662 33.6787C25.9368 32.9248 27.1143 32.1801 28.2789 31.4179C28.6398 31.1818 29.0091 31.1605 29.4056 31.3309C29.8305 31.5139 30.2597 31.7063 30.707 31.8373C31.2289 31.9903 31.4855 32.3012 31.5679 32.7961C31.7829 34.0871 32.0203 35.3747 32.2633 36.6611C32.3796 37.2749 32.7673 37.5744 33.4356 37.5801C34.1969 37.5865 34.9587 37.5816 35.7205 37.5816C35.7469 37.5816 35.7725 37.5835 35.7981 37.5869L35.7989 37.5873ZM48.9966 8.96643C48.4834 9.6421 47.9706 10.3181 47.4567 10.993C47.1709 11.3685 46.8831 11.7431 46.5957 12.1178C46.2952 12.5095 46.2532 12.8762 46.5146 13.2975C47.1249 14.2825 47.5862 15.3279 47.8831 16.431C48.0054 16.8846 48.3056 17.1154 48.7968 17.1917C50.0594 17.3876 51.3191 17.5979 52.5833 17.7839C53.1213 17.8628 53.4138 18.1513 53.3867 18.6725C53.3595 19.1868 53.3799 19.7049 53.3799 20.22C53.3799 20.4542 53.202 20.6505 52.9542 20.69C51.9378 20.8524 50.9215 21.016 49.9047 21.1758C49.5218 21.2362 49.1341 21.2749 48.7536 21.3467C48.2392 21.4438 47.9782 21.7194 47.7996 22.1681C47.3951 23.185 46.9411 24.1856 46.4399 25.1649C46.2133 25.6079 46.1853 25.9727 46.4974 26.383C47.2556 27.3798 48.0166 28.3743 48.7748 29.3707C48.8243 29.436 48.8679 29.5036 48.9147 29.5708C49.045 29.7583 49.021 29.9974 48.8551 30.1591C48.3871 30.6158 47.9191 31.0724 47.4511 31.5291C47.2744 31.7018 46.9926 31.7268 46.7836 31.5894C45.6537 30.8458 44.5166 30.1113 43.3971 29.354C42.8891 29.0105 42.4627 29.0428 41.9115 29.2903C40.8975 29.7458 39.8408 30.1109 38.7828 30.4674C38.3084 30.6272 37.9887 30.8454 37.9004 31.3275C37.6837 32.5133 37.4543 33.6977 37.2549 34.8861C37.1713 35.3845 36.8712 35.6605 36.3104 35.6392C35.7541 35.618 35.1949 35.6339 34.6382 35.6339C34.386 35.6339 34.1746 35.468 34.1326 35.2365C33.9 33.9565 33.6626 32.6773 33.4356 31.3966C33.3488 30.9069 33.1114 30.6044 32.5854 30.4757C31.416 30.1899 30.3001 29.7704 29.2637 29.1889C28.8157 28.9376 28.4228 28.9653 27.9955 29.2402C26.8429 29.9811 25.6886 30.7202 24.5347 31.46C24.3277 31.5928 24.0535 31.5682 23.8773 31.4012C23.3989 30.9472 22.9208 30.4928 22.4428 30.0381C22.2674 29.871 22.2466 29.6167 22.3925 29.4269C22.9112 28.7535 23.4288 28.0794 23.9488 27.4068C24.2438 27.0249 24.5487 26.6499 24.8381 26.2642C25.1247 25.8823 25.155 25.5187 24.8996 25.1141C24.2881 24.1435 23.8225 23.1098 23.5339 22.0163C23.4001 21.5091 23.0711 21.2776 22.53 21.1876C21.191 20.9656 19.8521 20.7446 18.5132 20.5237C18.2662 20.4831 18.0899 20.2876 18.0899 20.0542C18.0899 19.4149 18.0899 18.7757 18.0899 18.1365C18.0899 17.9011 18.2694 17.7045 18.5188 17.6662C19.9249 17.4494 21.3325 17.2422 22.7362 17.0133C23.2178 16.9347 23.43 16.6208 23.5911 16.2173C23.9872 15.2251 24.4136 14.2423 24.9072 13.288C25.163 12.793 25.2166 12.3922 24.8661 11.9272C24.0915 10.9 23.3357 9.86036 22.5723 8.82598C22.432 8.63619 22.4556 8.38718 22.6287 8.22244C23.1067 7.76808 23.5847 7.31333 24.0627 6.85859C24.2414 6.68853 24.5219 6.66614 24.729 6.80506C25.5699 7.36837 26.4108 7.93092 27.2513 8.49423C27.5455 8.69123 27.8337 8.89583 28.1334 9.08562C28.5179 9.32894 28.898 9.37145 29.3073 9.15357C30.3912 8.5766 31.5395 8.134 32.7521 7.85159C33.2077 7.74568 33.4603 7.49401 33.5467 7.06432C33.7865 5.86938 34.0379 4.67634 34.2557 3.47761C34.344 2.9906 34.6662 2.76132 35.1869 2.77271C35.7493 2.78486 36.312 2.77651 36.8744 2.77651C37.1282 2.77651 37.3404 2.94504 37.3808 3.17811C37.5906 4.39772 37.812 5.61582 38.0055 6.83771C38.1146 7.52704 38.3856 7.74454 39.0798 7.9704C40.0958 8.30102 41.0898 8.69655 42.0474 9.15395C42.599 9.41738 43.0434 9.46293 43.5586 9.11067C44.107 8.73602 44.6681 8.37731 45.2233 8.01139C45.7628 7.65534 46.3012 7.29853 46.8399 6.94172C47.0466 6.80468 47.3248 6.82746 47.5026 6.99562C47.9826 7.44922 48.463 7.90321 48.9431 8.35682C49.1189 8.5227 49.1409 8.77626 48.9966 8.96643ZM42.9475 19.3026C42.9567 15.4813 39.7724 12.5141 35.6674 12.4905C31.6566 12.4677 28.3716 15.4756 28.3525 19.2084C28.3337 22.9079 31.5143 26.0592 35.5279 26.0668C39.6593 26.0744 42.9379 23.1721 42.9471 19.3026H42.9475ZM35.6134 24.123C32.6902 24.1009 30.4184 21.8997 30.4436 19.1917C30.468 16.5426 32.8632 14.3881 35.7033 14.401C38.5458 14.4139 40.9215 16.6758 40.8983 19.3159C40.8748 21.9897 38.4815 24.1442 35.6138 24.123H35.6134Z" fill="#FF0000"/>
</svg>
