<svg width="72" height="73" viewBox="0 0 72 73" fill="none" xmlns="http://www.w3.org/2000/svg">
<path fill-rule="evenodd" clip-rule="evenodd" d="M32.9431 29.0345C33.2117 29.0345 35.0912 29.2882 35.7097 29.2882C35.9896 29.2882 36.0314 29.2248 36.382 29.2219C36.6495 29.2197 36.8381 29.2335 37.0991 29.1984C37.5415 29.1389 38.0594 29.0345 38.4764 29.0345V31.8804H32.9431V31.2479H35.3723V29.8567H32.9431V29.0346V29.0345ZM0.32431 54.1373V68.4542H14.6808V68.9347C14.6808 69.7618 14.5613 70.5013 14.9724 71.2673C15.41 72.082 16.4631 72.8193 17.4582 72.8193C18.1459 72.8193 18.497 72.8346 19.1342 72.5499C19.7546 72.2728 20.2328 71.8427 20.5418 71.2671C20.9529 70.5013 20.8336 69.7618 20.8336 68.9345V68.454H25.3841C25.9334 68.454 26.3706 69.066 26.6936 69.4224C26.8167 69.5586 26.9591 69.6293 27.1062 69.7415C27.4641 70.0147 27.8148 70.3033 28.1795 70.567C28.6612 70.9154 29.1841 71.1949 29.7176 71.4671C31.7751 72.5169 33.822 72.819 36.1513 72.819C39.2307 72.819 41.9445 71.6378 44.2483 69.7813C44.3987 69.6602 44.5668 69.5671 44.7052 69.4351C45.067 69.0905 45.4364 68.4539 46.0213 68.4539H50.5719V68.9344C50.5719 70.1507 50.4267 71.0942 51.4419 72.0201C52.3619 72.8591 53.8727 73.0644 55.0254 72.5496C55.2752 72.438 55.6569 72.2004 55.8547 72.0201C56.8697 71.0942 56.7247 70.1507 56.7247 68.9344V68.4539H71.0811V54.137H56.7247V53.6565C56.7247 52.8292 56.8441 52.0897 56.433 51.3239C55.0184 48.6893 50.5719 49.6499 50.5719 52.4288V54.1369H46.0213C45.6147 54.1369 45.3266 53.813 45.0805 53.5513C44.819 53.2734 44.5658 53.0081 44.2485 52.7833C43.9361 52.562 43.0847 51.8155 42.7519 51.7343L42.3682 51.6408V45.5369H45.4233C46.9037 45.5369 48.3501 44.2873 48.3501 42.88C48.3501 41.6809 47.8267 40.745 46.6506 40.2196C46.3547 40.0873 45.9008 39.9504 45.5728 39.9504H39.9754V36.8068H43.0306C43.206 36.8068 43.5645 36.495 43.5645 36.3323V32.5273C43.5645 32.1667 43.2299 31.892 42.8541 31.892H39.9773C39.9734 31.6809 39.9607 31.4595 39.9607 31.2475C39.9607 30.3833 39.9607 29.519 39.9607 28.6547C40.3149 28.4953 41.2207 28.2199 41.9725 27.8841C43.2577 27.3103 44.2883 26.5805 45.3074 25.6974L46.0153 25.0331C48.1786 22.9276 49.8122 19.526 49.8122 16.5762C49.8122 14.3196 49.6976 13.3963 48.8756 11.2568C47.7482 8.32322 45.366 5.97409 42.522 4.437C41.7528 4.02131 41.1571 3.87084 40.6353 3.61227C40.6353 3.14977 40.6846 2.00149 40.582 1.70186C40.4427 1.29474 39.9201 0.829727 39.3533 0.829727H32.0657C31.4995 0.829727 31.0058 1.28263 30.8548 1.65535C30.7018 2.03309 30.7836 3.09011 30.7836 3.61227C30.474 3.76555 30.1638 3.85607 29.8397 3.99237L28.0974 4.88917C27.8017 5.06711 27.5921 5.22201 27.3018 5.40822C24.7338 7.05489 22.5266 10.3292 21.9261 13.1443C21.4738 15.2653 21.4865 16.8015 21.9377 18.9221C22.3801 21.0008 23.7826 23.5003 25.3699 25.0016C25.7852 25.3946 25.3677 25.0833 26.0766 25.6673C27.4828 26.8261 28.5008 27.5833 30.3779 28.2762C30.7045 28.3967 31.1552 28.5185 31.4584 28.6548C31.4584 29.5191 31.4584 30.3834 31.4584 31.2476C31.4584 31.4598 31.4455 31.681 31.4418 31.8922H28.5513C28.1757 31.8922 27.8409 32.1669 27.8409 32.5275V36.3325C27.8409 36.4952 28.1994 36.8069 28.3748 36.8069H31.43V39.9505H25.9822C24.5018 39.9505 23.0555 41.2001 23.0555 42.6074C23.0555 43.1836 23.065 43.46 23.3472 43.985C23.4697 44.2132 23.7308 44.5608 23.9255 44.7383C24.263 45.0462 24.6412 45.2597 25.0911 45.3898C26.0943 45.68 27.471 45.5372 28.5247 45.5372H29.0374V51.6411L28.6597 51.7329C28.2787 51.8528 26.8343 53.0132 26.5211 53.3219C26.2038 53.6351 25.929 54.1371 25.3841 54.1371H20.8336V52.4291C20.8336 51.0218 19.3871 49.772 17.9068 49.772C16.6248 49.772 15.5641 50.2227 14.9726 51.324C14.5615 52.09 14.6809 52.8294 14.6809 53.6566V54.1371H0.324466L0.32431 54.1373ZM37.4642 22.9635H38.8811V21.6355H37.4642V22.9635ZM32.5383 22.9635H33.9552V21.6355H32.5383V22.9635ZM39.5559 22.9635H41.0404V21.6355H39.5559V22.9635ZM30.379 22.9635H31.8635V21.6355H30.379V22.9635ZM37.4642 24.9872H39.421C39.5765 24.9872 39.6234 24.9431 39.6234 24.7974V23.5958H37.4642V24.9872ZM31.7961 24.7974C31.7961 24.9431 31.8431 24.9872 31.9986 24.9872H33.9554V23.5958H31.7961V24.7974ZM34.7651 16.8925C34.7651 16.6803 35.119 15.7061 35.2083 15.4106C35.3169 15.0506 35.6158 14.2197 35.6424 13.9202H35.7775C35.8134 14.3256 36.0751 14.9503 36.1971 15.3609C36.7191 17.1175 36.8702 16.6574 36.2212 17.4981C36.0672 17.6979 35.8922 17.9798 35.71 18.0941C35.5059 17.9661 34.7653 16.9228 34.7653 16.8925H34.7651ZM33.2132 17.0189C33.2132 17.3154 33.5387 17.6319 33.6856 17.841L34.8611 19.3952C35.9027 20.7579 36.4218 19.5349 37.1165 18.6535C38.3455 17.0949 38.3463 17.2776 37.9787 16.2204C37.6365 15.2362 36.6507 11.7889 36.4075 11.2425C36.2303 10.8442 36.0535 10.7581 35.6421 10.7581C35.0282 10.7581 34.9139 11.5389 34.7564 12.0151C34.5807 12.5469 34.3958 13.1557 34.2397 13.681L33.2129 17.0188L33.2132 17.0189ZM24.7784 15.6909C24.7784 17.5845 24.9591 18.4525 25.6453 20.0641C25.8589 20.5658 26.9627 22.6472 27.68 22.6472C28.1386 22.6472 28.6063 22.0634 28.8777 21.8093C29.1649 21.5402 29.7087 21.0903 29.9068 20.8133L28.9467 19.879L27.763 20.9543L27.2519 20.0761C27.0873 19.767 26.9616 19.4779 26.8212 19.1518C26.4564 18.3042 26.451 17.7754 26.263 17.0189H27.9499V15.6909H26.1955C26.4227 14.7768 26.2607 13.8568 27.0944 12.2963C27.2151 12.0705 27.5626 11.503 27.6126 11.3274C27.9409 11.49 28.5182 11.9972 28.9623 12.2759C29.1826 11.8855 29.5839 11.5584 29.8395 11.2009C29.5708 11.0322 28.7528 10.3181 28.49 10.2524C28.792 9.8296 29.3004 9.47224 29.7195 9.12802C30.6507 8.3631 31.7173 7.91196 32.8842 7.54072C33.3623 7.38877 34.3787 7.16594 34.9677 7.15353V9.114H36.4521V7.15353C38.0748 7.18735 40.4013 8.09271 41.6273 9.07014C41.9846 9.35499 42.6241 9.85544 42.8625 10.1892C42.7485 10.3487 42.4271 10.5517 42.2463 10.6867C42.1317 10.7723 42.0761 10.8163 41.9479 10.9129C41.7589 11.0551 41.8063 11.0813 41.5804 11.1377C41.6463 11.4026 41.8032 11.512 41.9764 11.715C42.1255 11.8899 42.3348 12.1042 42.4575 12.2759C42.6579 12.1502 42.8785 11.9556 43.0942 11.7976C43.3392 11.6182 43.4966 11.4049 43.8071 11.3274C43.8386 11.4383 44.4567 12.4925 44.7436 13.2956C45.2242 14.641 45.0273 14.8988 45.2242 15.6909H43.4698V17.0189H45.1567C45.1083 17.5628 44.8042 18.6413 44.608 19.1607L43.9399 20.4949C43.8413 20.652 43.7282 20.7433 43.6723 20.9398C43.3055 20.7096 42.8529 20.0269 42.4576 19.928L41.4967 20.7981C41.6354 20.9877 43.3394 22.6473 43.6048 22.6473C44.0146 22.6473 44.1933 22.5465 44.4295 22.2188C46.0503 19.9705 46.6413 18.625 46.6413 15.5646C46.6413 13.5422 45.3977 10.6817 43.9604 9.28677C41.9019 7.28909 39.4673 5.76248 35.5749 5.76248C33.1156 5.76248 30.1012 6.81375 28.4065 8.4037C28.1131 8.67881 28.0681 8.59198 27.7474 8.98774L26.8312 10.0262C25.6964 11.5 24.7784 13.6562 24.7784 15.6911V15.6909ZM35.1025 4.18139C37.478 4.18139 39.1593 4.37306 41.2214 5.33985C42.1118 5.75746 43.2521 6.39466 43.9935 7.04219C44.1454 7.1748 44.2003 7.25321 44.3755 7.37991C45.0906 7.89705 46.2858 9.40934 46.7531 10.2107C47.3287 11.1981 47.8049 12.2092 48.0535 13.3554C48.2686 14.3462 48.4601 15.5422 48.3382 16.5853C48.2481 17.3571 48.3665 17.3222 48.0871 18.5003C47.7668 19.8506 47.1192 21.5036 46.2563 22.6023C44.7554 24.5131 43.5396 25.6174 41.3331 26.6521C39.9367 27.3069 38.3629 27.7468 36.4523 27.8958V21.6352H34.9679V27.8958C32.9683 27.7399 30.602 27.086 29.1647 26.1886L28.2335 25.6068C27.0496 24.8516 26.0565 23.751 25.222 22.6744C24.3669 21.5707 23.6523 19.9336 23.3561 18.605C23.2331 18.0526 23.0196 16.6097 23.0196 16.0071C23.0196 15.4102 23.2297 14.0051 23.3442 13.4612C23.4327 13.0413 23.5366 12.7015 23.6726 12.3144C23.9216 11.6061 24.245 10.9333 24.6205 10.2937C24.824 9.947 24.9817 9.71442 25.2105 9.39235C25.768 8.60867 26.0565 8.40754 26.5905 7.7764L27.7631 6.78864C27.9213 6.66785 28.055 6.56241 28.2099 6.44841C29.8112 5.26912 32.8486 4.18124 35.1025 4.18124V4.18139ZM32.201 3.23276V2.15772H39.2187V3.23276C37.9356 2.65581 33.4841 2.65581 32.201 3.23276ZM51.9396 69.8211V52.7699C51.9396 51.8958 52.4941 51.1118 53.4671 51.0138C54.0012 50.9599 54.5272 51.1476 54.8915 51.5169C55.2312 51.8613 55.3578 52.3097 55.3578 52.7697V69.821C55.3578 72.1601 51.9396 72.1601 51.9396 69.821V69.8211ZM38.6084 36.8068V39.9504H32.7975V36.8068H38.6084ZM16.0481 69.8211V52.7699C16.0481 50.3956 19.4663 50.4518 19.4663 52.7699V69.8211C19.4663 72.1602 16.0481 72.1602 16.0481 69.8211ZM56.7248 55.3585H69.7141V67.2325H56.7248V55.3585ZM20.8336 55.3585H26.2814C26.291 55.3585 26.3007 55.3578 26.3101 55.3563C26.5538 55.3204 26.9374 54.8646 27.0857 54.694C27.2689 54.4834 27.4512 54.2667 27.6593 54.0767L27.6798 54.0581L29.5562 52.6912L29.5833 52.676C29.7823 52.5646 30.4047 52.2725 30.4047 52.0196V45.537H41.0012V52.0196C41.0012 52.2628 41.6015 52.5558 41.7839 52.6667C42.705 53.2257 43.2501 53.6116 43.9899 54.3722C44.2001 54.5881 44.6663 55.1762 44.9199 55.302C45.0082 55.3458 45.1003 55.3584 45.1993 55.3584H50.5723V67.2323H45.1993C44.839 67.2323 44.7426 67.4157 44.5298 67.6564C43.6662 68.6333 42.7212 69.4403 41.5449 70.0793C40.0568 70.8875 38.2727 71.4802 36.5411 71.5292C36.2545 71.5374 36.0053 71.6031 35.703 71.6031C35.4152 71.6031 35.1961 71.5421 34.9293 71.53C34.63 71.5165 34.356 71.4988 34.0592 71.4612C31.4688 71.1324 29.1027 69.9552 27.3416 68.1517C27.1327 67.9378 26.7509 67.4357 26.504 67.3C26.4103 67.2486 26.3146 67.2323 26.2069 67.2323H20.8339V55.3584L20.8336 55.3585ZM1.69149 55.3585H14.6808V67.2325H1.69149V55.3585ZM26.356 41.1719H45.0494C47.5955 41.1719 47.5955 44.3155 45.0494 44.3155H26.356C23.8099 44.3155 23.8099 41.1719 26.356 41.1719ZM42.1973 35.5853H29.2082V33.1137H42.1973V35.5853Z" fill="black"/>
<path fill-rule="evenodd" clip-rule="evenodd" d="M32.9431 29.0345C33.2117 29.0345 35.0912 29.2882 35.7097 29.2882C35.9896 29.2882 36.0314 29.2248 36.382 29.2219C36.6495 29.2197 36.8381 29.2335 37.0991 29.1984C37.5415 29.1389 38.0594 29.0345 38.4764 29.0345V31.8804H32.9431V31.2479H35.3723V29.8567H32.9431V29.0346V29.0345ZM0.32431 54.1373V68.4542H14.6808V68.9347C14.6808 69.7618 14.5613 70.5013 14.9724 71.2673C15.41 72.082 16.4631 72.8193 17.4582 72.8193C18.1459 72.8193 18.497 72.8346 19.1342 72.5499C19.7546 72.2728 20.2328 71.8427 20.5418 71.2671C20.9529 70.5013 20.8336 69.7618 20.8336 68.9345V68.454H25.3841C25.9334 68.454 26.3706 69.066 26.6936 69.4224C26.8167 69.5586 26.9591 69.6293 27.1062 69.7415C27.4641 70.0147 27.8148 70.3033 28.1795 70.567C28.6612 70.9154 29.1841 71.1949 29.7176 71.4671C31.7751 72.5169 33.822 72.819 36.1513 72.819C39.2307 72.819 41.9445 71.6378 44.2483 69.7813C44.3987 69.6602 44.5668 69.5671 44.7052 69.4351C45.067 69.0905 45.4364 68.4539 46.0213 68.4539H50.5719V68.9344C50.5719 70.1507 50.4267 71.0942 51.4419 72.0201C52.3619 72.8591 53.8727 73.0644 55.0254 72.5496C55.2752 72.438 55.6569 72.2004 55.8547 72.0201C56.8697 71.0942 56.7247 70.1507 56.7247 68.9344V68.4539H71.0811V54.137H56.7247V53.6565C56.7247 52.8292 56.8441 52.0897 56.433 51.3239C55.0184 48.6893 50.5719 49.6499 50.5719 52.4288V54.1369H46.0213C45.6147 54.1369 45.3266 53.813 45.0805 53.5513C44.819 53.2734 44.5658 53.0081 44.2485 52.7833C43.9361 52.562 43.0847 51.8155 42.7519 51.7343L42.3682 51.6408V45.5369H45.4233C46.9037 45.5369 48.3501 44.2873 48.3501 42.88C48.3501 41.6809 47.8267 40.745 46.6506 40.2196C46.3547 40.0873 45.9008 39.9504 45.5728 39.9504H39.9754V36.8068H43.0306C43.206 36.8068 43.5645 36.495 43.5645 36.3323V32.5273C43.5645 32.1667 43.2299 31.892 42.8541 31.892H39.9773C39.9734 31.6809 39.9607 31.4595 39.9607 31.2475C39.9607 30.3833 39.9607 29.519 39.9607 28.6547C40.3149 28.4953 41.2207 28.2199 41.9725 27.8841C43.2577 27.3103 44.2883 26.5805 45.3074 25.6974L46.0153 25.0331C48.1786 22.9276 49.8122 19.526 49.8122 16.5762C49.8122 14.3196 49.6976 13.3963 48.8756 11.2568C47.7482 8.32322 45.366 5.97409 42.522 4.437C41.7528 4.02131 41.1571 3.87084 40.6353 3.61227C40.6353 3.14977 40.6846 2.00149 40.582 1.70186C40.4427 1.29474 39.9201 0.829727 39.3533 0.829727H32.0657C31.4995 0.829727 31.0058 1.28263 30.8548 1.65535C30.7018 2.03309 30.7836 3.09011 30.7836 3.61227C30.474 3.76555 30.1638 3.85607 29.8397 3.99237L28.0974 4.88917C27.8017 5.06711 27.5921 5.22201 27.3018 5.40822C24.7338 7.05489 22.5266 10.3292 21.9261 13.1443C21.4738 15.2653 21.4865 16.8015 21.9377 18.9221C22.3801 21.0008 23.7826 23.5003 25.3699 25.0016C25.7852 25.3946 25.3677 25.0833 26.0766 25.6673C27.4828 26.8261 28.5008 27.5833 30.3779 28.2762C30.7045 28.3967 31.1552 28.5185 31.4584 28.6548C31.4584 29.5191 31.4584 30.3834 31.4584 31.2476C31.4584 31.4598 31.4455 31.681 31.4418 31.8922H28.5513C28.1757 31.8922 27.8409 32.1669 27.8409 32.5275V36.3325C27.8409 36.4952 28.1994 36.8069 28.3748 36.8069H31.43V39.9505H25.9822C24.5018 39.9505 23.0555 41.2001 23.0555 42.6074C23.0555 43.1836 23.065 43.46 23.3472 43.985C23.4697 44.2132 23.7308 44.5608 23.9255 44.7383C24.263 45.0462 24.6412 45.2597 25.0911 45.3898C26.0943 45.68 27.471 45.5372 28.5247 45.5372H29.0374V51.6411L28.6597 51.7329C28.2787 51.8528 26.8343 53.0132 26.5211 53.3219C26.2038 53.6351 25.929 54.1371 25.3841 54.1371H20.8336V52.4291C20.8336 51.0218 19.3871 49.772 17.9068 49.772C16.6248 49.772 15.5641 50.2227 14.9726 51.324C14.5615 52.09 14.6809 52.8294 14.6809 53.6566V54.1371H0.324466L0.32431 54.1373ZM37.4642 22.9635H38.8811V21.6355H37.4642V22.9635ZM32.5383 22.9635H33.9552V21.6355H32.5383V22.9635ZM39.5559 22.9635H41.0404V21.6355H39.5559V22.9635ZM30.379 22.9635H31.8635V21.6355H30.379V22.9635ZM37.4642 24.9872H39.421C39.5765 24.9872 39.6234 24.9431 39.6234 24.7974V23.5958H37.4642V24.9872ZM31.7961 24.7974C31.7961 24.9431 31.8431 24.9872 31.9986 24.9872H33.9554V23.5958H31.7961V24.7974ZM34.7651 16.8925C34.7651 16.6803 35.119 15.7061 35.2083 15.4106C35.3169 15.0506 35.6158 14.2197 35.6424 13.9202H35.7775C35.8134 14.3256 36.0751 14.9503 36.1971 15.3609C36.7191 17.1175 36.8702 16.6574 36.2212 17.4981C36.0672 17.6979 35.8922 17.9798 35.71 18.0941C35.5059 17.9661 34.7653 16.9228 34.7653 16.8925H34.7651ZM33.2132 17.0189C33.2132 17.3154 33.5387 17.6319 33.6856 17.841L34.8611 19.3952C35.9027 20.7579 36.4218 19.5349 37.1165 18.6535C38.3455 17.0949 38.3463 17.2776 37.9787 16.2204C37.6365 15.2362 36.6507 11.7889 36.4075 11.2425C36.2303 10.8442 36.0535 10.7581 35.6421 10.7581C35.0282 10.7581 34.9139 11.5389 34.7564 12.0151C34.5807 12.5469 34.3958 13.1557 34.2397 13.681L33.2129 17.0188L33.2132 17.0189ZM24.7784 15.6909C24.7784 17.5845 24.9591 18.4525 25.6453 20.0641C25.8589 20.5658 26.9627 22.6472 27.68 22.6472C28.1386 22.6472 28.6063 22.0634 28.8777 21.8093C29.1649 21.5402 29.7087 21.0903 29.9068 20.8133L28.9467 19.879L27.763 20.9543L27.2519 20.0761C27.0873 19.767 26.9616 19.4779 26.8212 19.1518C26.4564 18.3042 26.451 17.7754 26.263 17.0189H27.9499V15.6909H26.1955C26.4227 14.7768 26.2607 13.8568 27.0944 12.2963C27.2151 12.0705 27.5626 11.503 27.6126 11.3274C27.9409 11.49 28.5182 11.9972 28.9623 12.2759C29.1826 11.8855 29.5839 11.5584 29.8395 11.2009C29.5708 11.0322 28.7528 10.3181 28.49 10.2524C28.792 9.8296 29.3004 9.47224 29.7195 9.12802C30.6507 8.3631 31.7173 7.91196 32.8842 7.54072C33.3623 7.38877 34.3787 7.16594 34.9677 7.15353V9.114H36.4521V7.15353C38.0748 7.18735 40.4013 8.09271 41.6273 9.07014C41.9846 9.35499 42.6241 9.85544 42.8625 10.1892C42.7485 10.3487 42.4271 10.5517 42.2463 10.6867C42.1317 10.7723 42.0761 10.8163 41.9479 10.9129C41.7589 11.0551 41.8063 11.0813 41.5804 11.1377C41.6463 11.4026 41.8032 11.512 41.9764 11.715C42.1255 11.8899 42.3348 12.1042 42.4575 12.2759C42.6579 12.1502 42.8785 11.9556 43.0942 11.7976C43.3392 11.6182 43.4966 11.4049 43.8071 11.3274C43.8386 11.4383 44.4567 12.4925 44.7436 13.2956C45.2242 14.641 45.0273 14.8988 45.2242 15.6909H43.4698V17.0189H45.1567C45.1083 17.5628 44.8042 18.6413 44.608 19.1607L43.9399 20.4949C43.8413 20.652 43.7282 20.7433 43.6723 20.9398C43.3055 20.7096 42.8529 20.0269 42.4576 19.928L41.4967 20.7981C41.6354 20.9877 43.3394 22.6473 43.6048 22.6473C44.0146 22.6473 44.1933 22.5465 44.4295 22.2188C46.0503 19.9705 46.6413 18.625 46.6413 15.5646C46.6413 13.5422 45.3977 10.6817 43.9604 9.28677C41.9019 7.28909 39.4673 5.76248 35.5749 5.76248C33.1156 5.76248 30.1012 6.81375 28.4065 8.4037C28.1131 8.67881 28.0681 8.59198 27.7474 8.98774L26.8312 10.0262C25.6964 11.5 24.7784 13.6562 24.7784 15.6911V15.6909ZM35.1025 4.18139C37.478 4.18139 39.1593 4.37306 41.2214 5.33985C42.1118 5.75746 43.2521 6.39466 43.9935 7.04219C44.1454 7.1748 44.2003 7.25321 44.3755 7.37991C45.0906 7.89705 46.2858 9.40934 46.7531 10.2107C47.3287 11.1981 47.8049 12.2092 48.0535 13.3554C48.2686 14.3462 48.4601 15.5422 48.3382 16.5853C48.2481 17.3571 48.3665 17.3222 48.0871 18.5003C47.7668 19.8506 47.1192 21.5036 46.2563 22.6023C44.7554 24.5131 43.5396 25.6174 41.3331 26.6521C39.9367 27.3069 38.3629 27.7468 36.4523 27.8958V21.6352H34.9679V27.8958C32.9683 27.7399 30.602 27.086 29.1647 26.1886L28.2335 25.6068C27.0496 24.8516 26.0565 23.751 25.222 22.6744C24.3669 21.5707 23.6523 19.9336 23.3561 18.605C23.2331 18.0526 23.0196 16.6097 23.0196 16.0071C23.0196 15.4102 23.2297 14.0051 23.3442 13.4612C23.4327 13.0413 23.5366 12.7015 23.6726 12.3144C23.9216 11.6061 24.245 10.9333 24.6205 10.2937C24.824 9.947 24.9817 9.71442 25.2105 9.39235C25.768 8.60867 26.0565 8.40754 26.5905 7.7764L27.7631 6.78864C27.9213 6.66785 28.055 6.56241 28.2099 6.44841C29.8112 5.26912 32.8486 4.18124 35.1025 4.18124V4.18139ZM32.201 3.23276V2.15772H39.2187V3.23276C37.9356 2.65581 33.4841 2.65581 32.201 3.23276ZM51.9396 69.8211V52.7699C51.9396 51.8958 52.4941 51.1118 53.4671 51.0138C54.0012 50.9599 54.5272 51.1476 54.8915 51.5169C55.2312 51.8613 55.3578 52.3097 55.3578 52.7697V69.821C55.3578 72.1601 51.9396 72.1601 51.9396 69.821V69.8211ZM38.6084 36.8068V39.9504H32.7975V36.8068H38.6084ZM16.0481 69.8211V52.7699C16.0481 50.3956 19.4663 50.4518 19.4663 52.7699V69.8211C19.4663 72.1602 16.0481 72.1602 16.0481 69.8211ZM56.7248 55.3585H69.7141V67.2325H56.7248V55.3585ZM20.8336 55.3585H26.2814C26.291 55.3585 26.3007 55.3578 26.3101 55.3563C26.5538 55.3204 26.9374 54.8646 27.0857 54.694C27.2689 54.4834 27.4512 54.2667 27.6593 54.0767L27.6798 54.0581L29.5562 52.6912L29.5833 52.676C29.7823 52.5646 30.4047 52.2725 30.4047 52.0196V45.537H41.0012V52.0196C41.0012 52.2628 41.6015 52.5558 41.7839 52.6667C42.705 53.2257 43.2501 53.6116 43.9899 54.3722C44.2001 54.5881 44.6663 55.1762 44.9199 55.302C45.0082 55.3458 45.1003 55.3584 45.1993 55.3584H50.5723V67.2323H45.1993C44.839 67.2323 44.7426 67.4157 44.5298 67.6564C43.6662 68.6333 42.7212 69.4403 41.5449 70.0793C40.0568 70.8875 38.2727 71.4802 36.5411 71.5292C36.2545 71.5374 36.0053 71.6031 35.703 71.6031C35.4152 71.6031 35.1961 71.5421 34.9293 71.53C34.63 71.5165 34.356 71.4988 34.0592 71.4612C31.4688 71.1324 29.1027 69.9552 27.3416 68.1517C27.1327 67.9378 26.7509 67.4357 26.504 67.3C26.4103 67.2486 26.3146 67.2323 26.2069 67.2323H20.8339V55.3584L20.8336 55.3585ZM1.69149 55.3585H14.6808V67.2325H1.69149V55.3585ZM26.356 41.1719H45.0494C47.5955 41.1719 47.5955 44.3155 45.0494 44.3155H26.356C23.8099 44.3155 23.8099 41.1719 26.356 41.1719ZM42.1973 35.5853H29.2082V33.1137H42.1973V35.5853Z" fill="#FF0000"/>
</svg>
